<svg width="526" height="184" viewBox="0 0 526 184" fill="none" xmlns="http://www.w3.org/2000/svg">
<g clip-path="url(#clip0_1313_625)">
<path d="M55.8917 11.7637C55.9624 11.6019 56.0557 11.4749 56.2019 11.3757C59.8297 8.9134 112.547 -24.2682 237.426 35.6102C355.384 92.1709 474.328 25.9806 495.701 12.7474C496.41 12.3089 497.597 13.4373 497.217 14.1782L475.735 55.9942C475.396 56.6531 475.86 57.4376 476.6 57.4478C482.187 57.5254 501.668 57.7492 523.483 57.4596C524.388 57.4476 524.902 58.4774 524.244 59.0985C509.591 72.9242 406.186 167.698 325 167.698C237.426 167.698 190 147.243 134 131.774C78.8565 116.542 52.3175 111.432 18.5779 117.034C17.8502 117.155 17.2343 116.479 17.4363 115.77L30.4996 69.8989L55.8917 11.7637Z" fill="#EC3750"/>
<path d="M83.681 33.1134C82.3522 40.6272 79.8017 53.5343 74.4403 70.2139C63.3043 96.8165 82.2963 92.4774 87.7346 81.4248C90.958 75.3216 94.2732 68.6988 94.2732 68.6988L111.341 75.2423C111.341 75.2423 109.967 83.0147 108.562 89.4452C103.2 106.125 118.831 104.122 123.154 91.8002C125.078 85.4635 134.045 59.0058 136.518 45.0144C140.246 36.0609 127.486 27.8866 121.713 42.3542C118.627 47.6801 113.616 59.3439 113.616 59.3439C113.616 59.3439 99.5278 54.1386 99.3601 53.5737C98.81 52.1391 100.536 48.4391 100.612 44.9777C99.7539 21.032 85.4675 23.0081 83.681 33.1134Z" fill="white" stroke="white" stroke-width="0.25" stroke-miterlimit="10"/>
<path d="M158.883 51.7621C163.227 43.1141 168.215 41.6637 171.924 42.0578C173.524 42.1902 175.7 45.4446 177.364 48.5707C182.812 69.1584 173.049 107.023 171.323 109.566C165.381 119.164 154.955 117.349 158.915 106.98C160.765 100.681 162.746 94.9549 162.746 94.9549L149.25 93.4479C138.645 114.05 129.11 105.424 134.605 96.5239C140.483 86.0976 153.006 63.2713 158.883 51.7621ZM154.422 78.2421L167.726 80.5128C167.726 80.5128 171.421 57.0863 167.266 59.5577L154.422 78.2421Z" fill="white" stroke="white" stroke-width="0.25" stroke-miterlimit="10"/>
<path d="M227.586 72.5188C229.347 67.5571 225.686 56.3372 212.896 58.2083C194.371 58.3418 187.962 90.8 187.962 90.8C187.962 90.8 184.883 106.52 189.742 117.234C194.158 127.564 204.87 127.597 206.95 127.859C219.109 124.203 214.945 116.102 212.866 115.841C210.219 115.706 206.628 116.14 203.728 113.775C198.811 109.812 199.687 99.7527 200.755 94.3424C203.27 85.2435 208.805 67.1748 217.63 71.5961C222.926 78.3637 226.642 75.2549 227.586 72.5188Z" fill="white" stroke="white" stroke-width="0.25" stroke-miterlimit="10"/>
<path d="M239.769 71.6846C236.512 81.6317 240.596 92.1084 232.451 111.044C230.509 115.669 225.746 124.151 225.182 125.355C220.67 133.903 229.832 138.941 239.924 124.006C242.369 120.588 245.062 111.845 245.062 111.845L249.453 111.352C249.453 111.352 253.289 128.233 254.172 135.465C255.116 142.444 267.478 146.414 267.658 132.717C267.217 128.022 265.581 121.675 262.503 113.612C262.503 113.612 260.492 107.707 258.547 106.94C258.547 106.94 272.341 93.2219 273.656 87.8979C275.033 82.3219 272.521 78.4454 261.735 87.5438C250.95 96.6433 249.697 99.5562 249.697 99.5562C249.697 99.5562 252.262 88.0851 252.006 79.3961C252.943 70.2041 242.587 63.5125 239.769 71.6846Z" fill="white" stroke="white" stroke-width="0.25" stroke-miterlimit="10"/>
<path d="M309.24 88.9685C304.612 93.5563 301.7 102.169 302.025 115.2C302.67 134.651 310.729 145.826 324.489 143.601C338.249 141.375 335.009 131.447 333.741 131.118C332.727 130.855 332.472 129.688 326.83 131.81C321.186 133.931 316.937 131.454 313.38 122.821C311.03 116.979 309.756 105.63 314.001 99.291C315.269 97.4146 316.473 96.8993 317.107 96.5122C319.643 94.9652 322.243 96.4644 322.688 96.8547C329.794 101.998 331.185 96.2981 328.645 91.233C323.632 84.1513 316.973 82.7044 309.24 88.9685Z" fill="white" stroke="white" stroke-width="0.25" stroke-miterlimit="10"/>
<path d="M340 89.2622C339.933 81.8789 347.556 76.1872 350.236 92.697C353.546 103.365 352.704 123.993 354.292 125.903C355.88 127.813 367.702 125.147 370.903 124.07C374.103 122.993 380.001 124.407 378.668 127.613C377.589 130.884 374.538 131.195 373.903 131.579C373.267 131.962 346.547 139.883 345.555 134.61C344.563 129.336 344.5 126.909 343.5 117.928C342.5 108.946 340.068 96.6466 340 89.2622Z" fill="white" stroke="white" stroke-width="0.25" stroke-miterlimit="10"/>
<path d="M372.043 82.6536C371.463 77.3159 376.906 74.0547 380.112 79.7859C382.547 84.2287 385.376 103.524 389.352 111.637C391.532 114.922 396.015 115.514 398.128 112.5C400.623 107.943 398.823 96.5589 397.281 87.4253C396.189 83.0503 394.931 79.7061 394.994 77.2631C395.95 69.0372 402.548 70.9864 405.627 79.4172C408.193 88.8117 410.867 103.989 409.526 109.385C408.248 114.523 406.906 121.012 400.246 122.599C398.517 122.98 384.108 125.056 379.04 109.29C374.162 92.7532 372.623 87.9913 372.043 82.6536Z" fill="white" stroke="white" stroke-width="0.25" stroke-miterlimit="10"/>
<path d="M417.228 65.0324C426.089 59.6759 432.737 57.8382 437.93 59.7136C440.97 61.5814 442.936 66.7143 442.116 71.1336C441.169 74.9758 439.587 78.1108 439.587 78.1108C444.843 78.6406 448.692 83.8867 449.692 90.7527C450.692 97.6188 444.224 104.081 432.196 108.081C428.144 109.222 423.839 109.208 423.648 107.798C423.519 105.041 413.307 72.1976 413.307 72.1976C412.988 70.2094 411.911 68.0277 417.228 65.0324ZM420.903 70.8757L425.342 81.2715C425.342 81.2715 436.104 76.9468 434.834 71.1745C433.565 65.4032 426.792 68.8423 420.903 70.8757ZM426.866 89.2869C426.866 89.2869 429.912 102.049 429.786 101.472C429.721 100.639 445.476 97.501 442.116 89.2869C438.754 81.0738 426.866 89.2869 426.866 89.2869Z" fill="white" stroke="white" stroke-width="0.25" stroke-miterlimit="10"/>
<path d="M56.2741 6.96644C56.2741 6.96644 57.3107 5.77385 59.2698 6.02235C61.2289 6.27085 60.7456 8.53142 60.0077 10.0043C59.2698 11.4772 40.6829 49.5884 27.2312 92.5768C13.7796 135.565 14.8081 181.5 14.8081 184H0.0098363C-0.191865 179.5 2.61166 136.251 17.4214 92.5768C32.2312 48.9018 54.3114 8.48438 56.2741 6.96644Z" fill="#D98B51"/>
</g>
<defs>
<clipPath id="clip0_1313_625">
<rect width="526" height="184" fill="white"/>
</clipPath>
</defs>
</svg>
