<svg width="1729" height="190" viewBox="0 0 1729 190" fill="none" xmlns="http://www.w3.org/2000/svg">
<path d="M1735 116H-18V190H1735V116Z" fill="#FDD882"/>
<path d="M922.526 116L896 152.284L922.526 190H950L923.474 152.284L950 116H922.526Z" fill="#EB6E40" fill-opacity="0.28"/>
<path d="M976.526 116L950 152.284L976.526 190H1004L977.474 152.284L1004 116H976.526Z" fill="#EB6E40" fill-opacity="0.28"/>
<path d="M741.526 116L715 152.284L741.526 190H769L742.474 152.284L769 116H741.526Z" fill="#EB6E40" fill-opacity="0.28"/>
<path d="M795.526 116L769 152.284L795.526 190H823L796.474 152.284L823 116H795.526Z" fill="#EB6E40" fill-opacity="0.28"/>
<path d="M560.526 116L534 152.284L560.526 190H588L561.474 152.284L588 116H560.526Z" fill="#EB6E40" fill-opacity="0.28"/>
<path d="M614.526 116L588 152.284L614.526 190H642L615.474 152.284L642 116H614.526Z" fill="#EB6E40" fill-opacity="0.28"/>
<path d="M379.526 116L353 152.284L379.526 190H407L380.474 152.284L407 116H379.526Z" fill="#EB6E40" fill-opacity="0.28"/>
<path d="M433.526 116L407 152.284L433.526 190H461L434.474 152.284L461 116H433.526Z" fill="#EB6E40" fill-opacity="0.28"/>
<path d="M198.526 116L172 152.284L198.526 190H226L199.474 152.284L226 116H198.526Z" fill="#EB6E40" fill-opacity="0.28"/>
<path d="M252.526 116L226 152.284L252.526 190H280L253.474 152.284L280 116H252.526Z" fill="#EB6E40" fill-opacity="0.28"/>
<path d="M17.5264 116L-9 152.284L17.5264 190H45L18.4736 152.284L45 116H17.5264Z" fill="#EB6E40" fill-opacity="0.28"/>
<path d="M71.5264 116L45 152.284L71.5264 190H99L72.4736 152.284L99 116H71.5264Z" fill="#EB6E40" fill-opacity="0.28"/>
<path d="M1103.53 116L1077 152.284L1103.53 190H1131L1104.47 152.284L1131 116H1103.53Z" fill="#EB6E40" fill-opacity="0.28"/>
<path d="M1157.53 116L1131 152.284L1157.53 190H1185L1158.47 152.284L1185 116H1157.53Z" fill="#EB6E40" fill-opacity="0.28"/>
<path d="M1103.53 116L1077 152.284L1103.53 190H1131L1104.47 152.284L1131 116H1103.53Z" fill="#EB6E40" fill-opacity="0.28"/>
<path d="M1157.53 116L1131 152.284L1157.53 190H1185L1158.47 152.284L1185 116H1157.53Z" fill="#EB6E40" fill-opacity="0.28"/>
<path d="M1284.53 116L1258 152.284L1284.53 190H1312L1285.47 152.284L1312 116H1284.53Z" fill="#EB6E40" fill-opacity="0.28"/>
<path d="M1338.53 116L1312 152.284L1338.53 190H1366L1339.47 152.284L1366 116H1338.53Z" fill="#EB6E40" fill-opacity="0.28"/>
<path d="M1465.53 116L1439 152.284L1465.53 190H1493L1466.47 152.284L1493 116H1465.53Z" fill="#EB6E40" fill-opacity="0.28"/>
<path d="M1519.53 116L1493 152.284L1519.53 190H1547L1520.47 152.284L1547 116H1519.53Z" fill="#EB6E40" fill-opacity="0.28"/>
<path d="M1646.53 116L1620 152.284L1646.53 190H1674L1647.47 152.284L1674 116H1646.53Z" fill="#EB6E40" fill-opacity="0.28"/>
<path d="M1700.53 116L1674 152.284L1700.53 190H1728L1701.47 152.284L1728 116H1700.53Z" fill="#EB6E40" fill-opacity="0.28"/>
<path d="M-22.4634 0.275513L1730.27 30.8696L1728.98 104.858L-23.7549 74.2642L-22.4634 0.275513Z" fill="#F78181"/>
<path d="M789.887 14.4551L815.776 51.1964L788.595 88.4439L761.126 87.9644L788.306 50.7169L762.417 13.9757L789.887 14.4551Z" fill="#FF4F50" fill-opacity="0.38"/>
<path d="M735.895 13.5127L761.784 50.254L734.603 87.5014L707.134 87.022L734.314 49.7745L708.425 13.0332L735.895 13.5127Z" fill="#FF4F50" fill-opacity="0.38"/>
<path d="M970.859 17.614L996.748 54.3553L969.568 91.6027L942.098 91.1233L969.279 53.8758L943.39 17.1345L970.859 17.614Z" fill="#FF4F50" fill-opacity="0.38"/>
<path d="M916.867 16.6716L942.756 53.4129L915.576 90.6603L888.106 90.1808L915.287 52.9334L889.398 16.1921L916.867 16.6716Z" fill="#FF4F50" fill-opacity="0.38"/>
<path d="M1151.83 20.7729L1177.72 57.5142L1150.54 94.7616L1123.07 94.2822L1150.25 57.0347L1124.36 20.2934L1151.83 20.7729Z" fill="#FF4F50" fill-opacity="0.38"/>
<path d="M1097.84 19.8305L1123.73 56.5718L1096.55 93.8192L1069.08 93.3397L1096.26 56.0923L1070.37 19.351L1097.84 19.8305Z" fill="#FF4F50" fill-opacity="0.38"/>
<path d="M1332.8 23.9318L1358.69 60.6731L1331.51 97.9205L1304.04 97.441L1331.22 60.1936L1305.33 23.4523L1332.8 23.9318Z" fill="#FF4F50" fill-opacity="0.38"/>
<path d="M1278.81 22.9894L1304.7 59.7307L1277.52 96.9781L1250.05 96.4986L1277.23 59.2512L1251.34 22.5099L1278.81 22.9894Z" fill="#FF4F50" fill-opacity="0.38"/>
<path d="M1513.78 27.0907L1539.67 63.832L1512.48 101.079L1485.02 100.6L1512.2 63.3525L1486.31 26.6112L1513.78 27.0907Z" fill="#FF4F50" fill-opacity="0.38"/>
<path d="M1459.78 26.1482L1485.67 62.8895L1458.49 100.137L1431.02 99.6575L1458.2 62.4101L1432.32 25.6688L1459.78 26.1482Z" fill="#FF4F50" fill-opacity="0.38"/>
<path d="M1694.75 30.2496L1720.64 66.9909L1693.46 104.238L1665.99 103.759L1693.17 66.5114L1667.28 29.7701L1694.75 30.2496Z" fill="#FF4F50" fill-opacity="0.38"/>
<path d="M1640.76 29.3071L1666.65 66.0484L1639.47 103.296L1612 102.816L1639.18 65.5689L1613.29 28.8276L1640.76 29.3071Z" fill="#FF4F50" fill-opacity="0.38"/>
<path d="M608.914 11.2962L634.803 48.0375L607.623 85.285L580.153 84.8055L607.334 47.5581L581.445 10.8168L608.914 11.2962Z" fill="#FF4F50" fill-opacity="0.38"/>
<path d="M554.922 10.3538L580.811 47.0951L553.631 84.3425L526.161 83.8631L553.342 46.6156L527.453 9.87434L554.922 10.3538Z" fill="#FF4F50" fill-opacity="0.38"/>
<path d="M608.914 11.2962L634.803 48.0375L607.623 85.285L580.153 84.8055L607.334 47.5581L581.445 10.8168L608.914 11.2962Z" fill="#FF4F50" fill-opacity="0.38"/>
<path d="M554.922 10.3538L580.811 47.0951L553.631 84.3425L526.161 83.8631L553.342 46.6156L527.453 9.87434L554.922 10.3538Z" fill="#FF4F50" fill-opacity="0.38"/>
<path d="M427.942 8.13736L453.831 44.8787L426.65 82.1261L399.181 81.6466L426.361 44.3992L400.472 7.65788L427.942 8.13736Z" fill="#FF4F50" fill-opacity="0.38"/>
<path d="M373.95 7.19493L399.839 43.9362L372.658 81.1837L345.189 80.7042L372.369 43.4567L346.48 6.71545L373.95 7.19493Z" fill="#FF4F50" fill-opacity="0.38"/>
<path d="M246.969 4.97848L272.858 41.7198L245.678 78.9672L218.208 78.4877L245.389 41.2403L219.5 4.49899L246.969 4.97848Z" fill="#FF4F50" fill-opacity="0.38"/>
<path d="M192.977 4.03605L218.867 40.7773L191.686 78.0248L164.217 77.5453L191.397 40.2979L165.508 3.55656L192.977 4.03605Z" fill="#FF4F50" fill-opacity="0.38"/>
<path d="M65.9968 1.81959L91.8859 38.5609L64.7054 75.8083L37.2359 75.3288L64.4164 38.0814L38.5273 1.34011L65.9968 1.81959Z" fill="#FF4F50" fill-opacity="0.38"/>
<path d="M12.0051 0.877161L37.8941 37.6185L10.7136 74.8659L-16.7559 74.3864L10.4246 37.139L-15.4644 0.39768L12.0051 0.877161Z" fill="#FF4F50" fill-opacity="0.38"/>
<g clip-path="url(#clip0_1272_2465)">
<rect x="-4.02222" y="92.4336" width="1753" height="74" transform="rotate(-2 -4.02222 92.4336)" fill="#FFA44F"/>
<path d="M481.156 75.4908L508.932 110.827L483.738 149.446L456.281 150.405L481.475 111.786L453.699 76.4496L481.156 75.4908Z" fill="#FF00AE" fill-opacity="0.27"/>
<path d="M535.123 73.6062L562.899 108.942L537.705 147.561L510.248 148.52L535.442 109.901L507.666 74.565L535.123 73.6062Z" fill="#FF00AE" fill-opacity="0.27"/>
<path d="M31.7562 106.233L26.9415 111.396L27.3603 123.389L32.175 118.226L33.4649 155.163L22.4316 155.549L21.6811 134.058L-0.193519 134.822L-0.00254901 140.29L-5.09506 145.751L-4.71982 156.497L-15.4653 156.872L-11.9468 153.099L-13.6789 103.497L-1.30249 103.065L-0.558707 124.364L15.3676 123.808L21.1082 117.652L20.5722 102.301L31.6055 101.916L31.7562 106.233ZM81.9007 134.356L90.0509 153.187L77.4826 153.626L73.4783 143.488L52.0833 144.235L48.7001 154.631L40.9288 154.903L36.7074 155.05L55.578 101.271L67.3789 100.859L75.0024 118.363L72.4132 121.24L78.8419 137.537L81.9007 134.356ZM55.4599 133.647L67.1647 133.238L65.3729 128.69L66.9503 127.098L61.6875 113.929L55.4599 133.647ZM132.902 134.304L140.448 141.341L130.63 151.77L107.124 152.591L106.929 152.502L106.932 152.598L101.368 152.792L104.149 149.909L96.2019 142.406L95.5854 124.753L91.4188 129.221L91.2111 123.273L89.5231 121.699L89.2049 112.584L101.338 99.6729L128.681 98.7181L138.213 107.607L131.269 115.054L124.12 108.387L105.795 109.027L101.258 113.892L101.422 118.594L105.585 114.029L106.403 137.439L111.367 142.069L111.275 142.168L125.954 141.655L132.902 134.304ZM176.676 130.278L197.23 149.445L183.414 149.927L170.01 137.427L167.324 140.307L162.76 136.144L165.446 133.264L159.091 127.338L159.52 139.619L154.335 145.179L154.536 150.936L149.547 151.11L149.014 135.855L146.144 138.933L145.983 134.328L145.986 134.424L144.596 133.128L144.308 124.877L148.475 120.409L147.687 97.8623L158.049 97.5004L158.384 107.095L153.199 112.655L153.289 115.245L153.45 119.851L153.447 119.755L174.558 97.116L192.211 96.4996L168.14 122.411L172.112 126.115L169.427 128.995L173.994 133.254L176.676 130.278ZM275.783 129.315L283.329 136.352L273.511 146.781L250.006 147.602L249.81 147.512L249.814 147.608L244.249 147.803L247.03 144.92L239.084 137.417L238.467 119.763L234.3 124.232L234.093 118.283L232.405 116.709L232.087 107.595L244.219 94.6834L271.563 93.7285L281.095 102.617L274.15 110.064L267.001 103.398L248.676 104.038L244.14 108.903L244.304 113.604L248.467 109.04L249.284 132.45L254.249 137.079L254.156 137.178L268.835 136.666L275.783 129.315ZM330.35 134.518L330.542 134.511L330.7 139.02L325.999 139.184L320.347 145.145L291.661 146.147L291.145 131.372L287.812 134.947L287.58 128.327L290.914 124.752L289.808 93.0914L300.553 92.7162L301.284 113.631L297.765 117.405L297.997 124.024L301.515 120.251L302.044 135.41L330.443 134.418L330.35 134.518ZM377.744 103.949L372 110.009L372.362 120.371L378.109 114.407L378.534 126.591L362.417 143.676L339.487 144.477L342.268 141.594L334.92 134.742L333.413 91.5687L344.446 91.1834L345.816 130.423L350.086 134.405L356.034 134.197L361.13 128.832L360.885 121.828L366.907 115.47L366.033 90.4296L377.258 90.0376L377.744 103.949ZM367.366 128.614L367.269 125.832L359.488 134.077L362.274 134.075L367.366 128.614ZM434.125 119.751L435.611 121.044L435.815 126.896L422.016 141.595L384.695 142.898L388.213 139.125L386.491 89.8112L423.429 88.5213L433.454 97.7771L433.829 108.523L428.366 114.381L432.834 118.547L432.742 118.647L432.934 118.64L434.125 119.751ZM416.832 97.6851L400.426 98.258L400.896 111.69L414.231 111.224L420.25 104.77L420.109 100.741L416.832 97.6851ZM422.649 129.469L422.492 124.96L416.336 119.22L401.177 119.749L401.361 125.026L396.361 130.387L396.489 134.033L419.131 133.243L422.649 129.469Z" fill="#FF00AE" fill-opacity="0.27"/>
<path d="M1082.79 54.4814L1110.57 89.8174L1085.37 128.436L1057.91 129.395L1083.11 90.7762L1055.33 55.4402L1082.79 54.4814Z" fill="#FF00AE" fill-opacity="0.27"/>
<path d="M1136.76 52.5968L1164.53 87.9328L1139.34 126.552L1111.88 127.511L1137.08 88.8916L1109.3 53.5556L1136.76 52.5968Z" fill="#FF00AE" fill-opacity="0.27"/>
<path d="M633.389 85.2239L628.575 90.3871L628.993 102.38L633.808 97.2166L635.098 134.154L624.065 134.539L623.314 113.048L601.44 113.812L601.631 119.281L596.538 124.742L596.913 135.488L586.168 135.863L589.686 132.09L587.954 82.4879L600.331 82.0557L601.074 103.355L617.001 102.799L622.741 96.6425L622.205 81.2918L633.239 80.9065L633.389 85.2239ZM683.534 113.347L691.684 132.178L679.116 132.617L675.111 122.479L653.716 123.226L650.333 133.622L642.562 133.893L638.34 134.041L657.211 80.2615L669.012 79.8494L676.635 97.354L674.046 100.23L680.475 116.528L683.534 113.347ZM657.093 112.637L668.798 112.229L667.006 107.68L668.583 106.088L663.321 92.92L657.093 112.637ZM734.535 113.295L742.081 120.332L732.263 130.761L708.757 131.582L708.562 131.493L708.565 131.589L703.001 131.783L705.782 128.9L697.835 121.397L697.218 103.744L693.052 108.212L692.844 102.263L691.156 100.689L690.838 91.5748L702.971 78.6635L730.314 77.7087L739.846 86.5974L732.902 94.0443L725.753 87.3778L707.428 88.0177L702.891 92.883L703.055 97.5841L707.218 93.02L708.036 116.43L713 121.059L712.908 121.159L727.587 120.646L734.535 113.295ZM778.309 109.269L798.863 128.435L785.047 128.918L771.643 116.418L768.958 119.297L764.393 115.134L767.079 112.255L760.724 106.329L761.153 118.609L755.968 124.17L756.169 129.926L751.18 130.1L750.647 114.846L747.777 117.924L747.616 113.319L747.619 113.414L746.229 112.118L745.941 103.867L750.108 99.3991L749.32 76.8529L759.682 76.491L760.017 86.0852L754.832 91.6455L754.922 94.2359L755.083 98.8411L755.08 98.7452L776.191 76.1066L793.844 75.4902L769.773 101.402L773.745 105.106L771.06 107.985L775.627 112.244L778.309 109.269ZM877.416 108.306L884.962 115.342L875.144 125.771L851.639 126.592L851.443 126.503L851.447 126.599L845.882 126.793L848.663 123.911L840.717 116.407L840.1 98.754L835.934 103.222L835.726 97.2738L834.038 95.6997L833.72 86.5853L845.852 73.674L873.196 72.7191L882.728 81.6079L875.783 89.0548L868.634 82.3882L850.31 83.0281L845.773 87.8934L845.937 92.5946L850.1 88.0305L850.917 111.44L855.882 116.07L855.789 116.169L870.469 115.656L877.416 108.306ZM931.984 113.508L932.175 113.502L932.333 118.011L927.632 118.175L921.98 124.136L893.294 125.138L892.778 110.363L889.445 113.937L889.213 107.317L892.547 103.743L891.441 72.082L902.187 71.7068L902.917 92.622L899.398 96.3951L899.63 103.015L903.148 99.242L903.677 114.401L932.076 113.409L931.984 113.508ZM979.377 82.9397L973.633 88.9999L973.995 99.3615L979.742 93.3973L980.167 105.582L964.05 122.667L941.12 123.468L943.901 120.585L936.553 113.733L935.046 70.5593L946.079 70.174L947.449 109.414L951.719 113.396L957.667 113.188L962.763 107.823L962.519 100.819L968.54 94.4609L967.666 69.4202L978.891 69.0282L979.377 82.9397ZM968.999 107.605L968.902 104.823L961.121 113.067L963.907 113.066L968.999 107.605ZM1035.76 98.7417L1037.24 100.035L1037.45 105.887L1023.65 120.586L986.328 121.889L989.846 118.116L988.124 68.8018L1025.06 67.5119L1035.09 76.7677L1035.46 87.5131L1030 93.3714L1034.47 97.538L1034.37 97.6373L1034.57 97.6306L1035.76 98.7417ZM1018.47 76.6757L1002.06 77.2486L1002.53 90.6804L1015.86 90.2147L1021.88 83.7608L1021.74 79.7312L1018.47 76.6757ZM1024.28 108.46L1024.12 103.951L1017.97 98.2102L1002.81 98.7395L1002.99 104.016L997.994 109.378L998.122 113.024L1020.76 112.233L1024.28 108.46Z" fill="#FF00AE" fill-opacity="0.27"/>
<path d="M1684.42 33.4719L1712.2 68.8079L1687 107.427L1659.55 108.386L1684.74 69.7667L1656.97 34.4307L1684.42 33.4719Z" fill="#FF00AE" fill-opacity="0.27"/>
<path d="M1738.39 31.5873L1766.17 66.9233L1740.97 105.542L1713.51 106.501L1738.71 67.8821L1710.93 32.5461L1738.39 31.5873Z" fill="#FF00AE" fill-opacity="0.27"/>
<path d="M1235.02 64.2144L1230.21 69.3775L1230.63 81.3702L1235.44 76.2071L1236.73 113.145L1225.7 113.53L1224.95 92.0389L1203.07 92.8028L1203.26 98.2715L1198.17 103.733L1198.55 114.478L1187.8 114.853L1191.32 111.08L1189.59 61.4784L1201.96 61.0462L1202.71 82.3452L1218.63 81.789L1224.37 75.6329L1223.84 60.2823L1234.87 59.897L1235.02 64.2144ZM1285.17 92.3375L1293.32 111.169L1280.75 111.607L1276.74 101.469L1255.35 102.216L1251.97 112.613L1244.2 112.884L1239.97 113.031L1258.84 59.252L1270.65 58.8399L1278.27 76.3445L1275.68 79.2206L1282.11 95.5182L1285.17 92.3375ZM1258.73 91.6278L1270.43 91.2191L1268.64 86.6708L1270.22 85.0788L1264.95 71.9105L1258.73 91.6278ZM1336.17 92.2855L1343.71 99.3225L1333.9 109.751L1310.39 110.572L1310.2 110.483L1310.2 110.579L1304.63 110.773L1307.41 107.891L1299.47 100.387L1298.85 82.734L1294.69 87.2022L1294.48 81.2538L1292.79 79.6798L1292.47 70.5653L1304.6 57.654L1331.95 56.6992L1341.48 65.5879L1334.54 73.0348L1327.39 66.3682L1309.06 67.0082L1304.52 71.8735L1304.69 76.5746L1308.85 72.0105L1309.67 95.4203L1314.63 100.05L1314.54 100.149L1329.22 99.6365L1336.17 92.2855ZM1379.94 88.2594L1400.5 107.426L1386.68 107.908L1373.28 95.4084L1370.59 98.2879L1366.03 94.1246L1368.71 91.2451L1362.36 85.3193L1362.79 97.5998L1357.6 103.16L1357.8 108.917L1352.81 109.091L1352.28 93.8362L1349.41 96.9142L1349.25 92.309L1349.25 92.405L1347.86 91.1087L1347.57 82.8577L1351.74 78.3896L1350.95 55.8433L1361.32 55.4815L1361.65 65.0757L1356.47 70.636L1356.56 73.2264L1356.72 77.8316L1356.71 77.7357L1377.82 55.0971L1395.48 54.4807L1371.41 80.3925L1375.38 84.0961L1372.69 86.9756L1377.26 91.2348L1379.94 88.2594ZM1479.05 87.296L1486.6 94.3329L1476.78 104.762L1453.27 105.583L1453.08 105.494L1453.08 105.589L1447.52 105.784L1450.3 102.901L1442.35 95.3977L1441.73 77.7445L1437.57 82.2126L1437.36 76.2643L1435.67 74.6902L1435.35 65.5758L1447.49 52.6645L1474.83 51.7096L1484.36 60.5984L1477.42 68.0453L1470.27 61.3787L1451.94 62.0186L1447.41 66.8839L1447.57 71.5851L1451.73 67.021L1452.55 90.4307L1457.52 95.0603L1457.42 95.1596L1472.1 94.647L1479.05 87.296ZM1533.62 92.4988L1533.81 92.4921L1533.97 97.0014L1529.27 97.1655L1523.61 103.126L1494.93 104.128L1494.41 89.3532L1491.08 92.9277L1490.85 86.3077L1494.18 82.7332L1493.07 51.0725L1503.82 50.6972L1504.55 71.6125L1501.03 75.3856L1501.26 82.0056L1504.78 78.2325L1505.31 93.3912L1533.71 92.3995L1533.62 92.4988ZM1581.01 61.9302L1575.27 67.9903L1575.63 78.352L1581.38 72.3878L1581.8 84.5724L1565.68 101.657L1542.75 102.458L1545.53 99.5752L1538.19 92.7235L1536.68 49.5498L1547.71 49.1645L1549.08 88.4046L1553.35 92.386L1559.3 92.1783L1564.4 86.8132L1564.15 79.8094L1570.17 73.4514L1569.3 48.4107L1580.52 48.0187L1581.01 61.9302ZM1570.63 86.5954L1570.54 83.8131L1562.75 92.0577L1565.54 92.0564L1570.63 86.5954ZM1637.39 77.7321L1638.88 79.0251L1639.08 84.8775L1625.28 99.576L1587.96 100.879L1591.48 97.1062L1589.76 47.7923L1626.7 46.5024L1636.72 55.7582L1637.1 66.5036L1631.63 72.3618L1636.1 76.5284L1636.01 76.6277L1636.2 76.621L1637.39 77.7321ZM1620.1 55.6662L1603.69 56.2391L1604.16 69.6709L1617.5 69.2052L1623.52 62.7512L1623.38 58.7217L1620.1 55.6662ZM1625.92 87.4506L1625.76 82.9413L1619.6 77.2006L1604.44 77.73L1604.63 83.0068L1599.63 88.3686L1599.75 92.0143L1622.4 91.2236L1625.92 87.4506Z" fill="#FF00AE" fill-opacity="0.27"/>
</g>
<defs>
<clipPath id="clip0_1272_2465">
<rect width="1753" height="74" fill="white" transform="translate(-4.02222 92.4336) rotate(-2)"/>
</clipPath>
</defs>
</svg>
