<svg width="1729" height="190" viewBox="0 0 1729 190" fill="none" xmlns="http://www.w3.org/2000/svg">
<path d="M1734.75 115.725H-18.2451V189.725H1734.75V115.725Z" fill="#FDD882"/>
<path d="M922.281 115.725L895.755 152.008L922.281 189.725H949.755L923.229 152.008L949.755 115.725H922.281Z" fill="#EB6E40" fill-opacity="0.28"/>
<path d="M976.281 115.725L949.755 152.008L976.281 189.725H1003.75L977.229 152.008L1003.75 115.725H976.281Z" fill="#EB6E40" fill-opacity="0.28"/>
<path d="M741.281 115.725L714.755 152.008L741.281 189.725H768.755L742.229 152.008L768.755 115.725H741.281Z" fill="#EB6E40" fill-opacity="0.28"/>
<path d="M795.281 115.725L768.755 152.008L795.281 189.725H822.755L796.229 152.008L822.755 115.725H795.281Z" fill="#EB6E40" fill-opacity="0.28"/>
<path d="M560.281 115.725L533.755 152.008L560.281 189.725H587.755L561.229 152.008L587.755 115.725H560.281Z" fill="#EB6E40" fill-opacity="0.28"/>
<path d="M614.281 115.725L587.755 152.008L614.281 189.725H641.755L615.229 152.008L641.755 115.725H614.281Z" fill="#EB6E40" fill-opacity="0.28"/>
<path d="M379.281 115.725L352.755 152.008L379.281 189.725H406.755L380.229 152.008L406.755 115.725H379.281Z" fill="#EB6E40" fill-opacity="0.28"/>
<path d="M433.281 115.725L406.755 152.008L433.281 189.725H460.755L434.229 152.008L460.755 115.725H433.281Z" fill="#EB6E40" fill-opacity="0.28"/>
<path d="M198.281 115.725L171.755 152.008L198.281 189.725H225.755L199.229 152.008L225.755 115.725H198.281Z" fill="#EB6E40" fill-opacity="0.28"/>
<path d="M252.281 115.725L225.755 152.008L252.281 189.725H279.755L253.229 152.008L279.755 115.725H252.281Z" fill="#EB6E40" fill-opacity="0.28"/>
<path d="M17.2812 115.725L-9.24512 152.008L17.2812 189.725H44.7549L18.2285 152.008L44.7549 115.725H17.2812Z" fill="#EB6E40" fill-opacity="0.28"/>
<path d="M71.2812 115.725L44.7549 152.008L71.2812 189.725H98.7549L72.2285 152.008L98.7549 115.725H71.2812Z" fill="#EB6E40" fill-opacity="0.28"/>
<path d="M1103.28 115.725L1076.75 152.008L1103.28 189.725H1130.75L1104.23 152.008L1130.75 115.725H1103.28Z" fill="#EB6E40" fill-opacity="0.28"/>
<path d="M1157.28 115.725L1130.75 152.008L1157.28 189.725H1184.75L1158.23 152.008L1184.75 115.725H1157.28Z" fill="#EB6E40" fill-opacity="0.28"/>
<path d="M1103.28 115.725L1076.75 152.008L1103.28 189.725H1130.75L1104.23 152.008L1130.75 115.725H1103.28Z" fill="#EB6E40" fill-opacity="0.28"/>
<path d="M1157.28 115.725L1130.75 152.008L1157.28 189.725H1184.75L1158.23 152.008L1184.75 115.725H1157.28Z" fill="#EB6E40" fill-opacity="0.28"/>
<path d="M1284.28 115.725L1257.75 152.008L1284.28 189.725H1311.75L1285.23 152.008L1311.75 115.725H1284.28Z" fill="#EB6E40" fill-opacity="0.28"/>
<path d="M1338.28 115.725L1311.75 152.008L1338.28 189.725H1365.75L1339.23 152.008L1365.75 115.725H1338.28Z" fill="#EB6E40" fill-opacity="0.28"/>
<path d="M1465.28 115.725L1438.75 152.008L1465.28 189.725H1492.75L1466.23 152.008L1492.75 115.725H1465.28Z" fill="#EB6E40" fill-opacity="0.28"/>
<path d="M1519.28 115.725L1492.75 152.008L1519.28 189.725H1546.75L1520.23 152.008L1546.75 115.725H1519.28Z" fill="#EB6E40" fill-opacity="0.28"/>
<path d="M1646.28 115.725L1619.75 152.008L1646.28 189.725H1673.75L1647.23 152.008L1673.75 115.725H1646.28Z" fill="#EB6E40" fill-opacity="0.28"/>
<path d="M1700.28 115.725L1673.75 152.008L1700.28 189.725H1727.75L1701.23 152.008L1727.75 115.725H1700.28Z" fill="#EB6E40" fill-opacity="0.28"/>
<path d="M-22.7085 0L1730.02 30.5941L1728.73 104.583L-24 73.9887L-22.7085 0Z" fill="#F78181"/>
<path d="M789.641 14.1796L815.53 50.9209L788.35 88.1684L760.88 87.6889L788.061 50.4414L762.172 13.7001L789.641 14.1796Z" fill="#FF4F50" fill-opacity="0.38"/>
<path d="M735.65 13.2372L761.539 49.9785L734.358 87.2259L706.889 86.7464L734.069 49.499L708.18 12.7577L735.65 13.2372Z" fill="#FF4F50" fill-opacity="0.38"/>
<path d="M970.614 17.3385L996.503 54.0798L969.322 91.3272L941.853 90.8478L969.033 53.6003L943.144 16.859L970.614 17.3385Z" fill="#FF4F50" fill-opacity="0.38"/>
<path d="M916.622 16.3961L942.511 53.1374L915.331 90.3848L887.861 89.9053L915.042 52.6579L889.153 15.9166L916.622 16.3961Z" fill="#FF4F50" fill-opacity="0.38"/>
<path d="M1151.59 20.4974L1177.48 57.2387L1150.29 94.4861L1122.83 94.0066L1150.01 56.7592L1124.12 20.0179L1151.59 20.4974Z" fill="#FF4F50" fill-opacity="0.38"/>
<path d="M1097.59 19.555L1123.48 56.2963L1096.3 93.5437L1068.83 93.0642L1096.01 55.8168L1070.13 19.0755L1097.59 19.555Z" fill="#FF4F50" fill-opacity="0.38"/>
<path d="M1332.56 23.6563L1358.45 60.3976L1331.27 97.645L1303.8 97.1655L1330.98 59.9181L1305.09 23.1768L1332.56 23.6563Z" fill="#FF4F50" fill-opacity="0.38"/>
<path d="M1278.57 22.7138L1304.46 59.4551L1277.28 96.7026L1249.81 96.2231L1276.99 58.9757L1251.1 22.2344L1278.57 22.7138Z" fill="#FF4F50" fill-opacity="0.38"/>
<path d="M1513.53 26.8152L1539.42 63.5565L1512.24 100.804L1484.77 100.324L1511.95 63.077L1486.06 26.3357L1513.53 26.8152Z" fill="#FF4F50" fill-opacity="0.38"/>
<path d="M1459.54 25.8727L1485.43 62.614L1458.25 99.8615L1430.78 99.382L1457.96 62.1345L1432.07 25.3933L1459.54 25.8727Z" fill="#FF4F50" fill-opacity="0.38"/>
<path d="M1694.5 29.974L1720.39 66.7153L1693.21 103.963L1665.74 103.483L1692.92 66.2359L1667.03 29.4946L1694.5 29.974Z" fill="#FF4F50" fill-opacity="0.38"/>
<path d="M1640.51 29.0316L1666.4 65.7729L1639.22 103.02L1611.75 102.541L1638.93 65.2934L1613.04 28.5521L1640.51 29.0316Z" fill="#FF4F50" fill-opacity="0.38"/>
<path d="M608.669 11.0207L634.558 47.762L607.378 85.0095L579.908 84.53L607.089 47.2825L581.2 10.5413L608.669 11.0207Z" fill="#FF4F50" fill-opacity="0.38"/>
<path d="M554.677 10.0783L580.566 46.8196L553.386 84.067L525.916 83.5876L553.097 46.3401L527.208 9.59882L554.677 10.0783Z" fill="#FF4F50" fill-opacity="0.38"/>
<path d="M608.669 11.0207L634.558 47.762L607.378 85.0095L579.908 84.53L607.089 47.2825L581.2 10.5413L608.669 11.0207Z" fill="#FF4F50" fill-opacity="0.38"/>
<path d="M554.677 10.0783L580.566 46.8196L553.386 84.067L525.916 83.5876L553.097 46.3401L527.208 9.59882L554.677 10.0783Z" fill="#FF4F50" fill-opacity="0.38"/>
<path d="M427.697 7.86185L453.586 44.6031L426.405 81.8506L398.936 81.3711L426.116 44.1237L400.227 7.38237L427.697 7.86185Z" fill="#FF4F50" fill-opacity="0.38"/>
<path d="M373.705 6.91942L399.594 43.6607L372.413 80.9082L344.944 80.4287L372.124 43.1812L346.235 6.43994L373.705 6.91942Z" fill="#FF4F50" fill-opacity="0.38"/>
<path d="M246.724 4.70296L272.613 41.4443L245.433 78.6917L217.963 78.2122L245.144 40.9648L219.255 4.22348L246.724 4.70296Z" fill="#FF4F50" fill-opacity="0.38"/>
<path d="M192.732 3.76053L218.621 40.5018L191.441 77.7493L163.971 77.2698L191.152 40.0223L165.263 3.28105L192.732 3.76053Z" fill="#FF4F50" fill-opacity="0.38"/>
<path d="M65.7517 1.54408L91.6407 38.2854L64.4602 75.5328L36.9907 75.0533L64.1712 37.8059L38.2822 1.0646L65.7517 1.54408Z" fill="#FF4F50" fill-opacity="0.38"/>
<path d="M11.7599 0.601649L37.649 37.3429L10.4685 74.5904L-17.001 74.1109L10.1795 36.8635L-15.7096 0.122167L11.7599 0.601649Z" fill="#FF4F50" fill-opacity="0.38"/>
<g clip-path="url(#clip0_1272_2466)">
<rect x="-4.26733" y="92.1582" width="1753" height="74" transform="rotate(-2 -4.26733 92.1582)" fill="#FF80C9"/>
<path d="M480.911 75.2153L508.687 110.551L483.493 149.17L456.036 150.129L481.23 111.51L453.454 76.1741L480.911 75.2153Z" fill="#330023" fill-opacity="0.25"/>
<path d="M534.878 73.3308L562.654 108.667L537.46 147.286L510.003 148.245L535.197 109.626L507.421 74.2896L534.878 73.3308Z" fill="#330023" fill-opacity="0.25"/>
<path d="M31.5111 105.958L26.6964 111.121L27.1152 123.114L31.9299 117.951L33.2198 154.888L22.1865 155.273L21.436 133.783L-0.438636 134.546L-0.247666 140.015L-5.34018 145.476L-4.96494 156.222L-15.7104 156.597L-12.1919 152.824L-13.9241 103.222L-1.5476 102.79L-0.803825 124.089L15.1225 123.533L20.8631 117.377L20.3271 102.026L31.3603 101.641L31.5111 105.958ZM81.6556 134.081L89.8058 152.912L77.2375 153.351L73.2332 143.213L51.8382 143.96L48.455 154.356L40.6837 154.628L36.4623 154.775L55.3329 100.996L67.1337 100.584L74.7573 118.088L72.1681 120.964L78.5968 137.262L81.6556 134.081ZM55.2148 133.371L66.9196 132.963L65.1278 128.414L66.7052 126.822L61.4424 113.654L55.2148 133.371ZM132.656 134.029L140.203 141.066L130.385 151.495L106.879 152.316L106.684 152.227L106.687 152.323L101.122 152.517L103.903 149.634L95.9568 142.131L95.3403 124.478L91.1737 128.946L90.966 122.997L89.278 121.423L88.9597 112.309L101.093 99.3977L128.436 98.4428L137.968 107.332L131.024 114.778L123.875 108.112L105.55 108.752L101.013 113.617L101.177 118.318L105.34 113.754L106.158 137.164L111.122 141.793L111.03 141.893L125.709 141.38L132.656 134.029ZM176.431 130.003L196.984 149.169L183.169 149.652L169.764 137.152L167.079 140.032L162.515 135.868L165.2 132.989L158.846 127.063L159.275 139.343L154.089 144.904L154.29 150.66L149.302 150.835L148.769 135.58L145.898 138.658L145.738 134.053L145.741 134.149L144.351 132.852L144.063 124.601L148.229 120.133L147.442 97.587L157.804 97.2252L158.139 106.819L152.954 112.38L153.044 114.97L153.205 119.575L153.202 119.479L174.312 96.8408L191.966 96.2243L167.895 122.136L171.867 125.84L169.182 128.719L173.749 132.978L176.431 130.003ZM275.538 129.04L283.084 136.077L273.266 146.506L249.761 147.326L249.565 147.237L249.569 147.333L244.004 147.527L246.785 144.645L238.838 137.141L238.222 119.488L234.055 123.956L233.848 118.008L232.16 116.434L231.841 107.319L243.974 94.4081L271.318 93.4533L280.85 102.342L273.905 109.789L266.756 103.122L248.431 103.762L243.894 108.628L244.059 113.329L248.222 108.765L249.039 132.174L254.004 136.804L253.911 136.903L268.59 136.391L275.538 129.04ZM330.105 134.242L330.297 134.236L330.455 138.745L325.754 138.909L320.102 144.87L291.416 145.872L290.9 131.097L287.566 134.671L287.335 128.051L290.669 124.477L289.563 92.8161L300.308 92.4409L301.039 113.356L297.52 117.129L297.751 123.749L301.27 119.976L301.799 135.135L330.198 134.143L330.105 134.242ZM377.499 103.674L371.755 109.734L372.116 120.096L377.864 114.131L378.289 126.316L362.172 143.401L339.242 144.202L342.023 141.319L334.675 134.467L333.168 91.2934L344.201 90.9081L345.571 130.148L349.841 134.13L355.789 133.922L360.885 128.557L360.64 121.553L366.662 115.195L365.788 90.1543L377.013 89.7623L377.499 103.674ZM367.121 128.339L367.024 125.557L359.243 133.801L362.029 133.8L367.121 128.339ZM433.88 119.476L435.366 120.769L435.57 126.621L421.771 141.32L384.45 142.623L387.968 138.85L386.246 89.5359L423.184 88.2461L433.209 97.5018L433.584 108.247L428.121 114.105L432.589 118.272L432.497 118.371L432.688 118.365L433.88 119.476ZM416.587 97.4098L400.181 97.9828L400.65 111.415L413.986 110.949L420.005 104.495L419.864 100.465L416.587 97.4098ZM422.404 129.194L422.247 124.685L416.091 118.944L400.932 119.474L401.116 124.75L396.116 130.112L396.243 133.758L418.886 132.967L422.404 129.194Z" fill="#330023" fill-opacity="0.25"/>
<path d="M1082.54 54.2058L1110.32 89.5418L1085.13 128.161L1057.67 129.12L1082.86 90.5006L1055.09 55.1646L1082.54 54.2058Z" fill="#330023" fill-opacity="0.25"/>
<path d="M1136.51 52.3213L1164.29 87.6573L1139.09 126.276L1111.64 127.235L1136.83 88.6161L1109.05 53.2801L1136.51 52.3213Z" fill="#330023" fill-opacity="0.25"/>
<path d="M633.144 84.9485L628.329 90.1117L628.748 102.104L633.563 96.9412L634.853 133.879L623.82 134.264L623.069 112.773L601.194 113.537L601.385 119.006L596.293 124.467L596.668 135.212L585.923 135.587L589.441 131.814L587.709 82.2125L600.085 81.7803L600.829 103.079L616.756 102.523L622.496 96.3671L621.96 81.0164L632.993 80.6311L633.144 84.9485ZM683.289 113.072L691.439 131.903L678.871 132.342L674.866 122.203L653.471 122.95L650.088 133.347L642.317 133.618L638.095 133.765L656.966 79.9861L668.767 79.574L676.39 97.0786L673.801 99.9547L680.23 116.252L683.289 113.072ZM656.848 112.362L668.553 111.953L666.761 107.405L668.338 105.813L663.075 92.6446L656.848 112.362ZM734.289 113.02L741.836 120.057L732.018 130.486L708.512 131.306L708.317 131.217L708.32 131.313L702.755 131.507L705.537 128.625L697.59 121.121L696.973 103.468L692.807 107.936L692.599 101.988L690.911 100.414L690.593 91.2994L702.726 78.3881L730.069 77.4333L739.601 86.322L732.657 93.7689L725.508 87.1024L707.183 87.7423L702.646 92.6076L702.81 97.3087L706.973 92.7447L707.791 116.154L712.755 120.784L712.663 120.883L727.342 120.371L734.289 113.02ZM778.064 108.994L798.618 128.16L784.802 128.642L771.398 116.143L768.712 119.022L764.148 114.859L766.833 111.979L760.479 106.053L760.908 118.334L755.723 123.894L755.924 129.651L750.935 129.825L750.402 114.57L747.532 117.648L747.371 113.043L747.374 113.139L745.984 111.843L745.696 103.592L749.862 99.1237L749.075 76.5775L759.437 76.2156L759.772 85.8098L754.587 91.3701L754.677 93.9605L754.838 98.5657L754.835 98.4698L775.945 75.8313L793.599 75.2148L769.528 101.127L773.5 104.83L770.815 107.71L775.382 111.969L778.064 108.994ZM877.171 108.03L884.717 115.067L874.899 125.496L851.394 126.317L851.198 126.228L851.202 126.324L845.637 126.518L848.418 123.635L840.471 116.132L839.855 98.4786L835.688 102.947L835.481 96.9984L833.793 95.4243L833.474 86.3099L845.607 73.3986L872.951 72.4438L882.483 81.3325L875.538 88.7794L868.389 82.1128L850.064 82.7528L845.527 87.6181L845.692 92.3192L849.855 87.7551L850.672 111.165L855.637 115.794L855.544 115.894L870.223 115.381L877.171 108.03ZM931.738 113.233L931.93 113.226L932.088 117.735L927.387 117.9L921.735 123.861L893.049 124.862L892.533 110.087L889.199 113.662L888.968 107.042L892.302 103.467L891.196 71.8066L901.941 71.4314L902.672 92.3466L899.153 96.1197L899.384 102.74L902.903 98.9666L903.432 114.125L931.831 113.134L931.738 113.233ZM979.132 82.6643L973.388 88.7245L973.75 99.0862L979.497 93.1219L979.922 105.307L963.805 122.391L940.875 123.192L943.656 120.309L936.308 113.458L934.801 70.2839L945.834 69.8986L947.204 109.139L951.474 113.12L957.422 112.912L962.518 107.547L962.273 100.544L968.295 94.1855L967.421 69.1448L978.646 68.7528L979.132 82.6643ZM968.754 107.33L968.657 104.547L960.876 112.792L963.662 112.791L968.754 107.33ZM1035.51 98.4663L1037 99.7592L1037.2 105.612L1023.4 120.31L986.083 121.613L989.601 117.84L987.879 68.5264L1024.82 67.2365L1034.84 76.4923L1035.22 87.2378L1029.75 93.096L1034.22 97.2626L1034.13 97.3619L1034.32 97.3552L1035.51 98.4663ZM1018.22 76.4003L1001.81 76.9732L1002.28 90.405L1015.62 89.9394L1021.64 83.4854L1021.5 79.4558L1018.22 76.4003ZM1024.04 108.185L1023.88 103.675L1017.72 97.9348L1002.56 98.4641L1002.75 103.741L997.749 109.103L997.877 112.748L1020.52 111.958L1024.04 108.185Z" fill="#330023" fill-opacity="0.25"/>
<path d="M1684.18 33.1963L1711.95 68.5323L1686.76 107.151L1659.3 108.11L1684.5 69.4911L1656.72 34.1551L1684.18 33.1963Z" fill="#330023" fill-opacity="0.25"/>
<path d="M1738.14 31.3117L1765.92 66.6478L1740.73 105.267L1713.27 106.225L1738.46 67.6066L1710.69 32.2706L1738.14 31.3117Z" fill="#330023" fill-opacity="0.25"/>
<path d="M1234.78 63.939L1229.96 69.1022L1230.38 81.0948L1235.2 75.9317L1236.49 112.869L1225.45 113.254L1224.7 91.7635L1202.83 92.5274L1203.02 97.9961L1197.93 103.457L1198.3 114.203L1187.56 114.578L1191.07 110.805L1189.34 61.203L1201.72 60.7708L1202.46 82.0698L1218.39 81.5136L1224.13 75.3575L1223.59 60.0069L1234.63 59.6216L1234.78 63.939ZM1284.92 92.0621L1293.07 110.893L1280.5 111.332L1276.5 101.194L1255.1 101.941L1251.72 112.337L1243.95 112.609L1239.73 112.756L1258.6 58.9766L1270.4 58.5645L1278.02 76.0691L1275.43 78.9452L1281.86 95.2428L1284.92 92.0621ZM1258.48 91.3524L1270.19 90.9437L1268.39 86.3955L1269.97 84.8034L1264.71 71.6351L1258.48 91.3524ZM1335.92 92.0102L1343.47 99.0471L1333.65 109.476L1310.15 110.297L1309.95 110.208L1309.95 110.304L1304.39 110.498L1307.17 107.615L1299.22 100.112L1298.61 82.4587L1294.44 86.9268L1294.23 80.9784L1292.54 79.4044L1292.23 70.2899L1304.36 57.3786L1331.7 56.4238L1341.23 65.3125L1334.29 72.7594L1327.14 66.0929L1308.82 66.7328L1304.28 71.5981L1304.44 76.2992L1308.61 71.7351L1309.42 95.1449L1314.39 99.7744L1314.3 99.8737L1328.98 99.3611L1335.92 92.0102ZM1379.7 87.984L1400.25 107.15L1386.44 107.633L1373.03 95.133L1370.35 98.0125L1365.78 93.8492L1368.47 90.9698L1362.11 85.0439L1362.54 97.3244L1357.36 102.885L1357.56 108.641L1352.57 108.815L1352.04 93.5608L1349.16 96.6388L1349 92.0336L1349.01 92.1296L1347.62 90.8333L1347.33 82.5823L1351.5 78.1142L1350.71 55.5679L1361.07 55.2061L1361.41 64.8003L1356.22 70.3606L1356.31 72.951L1356.47 77.5562L1356.47 77.4603L1377.58 54.8217L1395.23 54.2053L1371.16 80.1171L1375.13 83.8207L1372.45 86.7002L1377.02 90.9594L1379.7 87.984ZM1478.8 87.0206L1486.35 94.0576L1476.53 104.487L1453.03 105.307L1452.83 105.218L1452.84 105.314L1447.27 105.508L1450.05 102.626L1442.1 95.1224L1441.49 77.4691L1437.32 81.9372L1437.11 75.9889L1435.43 74.4148L1435.11 65.3004L1447.24 52.3891L1474.58 51.4342L1484.12 60.323L1477.17 67.7699L1470.02 61.1033L1451.7 61.7432L1447.16 66.6085L1447.32 71.3097L1451.49 66.7456L1452.31 90.1553L1457.27 94.7849L1457.18 94.8842L1471.86 94.3716L1478.8 87.0206ZM1533.37 92.2234L1533.56 92.2167L1533.72 96.726L1529.02 96.8901L1523.37 102.851L1494.68 103.853L1494.17 89.0778L1490.83 92.6523L1490.6 86.0323L1493.93 82.4578L1492.83 50.7971L1503.57 50.4219L1504.31 71.3371L1500.79 75.1102L1501.02 81.7302L1504.54 77.9571L1505.07 93.1158L1533.46 92.1241L1533.37 92.2234ZM1580.76 61.6548L1575.02 67.715L1575.38 78.0766L1581.13 72.1124L1581.56 84.297L1565.44 101.382L1542.51 102.183L1545.29 99.2998L1537.94 92.4481L1536.43 49.2744L1547.47 48.8891L1548.84 88.1292L1553.11 92.1106L1559.06 91.9029L1564.15 86.5378L1563.91 79.534L1569.93 73.176L1569.05 48.1353L1580.28 47.7433L1580.76 61.6548ZM1570.39 86.32L1570.29 83.5377L1562.51 91.7823L1565.29 91.781L1570.39 86.32ZM1637.15 77.4567L1638.63 78.7497L1638.84 84.6021L1625.04 99.3006L1587.72 100.604L1591.23 96.8308L1589.51 47.5169L1626.45 46.227L1636.48 55.4828L1636.85 66.2282L1631.39 72.0865L1635.86 76.2531L1635.76 76.3523L1635.95 76.3456L1637.15 77.4567ZM1619.85 55.3908L1603.45 55.9637L1603.92 69.3955L1617.25 68.9298L1623.27 62.4759L1623.13 58.4463L1619.85 55.3908ZM1625.67 87.1752L1625.51 82.6659L1619.36 76.9253L1604.2 77.4546L1604.38 82.7314L1599.38 88.0932L1599.51 91.7389L1622.15 90.9483L1625.67 87.1752Z" fill="#330023" fill-opacity="0.25"/>
</g>
<defs>
<clipPath id="clip0_1272_2466">
<rect width="1753" height="74" fill="white" transform="translate(-4.26733 92.1582) rotate(-2)"/>
</clipPath>
</defs>
</svg>
