<svg width="1729" height="180" viewBox="0 0 1729 180" fill="none" xmlns="http://www.w3.org/2000/svg">
<g clip-path="url(#clip0_1273_2484)">
<rect x="-18" y="106" width="1753" height="74" fill="#4FD9FF"/>
<path d="M467.474 106L494 142.284L467.474 180H440L466.526 142.284L440 106H467.474Z" fill="#04170A" fill-opacity="0.34"/>
<path d="M521.474 106L548 142.284L521.474 180H494L520.526 142.284L494 106H521.474Z" fill="#04170A" fill-opacity="0.34"/>
<path d="M17.2751 121.04L12.2831 126.032V138.032L17.2751 133.04V170H6.23513V148.496H-15.6529V153.968L-20.9329 159.248V170H-31.6849L-28.0369 166.352V116.72H-15.6529V138.032H0.283127L6.23513 132.08V116.72H17.2751V121.04ZM66.4076 150.896L73.8956 170H61.3196L57.6716 159.728H36.2636L32.5196 170H24.7436H20.5196L41.2556 116.912H53.0636L60.0716 134.672L57.3836 137.456L63.2396 153.968L66.4076 150.896ZM40.0076 149.264H51.7196L50.0876 144.656L51.7196 143.12L46.9196 129.776L40.0076 149.264ZM117.379 152.624L124.675 159.92L114.499 170H90.9791L90.7871 169.904V170H85.2191L88.0991 167.216L80.4191 159.44V141.776L76.0991 146.096V140.144L74.4671 138.512V129.392L87.0431 116.912H114.403L123.619 126.128L116.419 133.328L109.507 126.416H91.1711L86.4671 131.12V135.824L90.7871 131.408V154.832L95.5871 159.632L95.4911 159.728H110.179L117.379 152.624ZM161.268 150.128L181.14 170H167.316L154.356 157.04L151.572 159.824L147.156 155.504L149.94 152.72L143.796 146.576V158.864L138.42 164.24V170H133.428V154.736L130.452 157.712V153.104V153.2L129.108 151.856V143.6L133.428 139.28V116.72H143.796V126.32L138.42 131.696V134.288V138.896V138.8L160.308 116.912H177.972L153.012 141.968L156.852 145.808L154.068 148.592L158.484 153.008L161.268 150.128ZM260.348 152.624L267.644 159.92L257.468 170H233.948L233.756 169.904V170H228.188L231.068 167.216L223.388 159.44V141.776L219.068 146.096V140.144L217.436 138.512V129.392L230.012 116.912H257.372L266.588 126.128L259.388 133.328L252.476 126.416H234.14L229.436 131.12V135.824L233.756 131.408V154.832L238.556 159.632L238.46 159.728H253.148L260.348 152.624ZM314.7 159.728H314.892V164.24H310.188L304.332 170H275.628V155.216L272.172 158.672V152.048L275.628 148.592V116.912H286.38V137.84L282.732 141.488V148.112L286.38 144.464V159.632H314.796L314.7 159.728ZM363.132 130.832L357.18 136.688V147.056L363.132 141.296V153.488L346.428 170H323.484L326.364 167.216L319.26 160.112V116.912H330.3V156.176L334.428 160.304H340.38L345.66 155.12V148.112L351.9 141.968V116.912H363.132V130.832ZM351.9 155.12V152.336L343.836 160.304L346.62 160.4L351.9 155.12ZM418.927 148.592L420.367 149.936V155.792L406.063 170H368.719L372.367 166.352V117.008H409.327L419.023 126.608V137.36L413.359 143.024L417.679 147.344L417.583 147.44H417.775L418.927 148.592ZM402.415 125.936H385.999V139.376H399.343L405.583 133.136V129.104L402.415 125.936ZM407.119 157.904V153.392L401.167 147.44H385.999V152.72L380.815 157.904V161.552H403.471L407.119 157.904Z" fill="#04170A" fill-opacity="0.34"/>
<path d="M1069.47 106L1096 142.284L1069.47 180H1042L1068.53 142.284L1042 106H1069.47Z" fill="#04170A" fill-opacity="0.34"/>
<path d="M1123.47 106L1150 142.284L1123.47 180H1096L1122.53 142.284L1096 106H1123.47Z" fill="#04170A" fill-opacity="0.34"/>
<path d="M619.275 121.04L614.283 126.032V138.032L619.275 133.04V170H608.235V148.496H586.347V153.968L581.067 159.248V170H570.315L573.963 166.352V116.72H586.347V138.032H602.283L608.235 132.08V116.72H619.275V121.04ZM668.408 150.896L675.896 170H663.32L659.672 159.728H638.264L634.52 170H626.744H622.52L643.256 116.912H655.064L662.072 134.672L659.384 137.456L665.24 153.968L668.408 150.896ZM642.008 149.264H653.72L652.088 144.656L653.72 143.12L648.92 129.776L642.008 149.264ZM719.379 152.624L726.675 159.92L716.499 170H692.979L692.787 169.904V170H687.219L690.099 167.216L682.419 159.44V141.776L678.099 146.096V140.144L676.467 138.512V129.392L689.043 116.912H716.403L725.619 126.128L718.419 133.328L711.507 126.416H693.171L688.467 131.12V135.824L692.787 131.408V154.832L697.587 159.632L697.491 159.728H712.179L719.379 152.624ZM763.268 150.128L783.14 170H769.316L756.356 157.04L753.572 159.824L749.156 155.504L751.94 152.72L745.796 146.576V158.864L740.42 164.24V170H735.428V154.736L732.452 157.712V153.104V153.2L731.108 151.856V143.6L735.428 139.28V116.72H745.796V126.32L740.42 131.696V134.288V138.896V138.8L762.308 116.912H779.972L755.012 141.968L758.852 145.808L756.068 148.592L760.484 153.008L763.268 150.128ZM862.348 152.624L869.644 159.92L859.468 170H835.948L835.756 169.904V170H830.188L833.068 167.216L825.388 159.44V141.776L821.068 146.096V140.144L819.436 138.512V129.392L832.012 116.912H859.372L868.588 126.128L861.388 133.328L854.476 126.416H836.14L831.436 131.12V135.824L835.756 131.408V154.832L840.556 159.632L840.46 159.728H855.148L862.348 152.624ZM916.7 159.728H916.892V164.24H912.188L906.332 170H877.628V155.216L874.172 158.672V152.048L877.628 148.592V116.912H888.38V137.84L884.732 141.488V148.112L888.38 144.464V159.632H916.796L916.7 159.728ZM965.132 130.832L959.18 136.688V147.056L965.132 141.296V153.488L948.428 170H925.484L928.364 167.216L921.26 160.112V116.912H932.3V156.176L936.428 160.304H942.38L947.66 155.12V148.112L953.9 141.968V116.912H965.132V130.832ZM953.9 155.12V152.336L945.836 160.304L948.62 160.4L953.9 155.12ZM1020.93 148.592L1022.37 149.936V155.792L1008.06 170H970.719L974.367 166.352V117.008H1011.33L1021.02 126.608V137.36L1015.36 143.024L1019.68 147.344L1019.58 147.44H1019.78L1020.93 148.592ZM1004.42 125.936H987.999V139.376H1001.34L1007.58 133.136V129.104L1004.42 125.936ZM1009.12 157.904V153.392L1003.17 147.44H987.999V152.72L982.815 157.904V161.552H1005.47L1009.12 157.904Z" fill="#04170A" fill-opacity="0.34"/>
<path d="M1671.47 106L1698 142.284L1671.47 180H1644L1670.53 142.284L1644 106H1671.47Z" fill="#04170A" fill-opacity="0.34"/>
<path d="M1725.47 106L1752 142.284L1725.47 180H1698L1724.53 142.284L1698 106H1725.47Z" fill="#04170A" fill-opacity="0.34"/>
<path d="M1221.28 121.04L1216.28 126.032V138.032L1221.28 133.04V170H1210.24V148.496H1188.35V153.968L1183.07 159.248V170H1172.32L1175.96 166.352V116.72H1188.35V138.032H1204.28L1210.24 132.08V116.72H1221.28V121.04ZM1270.41 150.896L1277.9 170H1265.32L1261.67 159.728H1240.26L1236.52 170H1228.74H1224.52L1245.26 116.912H1257.06L1264.07 134.672L1261.38 137.456L1267.24 153.968L1270.41 150.896ZM1244.01 149.264H1255.72L1254.09 144.656L1255.72 143.12L1250.92 129.776L1244.01 149.264ZM1321.38 152.624L1328.68 159.92L1318.5 170H1294.98L1294.79 169.904V170H1289.22L1292.1 167.216L1284.42 159.44V141.776L1280.1 146.096V140.144L1278.47 138.512V129.392L1291.04 116.912H1318.4L1327.62 126.128L1320.42 133.328L1313.51 126.416H1295.17L1290.47 131.12V135.824L1294.79 131.408V154.832L1299.59 159.632L1299.49 159.728H1314.18L1321.38 152.624ZM1365.27 150.128L1385.14 170H1371.32L1358.36 157.04L1355.57 159.824L1351.16 155.504L1353.94 152.72L1347.8 146.576V158.864L1342.42 164.24V170H1337.43V154.736L1334.45 157.712V153.104V153.2L1333.11 151.856V143.6L1337.43 139.28V116.72H1347.8V126.32L1342.42 131.696V134.288V138.896V138.8L1364.31 116.912H1381.97L1357.01 141.968L1360.85 145.808L1358.07 148.592L1362.48 153.008L1365.27 150.128ZM1464.35 152.624L1471.64 159.92L1461.47 170H1437.95L1437.76 169.904V170H1432.19L1435.07 167.216L1427.39 159.44V141.776L1423.07 146.096V140.144L1421.44 138.512V129.392L1434.01 116.912H1461.37L1470.59 126.128L1463.39 133.328L1456.48 126.416H1438.14L1433.44 131.12V135.824L1437.76 131.408V154.832L1442.56 159.632L1442.46 159.728H1457.15L1464.35 152.624ZM1518.7 159.728H1518.89V164.24H1514.19L1508.33 170H1479.63V155.216L1476.17 158.672V152.048L1479.63 148.592V116.912H1490.38V137.84L1486.73 141.488V148.112L1490.38 144.464V159.632H1518.8L1518.7 159.728ZM1567.13 130.832L1561.18 136.688V147.056L1567.13 141.296V153.488L1550.43 170H1527.48L1530.36 167.216L1523.26 160.112V116.912H1534.3V156.176L1538.43 160.304H1544.38L1549.66 155.12V148.112L1555.9 141.968V116.912H1567.13V130.832ZM1555.9 155.12V152.336L1547.84 160.304L1550.62 160.4L1555.9 155.12ZM1622.93 148.592L1624.37 149.936V155.792L1610.06 170H1572.72L1576.37 166.352V117.008H1613.33L1623.02 126.608V137.36L1617.36 143.024L1621.68 147.344L1621.58 147.44H1621.78L1622.93 148.592ZM1606.42 125.936H1590V139.376H1603.34L1609.58 133.136V129.104L1606.42 125.936ZM1611.12 157.904V153.392L1605.17 147.44H1590V152.72L1584.82 157.904V161.552H1607.47L1611.12 157.904Z" fill="#04170A" fill-opacity="0.34"/>
</g>
<path d="M-12.1272 0L1738.47 91.7449L1734.6 165.644L-16.0001 73.8986L-12.1272 0Z" fill="#544FFF"/>
<path d="M799.233 42.5216L823.824 80.144L795.36 116.42L767.924 114.982L796.388 78.7061L771.797 41.0837L799.233 42.5216Z" fill="#6C67FF"/>
<path d="M745.307 39.6954L769.898 77.3179L741.434 113.594L713.998 112.156L742.462 75.88L717.871 38.2576L745.307 39.6954Z" fill="#6C67FF"/>
<path d="M979.985 51.9944L1004.58 89.6168L976.112 125.893L948.676 124.455L977.14 88.179L952.549 50.5565L979.985 51.9944Z" fill="#6C67FF"/>
<path d="M926.059 49.1683L950.65 86.7907L922.186 123.067L894.75 121.629L923.214 85.3528L898.623 47.7304L926.059 49.1683Z" fill="#6C67FF"/>
<path d="M1160.74 61.4672L1185.33 99.0896L1156.86 135.366L1129.43 133.928L1157.89 97.6518L1133.3 60.0293L1160.74 61.4672Z" fill="#6C67FF"/>
<path d="M1106.81 58.6411L1131.4 96.2635L1102.94 132.54L1075.5 131.102L1103.97 94.8256L1079.37 57.2032L1106.81 58.6411Z" fill="#6C67FF"/>
<path d="M1341.49 70.94L1366.08 108.562L1337.62 144.839L1310.18 143.401L1338.64 107.125L1314.05 69.5021L1341.49 70.94Z" fill="#6C67FF"/>
<path d="M1287.56 68.1139L1312.15 105.736L1283.69 142.012L1256.25 140.575L1284.72 104.298L1260.13 66.676L1287.56 68.1139Z" fill="#6C67FF"/>
<path d="M1522.24 80.4128L1546.83 118.035L1518.37 154.311L1490.93 152.874L1519.4 116.597L1494.8 78.975L1522.24 80.4128Z" fill="#6C67FF"/>
<path d="M1468.31 77.5867L1492.91 115.209L1464.44 151.485L1437.01 150.047L1465.47 113.771L1440.88 76.1488L1468.31 77.5867Z" fill="#6C67FF"/>
<path d="M1702.99 89.8856L1727.58 127.508L1699.12 163.784L1671.68 162.346L1700.15 126.07L1675.56 88.4478L1702.99 89.8856Z" fill="#6C67FF"/>
<path d="M1649.07 87.0595L1673.66 124.682L1645.19 160.958L1617.76 159.52L1646.22 123.244L1621.63 85.6216L1649.07 87.0595Z" fill="#6C67FF"/>
<path d="M618.481 33.0488L643.072 70.6712L614.608 106.947L587.172 105.51L615.636 69.2333L591.045 31.6109L618.481 33.0488Z" fill="#6C67FF"/>
<path d="M564.555 30.2226L589.146 67.8451L560.682 104.121L533.246 102.683L561.71 66.4072L537.119 28.7848L564.555 30.2226Z" fill="#6C67FF"/>
<path d="M618.481 33.0488L643.072 70.6712L614.608 106.947L587.172 105.51L615.636 69.2333L591.045 31.6109L618.481 33.0488Z" fill="#6C67FF"/>
<path d="M564.555 30.2226L589.146 67.8451L560.682 104.121L533.246 102.683L561.71 66.4072L537.119 28.7848L564.555 30.2226Z" fill="#6C67FF"/>
<path d="M437.729 23.576L462.32 61.1984L433.856 97.4746L406.42 96.0367L434.884 59.7605L410.293 22.1381L437.729 23.576Z" fill="#6C67FF"/>
<path d="M383.803 20.7498L408.394 58.3723L379.93 94.6484L352.494 93.2106L380.958 56.9344L356.367 19.312L383.803 20.7498Z" fill="#6C67FF"/>
<path d="M256.977 14.1032L281.568 51.7256L253.104 88.0017L225.668 86.5639L254.132 50.2877L229.541 12.6653L256.977 14.1032Z" fill="#6C67FF"/>
<path d="M203.051 11.277L227.642 48.8994L199.178 85.1756L171.742 83.7377L200.206 47.4616L175.615 9.83916L203.051 11.277Z" fill="#6C67FF"/>
<path d="M76.2252 4.63035L100.816 42.2528L72.3524 78.5289L44.9163 77.0911L73.3802 40.8149L48.7892 3.19249L76.2252 4.63035Z" fill="#6C67FF"/>
<path d="M22.2992 1.80421L46.8903 39.4266L18.4264 75.7028L-9.00965 74.2649L19.4542 37.9888L-5.13679 0.366352L22.2992 1.80421Z" fill="#6C67FF"/>
<rect x="-40.5098" y="31.5293" width="1779" height="74" transform="rotate(-1 -40.5098 31.5293)" fill="#FDD882"/>
<path d="M270.06 70.7983L263.609 70.9109L263.304 53.4591L269.746 53.3466C271.525 53.3156 273.062 53.6382 274.358 54.3146C275.659 54.9851 276.671 55.9676 277.393 57.2621C278.114 58.5508 278.491 60.1013 278.522 61.9135C278.554 63.7314 278.232 65.2998 277.556 66.6186C276.886 67.9373 275.912 68.9573 274.635 69.6786C273.357 70.3941 271.832 70.7674 270.06 70.7983ZM267.764 67.2413L269.835 67.2051C270.812 67.1881 271.636 67.0089 272.306 66.6676C272.982 66.3205 273.487 65.769 273.82 65.0131C274.159 64.2514 274.318 63.2428 274.296 61.9873C274.274 60.7318 274.08 59.735 273.715 58.997C273.35 58.2532 272.82 57.7226 272.127 57.4051C271.44 57.0818 270.596 56.9289 269.596 56.9464L267.585 56.9815L267.764 67.2413ZM287.26 70.7453C285.891 70.7692 284.705 70.52 283.701 69.9976C282.703 69.4695 281.928 68.7074 281.377 67.7112C280.831 66.7092 280.546 65.5123 280.521 64.1204C280.498 62.7684 280.744 61.5821 281.261 60.5615C281.777 59.5353 282.516 58.7325 283.477 58.1532C284.439 57.5681 285.579 57.2641 286.897 57.2411C287.828 57.2248 288.683 57.3548 289.461 57.631C290.238 57.9073 290.913 58.3245 291.486 58.8828C292.058 59.4411 292.508 60.1351 292.835 60.9647C293.162 61.7887 293.334 62.7375 293.353 63.8112L293.371 64.8508L281.995 65.0494L281.953 62.6293L289.452 62.4984C289.438 62.0554 289.326 61.6624 289.116 61.3194C288.905 60.9765 288.619 60.7115 288.258 60.5246C287.902 60.3319 287.494 60.2396 287.034 60.2476C286.568 60.2558 286.153 60.3682 285.787 60.5848C285.421 60.7958 285.134 61.0821 284.924 61.4437C284.714 61.7997 284.608 62.2022 284.604 62.6512L284.647 65.1139C284.657 65.6479 284.77 66.1148 284.987 66.5144C285.204 66.9084 285.508 67.2129 285.898 67.4277C286.288 67.6425 286.75 67.7452 287.284 67.7359C287.654 67.7295 287.988 67.6725 288.287 67.565C288.587 67.4575 288.842 67.3024 289.055 67.0998C289.267 66.8972 289.425 66.6501 289.528 66.3585L293.356 66.4025C293.212 67.2631 292.875 68.0162 292.347 68.6619C291.824 69.3018 291.131 69.8055 290.268 70.1728C289.405 70.5346 288.402 70.7254 287.26 70.7453ZM306.865 61.0608L303.04 61.2298C302.996 60.9578 302.884 60.7183 302.704 60.5111C302.524 60.2983 302.291 60.1348 302.005 60.0204C301.724 59.9003 301.399 59.8435 301.03 59.8499C300.547 59.8583 300.137 59.9621 299.8 60.1612C299.468 60.3602 299.308 60.6244 299.319 60.9538C299.318 61.2096 299.424 61.4293 299.637 61.6131C299.857 61.7968 300.243 61.9407 300.796 62.0447L303.326 62.4779C304.637 62.705 305.616 63.1028 306.262 63.6711C306.915 64.2394 307.252 65.0006 307.274 65.9549C307.284 66.8526 307.031 67.6384 306.514 68.3123C306.003 68.9861 305.296 69.5156 304.394 69.9007C303.491 70.2802 302.455 70.4801 301.284 70.5005C299.415 70.5331 297.934 70.1754 296.842 69.4273C295.754 68.6735 295.123 67.6502 294.947 66.3576L299.061 66.1835C299.16 66.6592 299.402 67.0186 299.787 67.2619C300.172 67.5053 300.66 67.6218 301.251 67.6115C301.785 67.6021 302.218 67.4951 302.55 67.2904C302.881 67.0858 303.047 66.8186 303.047 66.489C303.036 66.1937 302.901 65.9602 302.643 65.7886C302.384 65.6113 301.981 65.4762 301.434 65.3835L299.142 64.9888C297.826 64.7731 296.841 64.3499 296.188 63.7191C295.535 63.0827 295.202 62.2645 295.19 61.2646C295.169 60.3898 295.389 59.6387 295.85 59.0112C296.311 58.3781 296.973 57.8892 297.836 57.5445C298.7 57.1998 299.722 57.0172 300.904 56.9966C302.676 56.9656 304.08 57.3133 305.116 58.0397C306.151 58.7604 306.734 59.7674 306.865 61.0608ZM309.399 70.1117L309.17 57.0228L313.337 56.95L313.566 70.0389L309.399 70.1117ZM311.231 55.461C310.646 55.4712 310.14 55.2868 309.713 54.9079C309.286 54.5232 309.067 54.0554 309.058 53.5043C309.048 52.9589 309.25 52.4894 309.664 52.0958C310.078 51.6965 310.577 51.4917 311.162 51.4815C311.753 51.4712 312.259 51.6584 312.681 52.0431C313.108 52.4221 313.326 52.8843 313.336 53.4296C313.345 53.9807 313.143 54.4559 312.73 54.8552C312.322 55.2487 311.822 55.4507 311.231 55.461ZM322.41 75.0672C321.166 75.0889 320.098 74.9342 319.205 74.6031C318.313 74.2721 317.609 73.8099 317.093 73.2165C316.577 72.6232 316.261 71.9467 316.145 71.1873L320.087 70.8969C320.165 71.1626 320.306 71.3931 320.508 71.5885C320.716 71.7837 320.983 71.9325 321.308 72.0348C321.64 72.137 322.027 72.1842 322.47 72.1765C323.169 72.1643 323.743 71.9838 324.191 71.635C324.645 71.2918 324.865 70.6998 324.851 69.859L324.81 67.5582L324.666 67.5608C324.508 67.967 324.264 68.3321 323.935 68.6561C323.605 68.9801 323.192 69.2373 322.695 69.4278C322.204 69.6182 321.637 69.719 320.995 69.7303C320.041 69.7469 319.162 69.5406 318.359 69.1114C317.562 68.6764 316.916 67.9944 316.423 67.0653C315.935 66.1305 315.678 64.9218 315.652 63.439C315.625 61.9109 315.848 60.6483 316.319 59.6512C316.79 58.6486 317.416 57.9017 318.198 57.4107C318.985 56.9196 319.835 56.6661 320.75 56.6502C321.438 56.6382 322.028 56.7472 322.52 56.9773C323.019 57.2016 323.43 57.4956 323.755 57.8593C324.079 58.223 324.327 58.6022 324.499 58.997L324.618 58.9949L324.579 56.7538L328.729 56.6814L328.959 69.8214C328.978 70.9292 328.716 71.8686 328.172 72.6395C327.629 73.4105 326.861 74.0007 325.868 74.4101C324.875 74.8253 323.722 75.0443 322.41 75.0672ZM322.391 66.6713C322.897 66.6625 323.326 66.5215 323.679 66.2482C324.033 65.975 324.302 65.5867 324.486 65.0834C324.67 64.5801 324.756 63.9791 324.744 63.2803C324.732 62.5702 324.625 61.9612 324.423 61.4533C324.226 60.9396 323.944 60.5467 323.575 60.2747C323.212 60.0026 322.778 59.8709 322.273 59.8798C321.756 59.8888 321.321 60.0384 320.968 60.3287C320.615 60.619 320.349 61.0243 320.171 61.5445C319.998 62.059 319.917 62.6656 319.93 63.3644C319.942 64.0631 320.046 64.6608 320.242 65.1575C320.438 65.6541 320.715 66.0329 321.072 66.2937C321.434 66.5545 321.874 66.6804 322.391 66.6713ZM335.651 62.1864L335.781 69.6512L331.614 69.7239L331.386 56.635L335.348 56.5658L335.39 58.9689L335.535 58.9663C335.811 58.1603 336.294 57.5239 336.985 57.0572C337.676 56.5849 338.504 56.3403 339.47 56.3234C340.39 56.3073 341.192 56.5008 341.875 56.9037C342.564 57.3008 343.102 57.8654 343.49 58.5973C343.883 59.3235 344.086 60.1781 344.097 61.161L344.243 69.5035L340.076 69.5762L339.945 62.0518C339.938 61.3245 339.743 60.7597 339.361 60.3572C338.985 59.9546 338.467 59.759 337.808 59.7705C337.37 59.7782 336.986 59.8815 336.654 60.0805C336.328 60.2737 336.077 60.548 335.901 60.9034C335.731 61.2587 335.648 61.6864 335.651 62.1864ZM355.672 69.5256C354.837 69.5402 354.093 69.4139 353.441 69.1469C352.794 68.874 352.278 68.4568 351.893 67.8953C351.514 67.328 351.316 66.6125 351.301 65.749C351.289 65.0219 351.406 64.4061 351.653 63.9017C351.9 63.3973 352.245 62.985 352.688 62.6647C353.131 62.3444 353.644 62.0996 354.227 61.9304C354.809 61.7554 355.432 61.6337 356.096 61.5653C356.839 61.4841 357.437 61.4027 357.89 61.3209C358.343 61.2334 358.67 61.1169 358.873 60.9713C359.08 60.8199 359.182 60.6107 359.177 60.3437L359.176 60.3011C359.169 59.8637 359.012 59.5283 358.707 59.2949C358.402 59.0616 357.993 58.9494 357.482 58.9583C356.931 58.9679 356.49 59.095 356.159 59.3394C355.828 59.5839 355.621 59.9171 355.537 60.3391L351.692 60.2698C351.791 59.4725 352.071 58.7573 352.532 58.1241C352.998 57.4852 353.643 56.9796 354.466 56.6072C355.295 56.229 356.294 56.0297 357.465 56.0093C358.3 55.9947 359.071 56.0807 359.779 56.2672C360.487 56.4481 361.106 56.7214 361.635 57.0873C362.164 57.4474 362.575 57.8948 362.869 58.4296C363.168 58.9642 363.323 59.5781 363.335 60.2711L363.491 69.1675L359.571 69.2359L359.539 67.4123L359.437 67.4141C359.212 67.8613 358.92 68.2415 358.562 68.5546C358.209 68.8676 357.79 69.1051 357.304 69.267C356.824 69.4288 356.28 69.515 355.672 69.5256ZM356.911 66.7763C357.36 66.7685 357.762 66.6705 358.116 66.4825C358.477 66.2943 358.762 66.0393 358.972 65.7174C359.183 65.3898 359.284 65.013 359.277 64.5869L359.255 63.3428C359.137 63.4074 358.993 63.4667 358.823 63.5208C358.659 63.5748 358.478 63.6263 358.28 63.6752C358.082 63.7241 357.879 63.7675 357.669 63.8052C357.459 63.843 357.258 63.8777 357.066 63.9095C356.675 63.9788 356.341 64.0813 356.065 64.2168C355.795 64.3522 355.587 64.5263 355.443 64.7391C355.305 64.9461 355.238 65.1916 355.243 65.4757C355.251 65.9074 355.41 66.2342 355.721 66.4561C356.037 66.6779 356.434 66.7846 356.911 66.7763ZM370.075 61.5855L370.206 69.0503L366.039 69.123L365.81 56.0341L369.773 55.9649L369.815 58.368L369.959 58.3655C370.235 57.5594 370.718 56.923 371.409 56.4563C372.1 55.984 372.928 55.7394 373.894 55.7225C374.814 55.7065 375.616 55.8999 376.299 56.3028C376.988 56.6999 377.527 57.2645 377.914 57.9965C378.308 58.7227 378.51 59.5772 378.522 60.5601L378.667 68.9026L374.5 68.9753L374.369 61.4509C374.362 60.7236 374.167 60.1588 373.785 59.7563C373.409 59.3537 372.891 59.1582 372.232 59.1697C371.795 59.1773 371.41 59.2806 371.078 59.4796C370.752 59.6728 370.501 59.9472 370.326 60.3025C370.156 60.6578 370.072 61.0855 370.075 61.5855ZM383.412 73.7296C382.912 73.7383 382.44 73.7068 381.995 73.635C381.551 73.5689 381.169 73.4761 380.848 73.3567L381.716 70.3155C382.127 70.4447 382.498 70.5178 382.828 70.5348C383.163 70.5516 383.449 70.4927 383.686 70.3578C383.928 70.2286 384.111 70.0009 384.236 69.6748L384.391 69.28L379.502 55.7951L383.865 55.719L386.44 65.0164L386.576 65.014L388.858 55.6318L393.247 55.5552L388.563 69.9829C388.337 70.7029 388.01 71.3393 387.582 71.8923C387.16 72.4509 386.608 72.8925 385.926 73.2169C385.25 73.5413 384.412 73.7122 383.412 73.7296ZM404.265 60.9887L404.396 68.4535L400.229 68.5262L399.924 51.0743L403.955 51.004L404.073 57.77L404.218 57.7675C404.499 56.9556 404.971 56.3166 405.633 55.8504C406.301 55.3842 407.124 55.1425 408.101 55.1254C409.021 55.1094 409.826 55.2999 410.515 55.697C411.204 56.0885 411.742 56.6502 412.13 57.3822C412.523 58.1141 412.726 58.9743 412.737 59.9629L412.883 68.3054L408.716 68.3781L408.585 60.8537C408.578 60.1264 408.386 59.5615 408.01 59.1589C407.633 58.7563 407.11 58.5609 406.439 58.5726C406.002 58.5802 405.617 58.6835 405.286 58.8825C404.959 59.0758 404.706 59.3501 404.524 59.7056C404.349 60.061 404.262 60.4887 404.265 60.9887ZM419.178 68.4171C418.343 68.4317 417.599 68.3054 416.946 68.0384C416.3 67.7655 415.784 67.3483 415.399 66.7868C415.02 66.2195 414.822 65.504 414.807 64.6405C414.795 63.9134 414.912 63.2976 415.159 62.7932C415.406 62.2888 415.751 61.8765 416.194 61.5562C416.637 61.2359 417.15 60.9911 417.733 60.8219C418.315 60.6469 418.938 60.5252 419.601 60.4568C420.345 60.3756 420.943 60.2942 421.396 60.2124C421.849 60.1249 422.176 60.0084 422.378 59.8628C422.586 59.7114 422.688 59.5022 422.683 59.2352L422.682 59.1926C422.675 58.7552 422.518 58.4198 422.213 58.1864C421.908 57.9531 421.499 57.8409 420.988 57.8498C420.437 57.8594 419.996 57.9865 419.665 58.2309C419.334 58.4754 419.127 58.8086 419.043 59.2306L415.198 59.1613C415.297 58.364 415.577 57.6488 416.038 57.0156C416.504 56.3767 417.149 55.8711 417.972 55.4987C418.801 55.1205 419.8 54.9212 420.971 54.9008C421.806 54.8862 422.577 54.9722 423.285 55.1587C423.993 55.3396 424.611 55.6129 425.141 55.9788C425.67 56.3389 426.081 56.7863 426.375 57.3211C426.674 57.8557 426.829 58.4696 426.841 59.1626L426.997 68.059L423.077 68.1274L423.045 66.3038L422.943 66.3056C422.718 66.7528 422.426 67.133 422.068 67.4461C421.715 67.7591 421.296 67.9966 420.81 68.1585C420.33 68.3203 419.786 68.4065 419.178 68.4171ZM420.417 65.6678C420.866 65.66 421.268 65.562 421.622 65.374C421.983 65.1858 422.268 64.9308 422.478 64.6089C422.689 64.2813 422.79 63.9045 422.783 63.4784L422.761 62.2343C422.643 62.2989 422.499 62.3582 422.329 62.4123C422.165 62.4663 421.984 62.5178 421.786 62.5667C421.588 62.6156 421.385 62.659 421.175 62.6967C420.965 62.7345 420.764 62.7692 420.572 62.801C420.181 62.8703 419.847 62.9728 419.571 63.1083C419.301 63.2437 419.093 63.4178 418.949 63.6306C418.811 63.8376 418.744 64.0831 418.749 64.3672C418.757 64.7989 418.916 65.1257 419.227 65.3476C419.543 65.5694 419.94 65.6761 420.417 65.6678ZM429.545 68.0145L429.316 54.9256L433.364 54.855L433.405 57.241L433.542 57.2386C433.765 56.3709 434.143 55.7222 434.676 55.2924C435.208 54.8569 435.832 54.6329 436.548 54.6204C436.741 54.617 436.94 54.6277 437.145 54.6526C437.35 54.6717 437.541 54.7053 437.718 54.7534L437.781 58.375C437.581 58.3103 437.319 58.2609 436.994 58.2268C436.675 58.1926 436.391 58.1776 436.141 58.182C435.647 58.1906 435.203 58.3092 434.809 58.5377C434.421 58.7604 434.116 59.0697 433.896 59.4657C433.681 59.8559 433.578 60.3123 433.587 60.8349L433.712 67.9418L429.545 68.0145ZM443.749 67.9541C442.783 67.971 441.901 67.7363 441.103 67.2502C440.304 66.7641 439.661 66.0252 439.172 65.0336C438.683 64.0419 438.425 62.8048 438.399 61.322C438.372 59.7825 438.595 58.5114 439.066 57.5087C439.537 56.506 440.163 55.7592 440.945 55.2682C441.732 54.7771 442.582 54.5236 443.497 54.5076C444.184 54.4956 444.774 54.6046 445.267 54.8347C445.76 55.0591 446.168 55.3532 446.493 55.7169C446.818 56.0806 447.066 56.4598 447.237 56.8546L447.323 56.8531L447.207 50.249L451.374 50.1763L451.679 67.6282L447.555 67.7002L447.518 65.5783L447.39 65.5806C447.221 65.987 446.977 66.3691 446.66 66.727C446.342 67.0849 445.941 67.376 445.456 67.6004C444.977 67.8247 444.408 67.9426 443.749 67.9541ZM445.141 64.6822C445.646 64.6733 446.076 64.5238 446.429 64.2335C446.781 63.9375 447.05 63.5265 447.234 63.0005C447.418 62.4745 447.504 61.8592 447.492 61.1548C447.479 60.439 447.372 59.8243 447.169 59.3107C446.973 58.797 446.691 58.4042 446.322 58.1321C445.959 57.86 445.525 57.7284 445.02 57.7372C444.503 57.7462 444.068 57.8959 443.715 58.1862C443.362 58.4765 443.096 58.8817 442.918 59.402C442.745 59.9221 442.665 60.5344 442.677 61.2388C442.689 61.9433 442.794 62.5552 442.99 63.0746C443.187 63.5939 443.464 63.9954 443.821 64.279C444.184 64.5568 444.624 64.6912 445.141 64.6822ZM456.76 67.5395L453.123 54.5101L457.307 54.437L459.217 62.7913L459.328 62.7894L461.073 54.3713L465.155 54.3L467.243 62.5916L467.354 62.5896L468.922 54.2343L473.106 54.1613L469.917 67.3098L465.46 67.3876L463.282 59.7966L463.137 59.7992L461.225 67.4615L456.76 67.5395ZM478.7 67.3781C477.865 67.3927 477.121 67.2665 476.469 66.9994C475.822 66.7266 475.306 66.3094 474.921 65.7478C474.542 65.1805 474.345 64.4651 474.329 63.6016C474.317 62.8744 474.434 62.2586 474.681 61.7542C474.928 61.2499 475.273 60.8375 475.716 60.5172C476.16 60.197 476.672 59.9522 477.255 59.7829C477.837 59.6079 478.46 59.4862 479.124 59.4178C479.867 59.3367 480.465 59.2552 480.918 59.1734C481.371 59.0859 481.699 58.9694 481.901 58.8238C482.108 58.6724 482.21 58.4633 482.205 58.1963L482.204 58.1536C482.197 57.7162 482.04 57.3808 481.735 57.1475C481.43 56.9141 481.021 56.8019 480.51 56.8108C479.959 56.8205 479.518 56.9475 479.187 57.192C478.856 57.4364 478.649 57.7696 478.565 58.1916L474.72 58.1223C474.819 57.325 475.1 56.6098 475.56 55.9767C476.026 55.3377 476.671 54.8321 477.494 54.4597C478.323 54.0816 479.323 53.8823 480.493 53.8618C481.328 53.8473 482.099 53.9332 482.807 54.1198C483.515 54.3006 484.134 54.574 484.663 54.9398C485.192 55.2999 485.603 55.7474 485.897 56.2821C486.196 56.8167 486.351 57.4306 486.364 58.1237L486.519 67.02L482.599 67.0885L482.567 65.2649L482.465 65.2667C482.24 65.7138 481.948 66.094 481.59 66.4071C481.237 66.7201 480.818 66.9576 480.332 67.1195C479.852 67.2813 479.308 67.3675 478.7 67.3781ZM479.939 64.6288C480.388 64.621 480.79 64.5231 481.144 64.335C481.505 64.1469 481.79 63.8919 482.001 63.57C482.211 63.2424 482.312 62.8655 482.305 62.4395L482.283 61.1953C482.165 61.2599 482.021 61.3193 481.851 61.3734C481.688 61.4274 481.507 61.4788 481.309 61.5277C481.111 61.5767 480.907 61.62 480.697 61.6578C480.487 61.6955 480.286 61.7303 480.094 61.7621C479.703 61.8314 479.369 61.9338 479.093 62.0693C478.823 62.2048 478.616 62.3789 478.472 62.5916C478.333 62.7986 478.266 63.0441 478.271 63.3282C478.279 63.7599 478.438 64.0868 478.749 64.3086C479.065 64.5304 479.462 64.6372 479.939 64.6288ZM489.067 66.9756L488.838 53.8866L492.886 53.816L492.928 56.202L493.064 56.1996C493.287 55.3319 493.665 54.6832 494.198 54.2534C494.73 53.8179 495.354 53.5939 496.07 53.5814C496.263 53.578 496.462 53.5888 496.667 53.6136C496.872 53.6328 497.063 53.6664 497.24 53.7144L497.303 57.336C497.103 57.2713 496.841 57.2219 496.516 57.1878C496.198 57.1536 495.913 57.1387 495.663 57.143C495.169 57.1517 494.725 57.2702 494.331 57.4987C493.943 57.7214 493.639 58.0308 493.418 58.4267C493.203 58.8169 493.101 59.2733 493.11 59.796L493.234 66.9028L489.067 66.9756ZM504.61 66.9515C503.241 66.9754 502.054 66.7261 501.051 66.2038C500.053 65.6757 499.278 64.9135 498.726 63.9173C498.181 62.9153 497.895 61.7184 497.871 60.3266C497.847 58.9745 498.094 57.7882 498.61 56.7677C499.126 55.7415 499.865 54.9387 500.827 54.3593C501.789 53.7743 502.928 53.4702 504.246 53.4472C505.178 53.431 506.033 53.5609 506.81 53.8372C507.588 54.1134 508.263 54.5307 508.835 55.089C509.408 55.6472 509.857 56.3412 510.184 57.1709C510.511 57.9948 510.684 58.9437 510.703 60.0174L510.721 61.057L499.345 61.2555L499.303 58.8355L506.802 58.7046C506.788 58.2615 506.676 57.8686 506.466 57.5256C506.255 57.1826 505.969 56.9177 505.608 56.7308C505.252 56.5381 504.844 56.4458 504.384 56.4538C503.918 56.4619 503.502 56.5743 503.137 56.791C502.771 57.0019 502.484 57.2882 502.274 57.6499C502.064 58.0059 501.958 58.4084 501.954 58.8574L501.997 61.3201C502.006 61.8541 502.12 62.3209 502.337 62.7206C502.554 63.1146 502.858 63.419 503.248 63.6338C503.638 63.8486 504.1 63.9514 504.634 63.9421C505.003 63.9356 505.338 63.8786 505.637 63.7711C505.936 63.6636 506.192 63.5085 506.404 63.3059C506.617 63.1033 506.775 62.8562 506.877 62.5646L510.705 62.6086C510.561 63.4692 510.225 64.2224 509.696 64.868C509.173 65.508 508.48 66.0116 507.617 66.379C506.754 66.7407 505.752 66.9315 504.61 66.9515ZM518.187 71.3771L517.873 53.3798L521.997 53.3079L522.036 55.549L522.164 55.5468C522.328 55.1461 522.562 54.7584 522.868 54.3837C523.18 54.0089 523.578 53.7008 524.063 53.4593C524.553 53.2121 525.142 53.0825 525.829 53.0705C526.738 53.0546 527.591 53.2784 528.389 53.7418C529.193 54.2051 529.848 54.9296 530.354 55.9153C530.86 56.9009 531.126 58.1635 531.153 59.703C531.179 61.1857 530.965 62.4312 530.511 63.4392C530.062 64.4472 529.445 65.2081 528.658 65.7219C527.877 66.2356 527.004 66.5009 526.038 66.5178C525.379 66.5293 524.806 66.4313 524.32 66.2238C523.833 66.0164 523.422 65.7394 523.086 65.393C522.756 65.0464 522.5 64.673 522.317 64.2727L522.231 64.2742L522.354 71.3044L518.187 71.3771ZM522.069 59.8531C522.081 60.5575 522.186 61.1694 522.382 61.6888C522.585 62.2081 522.867 62.6094 523.23 62.8929C523.599 63.1706 524.036 63.3051 524.541 63.2962C525.053 63.2873 525.485 63.1377 525.838 62.8474C526.191 62.5514 526.453 62.1405 526.626 61.6147C526.804 61.0888 526.887 60.4736 526.875 59.7692C526.863 59.0647 526.758 58.4557 526.562 57.942C526.371 57.4282 526.094 57.0324 525.731 56.7546C525.374 56.4767 524.937 56.3422 524.42 56.3513C523.909 56.3602 523.477 56.507 523.124 56.7916C522.771 57.0762 522.502 57.4787 522.318 57.999C522.139 58.5192 522.056 59.1373 522.069 59.8531ZM533.451 66.2008L533.222 53.1119L537.27 53.0413L537.311 55.4273L537.448 55.4249C537.671 54.5572 538.049 53.9085 538.582 53.4787C539.114 53.0432 539.738 52.8192 540.454 52.8067C540.647 52.8033 540.846 52.8141 541.051 52.8389C541.256 52.858 541.447 52.8916 541.624 52.9397L541.687 56.5613C541.487 56.4966 541.225 56.4472 540.9 56.4131C540.581 56.3789 540.297 56.3639 540.047 56.3683C539.553 56.3769 539.109 56.4955 538.715 56.724C538.327 56.9467 538.022 57.2561 537.802 57.652C537.587 58.0422 537.484 58.4986 537.494 59.0212L537.618 66.1281L533.451 66.2008ZM548.985 66.1769C547.61 66.2009 546.424 65.9403 545.426 65.3951C544.433 64.8442 543.661 64.0678 543.109 63.0659C542.563 62.0582 542.278 60.884 542.255 59.5433C542.231 58.1969 542.475 57.0135 542.986 55.9931C543.502 54.9669 544.246 54.164 545.219 53.5844C546.198 52.9991 547.375 52.6944 548.749 52.6704C550.124 52.6464 551.308 52.9099 552.301 53.4608C553.299 54.006 554.071 54.7824 554.617 55.7901C555.169 56.792 555.457 57.9661 555.48 59.3125C555.503 60.6532 555.257 61.8366 554.741 62.8629C554.23 63.8833 553.485 64.6862 552.507 65.2715C551.534 65.8511 550.36 66.1529 548.985 66.1769ZM548.956 63.032C549.456 63.0233 549.876 62.8625 550.218 62.5497C550.559 62.2369 550.815 61.8062 550.988 61.2577C551.166 60.709 551.248 60.0768 551.236 59.361C551.223 58.6338 551.118 57.9992 550.921 57.4571C550.73 56.9149 550.459 56.4934 550.107 56.1927C549.755 55.892 549.329 55.746 548.829 55.7547C548.312 55.7637 547.877 55.9248 547.525 56.2378C547.178 56.5507 546.915 56.9815 546.737 57.5301C546.565 58.0787 546.485 58.7165 546.498 59.4437C546.511 60.1595 546.612 60.7885 546.804 61.3307C547.001 61.8728 547.278 62.2942 547.636 62.5948C547.999 62.8953 548.439 63.041 548.956 63.032ZM557.5 52.6882L561.667 52.6154L561.905 66.2497C561.924 67.3291 561.717 68.1908 561.285 68.8348C560.859 69.4787 560.247 69.9468 559.451 70.2392C558.655 70.5315 557.712 70.6872 556.621 70.7062C556.473 70.7088 556.334 70.7084 556.203 70.705C556.072 70.7016 555.93 70.6984 555.777 70.6954L555.722 67.534C555.824 67.5435 555.915 67.5505 555.995 67.5548C556.074 67.559 556.154 67.5605 556.233 67.5591C556.807 67.5491 557.203 67.4342 557.421 67.2145C557.639 67.0004 557.744 66.6747 557.736 66.2372L557.5 52.6882ZM559.552 51.1265C558.967 51.1367 558.461 50.9524 558.034 50.5734C557.607 50.1888 557.388 49.7209 557.379 49.1698C557.369 48.6245 557.571 48.155 557.985 47.7613C558.398 47.362 558.898 47.1572 559.483 47.147C560.074 47.1367 560.58 47.3239 561.001 47.7087C561.429 48.0876 561.647 48.5498 561.656 49.0952C561.666 49.6462 561.464 50.1214 561.05 50.5207C560.643 50.9143 560.143 51.1162 559.552 51.1265ZM570.67 65.7984C569.301 65.8223 568.115 65.573 567.111 65.0507C566.113 64.5226 565.338 63.7604 564.787 62.7642C564.241 61.7622 563.956 60.5653 563.931 59.1735C563.908 57.8214 564.154 56.6351 564.67 55.6146C565.187 54.5884 565.926 53.7856 566.887 53.2062C567.849 52.6212 568.989 52.3171 570.307 52.2941C571.238 52.2779 572.093 52.4079 572.871 52.6841C573.648 52.9603 574.323 53.3776 574.896 53.9359C575.468 54.4942 575.918 55.1881 576.245 56.0178C576.572 56.8417 576.744 57.7906 576.763 58.8643L576.781 59.9039L565.405 60.1025L565.363 57.6824L572.862 57.5515C572.848 57.1085 572.736 56.7155 572.526 56.3725C572.315 56.0295 572.029 55.7646 571.668 55.5777C571.312 55.385 570.904 55.2927 570.444 55.3007C569.978 55.3088 569.563 55.4212 569.197 55.6379C568.831 55.8488 568.544 56.1351 568.334 56.4968C568.124 56.8528 568.018 57.2553 568.014 57.7043L568.057 60.167C568.067 60.701 568.18 61.1678 568.397 61.5675C568.614 61.9615 568.918 62.2659 569.308 62.4807C569.698 62.6955 570.16 62.7983 570.694 62.789C571.064 62.7825 571.398 62.7255 571.697 62.618C571.996 62.5105 572.252 62.3555 572.465 62.1529C572.677 61.9503 572.835 61.7031 572.938 61.4115L576.766 61.4555C576.622 62.3161 576.285 63.0693 575.757 63.715C575.234 64.3549 574.541 64.8585 573.678 65.2259C572.815 65.5876 571.812 65.7784 570.67 65.7984ZM585.12 65.5461C583.74 65.5702 582.55 65.3069 581.552 64.756C580.559 64.2051 579.79 63.4286 579.244 62.4266C578.698 61.419 578.413 60.2476 578.39 58.9126C578.367 57.5719 578.61 56.3913 579.121 55.3709C579.637 54.3447 580.382 53.5389 581.355 52.9537C582.333 52.3683 583.507 52.0637 584.876 52.0398C586.086 52.0187 587.144 52.219 588.049 52.6408C588.96 53.0625 589.675 53.6694 590.195 54.4616C590.72 55.248 591.006 56.1778 591.053 57.251L587.159 57.319C587.068 56.65 586.831 56.1285 586.45 55.7544C586.074 55.3802 585.588 55.1983 584.991 55.2088C584.508 55.2172 584.087 55.3609 583.729 55.6399C583.37 55.9133 583.092 56.3159 582.897 56.8478C582.707 57.3739 582.619 58.0233 582.633 58.7959C582.646 59.5685 582.757 60.2201 582.965 60.7506C583.179 61.2754 583.47 61.6709 583.838 61.9373C584.207 62.1979 584.632 62.3241 585.115 62.3156C585.501 62.3089 585.841 62.2206 586.133 62.0507C586.432 61.8807 586.674 61.6349 586.862 61.3134C587.05 60.9862 587.165 60.5921 587.208 60.131L591.102 60.0631C591.081 61.1431 590.828 62.0909 590.342 62.9063C589.862 63.7216 589.177 64.3615 588.287 64.826C587.403 65.2847 586.347 65.5247 585.12 65.5461ZM600.484 51.9379L600.537 55.0056L592.28 55.1497L592.227 52.082L600.484 51.9379ZM593.902 48.9159L598.069 48.8432L598.28 60.9521C598.285 61.2078 598.328 61.4144 598.41 61.5721C598.498 61.724 598.622 61.8327 598.782 61.8981C598.943 61.9578 599.134 61.9857 599.355 61.9818C599.514 61.979 599.681 61.9619 599.857 61.9304C600.038 61.8932 600.174 61.8624 600.265 61.8381L600.948 64.8351C600.75 64.8954 600.47 64.9713 600.108 65.0629C599.751 65.1544 599.323 65.2158 598.824 65.2473C597.848 65.3098 597.008 65.2108 596.304 64.9503C595.606 64.684 595.067 64.2615 594.688 63.6829C594.314 63.1041 594.125 62.3715 594.121 61.485L593.902 48.9159ZM605.186 65.1959C604.573 65.2066 604.043 64.9999 603.598 64.5758C603.159 64.1516 602.937 63.6326 602.932 63.019C602.916 62.4169 603.12 61.8991 603.544 61.4655C603.974 61.0261 604.496 60.801 605.109 60.7903C605.689 60.7802 606.204 60.9871 606.654 61.4112C607.111 61.8294 607.347 62.3396 607.363 62.9416C607.365 63.3508 607.263 63.7248 607.059 64.0636C606.86 64.4023 606.595 64.6741 606.263 64.8787C605.937 65.0833 605.578 65.189 605.186 65.1959ZM625.452 52.8403C625.349 52.4841 625.201 52.1713 625.009 51.9019C624.817 51.6268 624.583 51.395 624.306 51.2067C624.03 51.0183 623.715 50.8789 623.362 50.7884C623.008 50.6923 622.62 50.6479 622.2 50.6553C621.353 50.67 620.624 50.8873 620.012 51.3072C619.406 51.7269 618.942 52.3317 618.62 53.1215C618.299 53.9057 618.148 54.8545 618.167 55.9679C618.187 57.0871 618.365 58.0387 618.703 58.8227C619.04 59.6067 619.52 60.2007 620.14 60.6047C620.761 61.0087 621.509 61.203 622.384 61.1878C623.156 61.1743 623.808 61.0379 624.337 60.7786C624.872 60.5135 625.275 60.1457 625.545 59.675C625.816 59.2043 625.945 58.6536 625.934 58.023L626.72 58.1031L622.476 58.1772L622.422 55.1009L629.947 54.9696L629.987 57.2789C630.014 58.8412 629.705 60.1848 629.06 61.3099C628.421 62.4349 627.527 63.3057 626.378 63.9224C625.235 64.5391 623.914 64.8605 622.414 64.8866C620.75 64.9157 619.281 64.5805 618.007 63.881C616.733 63.1816 615.732 62.1705 615.005 60.8477C614.277 59.5193 613.897 57.9348 613.865 56.0942C613.84 54.6626 614.03 53.3892 614.437 52.2739C614.844 51.153 615.421 50.1996 616.169 49.4137C616.922 48.6277 617.798 48.0271 618.797 47.6119C619.801 47.1966 620.886 46.9788 622.05 46.9585C623.061 46.9408 624.004 47.0693 624.878 47.3438C625.758 47.6183 626.538 48.0138 627.218 48.5304C627.903 49.047 628.462 49.6651 628.895 50.385C629.328 51.1048 629.603 51.8984 629.721 52.7658L625.452 52.8403ZM638.722 64.6105C637.353 64.6344 636.167 64.3852 635.163 63.8629C634.165 63.3347 633.39 62.5726 632.839 61.5764C632.293 60.5744 632.008 59.3775 631.983 57.9856C631.96 56.6336 632.206 55.4473 632.723 54.4267C633.239 53.4005 633.978 52.5977 634.939 52.0184C635.901 51.4333 637.041 51.1293 638.359 51.1063C639.29 51.09 640.145 51.22 640.923 51.4962C641.7 51.7725 642.375 52.1898 642.948 52.748C643.52 53.3063 643.97 54.0003 644.297 54.8299C644.624 55.6539 644.797 56.6027 644.815 57.6764L644.833 58.716L633.457 58.9146L633.415 56.4945L640.914 56.3636C640.9 55.9206 640.789 55.5276 640.578 55.1846C640.367 54.8417 640.081 54.5767 639.72 54.3898C639.364 54.1972 638.957 54.1048 638.496 54.1129C638.031 54.121 637.615 54.2334 637.249 54.45C636.884 54.661 636.596 54.9473 636.386 55.309C636.177 55.6649 636.07 56.0674 636.066 56.5164L636.109 58.9791C636.119 59.5131 636.232 59.98 636.449 60.3797C636.666 60.7737 636.97 61.0781 637.36 61.2929C637.75 61.5077 638.212 61.6104 638.746 61.6011C639.116 61.5947 639.45 61.5377 639.749 61.4302C640.049 61.3227 640.304 61.1676 640.517 60.965C640.729 60.7624 640.887 60.5153 640.99 60.2237L644.818 60.2677C644.674 61.1283 644.337 61.8814 643.809 62.5271C643.286 63.167 642.593 63.6707 641.73 64.0381C640.867 64.3998 639.864 64.5906 638.722 64.6105ZM654.218 50.9999L654.271 54.0677L646.014 54.2118L645.961 51.1441L654.218 50.9999ZM647.636 47.978L651.803 47.9053L652.014 60.0142C652.019 60.2698 652.062 60.4765 652.144 60.6342C652.232 60.7861 652.356 60.8947 652.516 60.9601C652.677 61.0198 652.868 61.0478 653.089 61.0439C653.248 61.0411 653.415 61.024 653.591 60.9925C653.772 60.9553 653.908 60.9245 653.999 60.9002L654.682 63.8972C654.484 63.9575 654.204 64.0334 653.842 64.125C653.485 64.2164 653.057 64.2779 652.558 64.3093C651.582 64.3718 650.742 64.2729 650.038 64.0124C649.34 63.7461 648.801 63.3236 648.422 62.7449C648.048 62.1661 647.859 61.4335 647.855 60.5471L647.636 47.978ZM665.422 64.1189C664.586 64.1335 663.843 64.0072 663.19 63.7402C662.543 63.4673 662.027 63.0501 661.643 62.4886C661.263 61.9213 661.066 61.2058 661.051 60.3423C661.038 59.6152 661.155 58.9994 661.402 58.495C661.649 57.9906 661.994 57.5783 662.438 57.258C662.881 56.9377 663.394 56.6929 663.976 56.5237C664.559 56.3487 665.182 56.227 665.845 56.1586C666.588 56.0774 667.186 55.996 667.64 55.9142C668.093 55.8267 668.42 55.7102 668.622 55.5646C668.83 55.4132 668.931 55.204 668.927 54.937L668.926 54.8944C668.918 54.457 668.762 54.1216 668.457 53.8882C668.151 53.6549 667.743 53.5427 667.232 53.5516C666.681 53.5612 666.24 53.6883 665.909 53.9327C665.578 54.1772 665.37 54.5104 665.287 54.9324L661.441 54.8631C661.541 54.0658 661.821 53.3506 662.282 52.7174C662.748 52.0785 663.393 51.5729 664.216 51.2005C665.045 50.8223 666.044 50.623 667.214 50.6026C668.049 50.588 668.821 50.674 669.529 50.8605C670.237 51.0414 670.855 51.3147 671.384 51.6806C671.913 52.0407 672.325 52.4881 672.618 53.0229C672.917 53.5575 673.073 54.1714 673.085 54.8644L673.24 63.7608L669.321 63.8292L669.289 62.0056L669.186 62.0074C668.961 62.4546 668.67 62.8348 668.311 63.1479C667.959 63.4609 667.54 63.6984 667.054 63.8603C666.573 64.0221 666.029 64.1083 665.422 64.1189ZM666.661 61.3696C667.11 61.3618 667.511 61.2638 667.866 61.0758C668.226 60.8876 668.512 60.6326 668.722 60.3107C668.932 59.9831 669.034 59.6063 669.026 59.1802L669.005 57.9361C668.886 58.0007 668.742 58.06 668.573 58.1141C668.409 58.1681 668.228 58.2196 668.03 58.2685C667.832 58.3174 667.628 58.3608 667.419 58.3985C667.209 58.4363 667.008 58.471 666.815 58.5028C666.424 58.5721 666.091 58.6746 665.815 58.8101C665.544 58.9455 665.337 59.1196 665.193 59.3324C665.055 59.5394 664.988 59.7849 664.993 60.069C665 60.5007 665.16 60.8275 665.47 61.0494C665.787 61.2712 666.184 61.3779 666.661 61.3696ZM687.136 68.7009C685.891 68.7226 684.823 68.5679 683.931 68.2368C683.039 67.9058 682.334 67.4436 681.818 66.8502C681.302 66.2568 680.986 65.5804 680.871 64.821L684.812 64.5305C684.891 64.7963 685.031 65.0268 685.234 65.2222C685.442 65.4174 685.708 65.5662 686.034 65.6685C686.366 65.7707 686.753 65.8179 687.196 65.8102C687.895 65.798 688.468 65.6175 688.917 65.2687C689.371 64.9255 689.591 64.3335 689.576 63.4927L689.536 61.1919L689.391 61.1944C689.234 61.6007 688.99 61.9658 688.66 62.2898C688.331 62.6137 687.917 62.871 687.421 63.0615C686.93 63.2519 686.363 63.3527 685.721 63.3639C684.767 63.3806 683.888 63.1743 683.085 62.7451C682.287 62.3101 681.642 61.6281 681.148 60.699C680.66 59.7642 680.403 58.5554 680.378 57.0727C680.351 55.5445 680.573 54.2819 681.045 53.2849C681.516 52.2822 682.142 51.5354 682.923 51.0444C683.71 50.5533 684.561 50.2998 685.476 50.2838C686.163 50.2718 686.753 50.3809 687.246 50.611C687.744 50.8352 688.156 51.1293 688.48 51.493C688.805 51.8567 689.053 52.2359 689.225 52.6307L689.344 52.6286L689.305 50.3875L693.455 50.3151L693.684 63.4551C693.704 64.5629 693.441 65.5023 692.898 66.2732C692.355 67.0442 691.586 67.6344 690.593 68.0438C689.6 68.4589 688.448 68.678 687.136 68.7009ZM687.117 60.305C687.622 60.2962 688.052 60.1552 688.405 59.8819C688.758 59.6087 689.027 59.2204 689.212 58.7171C689.396 58.2138 689.482 57.6128 689.47 56.914C689.458 56.2039 689.35 55.5949 689.148 55.087C688.952 54.5733 688.669 54.1804 688.301 53.9084C687.938 53.6363 687.504 53.5046 686.998 53.5134C686.481 53.5225 686.046 53.6721 685.693 53.9624C685.341 54.2527 685.075 54.658 684.896 55.1782C684.724 55.6927 684.643 56.2993 684.655 56.9981C684.668 57.6968 684.772 58.2945 684.968 58.7912C685.164 59.2878 685.441 59.6666 685.798 59.9274C686.16 60.1882 686.6 60.3141 687.117 60.305ZM696.34 63.3576L696.111 50.2687L700.159 50.198L700.201 52.584L700.337 52.5817C700.561 51.714 700.939 51.0652 701.471 50.6354C702.003 50.1999 702.627 49.9759 703.343 49.9635C703.536 49.9601 703.735 49.9708 703.94 49.9956C704.145 50.0148 704.336 50.0484 704.513 50.0965L704.576 53.7181C704.376 53.6534 704.114 53.604 703.79 53.5698C703.471 53.5356 703.186 53.5207 702.936 53.5251C702.442 53.5337 701.998 53.6523 701.604 53.8808C701.216 54.1035 700.912 54.4128 700.691 54.8088C700.477 55.1989 700.374 55.6553 700.383 56.178L700.507 63.2849L696.34 63.3576ZM709.641 63.347C708.806 63.3616 708.063 63.2354 707.41 62.9683C706.763 62.6955 706.247 62.2783 705.862 61.7167C705.483 61.1494 705.286 60.434 705.271 59.5705C705.258 58.8433 705.375 58.2275 705.622 57.7231C705.869 57.2188 706.214 56.8064 706.658 56.4861C707.101 56.1659 707.614 55.9211 708.196 55.7518C708.778 55.5768 709.401 55.4551 710.065 55.3867C710.808 55.3056 711.406 55.2241 711.859 55.1423C712.312 55.0548 712.64 54.9383 712.842 54.7927C713.05 54.6413 713.151 54.4322 713.146 54.1652L713.146 54.1225C713.138 53.6851 712.982 53.3497 712.676 53.1164C712.371 52.883 711.963 52.7708 711.452 52.7798C710.901 52.7894 710.46 52.9164 710.128 53.1609C709.797 53.4053 709.59 53.7385 709.507 54.1605L705.661 54.0912C705.761 53.2939 706.041 52.5787 706.502 51.9456C706.968 51.3066 707.612 50.801 708.436 50.4286C709.264 50.0505 710.264 49.8512 711.434 49.8307C712.269 49.8162 713.041 49.9021 713.749 50.0887C714.457 50.2695 715.075 50.5429 715.604 50.9087C716.133 51.2688 716.545 51.7163 716.838 52.251C717.137 52.7856 717.293 53.3995 717.305 54.0926L717.46 62.9889L713.54 63.0574L713.509 61.2338L713.406 61.2356C713.181 61.6827 712.889 62.0629 712.531 62.376C712.179 62.689 711.759 62.9265 711.274 63.0884C710.793 63.2502 710.249 63.3364 709.641 63.347ZM710.881 60.5977C711.329 60.5899 711.731 60.492 712.086 60.3039C712.446 60.1158 712.732 59.8608 712.942 59.5389C713.152 59.2113 713.254 58.8345 713.246 58.4084L713.224 57.1643C713.106 57.2288 712.962 57.2882 712.793 57.3423C712.629 57.3963 712.448 57.4477 712.25 57.4966C712.052 57.5456 711.848 57.5889 711.638 57.6267C711.429 57.6644 711.228 57.6992 711.035 57.731C710.644 57.8003 710.311 57.9027 710.035 58.0382C709.764 58.1737 709.557 58.3478 709.413 58.5605C709.275 58.7675 709.208 59.013 709.213 59.2971C709.22 59.7288 709.379 60.0557 709.69 60.2775C710.007 60.4993 710.403 60.6061 710.881 60.5977ZM724.045 55.407L724.175 62.8717L720.008 62.9445L719.78 49.8556L723.742 49.7864L723.784 52.1894L723.929 52.1869C724.205 51.3808 724.688 50.7445 725.379 50.2778C726.07 49.8054 726.898 49.5608 727.864 49.544C728.784 49.5279 729.586 49.7213 730.269 50.1242C730.958 50.5214 731.496 51.0859 731.884 51.8179C732.277 52.5441 732.48 53.3986 732.491 54.3816L732.637 62.724L728.47 62.7968L728.339 55.2723C728.332 54.5451 728.137 53.9802 727.755 53.5777C727.379 53.1751 726.861 52.9796 726.202 52.9911C725.764 52.9987 725.38 53.1021 725.048 53.3011C724.722 53.4943 724.471 53.7686 724.295 54.124C724.125 54.4793 724.042 54.9069 724.045 55.407ZM742.376 49.4611L742.43 52.5288L734.173 52.673L734.119 49.6053L742.376 49.4611ZM735.794 46.4392L739.961 46.3664L740.173 58.4754C740.177 58.731 740.22 58.9377 740.303 59.0954C740.391 59.2473 740.515 59.3559 740.675 59.4213C740.835 59.481 741.026 59.509 741.248 59.5051C741.407 59.5023 741.574 59.4852 741.75 59.4537C741.931 59.4164 742.067 59.3857 742.157 59.3613L742.84 62.3584C742.642 62.4187 742.362 62.4946 742 62.5862C741.644 62.6776 741.216 62.7391 740.716 62.7705C739.74 62.833 738.9 62.734 738.197 62.4736C737.499 62.2073 736.96 61.7848 736.58 61.2061C736.207 60.6273 736.018 59.8947 736.014 59.0083L735.794 46.4392ZM757.046 49.2051L757.1 52.2728L748.842 52.4169L748.789 49.3492L757.046 49.2051ZM750.464 46.1831L754.631 46.1104L754.842 58.2193C754.847 58.475 754.89 58.6816 754.972 58.8393C755.06 58.9912 755.184 59.0999 755.345 59.1653C755.505 59.225 755.696 59.2529 755.917 59.249C756.076 59.2462 756.244 59.2291 756.419 59.1976C756.6 59.1604 756.736 59.1296 756.827 59.1053L757.51 62.1023C757.312 62.1626 757.032 62.2385 756.67 62.3301C756.313 62.4216 755.886 62.483 755.386 62.5145C754.41 62.577 753.57 62.478 752.866 62.2175C752.168 61.9512 751.63 61.5287 751.25 60.9501C750.876 60.3713 750.687 59.6387 750.683 58.7522L750.464 46.1831ZM765.374 62.3998C763.999 62.4238 762.813 62.1632 761.815 61.6181C760.822 61.0671 760.05 60.2907 759.498 59.2888C758.952 58.2811 758.667 57.107 758.644 55.7662C758.62 54.4199 758.864 53.2365 759.374 52.216C759.891 51.1898 760.635 50.3869 761.608 49.8074C762.587 49.222 763.764 48.9173 765.138 48.8933C766.513 48.8693 767.697 49.1328 768.69 49.6837C769.688 50.2289 770.46 51.0053 771.006 52.013C771.558 53.0149 771.845 54.189 771.869 55.5354C771.892 56.8761 771.646 58.0596 771.13 59.0858C770.619 60.1062 769.874 60.9091 768.896 61.4944C767.923 62.074 766.749 62.3758 765.374 62.3998ZM765.345 59.2549C765.845 59.2462 766.265 59.0854 766.606 58.7726C766.948 58.4598 767.204 58.0291 767.377 57.4806C767.555 56.9319 767.637 56.2997 767.625 55.5839C767.612 54.8567 767.507 54.2221 767.31 53.68C767.119 53.1378 766.847 52.7164 766.496 52.4156C766.144 52.1149 765.718 51.9689 765.218 51.9776C764.701 51.9867 764.266 52.1477 763.914 52.4607C763.567 52.7736 763.304 53.2044 763.126 53.7531C762.954 54.3016 762.874 54.9394 762.887 55.6666C762.899 56.3824 763.001 57.0114 763.193 57.5536C763.39 58.0957 763.667 58.5171 764.024 58.8177C764.388 59.1182 764.828 59.264 765.345 59.2549ZM779.273 61.91L779.044 48.8211L783.007 48.7519L783.048 51.155L783.193 51.1524C783.452 50.3523 783.901 49.7166 784.541 49.2451C785.181 48.7736 785.949 48.5301 786.847 48.5144C787.756 48.4985 788.538 48.7179 789.194 49.1724C789.85 49.6269 790.272 50.2447 790.462 51.0256L790.598 51.0232C790.829 50.2406 791.296 49.6102 791.998 49.132C792.699 48.6481 793.533 48.3977 794.499 48.3808C795.737 48.3592 796.75 48.7393 797.536 49.5212C798.323 50.2974 798.728 51.3757 798.752 52.7561L798.906 61.5673L794.739 61.64L794.602 53.7833C794.59 53.13 794.414 52.6358 794.073 52.3008C793.732 51.9601 793.294 51.7944 792.76 51.8038C792.186 51.8138 791.738 52.0091 791.415 52.3898C791.098 52.7647 790.944 53.2646 790.955 53.8895L791.092 61.7037L787.087 61.7736L786.949 53.8742C786.938 53.2664 786.765 52.7892 786.429 52.4427C786.094 52.0963 785.656 51.9278 785.116 51.9372C784.753 51.9435 784.433 52.0372 784.158 52.2181C783.883 52.3934 783.668 52.6415 783.515 52.9624C783.367 53.2833 783.297 53.6595 783.304 54.0913L783.44 61.8373L779.273 61.91ZM805.182 61.6794C804.346 61.694 803.603 61.5677 802.95 61.3007C802.303 61.0278 801.787 60.6106 801.403 60.0491C801.023 59.4817 800.826 58.7663 800.811 57.9028C800.798 57.1757 800.915 56.5599 801.162 56.0555C801.409 55.5511 801.754 55.1388 802.198 54.8185C802.641 54.4982 803.154 54.2534 803.736 54.0841C804.319 53.9092 804.942 53.7875 805.605 53.7191C806.348 53.6379 806.946 53.5564 807.4 53.4747C807.853 53.3872 808.18 53.2707 808.382 53.1251C808.59 52.9737 808.691 52.7645 808.687 52.4975L808.686 52.4549C808.678 52.0175 808.522 51.6821 808.217 51.4487C807.911 51.2154 807.503 51.1032 806.992 51.1121C806.441 51.1217 806 51.2487 805.669 51.4932C805.338 51.7376 805.13 52.0709 805.047 52.4928L801.201 52.4236C801.301 51.6263 801.581 50.911 802.042 50.2779C802.508 49.639 803.153 49.1333 803.976 48.761C804.805 48.3828 805.804 48.1835 806.974 48.1631C807.809 48.1485 808.581 48.2345 809.289 48.421C809.997 48.6019 810.615 48.8752 811.144 49.241C811.673 49.6012 812.085 50.0486 812.378 50.5833C812.677 51.118 812.833 51.7318 812.845 52.4249L813 61.3213L809.081 61.3897L809.049 59.5661L808.946 59.5679C808.721 60.0151 808.43 60.3952 808.071 60.7083C807.719 61.0214 807.3 61.2588 806.814 61.4207C806.333 61.5826 805.789 61.6688 805.182 61.6794ZM806.421 58.9301C806.869 58.9222 807.271 58.8243 807.626 58.6363C807.986 58.4481 808.272 58.1931 808.482 57.8712C808.692 57.5436 808.794 57.1668 808.786 56.7407L808.765 55.4966C808.646 55.5612 808.502 55.6205 808.333 55.6746C808.169 55.7286 807.988 55.7801 807.79 55.829C807.592 55.8779 807.388 55.9212 807.179 55.959C806.969 55.9968 806.768 56.0315 806.575 56.0633C806.184 56.1326 805.851 56.2351 805.575 56.3706C805.304 56.506 805.097 56.6801 804.953 56.8929C804.815 57.0999 804.748 57.3454 804.753 57.6294C804.76 58.0612 804.92 58.388 805.23 58.6099C805.547 58.8317 805.943 58.9384 806.421 58.9301ZM819.246 57.7771L819.177 52.8088L819.756 52.7987L823.356 48.0476L828.076 47.9652L822.723 54.7756L821.624 54.7948L819.246 57.7771ZM815.548 61.2768L815.244 43.8249L819.411 43.7522L819.715 61.2041L815.548 61.2768ZM823.678 61.1349L820.157 55.758L822.849 52.7532L828.492 61.0509L823.678 61.1349ZM835.38 61.1778C834.011 61.2017 832.824 60.9525 831.821 60.4302C830.823 59.9021 830.048 59.1399 829.496 58.1437C828.95 57.1417 828.665 55.9448 828.641 54.553C828.617 53.2009 828.864 52.0146 829.38 50.9941C829.896 49.9679 830.635 49.1651 831.597 48.5857C832.559 48.0006 833.698 47.6966 835.016 47.6736C835.948 47.6573 836.803 47.7873 837.58 48.0636C838.358 48.3398 839.033 48.7571 839.605 49.3154C840.178 49.8736 840.627 50.5676 840.954 51.3972C841.281 52.2212 841.454 53.17 841.473 54.2437L841.491 55.2834L830.115 55.4819L830.073 53.0618L837.571 52.931C837.558 52.4879 837.446 52.0949 837.235 51.752C837.025 51.409 836.739 51.1441 836.378 50.9572C836.022 50.7645 835.614 50.6722 835.154 50.6802C834.688 50.6883 834.272 50.8007 833.907 51.0173C833.541 51.2283 833.253 51.5146 833.044 51.8763C832.834 52.2323 832.727 52.6348 832.724 53.0838L832.767 55.5465C832.776 56.0805 832.89 56.5473 833.107 56.947C833.324 57.341 833.628 57.6454 834.018 57.8602C834.408 58.075 834.87 58.1778 835.404 58.1684C835.773 58.162 836.108 58.105 836.407 57.9975C836.706 57.89 836.962 57.7349 837.174 57.5323C837.387 57.3297 837.544 57.0826 837.647 56.791L841.475 56.835C841.331 57.6956 840.995 58.4487 840.466 59.0944C839.943 59.7343 839.25 60.238 838.387 60.6054C837.524 60.9671 836.522 61.1579 835.38 61.1778ZM848.871 60.6952L848.643 47.6062L852.81 47.5335L853.038 60.6224L848.871 60.6952ZM850.704 46.0445C850.119 46.0547 849.613 45.8703 849.186 45.4913C848.758 45.1067 848.54 44.6388 848.53 44.0878C848.521 43.5424 848.723 43.0729 849.136 42.6793C849.55 42.2799 850.049 42.0752 850.635 42.065C851.225 42.0546 851.732 42.2419 852.153 42.6266C852.58 43.0056 852.799 43.4677 852.808 44.0131C852.818 44.5642 852.616 45.0393 852.202 45.4387C851.794 45.8322 851.295 46.0341 850.704 46.0445ZM862.85 47.3582L862.904 50.426L854.646 50.5701L854.593 47.5024L862.85 47.3582ZM856.268 44.3363L860.435 44.2636L860.646 56.3725C860.651 56.6282 860.694 56.8348 860.777 56.9925C860.864 57.1444 860.989 57.253 861.149 57.3184C861.309 57.3781 861.5 57.4061 861.721 57.4022C861.88 57.3994 862.048 57.3823 862.223 57.3508C862.405 57.3136 862.54 57.2828 862.631 57.2585L863.314 60.2555C863.116 60.3158 862.836 60.3917 862.474 60.4833C862.118 60.5747 861.69 60.6362 861.19 60.6677C860.214 60.7302 859.374 60.6312 858.67 60.3707C857.972 60.1044 857.434 59.6819 857.054 59.1032C856.681 58.5244 856.492 57.7918 856.487 56.9054L856.268 44.3363ZM870.36 60.3201L870.132 47.2311L874.179 47.1605L874.221 49.5465L874.357 49.5441C874.581 48.6764 874.959 48.0277 875.491 47.5979C876.024 47.1624 876.648 46.9384 877.363 46.9259C877.556 46.9225 877.756 46.9333 877.961 46.9581C878.165 46.9773 878.356 47.0109 878.533 47.0589L878.597 50.6805C878.397 50.6158 878.134 50.5664 877.81 50.5323C877.491 50.4981 877.207 50.4832 876.957 50.4875C876.462 50.4962 876.018 50.6147 875.625 50.8432C875.236 51.0659 874.932 51.3753 874.712 51.7712C874.497 52.1614 874.394 52.6178 874.403 53.1405L874.527 60.2473L870.36 60.3201ZM885.903 60.296C884.534 60.3198 883.348 60.0706 882.344 59.5483C881.346 59.0202 880.572 58.258 880.02 57.2618C879.474 56.2598 879.189 55.0629 879.165 53.6711C879.141 52.319 879.387 51.1327 879.904 50.1122C880.42 49.086 881.159 48.2832 882.121 47.7038C883.082 47.1188 884.222 46.8147 885.54 46.7917C886.471 46.7755 887.326 46.9054 888.104 47.1817C888.881 47.4579 889.556 47.8752 890.129 48.4335C890.701 48.9917 891.151 49.6857 891.478 50.5154C891.805 51.3393 891.978 52.2882 891.996 53.3619L892.015 54.4015L880.638 54.6L880.596 52.18L888.095 52.0491C888.082 51.606 887.97 51.2131 887.759 50.8701C887.548 50.5271 887.263 50.2622 886.901 50.0753C886.546 49.8826 886.138 49.7903 885.678 49.7983C885.212 49.8064 884.796 49.9188 884.43 50.1355C884.065 50.3464 883.777 50.6327 883.567 50.9944C883.358 51.3504 883.251 51.7529 883.248 52.2019L883.29 54.6646C883.3 55.1986 883.413 55.6654 883.63 56.0651C883.847 56.4591 884.151 56.7635 884.541 56.9783C884.931 57.1931 885.394 57.2959 885.928 57.2865C886.297 57.2801 886.631 57.2231 886.93 57.1156C887.23 57.0081 887.486 56.853 887.698 56.6504C887.91 56.4478 888.068 56.2007 888.171 55.9091L891.999 55.9531C891.855 56.8137 891.519 57.5669 890.99 58.2125C890.467 58.8525 889.774 59.3561 888.911 59.7235C888.048 60.0852 887.045 60.276 885.903 60.296ZM897.933 60.0604C897.098 60.075 896.354 59.9487 895.702 59.6817C895.055 59.4088 894.539 58.9916 894.154 58.4301C893.775 57.8628 893.578 57.1473 893.563 56.2838C893.55 55.5567 893.667 54.9409 893.914 54.4365C894.161 53.9321 894.506 53.5198 894.949 53.1995C895.393 52.8792 895.905 52.6344 896.488 52.4651C897.07 52.2902 897.693 52.1685 898.357 52.1001C899.1 52.0189 899.698 51.9375 900.151 51.8557C900.604 51.7682 900.932 51.6517 901.134 51.5061C901.341 51.3547 901.443 51.1455 901.438 50.8785L901.437 50.8359C901.43 50.3985 901.273 50.0631 900.968 49.8297C900.663 49.5964 900.255 49.4842 899.743 49.4931C899.192 49.5027 898.751 49.6298 898.42 49.8742C898.089 50.1187 897.882 50.4519 897.798 50.8739L893.953 50.8046C894.052 50.0073 894.333 49.2921 894.793 48.6589C895.259 48.02 895.904 47.5144 896.727 47.142C897.556 46.7638 898.556 46.5645 899.726 46.5441C900.561 46.5295 901.332 46.6155 902.04 46.802C902.748 46.9829 903.367 47.2562 903.896 47.6221C904.425 47.9822 904.836 48.4296 905.13 48.9644C905.429 49.499 905.584 50.1128 905.597 50.8059L905.752 59.7023L901.832 59.7707L901.8 57.9471L901.698 57.9489C901.473 58.3961 901.181 58.7762 900.823 59.0894C900.47 59.4024 900.051 59.6399 899.565 59.8018C899.085 59.9636 898.541 60.0498 897.933 60.0604ZM899.172 57.3111C899.621 57.3032 900.023 57.2053 900.377 57.0173C900.738 56.8291 901.023 56.5741 901.234 56.2522C901.444 55.9246 901.545 55.5478 901.538 55.1217L901.516 53.8776C901.398 53.9422 901.254 54.0015 901.084 54.0556C900.921 54.1096 900.74 54.1611 900.542 54.21C900.344 54.2589 900.14 54.3023 899.93 54.34C899.721 54.3778 899.519 54.4125 899.327 54.4443C898.936 54.5136 898.602 54.6161 898.326 54.7516C898.056 54.887 897.849 55.0611 897.705 55.2739C897.566 55.4809 897.499 55.7264 897.504 56.0104C897.512 56.4422 897.671 56.769 897.982 56.9909C898.298 57.2127 898.695 57.3194 899.172 57.3111ZM912.162 42.1332L912.467 59.5851L908.3 59.6578L907.995 42.2059L912.162 42.1332ZM917.467 59.745C916.853 59.7557 916.324 59.549 915.879 59.1249C915.44 58.7007 915.218 58.1818 915.213 57.5681C915.196 56.966 915.4 56.4482 915.825 56.0146C916.255 55.5752 916.776 55.3501 917.39 55.3394C917.969 55.3293 918.484 55.5363 918.935 55.9603C919.391 56.3785 919.627 56.8887 919.644 57.4908C919.645 57.8999 919.544 58.2739 919.339 58.6127C919.141 58.9515 918.875 59.2232 918.544 59.4279C918.218 59.6325 917.859 59.7382 917.467 59.745ZM926.485 59.3404L926.18 41.8885L938.093 41.6806L938.153 45.1062L930.458 45.2405L930.52 48.8195L937.457 48.6984L937.517 52.1326L930.58 52.2536L930.703 59.2668L926.485 59.3404ZM945.675 59.2526C944.3 59.2766 943.113 59.0161 942.115 58.4709C941.122 57.92 940.35 57.1435 939.799 56.1416C939.253 55.134 938.968 53.9598 938.944 52.6191C938.921 51.2727 939.164 50.0893 939.675 49.0689C940.191 48.0427 940.936 47.2398 941.909 46.6602C942.888 46.0748 944.064 45.7702 945.439 45.7462C946.814 45.7222 947.998 45.9856 948.99 46.5366C949.989 47.0817 950.761 47.8582 951.307 48.8658C951.859 49.8677 952.146 51.0419 952.17 52.3882C952.193 53.7289 951.947 54.9124 951.43 55.9386C950.92 56.959 950.175 57.7619 949.196 58.3473C948.223 58.9269 947.05 59.2286 945.675 59.2526ZM945.645 56.1078C946.145 56.0991 946.566 55.9383 946.907 55.6255C947.248 55.3126 947.505 54.882 947.677 54.3334C947.855 53.7848 947.938 53.1526 947.926 52.4368C947.913 51.7096 947.808 51.075 947.611 50.5329C947.42 49.9907 947.148 49.5692 946.796 49.2685C946.444 48.9678 946.018 48.8218 945.518 48.8305C945.001 48.8395 944.567 49.0005 944.214 49.3135C943.867 49.6265 943.605 50.0572 943.427 50.6059C943.255 51.1544 943.175 51.7923 943.188 52.5195C943.2 53.2353 943.302 53.8643 943.493 54.4064C943.69 54.9485 943.968 55.3699 944.325 55.6705C944.688 55.9711 945.129 56.1168 945.645 56.1078ZM954.418 58.8528L954.189 45.7639L958.237 45.6933L958.279 48.0793L958.415 48.0769C958.638 47.2092 959.016 46.5605 959.549 46.1307C960.081 45.6952 960.705 45.4712 961.421 45.4587C961.614 45.4553 961.813 45.466 962.018 45.4909C962.223 45.51 962.414 45.5436 962.591 45.5917L962.654 49.2133C962.454 49.1486 962.192 49.0992 961.867 49.0651C961.549 49.0309 961.264 49.0159 961.014 49.0203C960.52 49.0289 960.076 49.1475 959.682 49.376C959.294 49.5987 958.99 49.908 958.769 50.304C958.554 50.6942 958.452 51.1506 958.461 51.6732L958.585 58.7801L954.418 58.8528ZM973.71 51.049L973.84 58.5138L969.673 58.5865L969.369 41.1347L973.399 41.0643L973.517 47.8303L973.662 47.8278C973.944 47.0159 974.415 46.3769 975.078 45.9107C975.746 45.4445 976.569 45.2028 977.546 45.1857C978.466 45.1697 979.271 45.3602 979.959 45.7573C980.648 46.1488 981.186 46.7105 981.574 47.4425C981.968 48.1744 982.17 49.0346 982.182 50.0232L982.328 58.3657L978.161 58.4384L978.029 50.914C978.022 50.1867 977.831 49.6218 977.454 49.2192C977.078 48.8166 976.554 48.6212 975.884 48.6329C975.447 48.6405 975.062 48.7438 974.73 48.9428C974.404 49.1361 974.15 49.4104 973.969 49.7659C973.793 50.1213 973.707 50.549 973.71 51.049ZM984.929 58.3203L984.7 45.2313L988.867 45.1586L989.096 58.2475L984.929 58.3203ZM986.761 43.6696C986.176 43.6798 985.67 43.4954 985.243 43.1164C984.816 42.7318 984.597 42.2639 984.588 41.7129C984.578 41.1675 984.78 40.698 985.194 40.3044C985.607 39.905 986.107 39.7003 986.692 39.6901C987.283 39.6797 987.789 39.867 988.21 40.2517C988.638 40.6307 988.856 41.0928 988.865 41.6382C988.875 42.1893 988.673 42.6645 988.26 43.0638C987.852 43.4573 987.352 43.6593 986.761 43.6696ZM997.94 63.2758C996.696 63.2975 995.627 63.1428 994.735 62.8117C993.843 62.4807 993.139 62.0185 992.623 61.4251C992.106 60.8317 991.791 60.1553 991.675 59.3959L995.617 59.1054C995.695 59.3712 995.836 59.6017 996.038 59.7971C996.246 59.9923 996.513 60.1411 996.838 60.2434C997.17 60.3456 997.557 60.3928 998 60.3851C998.699 60.3729 999.273 60.1924 999.721 59.8436C1000.18 59.5004 1000.4 58.9084 1000.38 58.0676L1000.34 55.7668L1000.2 55.7693C1000.04 56.1756 999.794 56.5407 999.464 56.8647C999.135 57.1886 998.722 57.4459 998.225 57.6364C997.734 57.8268 997.167 57.9276 996.525 57.9388C995.571 57.9555 994.692 57.7492 993.889 57.32C993.092 56.885 992.446 56.2029 991.953 55.2739C991.465 54.3391 991.208 53.1303 991.182 51.6476C991.155 50.1194 991.377 48.8568 991.849 47.8598C992.32 46.8571 992.946 46.1103 993.728 45.6193C994.515 45.1282 995.365 44.8747 996.28 44.8587C996.967 44.8467 997.557 44.9558 998.05 45.1858C998.549 45.4101 998.96 45.7041 999.285 46.0679C999.609 46.4316 999.857 46.8108 1000.03 47.2056L1000.15 47.2035L1000.11 44.9624L1004.26 44.8899L1004.49 58.03C1004.51 59.1378 1004.25 60.0772 1003.7 60.8481C1003.16 61.6191 1002.39 62.2093 1001.4 62.6187C1000.4 63.0338 999.252 63.2529 997.94 63.2758ZM997.921 54.8799C998.427 54.8711 998.856 54.7301 999.209 54.4568C999.563 54.1836 999.831 53.7953 1000.02 53.292C1000.2 52.7887 1000.29 52.1877 1000.27 51.4889C1000.26 50.7788 1000.15 50.1698 999.952 49.6619C999.756 49.1482 999.474 48.7553 999.105 48.4833C998.742 48.2112 998.308 48.0795 997.803 48.0883C997.286 48.0974 996.851 48.247 996.498 48.5373C996.145 48.8276 995.879 49.2329 995.701 49.7531C995.528 50.2676 995.447 50.8742 995.46 51.5729C995.472 52.2717 995.576 52.8694 995.772 53.3661C995.968 53.8627 996.245 54.2415 996.602 54.5023C996.964 54.7631 997.404 54.8889 997.921 54.8799ZM1011.18 50.395L1011.31 57.8598L1007.14 57.9325L1006.84 40.4806L1010.87 40.4102L1010.99 47.1763L1011.13 47.1737C1011.41 46.3619 1011.89 45.7229 1012.55 45.2567C1013.22 44.7904 1014.04 44.5487 1015.02 44.5317C1015.94 44.5156 1016.74 44.7062 1017.43 45.1033C1018.12 45.4947 1018.66 46.0565 1019.05 46.7884C1019.44 47.5203 1019.64 48.3805 1019.65 49.3691L1019.8 57.7116L1015.63 57.7843L1015.5 50.2599C1015.49 49.5327 1015.3 48.9677 1014.92 48.5652C1014.55 48.1626 1014.03 47.9671 1013.35 47.9788C1012.92 47.9865 1012.53 48.0898 1012.2 48.2888C1011.87 48.482 1011.62 48.7564 1011.44 49.1119C1011.26 49.4673 1011.18 49.895 1011.18 50.395ZM1038.82 48.2844L1035 48.4534C1034.95 48.1814 1034.84 47.9419 1034.66 47.7348C1034.48 47.522 1034.25 47.3584 1033.96 47.244C1033.68 47.1239 1033.36 47.0671 1032.99 47.0735C1032.51 47.082 1032.1 47.1857 1031.76 47.3848C1031.43 47.5838 1031.27 47.848 1031.28 48.1774C1031.28 48.4332 1031.38 48.6529 1031.6 48.8367C1031.82 49.0204 1032.2 49.1643 1032.75 49.2683L1035.29 49.7015C1036.6 49.9286 1037.57 50.3264 1038.22 50.8947C1038.87 51.463 1039.21 52.2243 1039.23 53.1786C1039.24 54.0762 1038.99 54.862 1038.47 55.5359C1037.96 56.2097 1037.25 56.7392 1036.35 57.1243C1035.45 57.5038 1034.41 57.7037 1033.24 57.7241C1031.37 57.7568 1029.89 57.399 1028.8 56.6509C1027.71 55.8971 1027.08 54.8738 1026.91 53.5813L1031.02 53.4072C1031.12 53.8828 1031.36 54.2422 1031.75 54.4856C1032.13 54.7289 1032.62 54.8454 1033.21 54.8351C1033.74 54.8257 1034.18 54.7187 1034.51 54.5141C1034.84 54.3094 1035.01 54.0422 1035.01 53.7126C1034.99 53.4173 1034.86 53.1839 1034.6 53.0122C1034.34 52.8349 1033.94 52.6998 1033.39 52.6071L1031.1 52.2124C1029.78 51.9967 1028.8 51.5735 1028.15 50.9427C1027.49 50.3063 1027.16 49.4881 1027.15 48.4882C1027.13 47.6134 1027.35 46.8623 1027.81 46.2348C1028.27 45.6017 1028.93 45.1128 1029.79 44.7681C1030.66 44.4235 1031.68 44.2408 1032.86 44.2202C1034.63 44.1893 1036.04 44.537 1037.07 45.2633C1038.11 45.984 1038.69 46.991 1038.82 48.2844ZM1047.47 57.4758C1046.09 57.4999 1044.9 57.2365 1043.9 56.6856C1042.91 56.1347 1042.14 55.3582 1041.6 54.3563C1041.05 53.3486 1040.76 52.1772 1040.74 50.8422C1040.72 49.5015 1040.96 48.3209 1041.47 47.3005C1041.99 46.2743 1042.73 45.4686 1043.71 44.8833C1044.68 44.298 1045.86 43.9933 1047.23 43.9694C1048.44 43.9483 1049.5 44.1486 1050.4 44.5704C1051.31 44.9921 1052.03 45.599 1052.55 46.3912C1053.07 47.1776 1053.36 48.1074 1053.4 49.1806L1049.51 49.2486C1049.42 48.5796 1049.18 48.0581 1048.8 47.684C1048.43 47.3098 1047.94 47.128 1047.34 47.1384C1046.86 47.1468 1046.44 47.2905 1046.08 47.5696C1045.72 47.8429 1045.44 48.2455 1045.25 48.7774C1045.06 49.3036 1044.97 49.9529 1044.98 50.7255C1045 51.4981 1045.11 52.1497 1045.32 52.6803C1045.53 53.205 1045.82 53.6006 1046.19 53.8669C1046.56 54.1276 1046.98 54.2537 1047.47 54.2453C1047.85 54.2385 1048.19 54.1502 1048.48 53.9803C1048.78 53.8103 1049.03 53.5645 1049.21 53.243C1049.4 52.9158 1049.52 52.5217 1049.56 52.0607L1053.45 51.9927C1053.43 53.0728 1053.18 54.0205 1052.69 54.8359C1052.21 55.6513 1051.53 56.2911 1050.64 56.7556C1049.75 57.2143 1048.7 57.4543 1047.47 57.4758ZM1059.71 49.5479L1059.84 57.0126L1055.68 57.0854L1055.37 39.6335L1059.4 39.5631L1059.52 46.3291L1059.66 46.3266C1059.95 45.5148 1060.42 44.8757 1061.08 44.4096C1061.75 43.9433 1062.57 43.7016 1063.55 43.6846C1064.47 43.6685 1065.27 43.859 1065.96 44.2562C1066.65 44.6476 1067.19 45.2093 1067.58 45.9413C1067.97 46.6732 1068.17 47.5334 1068.18 48.522L1068.33 56.8645L1064.16 56.9372L1064.03 49.4128C1064.02 48.6855 1063.83 48.1206 1063.46 47.718C1063.08 47.3154 1062.56 47.12 1061.89 47.1317C1061.45 47.1393 1061.06 47.2427 1060.73 47.4417C1060.41 47.6349 1060.15 47.9092 1059.97 48.2647C1059.8 48.6201 1059.71 49.0478 1059.71 49.5479ZM1077.05 56.9596C1075.67 56.9836 1074.48 56.723 1073.49 56.1778C1072.49 55.6269 1071.72 54.8505 1071.17 53.8486C1070.62 52.8409 1070.34 51.6667 1070.31 50.326C1070.29 48.9796 1070.54 47.7962 1071.05 46.7758C1071.56 45.7496 1072.31 44.9467 1073.28 44.3671C1074.26 43.7818 1075.43 43.4771 1076.81 43.4531C1078.18 43.4291 1079.37 43.6926 1080.36 44.2435C1081.36 44.7887 1082.13 45.5651 1082.68 46.5727C1083.23 47.5746 1083.52 48.7488 1083.54 50.0952C1083.56 51.4359 1083.32 52.6193 1082.8 53.6455C1082.29 54.666 1081.55 55.4689 1080.57 56.0542C1079.59 56.6338 1078.42 56.9356 1077.05 56.9596ZM1077.02 53.8147C1077.52 53.806 1077.94 53.6452 1078.28 53.3324C1078.62 53.0196 1078.88 52.5889 1079.05 52.0403C1079.23 51.4917 1079.31 50.8595 1079.3 50.1437C1079.28 49.4165 1079.18 48.7819 1078.98 48.2398C1078.79 47.6976 1078.52 47.2761 1078.17 46.9754C1077.81 46.6747 1077.39 46.5287 1076.89 46.5374C1076.37 46.5464 1075.94 46.7074 1075.58 47.0205C1075.24 47.3334 1074.98 47.7642 1074.8 48.3128C1074.63 48.8614 1074.55 49.4992 1074.56 50.2264C1074.57 50.9422 1074.67 51.5712 1074.86 52.1134C1075.06 52.6555 1075.34 53.0768 1075.7 53.3775C1076.06 53.678 1076.5 53.8237 1077.02 53.8147ZM1091.9 56.7002C1090.53 56.7242 1089.34 56.4636 1088.34 55.9185C1087.35 55.3675 1086.58 54.5911 1086.03 53.5892C1085.48 52.5816 1085.2 51.4074 1085.17 50.0667C1085.15 48.7203 1085.39 47.5369 1085.9 46.5164C1086.42 45.4902 1087.16 44.6873 1088.14 44.1078C1089.12 43.5224 1090.29 43.2178 1091.67 43.1938C1093.04 43.1698 1094.23 43.4332 1095.22 43.9842C1096.22 44.5293 1096.99 45.3057 1097.53 46.3134C1098.09 47.3153 1098.37 48.4894 1098.4 49.8358C1098.42 51.1765 1098.17 52.36 1097.66 53.3862C1097.15 54.4066 1096.4 55.2095 1095.42 55.7949C1094.45 56.3744 1093.28 56.6762 1091.9 56.7002ZM1091.87 53.5554C1092.37 53.5466 1092.79 53.3859 1093.13 53.073C1093.48 52.7602 1093.73 52.3295 1093.91 51.781C1094.08 51.2324 1094.17 50.6001 1094.15 49.8843C1094.14 49.1572 1094.04 48.5225 1093.84 47.9804C1093.65 47.4382 1093.38 47.0168 1093.02 46.7161C1092.67 46.4153 1092.25 46.2693 1091.75 46.2781C1091.23 46.2871 1090.79 46.4481 1090.44 46.7611C1090.1 47.0741 1089.83 47.5048 1089.65 48.0535C1089.48 48.602 1089.4 49.2399 1089.42 49.967C1089.43 50.6828 1089.53 51.3118 1089.72 51.854C1089.92 52.3961 1090.2 52.8175 1090.55 53.1181C1090.92 53.4186 1091.36 53.5644 1091.87 53.5554ZM1104.51 38.7758L1104.81 56.2277L1100.65 56.3004L1100.34 38.8485L1104.51 38.7758ZM1113.59 56.3217C1112.22 56.3456 1111.03 56.0964 1110.03 55.5741C1109.03 55.0459 1108.26 54.2838 1107.7 53.2876C1107.16 52.2856 1106.87 51.0887 1106.85 49.6968C1106.83 48.3448 1107.07 47.1585 1107.59 46.1379C1108.1 45.1117 1108.84 44.3089 1109.8 43.7296C1110.77 43.1445 1111.91 42.8405 1113.22 42.8175C1114.16 42.8012 1115.01 42.9312 1115.79 43.2074C1116.57 43.4837 1117.24 43.901 1117.81 44.4592C1118.39 45.0175 1118.83 45.7115 1119.16 46.5411C1119.49 47.3651 1119.66 48.3139 1119.68 49.3876L1119.7 50.4272L1108.32 50.6258L1108.28 48.2057L1115.78 48.0748C1115.77 47.6318 1115.65 47.2388 1115.44 46.8958C1115.23 46.5529 1114.95 46.2879 1114.59 46.101C1114.23 45.9083 1113.82 45.816 1113.36 45.8241C1112.9 45.8322 1112.48 45.9446 1112.11 46.1612C1111.75 46.3722 1111.46 46.6585 1111.25 47.0202C1111.04 47.3761 1110.94 47.7786 1110.93 48.2276L1110.97 50.6903C1110.98 51.2243 1111.1 51.6912 1111.31 52.0909C1111.53 52.4848 1111.84 52.7893 1112.23 53.0041C1112.62 53.2189 1113.08 53.3216 1113.61 53.3123C1113.98 53.3059 1114.32 53.2489 1114.61 53.1414C1114.91 53.0339 1115.17 52.8788 1115.38 52.6762C1115.59 52.4736 1115.75 52.2265 1115.85 51.9349L1119.68 51.9789C1119.54 52.8395 1119.2 53.5926 1118.67 54.2383C1118.15 54.8782 1117.46 55.3819 1116.59 55.7492C1115.73 56.111 1114.73 56.3018 1113.59 56.3217ZM1121.92 55.929L1121.7 42.8401L1125.74 42.7694L1125.78 45.1554L1125.92 45.1531C1126.14 44.2854 1126.52 43.6367 1127.05 43.2068C1127.59 42.7713 1128.21 42.5474 1128.93 42.5349C1129.12 42.5315 1129.32 42.5422 1129.52 42.5671C1129.73 42.5862 1129.92 42.6198 1130.1 42.6679L1130.16 46.2895C1129.96 46.2248 1129.7 46.1754 1129.37 46.1413C1129.05 46.107 1128.77 46.0921 1128.52 46.0965C1128.03 46.1051 1127.58 46.2237 1127.19 46.4522C1126.8 46.6749 1126.5 46.9842 1126.27 47.3802C1126.06 47.7703 1125.96 48.2268 1125.97 48.7494L1126.09 55.8563L1121.92 55.929ZM1143.29 46.4609L1139.47 46.6299C1139.42 46.3579 1139.31 46.1184 1139.13 45.9113C1138.95 45.6985 1138.72 45.5349 1138.43 45.4205C1138.15 45.3004 1137.83 45.2436 1137.46 45.25C1136.97 45.2585 1136.56 45.3622 1136.23 45.5613C1135.9 45.7603 1135.73 46.0245 1135.75 46.3539C1135.75 46.6097 1135.85 46.8294 1136.06 47.0132C1136.28 47.1969 1136.67 47.3408 1137.22 47.4448L1139.75 47.878C1141.06 48.1051 1142.04 48.5029 1142.69 49.0712C1143.34 49.6395 1143.68 50.4008 1143.7 51.3551C1143.71 52.2527 1143.46 53.0385 1142.94 53.7124C1142.43 54.3862 1141.72 54.9157 1140.82 55.3008C1139.92 55.6803 1138.88 55.8802 1137.71 55.9006C1135.84 55.9332 1134.36 55.5755 1133.27 54.8274C1132.18 54.0736 1131.55 53.0503 1131.37 51.7578L1135.49 51.5837C1135.59 52.0593 1135.83 52.4187 1136.21 52.6621C1136.6 52.9054 1137.09 53.0219 1137.68 53.0116C1138.21 53.0022 1138.65 52.8952 1138.98 52.6906C1139.31 52.4859 1139.47 52.2187 1139.47 51.8891C1139.46 51.5938 1139.33 51.3603 1139.07 51.1887C1138.81 51.0114 1138.41 50.8763 1137.86 50.7836L1135.57 50.3889C1134.25 50.1732 1133.27 49.75 1132.62 49.1192C1131.96 48.4828 1131.63 47.6646 1131.62 46.6647C1131.6 45.7899 1131.82 45.0388 1132.28 44.4113C1132.74 43.7782 1133.4 43.2893 1134.26 42.9446C1135.13 42.6 1136.15 42.4173 1137.33 42.3967C1139.1 42.3657 1140.51 42.7135 1141.54 43.4398C1142.58 44.1605 1143.16 45.1675 1143.29 46.4609ZM1158.71 37.8296L1159.02 55.2815L1154.81 55.355L1154.57 41.84L1154.47 41.8418L1150.61 44.2959L1150.54 40.6488L1154.8 37.8979L1158.71 37.8296ZM1169.7 55.3338C1168.34 55.3575 1167.12 55.1628 1166.05 54.7497C1164.98 54.3308 1164.13 53.7545 1163.51 53.021C1162.9 52.2816 1162.58 51.4404 1162.56 50.4973C1162.55 49.7759 1162.71 49.111 1163.05 48.5028C1163.38 47.8945 1163.84 47.3864 1164.43 46.9785C1165.02 46.5647 1165.68 46.2946 1166.41 46.1682L1166.41 46.0319C1165.44 45.8725 1164.65 45.4403 1164.02 44.7352C1163.4 44.03 1163.08 43.1974 1163.07 42.2373C1163.05 41.3283 1163.31 40.514 1163.85 39.7943C1164.4 39.0744 1165.14 38.5016 1166.1 38.0758C1167.06 37.6499 1168.15 37.4262 1169.38 37.4047C1170.62 37.3832 1171.72 37.5686 1172.68 37.9608C1173.66 38.353 1174.42 38.8993 1174.99 39.5998C1175.56 40.3002 1175.85 41.1049 1175.87 42.0139C1175.88 42.9796 1175.59 43.8258 1174.98 44.5524C1174.38 45.2733 1173.61 45.73 1172.66 45.9227L1172.66 46.059C1173.39 46.1599 1174.06 46.4069 1174.65 46.8C1175.26 47.1872 1175.74 47.6789 1176.09 48.275C1176.46 48.8711 1176.64 49.5298 1176.66 50.2513C1176.67 51.1944 1176.38 52.0461 1175.79 52.8066C1175.19 53.5614 1174.37 54.1668 1173.32 54.6228C1172.27 55.073 1171.06 55.31 1169.7 55.3338ZM1169.64 52.3428C1170.16 52.3338 1170.61 52.2292 1171 52.0292C1171.39 51.8236 1171.69 51.5427 1171.91 51.1866C1172.13 50.8304 1172.24 50.4308 1172.23 49.9877C1172.22 49.5332 1172.1 49.1318 1171.87 48.7836C1171.63 48.4353 1171.32 48.1652 1170.91 47.9733C1170.52 47.7757 1170.07 47.6813 1169.56 47.6901C1169.06 47.6988 1168.62 47.8089 1168.22 48.0203C1167.83 48.2261 1167.52 48.5071 1167.3 48.8633C1167.08 49.2195 1166.97 49.6248 1166.98 50.0793C1166.99 50.5224 1167.1 50.9181 1167.33 51.2665C1167.57 51.6091 1167.88 51.8763 1168.28 52.0683C1168.68 52.2602 1169.13 52.3517 1169.64 52.3428ZM1169.51 44.7161C1169.95 44.7084 1170.34 44.6106 1170.68 44.4229C1171.03 44.235 1171.29 43.9775 1171.48 43.6503C1171.67 43.3231 1171.77 42.9549 1171.76 42.5459C1171.75 42.1368 1171.65 41.7778 1171.44 41.4689C1171.24 41.1598 1170.97 40.9202 1170.63 40.75C1170.28 40.5742 1169.89 40.4902 1169.44 40.498C1168.99 40.5057 1168.6 40.6035 1168.26 40.7913C1167.91 40.9735 1167.65 41.2225 1167.46 41.5383C1167.27 41.8541 1167.18 42.2166 1167.19 42.6256C1167.2 43.0346 1167.3 43.3994 1167.5 43.7198C1167.7 44.0345 1167.98 44.2825 1168.33 44.4639C1168.68 44.6397 1169.07 44.7237 1169.51 44.7161ZM1187.97 54.9977C1187.14 55.0123 1186.4 54.886 1185.74 54.619C1185.1 54.3461 1184.58 53.9289 1184.2 53.3674C1183.82 52.8001 1183.62 52.0846 1183.6 51.2211C1183.59 50.494 1183.71 49.8782 1183.96 49.3738C1184.2 48.8694 1184.55 48.4571 1184.99 48.1368C1185.43 47.8165 1185.95 47.5717 1186.53 47.4025C1187.11 47.2275 1187.73 47.1058 1188.4 47.0374C1189.14 46.9562 1189.74 46.8748 1190.19 46.793C1190.65 46.7055 1190.97 46.589 1191.18 46.4434C1191.38 46.292 1191.48 46.0828 1191.48 45.8158L1191.48 45.7732C1191.47 45.3358 1191.32 45.0004 1191.01 44.767C1190.7 44.5337 1190.3 44.4215 1189.78 44.4304C1189.23 44.44 1188.79 44.5671 1188.46 44.8115C1188.13 45.056 1187.92 45.3892 1187.84 45.8112L1183.99 45.7419C1184.09 44.9446 1184.37 44.2294 1184.84 43.5962C1185.3 42.9573 1185.95 42.4517 1186.77 42.0793C1187.6 41.7011 1188.6 41.5018 1189.77 41.4814C1190.6 41.4668 1191.37 41.5528 1192.08 41.7393C1192.79 41.9202 1193.41 42.1935 1193.94 42.5594C1194.47 42.9195 1194.88 43.3669 1195.17 43.9017C1195.47 44.4363 1195.63 45.0502 1195.64 45.7432L1195.79 54.6396L1191.87 54.708L1191.84 52.8844L1191.74 52.8862C1191.51 53.3334 1191.22 53.7136 1190.86 54.0267C1190.51 54.3397 1190.09 54.5772 1189.61 54.7391C1189.13 54.9009 1188.58 54.9871 1187.97 54.9977ZM1189.21 52.2484C1189.66 52.2406 1190.06 52.1426 1190.42 51.9546C1190.78 51.7664 1191.07 51.5114 1191.28 51.1895C1191.49 50.8619 1191.59 50.4851 1191.58 50.059L1191.56 48.8149C1191.44 48.8795 1191.3 48.9388 1191.13 48.9929C1190.96 49.0469 1190.78 49.0984 1190.58 49.1473C1190.39 49.1962 1190.18 49.2396 1189.97 49.2773C1189.76 49.3151 1189.56 49.3498 1189.37 49.3816C1188.98 49.4509 1188.64 49.5534 1188.37 49.6889C1188.1 49.8243 1187.89 49.9984 1187.75 50.2112C1187.61 50.4182 1187.54 50.6637 1187.55 50.9478C1187.55 51.3795 1187.71 51.7063 1188.02 51.9282C1188.34 52.15 1188.74 52.2567 1189.21 52.2484ZM1202.38 47.0576L1202.51 54.5224L1198.34 54.5951L1198.11 41.5062L1202.08 41.437L1202.12 43.8401L1202.26 43.8376C1202.54 43.0315 1203.02 42.3951 1203.71 41.9284C1204.4 41.4561 1205.23 41.2115 1206.2 41.1946C1207.12 41.1786 1207.92 41.372 1208.6 41.7749C1209.29 42.172 1209.83 42.7366 1210.22 43.4686C1210.61 44.1948 1210.81 45.0493 1210.82 46.0322L1210.97 54.3747L1206.8 54.4474L1206.67 46.923C1206.66 46.1957 1206.47 45.6309 1206.09 45.2284C1205.71 44.8258 1205.19 44.6303 1204.54 44.6418C1204.1 44.6494 1203.71 44.7527 1203.38 44.9517C1203.06 45.1449 1202.8 45.4193 1202.63 45.7746C1202.46 46.1299 1202.38 46.5576 1202.38 47.0576ZM1218.33 54.4337C1217.37 54.4505 1216.49 54.2159 1215.69 53.7298C1214.89 53.2436 1214.25 52.5047 1213.76 51.5131C1213.27 50.5215 1213.01 49.2843 1212.98 47.8016C1212.96 46.2621 1213.18 44.991 1213.65 43.9883C1214.12 42.9856 1214.75 42.2387 1215.53 41.7477C1216.32 41.2567 1217.17 41.0031 1218.08 40.9872C1218.77 40.9752 1219.36 41.0842 1219.85 41.3143C1220.34 41.5387 1220.75 41.8327 1221.08 42.1964C1221.4 42.5601 1221.65 42.9394 1221.82 43.3342L1221.91 43.3327L1221.79 36.7286L1225.96 36.6558L1226.26 54.1077L1222.14 54.1797L1222.1 52.0579L1221.97 52.0601C1221.81 52.4665 1221.56 52.8487 1221.24 53.2066C1220.93 53.5644 1220.53 53.8556 1220.04 54.08C1219.56 54.3043 1218.99 54.4222 1218.33 54.4337ZM1219.73 51.1617C1220.23 51.1529 1220.66 51.0034 1221.01 50.7131C1221.37 50.4171 1221.64 50.0061 1221.82 49.4801C1222 48.954 1222.09 48.3388 1222.08 47.6344C1222.06 46.9186 1221.96 46.3039 1221.75 45.7903C1221.56 45.2766 1221.28 44.8837 1220.91 44.6117C1220.54 44.3396 1220.11 44.2079 1219.6 44.2168C1219.09 44.2258 1218.65 44.3755 1218.3 44.6657C1217.95 44.956 1217.68 45.3613 1217.5 45.8815C1217.33 46.4017 1217.25 47.014 1217.26 47.7184C1217.27 48.4229 1217.38 49.0348 1217.58 49.5541C1217.77 50.0735 1218.05 50.475 1218.41 50.7586C1218.77 51.0364 1219.21 51.1708 1219.73 51.1617ZM1242.4 48.1746L1242.27 40.7354L1246.43 40.6628L1246.66 53.7518L1242.69 53.8211L1242.64 51.3839L1242.51 51.3863C1242.23 52.1924 1241.75 52.8373 1241.06 53.321C1240.37 53.7989 1239.54 54.0465 1238.56 54.0636C1237.67 54.0792 1236.88 53.8884 1236.19 53.4912C1235.51 53.0939 1234.98 52.5322 1234.59 51.8059C1234.2 51.0739 1233.99 50.2137 1233.97 49.2253L1233.83 40.8828L1237.99 40.8101L1238.12 48.3345C1238.14 49.0445 1238.34 49.6008 1238.72 50.0034C1239.09 50.406 1239.6 50.6017 1240.24 50.5906C1240.65 50.5834 1241.02 50.486 1241.35 50.2985C1241.68 50.1051 1241.94 49.8307 1242.13 49.4751C1242.32 49.1137 1242.41 48.6802 1242.4 48.1746ZM1253.35 46.168L1253.48 53.6327L1249.31 53.7055L1249.08 40.6165L1253.04 40.5474L1253.09 42.9504L1253.23 42.9479C1253.51 42.1418 1253.99 41.5055 1254.68 41.0388C1255.37 40.5664 1256.2 40.3218 1257.17 40.305C1258.09 40.2889 1258.89 40.4823 1259.57 40.8852C1260.26 41.2824 1260.8 41.8469 1261.19 42.5789C1261.58 43.3051 1261.78 44.1596 1261.79 45.1425L1261.94 53.485L1257.77 53.5578L1257.64 46.0333C1257.63 45.3061 1257.44 44.7412 1257.06 44.3387C1256.68 43.9361 1256.16 43.7406 1255.5 43.7521C1255.07 43.7597 1254.68 43.8631 1254.35 44.0621C1254.02 44.2553 1253.77 44.5296 1253.6 44.885C1253.43 45.2403 1253.34 45.6679 1253.35 46.168ZM1269.3 53.544C1268.34 53.5609 1267.45 53.3262 1266.66 52.8401C1265.86 52.354 1265.21 51.6151 1264.73 50.6235C1264.24 49.6318 1263.98 48.3947 1263.95 46.9119C1263.93 45.3724 1264.15 44.1013 1264.62 43.0986C1265.09 42.0959 1265.72 41.3491 1266.5 40.8581C1267.29 40.367 1268.14 40.1135 1269.05 40.0975C1269.74 40.0855 1270.33 40.1945 1270.82 40.4246C1271.31 40.649 1271.72 40.9431 1272.05 41.3068C1272.37 41.6705 1272.62 42.0497 1272.79 42.4445L1272.88 42.443L1272.76 35.8389L1276.93 35.7662L1277.23 53.2181L1273.11 53.2901L1273.07 51.1682L1272.94 51.1705C1272.77 51.5769 1272.53 51.959 1272.21 52.3169C1271.9 52.6748 1271.49 52.9659 1271.01 53.1903C1270.53 53.4146 1269.96 53.5325 1269.3 53.544ZM1270.69 50.2721C1271.2 50.2632 1271.63 50.1137 1271.98 49.8234C1272.34 49.5274 1272.6 49.1164 1272.79 48.5904C1272.97 48.0644 1273.06 47.4492 1273.05 46.7447C1273.03 46.0289 1272.93 45.4142 1272.72 44.9006C1272.53 44.3869 1272.24 43.9941 1271.88 43.722C1271.51 43.4499 1271.08 43.3183 1270.57 43.3271C1270.06 43.3361 1269.62 43.4858 1269.27 43.7761C1268.92 44.0664 1268.65 44.4716 1268.47 44.9919C1268.3 45.512 1268.22 46.1243 1268.23 46.8288C1268.24 47.5332 1268.35 48.1451 1268.54 48.6645C1268.74 49.1838 1269.02 49.5853 1269.37 49.8689C1269.74 50.1467 1270.18 50.2811 1270.69 50.2721ZM1285.99 53.3124C1284.62 53.3363 1283.44 53.0871 1282.43 52.5647C1281.43 52.0366 1280.66 51.2745 1280.11 50.2783C1279.56 49.2763 1279.28 48.0794 1279.25 46.6875C1279.23 45.3355 1279.47 44.1492 1279.99 43.1286C1280.51 42.1024 1281.25 41.2996 1282.21 40.7202C1283.17 40.1352 1284.31 39.8312 1285.63 39.8082C1286.56 39.7919 1287.41 39.9219 1288.19 40.1981C1288.97 40.4744 1289.64 40.8916 1290.22 41.4499C1290.79 42.0082 1291.24 42.7022 1291.57 43.5318C1291.89 44.3558 1292.07 45.3046 1292.08 46.3783L1292.1 47.4179L1280.73 47.6165L1280.68 45.1964L1288.18 45.0655C1288.17 44.6225 1288.06 44.2295 1287.85 43.8865C1287.64 43.5436 1287.35 43.2786 1286.99 43.0917C1286.63 42.899 1286.23 42.8067 1285.77 42.8147C1285.3 42.8229 1284.88 42.9353 1284.52 43.1519C1284.15 43.3629 1283.86 43.6492 1283.65 44.0108C1283.45 44.3668 1283.34 44.7693 1283.34 45.2183L1283.38 47.681C1283.39 48.215 1283.5 48.6819 1283.72 49.0815C1283.93 49.4755 1284.24 49.7799 1284.63 49.9948C1285.02 50.2096 1285.48 50.3123 1286.02 50.303C1286.38 50.2966 1286.72 50.2396 1287.02 50.1321C1287.32 50.0245 1287.57 49.8695 1287.79 49.6669C1288 49.4643 1288.16 49.2172 1288.26 48.9256L1292.09 48.9696C1291.94 49.8302 1291.61 50.5833 1291.08 51.229C1290.55 51.8689 1289.86 52.3725 1289 52.7399C1288.14 53.1016 1287.13 53.2925 1285.99 53.3124ZM1294.33 52.9197L1294.1 39.8308L1298.15 39.7601L1298.19 42.1461L1298.32 42.1437C1298.55 41.2761 1298.93 40.6273 1299.46 40.1975C1299.99 39.762 1300.61 39.538 1301.33 39.5255C1301.52 39.5222 1301.72 39.5329 1301.93 39.5577C1302.13 39.5769 1302.32 39.6105 1302.5 39.6586L1302.56 43.2802C1302.36 43.2155 1302.1 43.1661 1301.78 43.1319C1301.46 43.0977 1301.17 43.0828 1300.92 43.0872C1300.43 43.0958 1299.99 43.2144 1299.59 43.4429C1299.2 43.6656 1298.9 43.9749 1298.68 44.3709C1298.46 44.761 1298.36 45.2174 1298.37 45.7401L1298.49 52.847L1294.33 52.9197ZM1305.27 52.9758C1304.66 52.9865 1304.13 52.7798 1303.69 52.3557C1303.25 51.9315 1303.03 51.4125 1303.02 50.7989C1303 50.1968 1303.21 49.679 1303.63 49.2454C1304.06 48.806 1304.58 48.5809 1305.2 48.5702C1305.78 48.5601 1306.29 48.7671 1306.74 49.1911C1307.2 49.6093 1307.44 50.1195 1307.45 50.7216C1307.45 51.1307 1307.35 51.5047 1307.15 51.8435C1306.95 52.1823 1306.68 52.454 1306.35 52.6587C1306.03 52.8632 1305.67 52.969 1305.27 52.9758ZM1314.29 52.5712L1313.99 35.1193L1326.16 34.9069L1326.22 38.3325L1318.27 38.4713L1318.33 42.0503L1325.66 41.9224L1325.72 45.3565L1318.39 45.4844L1318.45 49.072L1326.4 48.9332L1326.46 52.3588L1314.29 52.5712ZM1333.14 44.7752L1333.27 52.2399L1329.1 52.3127L1328.87 39.2238L1332.84 39.1546L1332.88 41.5576L1333.02 41.5551C1333.3 40.749 1333.78 40.1127 1334.47 39.646C1335.16 39.1736 1335.99 38.929 1336.96 38.9122C1337.88 38.8961 1338.68 39.0895 1339.36 39.4924C1340.05 39.8896 1340.59 40.4541 1340.98 41.1861C1341.37 41.9123 1341.57 42.7669 1341.59 43.7498L1341.73 52.0922L1337.56 52.165L1337.43 44.6406C1337.43 43.9133 1337.23 43.3484 1336.85 42.9459C1336.47 42.5434 1335.96 42.3478 1335.3 42.3593C1334.86 42.367 1334.47 42.4703 1334.14 42.6693C1333.82 42.8625 1333.57 43.1368 1333.39 43.4922C1333.22 43.8475 1333.14 44.2751 1333.14 44.7752ZM1349.1 52.1512C1348.13 52.1681 1347.25 51.9335 1346.45 51.4473C1345.65 50.9612 1345.01 50.2223 1344.52 49.2307C1344.03 48.2391 1343.77 47.0019 1343.75 45.5192C1343.72 43.9796 1343.94 42.7085 1344.41 41.7058C1344.88 40.7031 1345.51 39.9563 1346.29 39.4653C1347.08 38.9742 1347.93 38.7207 1348.84 38.7047C1349.53 38.6927 1350.12 38.8018 1350.61 39.0318C1351.11 39.2562 1351.51 39.5503 1351.84 39.914C1352.16 40.2777 1352.41 40.6569 1352.58 41.0517L1352.67 41.0502L1352.55 34.4461L1356.72 34.3734L1357.03 51.8253L1352.9 51.8973L1352.86 49.7754L1352.74 49.7777C1352.57 50.1841 1352.32 50.5662 1352.01 50.9241C1351.69 51.282 1351.29 51.5731 1350.8 51.7975C1350.32 52.0218 1349.75 52.1397 1349.1 52.1512ZM1350.49 48.8793C1350.99 48.8705 1351.42 48.7209 1351.78 48.4306C1352.13 48.1346 1352.4 47.7236 1352.58 47.1976C1352.76 46.6716 1352.85 46.0564 1352.84 45.3519C1352.83 44.6361 1352.72 44.0214 1352.52 43.5078C1352.32 42.9941 1352.04 42.6013 1351.67 42.3293C1351.31 42.0571 1350.87 41.9255 1350.37 41.9343C1349.85 41.9433 1349.41 42.093 1349.06 42.3833C1348.71 42.6736 1348.44 43.0789 1348.26 43.5991C1348.09 44.1192 1348.01 44.7315 1348.02 45.436C1348.04 46.1404 1348.14 46.7523 1348.34 47.2717C1348.53 47.7911 1348.81 48.1925 1349.17 48.4761C1349.53 48.7539 1349.97 48.8883 1350.49 48.8793ZM1370.93 42.4875L1367.1 42.6565C1367.06 42.3845 1366.95 42.145 1366.77 41.9378C1366.59 41.725 1366.36 41.5615 1366.07 41.4471C1365.79 41.327 1365.46 41.2702 1365.09 41.2766C1364.61 41.285 1364.2 41.3888 1363.86 41.5879C1363.53 41.7869 1363.37 42.0511 1363.38 42.3805C1363.38 42.6362 1363.49 42.856 1363.7 43.0398C1363.92 43.2235 1364.31 43.3674 1364.86 43.4714L1367.39 43.9045C1368.7 44.1317 1369.68 44.5295 1370.33 45.0978C1370.98 45.6661 1371.32 46.4273 1371.34 47.3816C1371.35 48.2793 1371.1 49.0651 1370.58 49.739C1370.07 50.4128 1369.36 50.9423 1368.46 51.3274C1367.56 51.7068 1366.52 51.9068 1365.35 51.9272C1363.48 51.9598 1362 51.6021 1360.91 50.854C1359.82 50.1001 1359.19 49.0769 1359.01 47.7843L1363.13 47.6102C1363.22 48.0858 1363.47 48.4453 1363.85 48.6886C1364.24 48.9319 1364.72 49.0485 1365.32 49.0381C1365.85 49.0288 1366.28 48.9218 1366.61 48.7171C1366.95 48.5124 1367.11 48.2453 1367.11 47.9157C1367.1 47.6204 1366.97 47.3869 1366.71 47.2153C1366.45 47.0379 1366.05 46.9029 1365.5 46.8102L1363.21 46.4154C1361.89 46.1998 1360.91 45.7765 1360.25 45.1458C1359.6 44.5094 1359.27 43.6912 1359.25 42.6912C1359.23 41.8165 1359.45 41.0654 1359.91 40.4379C1360.38 39.8048 1361.04 39.3159 1361.9 38.9712C1362.76 38.6265 1363.79 38.4439 1364.97 38.4233C1366.74 38.3923 1368.14 38.74 1369.18 39.4664C1370.22 40.1871 1370.8 41.1941 1370.93 42.4875ZM1385.4 33.8727L1389.56 33.8001L1389.77 45.8665C1389.79 46.9971 1389.53 47.9903 1389.02 48.8461C1388.5 49.6962 1387.77 50.3624 1386.83 50.8447C1385.9 51.3269 1384.82 51.5787 1383.59 51.6003C1382.5 51.6193 1381.51 51.4463 1380.61 51.0812C1379.71 50.7161 1379 50.1376 1378.45 49.3458C1377.92 48.5539 1377.64 47.533 1377.63 46.2831L1381.83 46.2098C1381.85 46.6583 1381.94 47.0403 1382.1 47.3557C1382.27 47.6654 1382.49 47.8973 1382.77 48.0515C1383.05 48.2057 1383.39 48.2795 1383.77 48.2727C1384.17 48.2657 1384.51 48.1745 1384.79 47.9992C1385.06 47.8183 1385.27 47.5561 1385.41 47.2128C1385.55 46.8694 1385.62 46.4448 1385.61 45.9391L1385.4 33.8727ZM1400.86 45.4087L1400.73 37.9695L1404.89 37.8969L1405.12 50.9858L1401.15 51.0551L1401.1 48.618L1400.97 48.6204C1400.69 49.4265 1400.21 50.0714 1399.52 50.5551C1398.83 51.033 1398 51.2806 1397.02 51.2977C1396.13 51.3133 1395.34 51.1224 1394.65 50.7252C1393.97 50.328 1393.44 49.7662 1393.05 49.0399C1392.66 48.3079 1392.46 47.4478 1392.43 46.4594L1392.29 38.1169L1396.45 38.0442L1396.58 45.5686C1396.6 46.2786 1396.8 46.8349 1397.18 47.2375C1397.55 47.6401 1398.06 47.8358 1398.7 47.8247C1399.11 47.8175 1399.48 47.7201 1399.81 47.5325C1400.14 47.3392 1400.4 47.0648 1400.59 46.7092C1400.78 46.3478 1400.87 45.9143 1400.86 45.4087ZM1411.63 33.4149L1411.94 50.8668L1407.77 50.9395L1407.47 33.4876L1411.63 33.4149ZM1417.22 55.6844C1416.72 55.6931 1416.25 55.6616 1415.81 55.5898C1415.36 55.5236 1414.98 55.4309 1414.66 55.3114L1415.53 52.2703C1415.94 52.3995 1416.31 52.4726 1416.64 52.4895C1416.97 52.5064 1417.26 52.4474 1417.5 52.3126C1417.74 52.1834 1417.92 51.9557 1418.05 51.6296L1418.2 51.2348L1413.31 37.7499L1417.68 37.6737L1420.25 46.9711L1420.39 46.9687L1422.67 37.5866L1427.06 37.51L1422.37 51.9376C1422.15 52.6576 1421.82 53.2941 1421.39 53.8471C1420.97 54.4057 1420.42 54.8472 1419.74 55.1717C1419.06 55.496 1418.22 55.6669 1417.22 55.6844ZM1440.65 50.6043C1439.32 50.6275 1438.14 50.4209 1437.1 49.9843C1436.07 49.542 1435.25 48.9227 1434.65 48.1263C1434.04 47.3299 1433.72 46.4063 1433.69 45.3556L1437.94 45.2815C1437.96 45.6618 1438.09 45.9977 1438.32 46.2891C1438.55 46.5749 1438.87 46.7967 1439.26 46.9546C1439.66 47.1125 1440.11 47.1871 1440.61 47.1784C1441.11 47.1697 1441.54 47.0739 1441.92 46.8912C1442.3 46.7027 1442.6 46.4503 1442.81 46.1341C1443.02 45.8122 1443.12 45.4467 1443.11 45.0378C1443.11 44.6287 1442.98 44.2671 1442.74 43.9532C1442.5 43.6392 1442.15 43.398 1441.71 43.2295C1441.28 43.0609 1440.77 42.9818 1440.17 42.9921L1438.48 43.0217L1438.43 40.0222L1440.12 39.9926C1440.64 39.9835 1441.09 39.8904 1441.48 39.7131C1441.88 39.5358 1442.18 39.2918 1442.4 38.9811C1442.61 38.6648 1442.72 38.305 1442.7 37.9018C1442.7 37.5097 1442.6 37.1676 1442.4 36.8756C1442.21 36.5778 1441.94 36.3495 1441.6 36.1907C1441.26 36.0318 1440.87 35.9562 1440.43 35.9639C1439.96 35.972 1439.54 36.0618 1439.16 36.2332C1438.79 36.4045 1438.5 36.6426 1438.28 36.9476C1438.06 37.2525 1437.95 37.6039 1437.95 38.0018L1433.92 38.0722C1433.91 37.0323 1434.18 36.1127 1434.74 35.3131C1435.29 34.5078 1436.05 33.8723 1437.02 33.4064C1438 32.9405 1439.11 32.6966 1440.37 32.6746C1441.62 32.6528 1442.72 32.8524 1443.68 33.2732C1444.64 33.6941 1445.38 34.2777 1445.93 35.0241C1446.47 35.7647 1446.75 36.6094 1446.76 37.5581C1446.79 38.5408 1446.48 39.356 1445.84 40.0035C1445.21 40.651 1444.39 41.0574 1443.38 41.2228L1443.39 41.3591C1444.74 41.4946 1445.77 41.9142 1446.47 42.618C1447.17 43.3217 1447.53 44.2105 1447.55 45.2843C1447.56 46.2955 1447.28 47.1983 1446.7 47.9927C1446.12 48.7813 1445.31 49.4092 1444.26 49.8764C1443.22 50.3379 1442.01 50.5805 1440.65 50.6043ZM1457.78 32.6095L1458.08 50.0614L1453.87 50.1348L1453.64 36.6198L1453.53 36.6216L1449.67 39.0758L1449.61 35.4286L1453.87 32.6777L1457.78 32.6095ZM1463.43 50.2152C1462.82 50.2259 1462.29 50.0192 1461.84 49.5951C1461.4 49.1709 1461.18 48.6519 1461.18 48.0383C1461.16 47.4362 1461.36 46.9184 1461.79 46.4847C1462.22 46.0454 1462.74 45.8203 1463.35 45.8096C1463.93 45.7995 1464.45 46.0064 1464.9 46.4305C1465.35 46.8487 1465.59 47.3589 1465.61 47.9609C1465.61 48.3701 1465.51 48.744 1465.3 49.0829C1465.1 49.4216 1464.84 49.6934 1464.51 49.898C1464.18 50.1026 1463.82 50.2083 1463.43 50.2152Z" fill="#35326E"/>
<defs>
<clipPath id="clip0_1273_2484">
<rect width="1753" height="74" fill="white" transform="translate(-18 106)"/>
</clipPath>
</defs>
</svg>
