<svg width="475" height="180" viewBox="0 0 475 180" fill="none" xmlns="http://www.w3.org/2000/svg">
<path fill-rule="evenodd" clip-rule="evenodd" d="M20.673 42.1983C12.6115 62.848 -1.09069 108.76 8.56362 127.272C8.57148 127.288 8.58499 127.298 8.60137 127.303L30.2839 133.352C30.3036 133.357 30.3239 133.353 30.3395 133.34C34.8512 129.474 44.8748 120.158 49.075 113.65C53.2809 107.133 63.5592 80.3801 68.1791 67.8012C68.1832 67.7898 68.184 67.779 68.1812 67.7672C67.6555 65.5393 66.9262 58.9681 68.1852 50.3479C69.4397 41.7592 78.3014 16.7359 82.656 5.07845C82.6782 5.01889 82.6043 4.97488 82.556 5.01615L79.417 7.69508C79.4097 7.70129 79.4041 7.70871 79.4004 7.71753C65.6064 40.3205 37.5035 106.145 35.3999 108.722C32.77 111.944 29.4386 113.65 25.0558 113.65C20.673 113.65 19.5655 109.03 19.1036 105.707C19.0861 105.58 19.064 105.439 19.0393 105.28C18.5128 101.897 16.7522 90.5863 30.3155 47.505L30.8714 44.8078C30.8797 44.7673 30.8468 44.7302 30.8056 44.734C28.3914 44.9519 25.6327 44.9696 24.1789 44.2821C22.9077 43.6809 21.9141 42.3216 21.2171 40.9688C21.1922 40.9206 21.1213 40.9251 21.1032 40.9764L20.673 42.1983ZM25.4926 28.5105C25.4896 28.5189 25.4885 28.5278 25.4894 28.5367C25.5199 28.8675 25.5435 29.2548 25.569 29.674C25.7055 31.9155 25.8974 35.068 27.5107 35.3758C28.7179 35.6061 31.0304 34.852 33.0877 33.9282C33.1057 33.9201 33.1187 33.9039 33.1227 33.8845L35.0018 24.7672C35.0111 24.7218 34.9689 24.6828 34.9243 24.6953C33.7436 25.0288 32.545 25.2444 31.5446 25.1844C29.67 25.0718 28.5815 23.2106 28.0496 21.5872C28.0311 21.5308 27.9507 21.5294 27.931 21.5855L25.4926 28.5105ZM37.8374 10.9042C37.8482 10.9183 37.8523 10.9365 37.8487 10.9539L37.4515 12.8814C37.4502 12.8875 37.4481 12.8933 37.4451 12.8987C36.3675 14.8459 34.8655 17.4798 33.2979 17.1807C31.7538 16.8862 31.7684 14.4297 31.78 12.4776C31.7811 12.2971 31.7822 12.121 31.7819 11.9513C31.7819 11.9366 31.7872 11.9223 31.7968 11.9111L35.3503 7.76241C35.3758 7.73262 35.4223 7.73395 35.446 7.76515L37.8374 10.9042ZM28.9743 177.067C28.9647 177.05 28.9633 177.03 28.9708 177.012L73.7577 69.8435C73.7605 69.8368 73.7644 69.8306 73.7693 69.8253L76.3831 67.0086C76.3926 66.9984 76.4052 66.9917 76.419 66.9896C83.3871 65.9295 90.9256 60.449 93.9008 57.7765C93.9343 57.7464 93.9856 57.763 93.9989 57.806L95.7263 63.3903C95.7272 63.3933 95.7279 63.3963 95.7283 63.3994L100.975 98.6193C100.984 98.6804 101.068 98.6915 101.093 98.6349L129.361 34.1567C129.392 34.0877 129.494 34.1323 129.476 34.2055C122.791 61.5192 123.389 74.3575 124.544 77.4071C124.551 77.4242 124.549 77.4412 124.54 77.4572L118.579 88.226L99.6117 129.485C99.6048 129.5 99.5919 129.512 99.5763 129.517C95.3856 131.009 91.5461 128.892 90.1289 127.63C90.1174 127.62 90.1108 127.606 90.1093 127.591L85.2162 77.6852C85.2099 77.6209 85.1214 77.6085 85.0976 77.6685L72.3652 109.809C72.3639 109.813 72.363 109.816 72.3623 109.819L69.9116 120.949C69.9065 120.972 69.8894 120.99 69.8661 120.995C56.9602 123.931 38.4567 161.442 30.7625 179.959C30.743 180.006 30.6794 180.006 30.6538 179.962L28.9743 177.067ZM351.263 39.3479C351.229 39.3479 351.201 39.3755 351.201 39.4095V128.584C351.201 128.618 351.229 128.646 351.263 128.646H364.688C364.722 128.646 364.75 128.618 364.75 128.584V39.4095C364.75 39.3755 364.722 39.3479 364.688 39.3479H351.263ZM460.833 62.9046C460.822 62.9161 460.815 62.9318 460.815 62.9481V67.9243C460.815 67.9583 460.788 67.9859 460.754 67.9859H447.938C447.922 67.9859 447.906 67.9794 447.895 67.9679L440.816 60.8888C440.804 60.8772 440.798 60.8615 440.798 60.8452V39.4109C440.798 39.3769 440.77 39.3493 440.736 39.3493H427.311C427.277 39.3493 427.249 39.3769 427.249 39.4109V66.4374C427.249 66.4425 427.253 66.4466 427.258 66.4466V66.4466C427.266 66.4466 427.27 66.4565 427.265 66.4623L427.256 66.4705C427.251 66.4759 427.251 66.4848 427.256 66.4902L442.333 81.5671C442.357 81.5912 442.396 81.5912 442.421 81.5671L442.435 81.5526C442.447 81.541 442.462 81.5346 442.479 81.5346H460.754C460.788 81.5346 460.815 81.5621 460.815 81.5961V96.5503C460.815 96.5666 460.809 96.5822 460.797 96.5938L428.85 128.542C428.811 128.58 428.838 128.647 428.893 128.647H447.88C447.896 128.647 447.912 128.64 447.923 128.629L474.342 102.21C474.348 102.204 474.348 102.195 474.342 102.189L474.341 102.188C474.332 102.179 474.338 102.164 474.35 102.164V102.164C474.358 102.164 474.364 102.158 474.364 102.151V49.5226C474.364 49.4678 474.298 49.4403 474.259 49.4791L460.833 62.9046ZM474.346 40.1269C474.358 40.1154 474.364 40.0997 474.364 40.0834V39.4095C474.364 39.3755 474.337 39.348 474.302 39.348H460.877C460.843 39.348 460.815 39.3755 460.815 39.4095V53.5089C460.815 53.5637 460.882 53.5912 460.921 53.5524L474.346 40.1269ZM281.65 73.1358C281.663 73.1373 281.678 73.134 281.689 73.1265C287.788 69.2262 293.862 65.0393 296.696 62.1016C296.72 62.0767 296.759 62.0772 296.783 62.1016L298.521 63.8397C298.533 63.8512 298.539 63.8669 298.539 63.8832V99.9307C298.539 99.9328 298.538 99.9345 298.535 99.9348V99.9348C298.533 99.9351 298.532 99.9368 298.532 99.9389L298.532 113.805C298.532 113.86 298.598 113.888 298.637 113.849L312.072 100.415C312.078 100.408 312.074 100.396 312.064 100.395V100.395V100.395C312.077 100.395 312.088 100.384 312.088 100.372V63.9484C312.088 63.9321 312.094 63.9164 312.106 63.9048L321.771 54.2398C321.782 54.2283 321.798 54.2218 321.814 54.2218H339.184C339.185 54.2218 339.186 54.221 339.186 54.22V54.22C339.186 54.2195 339.186 54.219 339.187 54.2187L344.726 48.6791C344.727 48.6787 344.726 48.6779 344.726 48.6777V48.6777C344.726 48.6775 344.725 48.6772 344.725 48.6768V40.7346C344.725 40.7006 344.698 40.673 344.664 40.673H331.177L316.209 40.6732C316.205 40.6732 316.202 40.6718 316.199 40.6693V40.6693C316.194 40.6641 316.186 40.6641 316.181 40.6693V40.6693C316.178 40.6718 316.175 40.6732 316.171 40.6732H316.152C316.119 40.6732 316.092 40.7001 316.092 40.7332V40.7332C316.092 40.7492 316.085 40.7644 316.074 40.7757L298.973 57.8772C298.929 57.9211 298.855 57.8796 298.868 57.8191C299.921 53.044 298.904 48.2092 298.236 46.7391C297.467 45.0459 293.311 37.5047 265.307 36.8859C265.295 36.8857 265.283 36.8821 265.273 36.8756L260.261 33.5342C260.232 33.5147 260.193 33.5224 260.175 33.5526C259.293 35.0484 257.858 38.499 256.205 44.234C256.197 44.2638 256.21 44.2954 256.239 44.3078C259.573 45.769 264.669 49.1461 267.596 51.2246C267.631 51.2498 267.68 51.2301 267.69 51.1879C268.078 49.6204 268.463 48.5139 268.825 48.1238C270.827 45.9683 286.531 48.1238 289.148 53.8204C290.447 56.6462 284.117 61.67 276.942 66.1686C276.916 66.1843 276.906 66.2153 276.917 66.2428C277.937 68.8607 279.254 72.212 279.451 72.6045C279.568 72.8385 280.5 73.0123 281.65 73.1358ZM344.577 120.873C344.577 120.873 344.577 120.874 344.577 120.874V128.817C344.577 128.851 344.549 128.878 344.515 128.878H331.029C331.029 128.878 331.028 128.878 331.028 128.878V128.878C331.028 128.878 331.028 128.877 331.028 128.877H316.087C316.082 128.877 316.08 128.883 316.083 128.886V128.886C316.087 128.889 316.084 128.895 316.079 128.895C303.949 127.837 295.105 131.209 287.929 134.743C287.867 134.774 287.81 134.694 287.858 134.644L304.53 117.366L304.546 117.349C304.546 117.349 304.546 117.349 304.546 117.349V117.349C304.546 117.349 304.547 117.349 304.547 117.349L314.067 107.829C314.091 107.805 314.13 107.805 314.154 107.829L321.636 115.311C321.648 115.322 321.663 115.329 321.68 115.329H339.032C339.032 115.329 339.033 115.329 339.033 115.33V115.331C339.033 115.332 339.034 115.332 339.034 115.331V115.331C339.035 115.331 339.035 115.331 339.036 115.331L344.577 120.872L344.577 120.873C344.577 120.873 344.577 120.873 344.577 120.873V120.873ZM123.266 117.097L139.382 59.541C139.398 59.4838 139.333 59.438 139.286 59.4743C132.654 64.5974 122.043 71.5885 131.58 59.3615C143.589 43.9654 166.221 37.4989 178.538 39.3464C190.855 41.194 202.095 48.5842 201.017 65.6739C200.156 79.3252 180.599 101.992 170.884 111.665C170.859 111.69 170.821 111.687 170.797 111.662L161.651 101.751C161.626 101.724 161.63 101.682 161.66 101.66L164.068 99.8535L166.217 98.471C166.22 98.4689 166.223 98.4664 166.226 98.4638L169.451 95.3917C169.454 95.3896 169.455 95.3874 169.457 95.385C178.798 83.3746 194.796 58.0062 184.081 52.5872C173.38 47.1754 156.877 53.9025 149.931 57.9587C149.912 57.9697 149.901 57.9881 149.901 58.01C149.891 60.7061 148.672 66.9119 146.868 74.6172C146.862 74.6425 146.841 74.6615 146.815 74.6646C143.575 75.0434 139.637 75.9078 139.351 77.5297C139.018 79.4141 142.152 83.1022 144.241 85.2054C144.256 85.2208 144.262 85.2426 144.257 85.2636C143.769 87.1809 143.267 89.1295 142.755 91.0873C142.746 91.1206 142.712 91.1403 142.679 91.1311C141.066 90.685 139.432 90.4218 139.35 91.0779C139.228 92.0473 140.389 95.381 141.013 97.0037C141.026 97.0383 141.072 97.0433 141.094 97.0133V97.0133C141.125 96.9714 141.191 97.0033 141.177 97.0535C138.772 106.051 136.33 114.768 134.521 121.047C134.512 121.078 134.528 121.109 134.557 121.121L135.256 121.401C135.268 121.405 135.281 121.406 135.294 121.403C139.339 120.286 146.64 114.035 149.846 110.992C149.875 110.964 149.921 110.973 149.94 111.007L157.725 124.746C157.741 124.774 157.732 124.81 157.705 124.828C141.87 135.422 129.42 137.108 124.805 132.493C121.11 128.798 122.239 120.69 123.266 117.097ZM163.798 119.376C163.775 119.394 163.742 119.393 163.72 119.373L152.572 109.446C152.544 109.421 152.544 109.378 152.573 109.353L157.652 105.021C157.692 104.987 157.759 105.013 157.771 105.064C158.009 106.056 160.612 109.148 162.973 111.951C165.153 114.539 167.126 116.881 166.837 117.097L163.798 119.376ZM174.444 118.48C174.389 118.482 174.359 118.422 174.397 118.383C176.848 115.89 188.911 110.981 194.745 108.798C194.766 108.79 194.78 108.772 194.783 108.75C195.157 106.408 195.535 104.187 195.912 102.072C195.921 102.024 195.979 102.004 196.014 102.038C197.908 103.819 199.642 106.133 200.47 107.392C200.473 107.397 200.476 107.401 200.481 107.404C202.311 108.987 205.192 109.997 206.443 110.315C206.465 110.321 206.482 110.338 206.487 110.361C206.873 112.076 208.584 114.122 209.401 114.94C209.403 114.942 209.405 114.944 209.408 114.946C210.954 116.07 212.24 116.646 213.173 116.914C213.184 116.917 213.194 116.923 213.201 116.931L216.084 120.076C216.12 120.115 216.095 120.179 216.041 120.179C211.834 120.19 203.322 120.693 201.86 122.642C200.403 124.584 194.841 126.486 192.125 127.229C192.076 127.242 192.035 127.192 192.054 127.145C193.215 124.237 192.518 121.315 192.012 120.191C192.008 120.183 192.003 120.176 191.996 120.17C189.778 118.349 179.469 118.282 174.444 118.48ZM205.098 100.632C205.095 100.627 205.091 100.623 205.086 100.619C203.032 98.9418 199.515 97.5474 196.958 96.7084C196.928 96.6988 196.911 96.6689 196.917 96.6384C197.365 94.2906 197.804 92.0788 198.22 89.976L198.222 89.967L198.223 89.9611L198.224 89.9593L198.228 89.9346L198.232 89.9166L198.251 89.821C198.389 89.125 198.524 88.441 198.657 87.7679C198.666 87.7239 198.717 87.7038 198.753 87.7299C203.312 91.0037 206.754 94.9405 208.745 97.6878C208.755 97.7018 208.759 97.719 208.755 97.7358C208.401 99.4872 208.043 101.236 207.701 102.896C207.696 102.925 207.67 102.945 207.641 102.946C206.734 102.946 206.017 102.868 206.017 102.626C206.017 102.136 205.408 101.097 205.098 100.632ZM206.787 85.0743C206.516 84.4437 203.21 81.5786 200.289 79.1412C200.272 79.1272 200.264 79.1052 200.267 79.0837C202.089 68.053 202.28 59.2107 198.182 46.1768C198.172 46.1468 198.187 46.1138 198.216 46.1013C215.142 38.7522 234.83 35.4205 241.055 35.3467C241.092 35.3462 241.117 35.3779 241.113 35.4143C240.349 42.5905 234.246 49.3933 232.095 51.7562C232.065 51.7882 232.014 51.7801 231.988 51.7451C231.67 51.3064 229.582 49.1781 220.335 51.8199C212.845 53.9599 212.792 59.2868 212.791 59.3632C212.791 59.3656 212.791 59.3652 212.791 59.3676L211.807 67.8304C211.804 67.8531 211.789 67.8724 211.768 67.8804C210.877 68.2155 209.649 68.1414 208.126 66.9899C208.084 66.958 208.023 66.9883 208.026 67.0411C208.143 68.983 208.629 72.7043 209.712 73.0653C210.191 73.2252 210.784 72.9875 211.36 72.5916C211.368 72.5866 211.376 72.5831 211.385 72.5816C233.936 68.6711 239.375 70.6575 239.273 72.1428C239.581 77.8394 233.422 83.2281 230.959 84.3058C229.081 85.1273 227.707 84.7095 227.181 84.3575C227.146 84.3336 227.149 84.2818 227.185 84.2587C229.319 82.9013 230.561 79.8285 230.94 78.3751C230.95 78.3368 230.921 78.3007 230.882 78.3001C223.663 78.1951 215.164 80.4921 211.758 81.673C211.731 81.6824 211.716 81.7081 211.716 81.7368C211.727 82.2238 211.36 84.3839 210.798 87.3663C210.791 87.4062 210.747 87.4286 210.71 87.4109C210.077 87.1049 209.478 86.8477 209.404 86.9218C209.293 87.033 209.173 87.8217 209.113 88.3139C209.107 88.3683 209.038 88.3887 209.004 88.3457C208.357 87.5275 207.139 85.8957 206.787 85.0743ZM216.178 112.479C214.86 110.619 214.205 108.946 213.914 107.743C213.905 107.708 213.929 107.674 213.964 107.669L217.685 107.113C217.706 107.11 217.727 107.118 217.741 107.134C220.014 109.765 223.185 113.439 224.997 115.539C225.031 115.579 225.002 115.639 224.95 115.64C223.437 115.677 221.973 115.739 220.595 115.815C220.585 115.816 220.574 115.814 220.565 115.809C218.858 115.006 217.188 113.905 216.178 112.479ZM231.544 115.65C231.523 115.649 231.505 115.639 231.494 115.622C229.66 112.704 226.981 108.378 225.636 106.01C225.614 105.972 225.638 105.926 225.681 105.92L227.099 105.708C227.106 105.707 227.113 105.707 227.12 105.709C230.569 106.455 237.443 106.483 243.825 106.275C243.854 106.274 243.877 106.254 243.883 106.226L248.034 86.972C248.04 86.9435 248.025 86.9146 247.999 86.9028L242.592 84.4996C242.55 84.4812 242.542 84.4256 242.577 84.3963L249.412 78.6244C249.424 78.6146 249.431 78.6008 249.433 78.5857C249.594 77.4034 249.757 76.2466 249.922 75.1151C249.923 75.1031 249.929 75.092 249.937 75.083C250.605 74.3329 251.337 73.5233 251.835 72.9749C251.863 72.9439 251.912 72.9478 251.933 72.984C253.746 76.1401 257.534 82.4944 258.512 83.2278C259.476 83.9513 260.618 83.5534 261.099 83.2475C261.118 83.2354 261.128 83.2136 261.126 83.1912C260.261 73.1573 256.287 66.5545 254.381 64.4725C254.364 64.4547 254.34 64.4495 254.317 64.4566C253.84 64.6027 252.867 64.6681 252.507 63.8287C252.349 63.4591 252.298 62.303 252.304 60.9085C252.304 60.9047 252.304 60.9009 252.305 60.8971C252.846 58.0872 253.39 55.508 253.927 53.1503C253.936 53.1108 253.98 53.0903 254.015 53.1094C257.016 54.7162 261.337 57.856 264.041 62.5731C264.049 62.5883 264.051 62.6065 264.046 62.6231L263.769 63.4534C263.757 63.489 263.779 63.5268 263.816 63.5335L265.419 63.8249C265.433 63.8274 265.445 63.8344 265.454 63.8449L265.481 63.8758C265.493 63.8892 265.498 63.9071 265.496 63.9247C265.033 67.3206 264.64 70.6259 264.372 73.1081C264.367 73.1566 264.417 73.1911 264.461 73.1692C266.191 72.3022 268.222 71.2347 270.365 70.0428C270.392 70.0277 270.427 70.0353 270.445 70.0605C271.972 72.1656 273.194 74.1472 273.288 75.1737C273.291 75.2023 273.312 75.2252 273.34 75.23C273.973 75.3364 275.207 75.5637 275.448 75.6838C275.569 75.7443 275.397 76.4018 275.131 77.2072C275.126 77.221 275.117 77.2329 275.105 77.2405C272.999 78.5303 271.054 79.7032 269.43 80.6809C269.382 80.7102 269.396 80.7842 269.452 80.795C272.674 81.4159 274.429 82.5056 277.913 85.3835C290.282 97.6261 292.477 100.764 295.778 105.484L295.78 105.485L295.78 105.486C296.502 106.519 297.278 107.627 298.224 108.923C298.232 108.934 298.236 108.947 298.236 108.96V113.556C298.236 113.572 298.23 113.588 298.218 113.6L294.317 117.5C294.29 117.527 294.246 117.524 294.224 117.493C290.963 112.88 285.515 105.561 281.454 101.396C276.67 96.4887 265.686 91.4802 260.73 89.5637C260.696 89.5508 260.661 89.5701 260.651 89.6046L253.909 112.587C253.901 112.615 253.913 112.645 253.938 112.659L255.221 113.371C255.253 113.389 255.262 113.431 255.241 113.461L248.045 123.566C246.813 125.157 244.196 128 243.58 126.645C243.088 125.563 242.76 119.893 242.595 115.562C242.593 115.514 242.541 115.487 242.501 115.513L240.986 116.471C240.973 116.479 240.958 116.483 240.943 116.48C238.014 116 234.78 115.748 231.544 115.65ZM426.832 25.1681C426.875 25.1098 426.799 25.038 426.743 25.0838L409.257 39.3334C409.246 39.3423 409.232 39.3472 409.218 39.3472H368.813C368.779 39.3472 368.751 39.3748 368.751 39.4088V52.8343C368.751 52.8683 368.779 52.8959 368.813 52.8959H389.318C389.352 52.8959 389.38 52.9234 389.38 52.9574V67.7885C389.38 67.8449 389.449 67.8716 389.487 67.8297L402.927 52.9028C402.928 52.902 402.929 52.9011 402.929 52.9V52.9C402.929 52.8977 402.93 52.8959 402.933 52.8959H412.324C412.377 52.8959 412.406 52.9587 412.37 52.9984L402.947 63.5865C402.941 63.594 402.929 63.5893 402.929 63.5793V63.5793C402.929 63.5693 402.916 63.5646 402.91 63.5721L389.395 78.7575C389.385 78.7688 389.38 78.7834 389.38 78.7985V78.8086C389.38 78.8237 389.374 78.8383 389.364 78.8496L369.985 100.625L380.055 90.5553C380.783 89.8998 381.455 89.2897 382.076 88.7265C385.925 85.2329 387.792 83.5389 388.696 83.9519C389.053 84.1151 389.26 84.6072 389.38 85.4474V128.584C389.38 128.618 389.407 128.646 389.441 128.646H402.867C402.901 128.646 402.929 128.618 402.929 128.584V76.9141C402.929 76.9131 402.93 76.9126 402.93 76.9133V76.9133C402.931 76.9139 402.932 76.9134 402.932 76.9124L402.929 76.6635V72.2274C403.029 68.8797 403.487 67.3997 404.945 65.6652L418.329 52.2815C418.329 52.2814 418.329 52.2812 418.329 52.2811V52.2811C418.329 52.2811 418.329 52.2809 418.329 52.2808L423.254 47.3551C423.255 47.3547 423.255 47.3539 423.254 47.3537V47.3537C423.254 47.3535 423.254 47.3532 423.254 47.3528V39.4106C423.254 39.3766 423.226 39.349 423.192 39.349H417.712C417.711 39.349 417.711 39.3486 417.711 39.3481V39.3481C417.711 39.3476 417.71 39.3472 417.71 39.3472H416.489C416.438 39.3472 416.409 39.2897 416.439 39.2491L426.832 25.1681Z" fill="#FF0055"/>
<path fill-rule="evenodd" clip-rule="evenodd" d="M19.4259 37.4116C11.3644 58.1798 -2.3378 104.354 7.31659 122.973C7.32442 122.989 7.33793 122.999 7.35432 123.004L29.0366 129.087C29.0565 129.093 29.0769 129.089 29.0925 129.075C33.6042 125.187 43.6277 115.818 47.828 109.273C52.0339 102.718 62.3122 75.8121 66.932 63.1611C66.9362 63.1498 66.9369 63.139 66.9342 63.1273C66.4085 60.8868 65.6791 54.2778 66.9382 45.608C68.1927 36.9698 77.0547 11.8023 81.4092 0.0783265C81.4313 0.0187033 81.3573 -0.025151 81.309 0.0162741L78.1699 2.71067C78.1626 2.71689 78.1571 2.72431 78.1534 2.73312C64.3593 35.523 36.2564 101.725 34.1528 104.317C31.5229 107.557 28.1916 109.273 23.8087 109.273C19.4259 109.273 18.3185 104.626 17.8566 101.284C17.839 101.157 17.817 101.014 17.7922 100.854C17.2657 97.4527 15.5051 86.0769 29.0684 42.7488L29.624 40.0376C29.6323 39.9971 29.5994 39.9601 29.5582 39.9639C27.1441 40.183 24.3856 40.2008 22.9318 39.5093C21.6604 38.9046 20.6667 37.5372 19.9696 36.1765C19.9448 36.128 19.8737 36.1326 19.8557 36.184L19.4259 37.4116ZM24.3219 24.8152L24.3219 24.8153L24.322 24.8156C24.4584 27.0699 24.6503 30.2405 26.2637 30.55C27.4709 30.7816 29.7833 30.0232 31.8407 29.0941C31.8587 29.086 31.8716 29.0698 31.8756 29.0504L33.7549 19.8799C33.7642 19.8345 33.7219 19.7955 33.6773 19.8081C32.4965 20.1435 31.2979 20.3604 30.2975 20.2999C28.4229 20.1867 27.3345 18.315 26.8026 16.6824C26.7842 16.6258 26.7036 16.6245 26.6839 16.6807L24.2455 23.6455C24.2426 23.6539 24.2415 23.6627 24.2423 23.6715C24.2728 24.0043 24.2964 24.3937 24.3219 24.8152ZM36.5905 5.93831C36.6012 5.95244 36.6053 5.9705 36.6017 5.98786L36.2044 7.92684C36.2031 7.9329 36.201 7.93865 36.198 7.94408C35.1205 9.90239 33.6185 12.5514 32.0508 12.2506C30.5067 11.9544 30.5213 9.48387 30.533 7.52057C30.534 7.33901 30.5351 7.16178 30.5349 6.99101C30.5349 6.97633 30.5401 6.96213 30.5496 6.95096L34.1031 2.77848C34.1286 2.74852 34.1753 2.74985 34.1991 2.78123L36.5905 5.93831ZM27.7261 173.055C27.7165 173.038 27.7153 173.018 27.7226 173L72.5096 65.217C72.5124 65.2104 72.5163 65.2042 72.5213 65.1989L75.1351 62.366C75.1446 62.3557 75.1571 62.349 75.171 62.3469C82.139 61.2807 89.6772 55.769 92.6526 53.0811C92.6861 53.0508 92.7376 53.0675 92.7509 53.1106L94.4782 58.727C94.4791 58.73 94.4798 58.733 94.4803 58.7361L99.7271 94.1579C99.7362 94.2191 99.8198 94.2302 99.8445 94.1735L128.113 29.3256C128.144 29.2565 128.246 29.301 128.228 29.3743C121.542 56.8457 122.141 69.7577 123.297 72.8244C123.303 72.8413 123.301 72.8583 123.292 72.8742L117.331 83.705L98.3636 125.201C98.3567 125.216 98.3438 125.227 98.3282 125.233C94.1374 126.733 90.2979 124.604 88.8808 123.335C88.8693 123.325 88.8628 123.311 88.8613 123.296L83.9681 73.1038C83.9618 73.0394 83.8732 73.027 83.8495 73.0872L71.1171 105.412C71.1159 105.415 71.1149 105.418 71.1142 105.422L68.6635 116.615C68.6584 116.639 68.6414 116.657 68.618 116.662C55.7122 119.615 37.2088 157.34 29.5145 175.963C29.495 176.01 29.4312 176.011 29.4057 175.967L27.7261 173.055ZM350.012 34.5473C349.978 34.5473 349.95 34.5749 349.95 34.6089V124.295C349.95 124.329 349.978 124.357 350.012 124.357H363.437C363.471 124.357 363.499 124.329 363.499 124.295V34.6089C363.499 34.5749 363.471 34.5473 363.437 34.5473H350.012ZM459.586 58.2361C459.575 58.2476 459.568 58.2632 459.568 58.2795V63.2848C459.568 63.3188 459.541 63.3464 459.507 63.3464H446.69C446.674 63.3464 446.658 63.3399 446.646 63.3283L439.569 56.21C439.557 56.1985 439.551 56.1829 439.551 56.1666V34.6071C439.551 34.5731 439.523 34.5455 439.489 34.5455H426.064C426.03 34.5455 426.002 34.5731 426.002 34.6071V61.7877C426.002 61.7932 426.006 61.7976 426.012 61.7976V61.7976C426.021 61.7976 426.025 61.8082 426.019 61.8144L426.01 61.8231C426.004 61.829 426.004 61.8384 426.01 61.8443L441.086 77.0066C441.11 77.0309 441.149 77.0309 441.174 77.0066L441.189 76.9906C441.201 76.979 441.217 76.9725 441.233 76.9725H459.507C459.541 76.9725 459.568 77 459.568 77.034V92.0763C459.568 92.0925 459.562 92.1081 459.55 92.1197L427.602 124.251C427.563 124.29 427.591 124.356 427.646 124.356H446.632C446.649 124.356 446.665 124.35 446.676 124.338L473.094 97.7692C473.099 97.7633 473.099 97.7538 473.094 97.7479L473.092 97.7467C473.083 97.7376 473.09 97.7222 473.103 97.7222V97.7222C473.111 97.7222 473.117 97.7157 473.117 97.7078V44.7771C473.117 44.7221 473.05 44.6947 473.012 44.7337L459.586 58.2361ZM459.568 48.7867C459.568 48.8417 459.635 48.8691 459.674 48.8301L473.099 35.3278C473.111 35.3162 473.117 35.3006 473.117 35.2843V34.6073C473.117 34.5733 473.089 34.5457 473.055 34.5457H459.63C459.596 34.5457 459.568 34.5733 459.568 34.6073V48.7867ZM280.404 68.5255C280.418 68.527 280.432 68.5237 280.444 68.5161C286.558 64.5838 292.646 60.3618 295.47 57.4064C295.494 57.3813 295.533 57.3817 295.558 57.4063L297.28 59.1383C297.291 59.1499 297.298 59.1655 297.298 59.1818V95.4348C297.298 95.4369 297.296 95.4387 297.294 95.4389V95.4389C297.292 95.4392 297.291 95.4409 297.291 95.443L297.291 109.389C297.291 109.444 297.357 109.472 297.396 109.433L310.847 95.9045C310.847 95.9043 310.847 95.904 310.847 95.904V95.904C310.847 95.904 310.846 95.9038 310.846 95.9037V59.2471C310.846 59.2308 310.853 59.2152 310.864 59.2037L320.51 49.5031C320.521 49.4915 320.537 49.485 320.553 49.485H337.942C337.942 49.485 337.942 49.4851 337.943 49.4853V49.4853C337.943 49.4857 337.943 49.4857 337.944 49.4854L337.944 49.4851C337.944 49.485 337.944 49.485 337.944 49.485V49.485C337.945 49.485 337.945 49.4848 337.945 49.4845V49.4845C337.945 49.4844 337.945 49.4843 337.945 49.4842L343.483 43.9141C343.484 43.9139 343.484 43.9138 343.484 43.9138V43.9138C343.485 43.9138 343.485 43.9133 343.485 43.9127V43.9125C343.485 43.9123 343.485 43.9122 343.485 43.9122L343.485 43.912C343.486 43.9119 343.486 43.9116 343.485 43.9115V43.9115C343.485 43.9115 343.485 43.9114 343.485 43.9113V35.9236C343.485 35.8896 343.458 35.8621 343.424 35.8621H337.946C337.946 35.8621 337.945 35.8614 337.945 35.8605V35.8605C337.945 35.8596 337.944 35.8589 337.943 35.8589H314.995C314.986 35.8589 314.978 35.8555 314.972 35.8492V35.8492C314.959 35.8363 314.938 35.8363 314.925 35.8492V35.8492C314.919 35.8555 314.911 35.8589 314.902 35.8589H314.897C314.871 35.8589 314.851 35.8798 314.851 35.9051V35.9051C314.851 35.9174 314.846 35.9292 314.837 35.9379L297.735 53.1383C297.691 53.1822 297.617 53.141 297.63 53.0805C298.668 48.2915 297.655 43.4527 296.989 41.9783C296.219 40.2754 292.064 32.691 264.06 32.0687C264.048 32.0684 264.036 32.0648 264.026 32.0583L259.014 28.6979C258.985 28.6782 258.946 28.6859 258.928 28.7164C258.046 30.2208 256.611 33.6911 254.958 39.459C254.95 39.4887 254.963 39.5202 254.992 39.5326C258.327 41.0026 263.425 44.4011 266.352 46.4913C266.387 46.5166 266.436 46.4969 266.446 46.4546C266.835 44.8771 267.22 43.7634 267.582 43.371C269.584 41.2032 285.288 43.371 287.905 49.1001C289.204 51.9424 282.872 56.9961 275.695 61.5208C275.67 61.5365 275.66 61.5674 275.67 61.5949C276.691 64.2274 278.007 67.5964 278.204 67.9911C278.321 68.2265 279.253 68.4013 280.404 68.5255ZM337.792 124.549C337.792 124.55 337.791 124.55 337.791 124.55H314.847C314.843 124.55 314.841 124.555 314.844 124.558V124.558C314.847 124.56 314.844 124.565 314.84 124.565C302.709 123.5 293.864 126.892 286.687 130.447C286.625 130.477 286.567 130.398 286.615 130.348L303.304 112.953C303.305 112.953 303.305 112.953 303.306 112.953V112.953C303.306 112.954 303.306 112.954 303.307 112.953L312.826 103.38C312.85 103.356 312.889 103.356 312.913 103.38L320.396 110.906C320.408 110.918 320.423 110.924 320.44 110.924H337.791C337.791 110.924 337.792 110.925 337.792 110.925V110.925C337.792 110.926 337.792 110.926 337.793 110.926L337.793 110.925C337.793 110.925 337.794 110.925 337.794 110.925L343.334 116.496C343.334 116.497 343.334 116.497 343.335 116.497V116.497C343.335 116.497 343.336 116.497 343.336 116.498V116.498C343.336 116.498 343.336 116.498 343.336 116.498L343.336 116.499C343.336 116.499 343.336 116.499 343.336 116.499V116.499C343.336 116.499 343.336 116.499 343.336 116.499V124.487C343.336 124.521 343.308 124.548 343.274 124.548H337.793C337.792 124.548 337.792 124.549 337.792 124.549V124.549ZM122.018 112.741L138.134 54.8545C138.15 54.7973 138.085 54.7515 138.038 54.788C131.406 59.9405 120.795 66.9717 130.332 54.6746C142.341 39.1902 164.973 32.6867 177.29 34.5448C189.607 36.4029 200.846 43.8354 199.769 61.0232C198.908 74.7526 179.351 97.5492 169.636 107.278C169.611 107.302 169.572 107.3 169.549 107.274L160.403 97.3068C160.378 97.28 160.382 97.2379 160.411 97.216L162.82 95.3987L164.968 94.0082C164.972 94.0061 164.975 94.0036 164.978 94.0009L168.203 90.9113C168.205 90.9092 168.207 90.907 168.209 90.9046C177.55 78.8253 193.548 53.3114 182.833 47.8615C172.132 42.4186 155.628 49.1843 148.683 53.2638C148.664 53.2748 148.653 53.2932 148.653 53.315C148.643 56.0265 147.424 62.2681 145.619 70.018C145.613 70.0434 145.593 70.0625 145.567 70.0655C142.327 70.4465 138.389 71.3159 138.103 72.947C137.77 74.8422 140.904 78.5515 142.993 80.6668C143.008 80.6821 143.014 80.7038 143.009 80.7247C142.521 82.6533 142.018 84.6132 141.507 86.5824C141.498 86.6158 141.464 86.6355 141.43 86.6263C139.817 86.1776 138.184 85.913 138.102 86.5729C137.98 87.5478 139.141 90.9005 139.765 92.5324C139.778 92.5672 139.824 92.5721 139.846 92.5421V92.5421C139.877 92.5001 139.943 92.5318 139.929 92.582C137.524 101.632 135.082 110.399 133.272 116.714C133.264 116.745 133.279 116.776 133.309 116.788L134.008 117.069C134.02 117.074 134.033 117.075 134.046 117.071C138.091 115.948 145.391 109.661 148.598 106.601C148.627 106.573 148.673 106.582 148.692 106.617L156.478 120.434C156.493 120.462 156.484 120.498 156.458 120.516C140.622 131.171 128.172 132.866 123.557 128.226C119.862 124.509 120.991 116.354 122.018 112.741ZM162.55 115.033C162.527 115.051 162.494 115.05 162.472 115.03L151.323 105.046C151.295 105.021 151.296 104.978 151.324 104.953L156.404 100.596C156.444 100.562 156.511 100.588 156.523 100.639C156.76 101.636 159.364 104.746 161.725 107.565C163.905 110.168 165.878 112.524 165.589 112.741L162.55 115.033ZM173.196 114.129C173.142 114.131 173.111 114.072 173.149 114.033C175.599 111.526 187.664 106.588 193.498 104.392C193.519 104.384 193.533 104.366 193.536 104.344C193.909 101.989 194.288 99.7553 194.665 97.6288C194.673 97.5807 194.731 97.5612 194.767 97.5948C196.661 99.3867 198.394 101.713 199.223 102.98C199.226 102.984 199.229 102.988 199.234 102.992C201.064 104.584 203.945 105.6 205.196 105.919C205.218 105.925 205.235 105.943 205.24 105.966C205.625 107.69 207.337 109.748 208.154 110.571C208.156 110.573 208.158 110.575 208.161 110.577C209.709 111.708 210.995 112.287 211.928 112.557C211.939 112.56 211.949 112.566 211.956 112.574L214.837 115.735C214.873 115.775 214.848 115.838 214.795 115.839C210.587 115.849 202.075 116.355 200.613 118.316C199.156 120.269 193.594 122.182 190.878 122.929C190.829 122.942 190.788 122.892 190.807 122.845C191.968 119.92 191.271 116.981 190.765 115.851C190.761 115.842 190.756 115.836 190.749 115.83C188.531 113.998 178.222 113.93 173.196 114.129ZM203.851 96.1809C203.848 96.1758 203.844 96.1715 203.839 96.1677C201.785 94.4811 198.267 93.0786 195.71 92.2348C195.681 92.2252 195.664 92.1953 195.67 92.1649C196.119 89.7966 196.559 87.566 196.977 85.4454L196.979 85.4335C197.125 84.6901 197.269 83.9603 197.41 83.2428C197.418 83.1988 197.47 83.1786 197.506 83.2049C202.065 86.4974 205.507 90.4568 207.498 93.2198C207.508 93.2337 207.511 93.2508 207.508 93.2676C207.153 95.0294 206.796 96.7882 206.454 98.4587C206.448 98.4873 206.423 98.5078 206.394 98.5078C205.487 98.5087 204.77 98.4297 204.77 98.1864C204.77 97.6935 204.16 96.6492 203.851 96.1809ZM205.54 80.5342C205.269 79.9 201.963 77.0182 199.041 74.5667C199.024 74.5527 199.017 74.5308 199.02 74.5094C200.842 63.4144 201.033 54.5211 196.934 41.4116C196.925 41.3816 196.94 41.3487 196.968 41.3362C213.895 33.9449 233.583 30.5941 239.808 30.5198C239.845 30.5194 239.87 30.551 239.866 30.5874C239.102 37.8048 232.999 44.6466 230.848 47.0232C230.818 47.0554 230.767 47.0473 230.741 47.0121C230.422 46.5707 228.334 44.4307 219.088 47.0875C211.598 49.2399 211.545 54.598 211.544 54.674C211.544 54.6764 211.544 54.676 211.544 54.6784L210.559 63.1918C210.557 63.2144 210.542 63.2337 210.521 63.2418C209.63 63.5787 208.402 63.5041 206.879 62.3462C206.837 62.3141 206.775 62.3445 206.779 62.3973C206.896 64.3502 207.381 68.0933 208.465 68.4564C208.945 68.6174 209.539 68.3772 210.116 67.9777C210.124 67.9726 210.133 67.9691 210.141 67.9675C232.69 64.0355 238.128 66.0331 238.026 67.5269C238.334 73.2561 232.175 78.6757 229.712 79.7596C227.833 80.586 226.459 80.1653 225.934 79.8112C225.898 79.7872 225.901 79.7357 225.938 79.7126C228.072 78.3474 229.314 75.256 229.693 73.7944C229.703 73.756 229.674 73.72 229.635 73.7195C222.416 73.6138 213.916 75.924 210.511 77.1117C210.484 77.1211 210.469 77.1468 210.469 77.1755C210.48 77.6646 210.113 79.8381 209.551 82.8394C209.543 82.8794 209.5 82.9017 209.463 82.884C208.83 82.5763 208.231 82.3177 208.157 82.3923C208.046 82.5042 207.926 83.2975 207.866 83.7924C207.86 83.847 207.791 83.8674 207.757 83.8242C207.11 83.0012 205.892 81.3602 205.54 80.5342ZM214.931 108.096C213.613 106.224 212.957 104.54 212.666 103.331C212.657 103.296 212.681 103.262 212.717 103.256L216.437 102.698C216.458 102.695 216.479 102.702 216.492 102.718C218.765 105.365 221.937 109.06 223.749 111.173C223.783 111.212 223.754 111.272 223.702 111.273C222.188 111.311 220.724 111.373 219.345 111.45C219.334 111.45 219.324 111.448 219.315 111.444C217.609 110.636 215.94 109.529 214.931 108.096ZM230.296 111.283C230.275 111.283 230.257 111.272 230.246 111.255C228.411 108.32 225.732 103.969 224.387 101.587C224.366 101.55 224.39 101.504 224.432 101.498L225.851 101.285C225.859 101.284 225.866 101.284 225.873 101.285C229.322 102.036 236.196 102.064 242.578 101.855C242.607 101.854 242.631 101.834 242.636 101.806L246.787 82.4415C246.793 82.413 246.779 82.3842 246.752 82.3723L241.344 79.9551C241.303 79.9366 241.295 79.8812 241.329 79.8519L248.165 74.0464C248.177 74.0365 248.184 74.0228 248.186 74.0077C248.347 72.8181 248.51 71.6542 248.675 70.5157C248.676 70.5038 248.682 70.4927 248.69 70.4837C249.358 69.7295 250.089 68.9153 250.588 68.3637C250.616 68.3326 250.665 68.3364 250.686 68.3728C252.499 71.547 256.287 77.9375 257.265 78.6751C258.23 79.4027 259.371 79.0024 259.852 78.6947C259.871 78.6827 259.881 78.6609 259.879 78.6386C259.014 68.5472 255.041 61.9067 253.134 59.8127C253.117 59.7947 253.093 59.7895 253.07 59.7967C252.593 59.9436 251.62 60.0092 251.26 59.1651C251.102 58.7935 251.051 57.6308 251.057 56.2284C251.057 56.2246 251.057 56.2208 251.058 56.217C251.599 53.391 252.143 50.7969 252.68 48.4256C252.689 48.386 252.733 48.3655 252.768 48.3847C255.77 50.0008 260.09 53.1585 262.794 57.9025C262.802 57.9177 262.804 57.9359 262.799 57.9524L262.522 58.7882C262.51 58.8237 262.532 58.8615 262.569 58.8682L264.172 59.1613C264.186 59.1638 264.198 59.1709 264.207 59.1814L264.238 59.2165C264.25 59.2299 264.255 59.2477 264.252 59.2653C263.79 62.6796 263.397 66.0027 263.129 68.4984C263.124 68.5469 263.174 68.5814 263.218 68.5594C264.947 67.6878 266.977 66.6148 269.119 65.4167C269.147 65.4014 269.181 65.4091 269.199 65.4345C270.726 67.551 271.947 69.5433 272.042 70.5752C272.044 70.6038 272.065 70.6267 272.093 70.6315C272.726 70.7386 273.961 70.9672 274.201 71.0879C274.322 71.1488 274.15 71.8108 273.883 72.6215C273.879 72.6353 273.87 72.6471 273.857 72.6547C271.752 73.9521 269.806 75.1319 268.182 76.1153C268.134 76.1446 268.148 76.2185 268.204 76.2292C271.427 76.8537 273.182 77.9496 276.666 80.8442C289.035 93.1571 291.23 96.3128 294.531 101.06L294.533 101.062L294.533 101.063C295.256 102.101 296.031 103.216 296.977 104.519C296.985 104.53 296.989 104.542 296.989 104.555V109.179C296.989 109.195 296.983 109.211 296.971 109.222L293.071 113.145C293.044 113.172 292.999 113.169 292.977 113.138C289.716 108.498 284.268 101.137 280.207 96.9481C275.423 92.0132 264.439 86.976 259.483 85.0485C259.449 85.0354 259.414 85.0548 259.404 85.0895L252.662 108.205C252.654 108.232 252.666 108.262 252.691 108.276L253.974 108.992C254.006 109.01 254.015 109.052 253.994 109.082L246.798 119.246C245.566 120.846 242.948 123.705 242.333 122.343C241.841 121.254 241.513 115.551 241.348 111.194C241.346 111.147 241.294 111.12 241.253 111.145L239.739 112.109C239.726 112.118 239.711 112.121 239.696 112.118C236.766 111.635 233.532 111.382 230.296 111.283ZM425.585 20.2835C425.627 20.2251 425.552 20.1536 425.496 20.1994L408.008 34.5318C407.997 34.5409 407.983 34.5458 407.969 34.5458H401.68C401.68 34.5458 401.68 34.5455 401.68 34.5452V34.5452C401.68 34.5449 401.679 34.5447 401.679 34.5447H388.131C388.131 34.5447 388.131 34.5449 388.131 34.5452V34.5452C388.131 34.5455 388.131 34.5458 388.13 34.5458H367.565C367.531 34.5458 367.503 34.5734 367.503 34.6074V48.1102C367.503 48.1443 367.531 48.1718 367.565 48.1718H388.069C388.103 48.1718 388.131 48.1994 388.131 48.2334V63.1543C388.131 63.2108 388.201 63.2375 388.238 63.1954L401.678 48.1839C401.679 48.1826 401.68 48.1809 401.68 48.1791V48.1791C401.68 48.1751 401.683 48.1718 401.687 48.1718H411.074C411.127 48.1718 411.155 48.2345 411.12 48.2742L401.698 58.9219C401.691 58.9292 401.68 58.9246 401.68 58.915V58.915C401.68 58.9053 401.668 58.9007 401.661 58.908L388.146 74.181C388.136 74.1922 388.131 74.2067 388.131 74.2218V74.2306C388.131 74.2456 388.125 74.2602 388.115 74.2714L368.733 96.1749L378.779 86.0715C379.517 85.4034 380.198 84.7821 380.826 84.2089L380.827 84.2079C384.673 80.6974 386.54 78.9936 387.445 79.405C387.803 79.5681 388.011 80.0634 388.131 80.9101V124.293C388.131 124.327 388.158 124.354 388.192 124.354H401.618C401.652 124.354 401.68 124.327 401.68 124.293V72.3272C401.68 72.3257 401.681 72.325 401.682 72.326V72.326C401.683 72.327 401.685 72.3262 401.685 72.3247L401.68 71.9403V67.6815C401.777 64.2492 402.235 62.7549 403.722 60.9868L407.716 56.9695L407.839 56.849C407.84 56.8485 407.839 56.8477 407.838 56.8481V56.8481C407.838 56.8485 407.837 56.8477 407.838 56.8472L416.465 48.1708L417.077 47.5547L422.006 42.5974C422.007 42.597 422.007 42.5962 422.006 42.5959V42.5959C422.006 42.5958 422.006 42.5955 422.006 42.5951V34.6074C422.006 34.5734 421.978 34.5458 421.944 34.5458H415.24C415.189 34.5458 415.16 34.4884 415.19 34.4478L425.585 20.2835Z" fill="#FFBF00"/>
<path fill-rule="evenodd" clip-rule="evenodd" d="M15.4876 41.149C7.39387 61.7987 -6.36313 107.71 3.32983 126.223C3.33771 126.238 3.35123 126.249 3.3676 126.253L25.1372 132.302C25.1569 132.308 25.1771 132.304 25.1927 132.291C29.7223 128.424 39.7862 119.109 44.0033 112.6C48.226 106.084 58.5454 79.3309 63.1837 66.7519C63.1879 66.7405 63.1886 66.7296 63.1858 66.7178C62.6581 64.4899 61.9258 57.9187 63.1899 49.2986C64.4495 40.7097 73.3468 15.686 77.7187 4.02872C77.741 3.96922 77.6672 3.9251 77.6188 3.96626L74.4666 6.64577C74.4593 6.65197 74.4537 6.6594 74.4499 6.66822C60.6007 39.2712 32.3854 105.095 30.2734 107.673C27.633 110.895 24.2883 112.6 19.888 112.6C15.4876 112.6 14.3757 107.981 13.912 104.657C13.8943 104.531 13.8722 104.389 13.8474 104.23C13.3188 100.848 11.5512 89.5369 25.1687 46.4557L25.7268 43.7587C25.7352 43.7182 25.7022 43.6811 25.661 43.6848C23.2376 43.9026 20.4688 43.9202 19.0095 43.2327C17.7324 42.6311 16.7342 41.2704 16.0343 39.9167C16.0094 39.8685 15.9387 39.8731 15.9206 39.9242L15.4876 41.149ZM20.3264 27.4616C20.3234 27.47 20.3223 27.4789 20.3231 27.4878C20.3538 27.8186 20.3774 28.2057 20.403 28.6247C20.54 30.8662 20.7327 34.0187 22.3525 34.3265C23.5646 34.5568 25.8864 33.8026 27.9521 32.8788C27.9701 32.8707 27.9832 32.8544 27.9872 32.8351L29.874 23.7168C29.8833 23.6715 29.8412 23.6324 29.7966 23.6449C28.6109 23.9784 27.4073 24.1942 26.4028 24.1341C24.5205 24.0215 23.4277 22.16 22.8937 20.5365C22.8752 20.4802 22.7949 20.4788 22.7751 20.5348L20.3264 27.4616ZM32.7207 9.8548C32.7315 9.869 32.7357 9.8872 32.732 9.9047L32.3335 11.8307C32.3322 11.8368 32.3301 11.8426 32.3271 11.8481C31.2452 13.7953 29.7371 16.4295 28.1631 16.1304C26.6128 15.8359 26.6275 13.3794 26.6392 11.4273C26.6403 11.2472 26.6413 11.0714 26.6411 10.9019C26.6411 10.8872 26.6464 10.8729 26.656 10.8617L30.2239 6.71276C30.2494 6.6831 30.2958 6.68442 30.3195 6.7155L32.7207 9.8548ZM23.8192 176.017C23.8094 176.001 23.8081 175.98 23.8156 175.962L68.7816 68.7941C68.7844 68.7875 68.7884 68.7813 68.7933 68.776L71.4176 65.9592C71.4271 65.949 71.4396 65.9424 71.4534 65.9403C78.4498 64.8802 86.0188 59.3992 89.0057 56.7268C89.0392 56.6968 89.0904 56.7134 89.1037 56.7563L90.8381 62.341C90.839 62.344 90.8397 62.347 90.8402 62.3501L96.1081 97.5708C96.1173 97.6318 96.2005 97.643 96.2254 97.5865L124.609 33.1049C124.639 33.0359 124.742 33.0806 124.724 33.1538C118.011 60.4688 118.612 73.3078 119.772 76.3577C119.778 76.3748 119.776 76.3919 119.767 76.4079L113.783 87.1767L94.739 128.436C94.7321 128.451 94.7192 128.462 94.7036 128.468C90.4961 129.96 86.6412 127.843 85.2183 126.581C85.2068 126.571 85.2002 126.557 85.1987 126.542L80.2858 76.6349C80.2795 76.5707 80.1912 76.5582 80.1673 76.6182L67.3835 108.76C67.3823 108.763 67.3813 108.766 67.3806 108.77L64.9202 119.899C64.915 119.923 64.8979 119.941 64.8746 119.946C51.9169 122.882 33.3392 160.393 25.6143 178.91C25.5947 178.957 25.5312 178.958 25.5056 178.914L23.8192 176.017ZM347.392 38.2986C347.358 38.2986 347.33 38.3262 347.33 38.3602V127.535C347.33 127.569 347.358 127.596 347.392 127.596H360.871C360.905 127.596 360.933 127.569 360.933 127.535V38.3602C360.933 38.3262 360.905 38.2986 360.871 38.2986H347.392ZM457.414 61.856C457.402 61.8676 457.396 61.8833 457.396 61.8996V66.876C457.396 66.91 457.368 66.9375 457.334 66.9375H444.469C444.453 66.9375 444.437 66.9311 444.426 66.9196L437.315 59.8376C437.304 59.8261 437.297 59.8104 437.297 59.794V38.3608C437.297 38.3268 437.27 38.2992 437.236 38.2992H423.756C423.722 38.2992 423.694 38.3268 423.694 38.3608V65.387C423.694 65.3923 423.699 65.3965 423.704 65.3965V65.3965C423.712 65.3965 423.716 65.4068 423.71 65.4127L423.703 65.4204C423.697 65.4258 423.697 65.4347 423.703 65.4401L438.84 80.5173C438.864 80.5412 438.903 80.5412 438.927 80.5173L438.94 80.5041C438.952 80.4926 438.968 80.4862 438.984 80.4862H457.334C457.368 80.4862 457.396 80.5138 457.396 80.5478V95.5007C457.396 95.5171 457.389 95.5328 457.377 95.5444L425.302 127.492C425.263 127.531 425.29 127.598 425.345 127.598H444.408C444.424 127.598 444.44 127.591 444.451 127.58L470.975 101.161C470.981 101.156 470.981 101.146 470.975 101.14L470.974 101.139C470.965 101.131 470.972 101.115 470.984 101.115V101.115C470.992 101.115 470.998 101.109 470.998 101.101V48.4737C470.998 48.4189 470.932 48.3914 470.893 48.43L457.414 61.856ZM470.98 39.0784C470.992 39.0668 470.998 39.0511 470.998 39.0348V38.3604C470.998 38.3264 470.971 38.2988 470.937 38.2988H457.457C457.423 38.2988 457.396 38.3264 457.396 38.3604V52.4607C457.396 52.5155 457.462 52.543 457.501 52.5044L470.98 39.0784ZM277.507 72.0864C277.521 72.0879 277.535 72.0847 277.546 72.0772C283.66 68.1832 289.748 64.0036 292.599 61.0666C292.623 61.0419 292.662 61.0424 292.686 61.0667L294.447 62.8205C294.458 62.832 294.465 62.8477 294.465 62.8641V98.9113C294.465 98.9132 294.463 98.9148 294.462 98.915V98.915C294.46 98.9152 294.458 98.9168 294.458 98.9187L294.458 112.786C294.458 112.841 294.525 112.868 294.563 112.83L308.069 99.3783C308.069 99.378 308.069 99.3774 308.068 99.3773V99.3773C308.068 99.3773 308.068 99.377 308.068 99.3767V62.9299C308.068 62.9136 308.074 62.8979 308.086 62.8863L317.79 53.2209C317.801 53.2094 317.817 53.2029 317.833 53.2029H335.271C335.272 53.2029 335.273 53.2024 335.273 53.2018V53.2018C335.273 53.2014 335.273 53.2011 335.273 53.2009L340.836 47.6602C340.836 47.6602 340.836 47.6602 340.836 47.6602H340.836C340.836 47.6602 340.836 47.66 340.836 47.6599V47.6599C340.836 47.6598 340.836 47.6598 340.836 47.6597L340.836 47.6596C340.837 47.6595 340.837 47.6593 340.836 47.6592V47.6592C340.836 47.6592 340.836 47.6591 340.836 47.659V39.7157C340.836 39.6817 340.809 39.6541 340.775 39.6541H327.233L312.206 39.6543C312.202 39.6543 312.199 39.6529 312.196 39.6504V39.6504C312.191 39.6452 312.183 39.6452 312.177 39.6504V39.6504C312.175 39.6529 312.171 39.6543 312.168 39.6543H312.148C312.114 39.6543 312.086 39.6819 312.086 39.7159V39.7159C312.086 39.7322 312.079 39.7479 312.068 39.7595L294.889 56.8698C294.845 56.9136 294.771 56.8719 294.784 56.8114C295.857 52.0228 294.832 47.1642 294.159 45.6897C293.387 43.9965 289.215 36.4553 261.098 35.8366C261.086 35.8363 261.075 35.8328 261.065 35.8263L256.032 32.4846C256.003 32.4652 255.964 32.4729 255.946 32.5031C255.061 33.9987 253.62 37.4494 251.96 43.1848C251.952 43.2145 251.965 43.2463 251.994 43.2587C255.344 44.7209 260.463 48.1008 263.4 50.1787C263.436 50.2038 263.484 50.1842 263.495 50.142C263.885 48.5733 264.271 47.4657 264.635 47.0754C266.645 44.92 282.412 47.0754 285.04 52.772C286.343 55.5983 279.986 60.6235 272.78 65.1227C272.755 65.1384 272.744 65.1695 272.755 65.1971C273.779 67.8144 275.101 71.1626 275.298 71.555C275.415 71.7891 276.352 71.9629 277.507 72.0864ZM327.084 127.859H312.082C312.078 127.859 312.075 127.865 312.079 127.868V127.868C312.082 127.871 312.079 127.876 312.075 127.876C299.896 126.818 291.016 130.19 283.81 133.725C283.748 133.755 283.691 133.675 283.739 133.626L300.494 116.331C300.494 116.33 300.495 116.33 300.495 116.331V116.331C300.496 116.331 300.496 116.331 300.497 116.331L310.054 106.812C310.078 106.788 310.117 106.788 310.141 106.812L317.652 114.293C317.663 114.304 317.679 114.311 317.695 114.311H335.12C335.12 114.311 335.12 114.311 335.12 114.311V114.312C335.12 114.312 335.121 114.313 335.121 114.312V114.312C335.121 114.312 335.122 114.312 335.122 114.312L340.685 119.853C340.685 119.853 340.686 119.854 340.686 119.854V119.854C340.686 119.854 340.687 119.854 340.687 119.854V127.798C340.687 127.832 340.659 127.86 340.625 127.86L327.084 127.859ZM118.484 116.05L134.664 58.4933C134.68 58.4362 134.616 58.3903 134.569 58.4264C127.911 63.5497 117.256 70.5415 126.831 58.3142C138.888 42.918 161.611 36.4515 173.977 38.2991C186.344 40.1466 197.628 47.5368 196.546 64.6266C195.681 78.2779 176.046 100.945 166.292 110.618C166.268 110.642 166.229 110.64 166.205 110.614L157.023 100.704C156.998 100.677 157.002 100.635 157.031 100.613L159.45 98.8062L161.606 97.4236C161.61 97.4215 161.613 97.4191 161.615 97.4164L164.854 94.3443C164.856 94.3422 164.858 94.3401 164.86 94.3377C174.238 82.3272 190.3 56.9588 179.542 51.5399C168.799 46.1281 152.229 52.8551 145.255 56.9113C145.237 56.9223 145.226 56.9408 145.226 56.9627C145.216 59.6589 143.991 65.8645 142.18 73.5697C142.174 73.595 142.153 73.6141 142.127 73.6171C138.874 73.9958 134.919 74.8603 134.632 76.4824C134.298 78.3669 137.445 82.0556 139.543 84.1587C139.558 84.1741 139.564 84.196 139.558 84.2171C139.069 86.1342 138.564 88.0827 138.051 90.0403C138.042 90.0735 138.008 90.0932 137.975 90.084C136.355 89.6377 134.713 89.3743 134.631 90.0306C134.509 90.9998 135.674 94.3329 136.301 95.9557C136.314 95.9907 136.36 95.9957 136.383 95.9655V95.9655C136.414 95.9232 136.481 95.9555 136.467 96.0063C134.052 105.004 131.6 113.721 129.784 120C129.775 120.03 129.791 120.062 129.82 120.074L130.522 120.353C130.534 120.358 130.547 120.359 130.56 120.356C134.622 119.239 141.951 112.987 145.171 109.944C145.2 109.916 145.245 109.925 145.265 109.96L153.081 123.698C153.097 123.726 153.088 123.762 153.061 123.78C137.163 134.375 124.662 136.06 120.03 131.446C116.32 127.751 117.453 119.642 118.484 116.05ZM159.178 118.329C159.155 118.347 159.122 118.345 159.1 118.326L147.907 108.399C147.879 108.374 147.879 108.33 147.908 108.306L153.008 103.973C153.048 103.939 153.115 103.966 153.127 104.017C153.365 105.008 155.979 108.1 158.35 110.903C160.538 113.491 162.519 115.834 162.229 116.05L159.178 118.329ZM169.872 117.43C169.817 117.432 169.787 117.373 169.825 117.334C172.286 114.841 184.398 109.931 190.255 107.749C190.276 107.741 190.29 107.723 190.293 107.701C190.668 105.358 191.048 103.137 191.426 101.022C191.435 100.974 191.493 100.955 191.528 100.988C193.43 102.77 195.171 105.083 196.002 106.342C196.006 106.347 196.009 106.351 196.013 106.355C197.851 107.938 200.744 108.948 201.999 109.266C202.022 109.271 202.039 109.289 202.044 109.312C202.431 111.026 204.149 113.073 204.969 113.89C204.971 113.893 204.974 113.895 204.976 113.896C206.529 115.02 207.82 115.596 208.756 115.864C208.767 115.867 208.777 115.873 208.784 115.882L211.679 119.026C211.715 119.066 211.69 119.13 211.636 119.13C207.412 119.141 198.866 119.644 197.398 121.593C195.936 123.535 190.35 125.437 187.624 126.18C187.575 126.193 187.534 126.143 187.553 126.095C188.718 123.188 188.019 120.265 187.511 119.142C187.507 119.134 187.502 119.127 187.495 119.121C185.268 117.299 174.918 117.232 169.872 117.43ZM200.649 99.5825C200.646 99.5775 200.642 99.5732 200.637 99.5693C198.575 97.8924 195.044 96.4979 192.476 95.659C192.447 95.6494 192.429 95.6194 192.435 95.5889C192.885 93.2413 193.325 91.0297 193.744 88.927L193.747 88.9124L193.747 88.91L193.749 88.899L193.752 88.8838C193.898 88.1489 194.042 87.4274 194.182 86.7181C194.191 86.6742 194.242 86.6541 194.279 86.6801C198.856 89.9539 202.312 93.8907 204.311 96.6382C204.321 96.6521 204.324 96.6694 204.321 96.6863C203.965 98.4378 203.606 100.186 203.263 101.847C203.257 101.876 203.232 101.896 203.203 101.896C202.292 101.897 201.572 101.819 201.572 101.577C201.572 101.087 200.96 100.048 200.649 99.5825ZM202.345 84.025C202.073 83.3944 198.754 80.5291 195.82 78.0916C195.804 78.0776 195.796 78.0556 195.799 78.034C197.628 67.0035 197.82 58.1613 193.705 45.1276C193.696 45.0975 193.71 45.0645 193.739 45.052C210.734 37.7028 230.501 34.3711 236.75 34.2973C236.787 34.2969 236.812 34.3285 236.808 34.365C236.041 41.5416 229.913 48.3446 227.753 50.7072C227.724 50.7391 227.673 50.731 227.647 50.6961C227.328 50.2581 225.233 48.1281 215.947 50.7706C208.428 52.9105 208.373 58.2372 208.373 58.3139C208.373 58.3163 208.373 58.3159 208.373 58.3183L207.385 66.7812C207.382 66.8038 207.367 66.8232 207.346 66.8312C206.452 67.1662 205.218 67.0919 203.689 65.9402C203.647 65.9084 203.585 65.9388 203.589 65.9915C203.707 67.9333 204.194 71.655 205.281 72.016C205.763 72.1759 206.358 71.9382 206.937 71.5422C206.944 71.5372 206.953 71.5337 206.961 71.5322C229.603 67.6218 235.063 69.6081 234.96 71.0935C235.27 76.7901 229.086 82.1788 226.613 83.2565C224.728 84.0779 223.348 83.6603 222.821 83.3083C222.785 83.2843 222.788 83.2325 222.825 83.2094C224.967 81.8519 226.214 78.7792 226.594 77.3258C226.604 77.2875 226.576 77.2514 226.536 77.2508C219.288 77.1457 210.755 79.4428 207.336 80.6237C207.309 80.6331 207.293 80.6588 207.294 80.6875C207.305 81.1747 206.936 83.3347 206.372 86.3171C206.364 86.3569 206.321 86.3793 206.284 86.3617C205.649 86.0556 205.047 85.7983 204.972 85.8725C204.861 85.9838 204.741 86.7729 204.681 87.265C204.674 87.3194 204.605 87.3399 204.571 87.2969C203.922 86.4789 202.698 84.8466 202.345 84.025ZM211.774 111.43C210.451 109.57 209.793 107.896 209.5 106.694C209.492 106.659 209.515 106.625 209.551 106.619L213.287 106.064C213.308 106.061 213.329 106.068 213.342 106.084C215.624 108.716 218.809 112.39 220.627 114.49C220.661 114.529 220.633 114.589 220.581 114.591C219.062 114.628 217.592 114.689 216.208 114.766C216.198 114.766 216.188 114.764 216.178 114.76C214.465 113.956 212.788 112.855 211.774 111.43ZM227.201 114.601C227.18 114.6 227.162 114.59 227.151 114.572C225.31 111.655 222.62 107.329 221.269 104.96C221.248 104.923 221.271 104.877 221.314 104.87L222.738 104.659C222.745 104.658 222.752 104.658 222.759 104.66C226.221 105.406 233.123 105.434 239.531 105.226C239.559 105.225 239.583 105.205 239.589 105.177L243.756 85.9228C243.763 85.8943 243.748 85.8653 243.721 85.8535L238.292 83.4503C238.251 83.4319 238.243 83.3762 238.278 83.3469L245.14 77.5751C245.152 77.5653 245.159 77.5514 245.161 77.5363C245.323 76.3535 245.487 75.1963 245.652 74.0643C245.654 74.0524 245.659 74.0412 245.667 74.0322C246.338 73.2824 247.072 72.4731 247.572 71.925C247.6 71.8942 247.649 71.898 247.67 71.9341C249.49 75.0901 253.293 81.4448 254.275 82.1783C255.244 82.9017 256.39 82.5039 256.873 82.1979C256.892 82.1859 256.902 82.164 256.9 82.1416C256.032 72.1075 252.042 65.5047 250.127 63.4229C250.111 63.4051 250.087 63.4 250.064 63.407C249.585 63.5532 248.608 63.6187 248.247 62.7792C248.088 62.4101 248.037 61.2563 248.042 59.864C248.042 59.8602 248.043 59.8563 248.043 59.8526C248.587 57.0409 249.133 54.4601 249.673 52.101C249.682 52.0616 249.725 52.0411 249.761 52.0601C252.774 53.667 257.112 56.8067 259.826 61.5235C259.835 61.5387 259.837 61.557 259.831 61.5737L259.553 62.4038C259.541 62.4394 259.564 62.4773 259.601 62.4839L261.21 62.7754C261.224 62.7778 261.236 62.7849 261.245 62.7953L261.277 62.8317C261.289 62.8451 261.295 62.863 261.292 62.8807C260.827 66.2751 260.433 69.5788 260.165 72.0599C260.159 72.1083 260.209 72.1429 260.253 72.1211C261.989 71.2544 264.028 70.1874 266.178 68.9961C266.206 68.981 266.24 68.9886 266.258 69.0137C267.79 71.1178 269.016 73.0981 269.111 74.1241C269.114 74.1528 269.134 74.1756 269.163 74.1804C269.798 74.2869 271.038 74.5142 271.279 74.6343C271.4 74.6948 271.228 75.3528 270.96 76.1587C270.956 76.1725 270.946 76.1843 270.934 76.1919C268.821 77.4814 266.868 78.654 265.238 79.6315C265.19 79.6607 265.204 79.7349 265.26 79.7456C268.495 80.3666 270.257 81.4563 273.755 84.3342C286.173 96.5768 288.377 99.7145 291.692 104.434L291.693 104.436C292.418 105.469 293.197 106.578 294.147 107.874C294.155 107.885 294.159 107.897 294.159 107.91V112.506C294.159 112.523 294.153 112.538 294.141 112.55L290.225 116.451C290.198 116.478 290.154 116.475 290.132 116.444C286.857 111.831 281.388 104.511 277.31 100.346C272.507 95.4393 261.478 90.4306 256.503 88.5143C256.469 88.5014 256.434 88.5207 256.424 88.5551L249.655 111.538C249.647 111.566 249.659 111.595 249.684 111.609L250.972 112.322C251.004 112.34 251.013 112.381 250.992 112.411L243.767 122.517C242.53 124.108 239.903 126.951 239.284 125.596C238.791 124.514 238.461 118.844 238.296 114.512C238.294 114.465 238.242 114.438 238.201 114.463L236.68 115.422C236.668 115.43 236.653 115.433 236.638 115.431C233.697 114.95 230.449 114.699 227.201 114.601ZM423.267 24.1191C423.31 24.0609 423.234 23.989 423.178 24.0346L405.62 38.2858C405.609 38.2947 405.595 38.2996 405.581 38.2996L399.268 38.2996L385.665 38.2996H365.017C364.983 38.2996 364.955 38.3272 364.955 38.3612V51.7866C364.955 51.8206 364.983 51.8482 365.017 51.8482H385.604C385.638 51.8482 385.665 51.8758 385.665 51.9098V66.7418C385.665 66.7981 385.735 66.8249 385.772 66.7831L399.267 51.8557C399.268 51.8549 399.268 51.8538 399.268 51.8527V51.8527C399.268 51.8502 399.27 51.8482 399.273 51.8482H408.698C408.752 51.8482 408.78 51.9112 408.744 51.9508L399.288 62.5349C399.281 62.5425 399.268 62.5377 399.268 62.5274V62.5274C399.268 62.5171 399.255 62.5123 399.248 62.5199L385.681 77.7048C385.671 77.7161 385.665 77.7307 385.665 77.7458V77.7575C385.665 77.7726 385.66 77.7872 385.65 77.7985L366.192 99.5759L376.304 89.5032C377.034 88.849 377.708 88.24 378.33 87.6777L378.33 87.6771L378.33 87.6769C382.197 84.1815 384.071 82.4876 384.978 82.9033C385.338 83.068 385.545 83.5643 385.665 84.4112V127.536C385.665 127.57 385.693 127.597 385.727 127.597H399.206C399.24 127.597 399.268 127.57 399.268 127.536V75.8649C399.268 75.8631 399.27 75.8622 399.271 75.8634V75.8634C399.273 75.8646 399.275 75.8637 399.275 75.8619L399.268 75.4006V71.2865C399.363 67.8394 399.822 66.3495 401.327 64.5808L405.285 60.6377L405.452 60.4766C405.452 60.4759 405.452 60.4748 405.451 60.4753V60.4753C405.45 60.4759 405.449 60.4748 405.45 60.4741L414.11 51.8485C414.11 51.8483 414.11 51.8482 414.111 51.8482V51.8482C414.111 51.8482 414.111 51.8483 414.111 51.8485L414.111 51.8485C414.112 51.8489 414.112 51.8489 414.113 51.8485L419.676 46.3073C419.676 46.307 419.676 46.3064 419.676 46.3061V46.3061C419.676 46.306 419.675 46.3058 419.675 46.3055V38.362C419.675 38.328 419.648 38.3004 419.614 38.3004H414.111C414.111 38.3004 414.111 38.3002 414.111 38.3V38.3C414.111 38.2998 414.111 38.2996 414.11 38.2996H412.881C412.83 38.2996 412.801 38.242 412.832 38.2013L423.267 24.1191Z" fill="#008CFF"/>
<path fill-rule="evenodd" clip-rule="evenodd" d="M19.5509 39.8282C11.4894 60.4779 -2.21276 106.389 7.44155 124.902C7.44941 124.917 7.46292 124.928 7.4793 124.933L29.1618 130.981C29.1816 130.987 29.2019 130.983 29.2175 130.97C33.7291 127.103 43.7527 117.788 47.953 111.28C52.1588 104.763 62.4372 78.01 67.057 65.4311C67.0612 65.4197 67.0619 65.4089 67.0591 65.3971C66.5334 63.1692 65.8041 56.598 67.0632 47.9778C68.3177 39.389 77.1794 14.3658 81.5339 2.70833C81.5562 2.64878 81.4823 2.60476 81.4339 2.64603L78.2949 5.32496C78.2876 5.33117 78.2821 5.3386 78.2783 5.34741C64.4843 37.9504 36.3814 103.775 34.2778 106.352C31.6479 109.574 28.3166 111.28 23.9337 111.28C19.5509 111.28 18.4435 106.66 17.9816 103.337C17.964 103.21 17.942 103.069 17.9172 102.909C17.3907 99.5271 15.6301 88.2161 29.1934 45.1349L29.7493 42.4378C29.7577 42.3973 29.7247 42.3602 29.6835 42.3639C27.2693 42.5819 24.5106 42.5996 23.0567 41.912C21.7856 41.3109 20.7919 39.9516 20.0949 38.5989C20.07 38.5506 19.9991 38.5552 19.9811 38.6064L19.5509 39.8282ZM24.3706 26.1403C24.3676 26.1486 24.3665 26.1575 24.3673 26.1664C24.3979 26.4973 24.4215 26.8846 24.447 27.3037C24.5834 29.5452 24.7753 32.6977 26.3887 33.0055C27.5959 33.2358 29.9083 32.4817 31.9657 31.558C31.9837 31.5499 31.9967 31.5336 32.0007 31.5143L33.8799 22.3961C33.8893 22.3507 33.8471 22.3116 33.8025 22.3242C32.6216 22.6577 31.4228 22.8734 30.4223 22.8133C28.548 22.7008 27.4596 20.8401 26.9276 19.2169C26.9091 19.1605 26.8287 19.1591 26.809 19.2152L24.3706 26.1403ZM36.7153 8.53406C36.7261 8.54822 36.7303 8.56637 36.7267 8.58381L36.3298 10.5093C36.3285 10.5154 36.3264 10.5212 36.3234 10.5266C35.2458 12.4739 33.7436 15.1088 32.1756 14.8097C30.6315 14.5152 30.6462 12.0587 30.6578 10.1066V10.1061V10.1056V10.1051V10.1047V10.1042V10.1038V10.1033V10.1029V10.1024C30.6589 9.92383 30.6599 9.74946 30.6597 9.58138C30.6597 9.56665 30.6649 9.5524 30.6745 9.54121L34.2282 5.39229C34.2537 5.36251 34.3002 5.36384 34.324 5.39503L36.7153 8.53406ZM27.8503 174.697C27.8406 174.681 27.8393 174.661 27.8467 174.643L72.6336 67.4743C72.6364 67.4676 72.6404 67.4615 72.6453 67.4562L75.2591 64.6395C75.2686 64.6292 75.2811 64.6226 75.2949 64.6205C82.2631 63.5604 89.8015 58.0798 92.7768 55.4073C92.8103 55.3772 92.8616 55.3938 92.8749 55.4369L94.6022 61.0212C94.6032 61.0242 94.6038 61.0272 94.6043 61.0303L99.8512 96.2501C99.8603 96.3113 99.9437 96.3224 99.9685 96.2658L128.237 31.7876C128.268 31.7185 128.37 31.7631 128.352 31.8363C121.666 59.15 122.265 71.9883 123.42 75.038C123.427 75.055 123.425 75.0721 123.416 75.088L117.455 85.8569L98.4876 127.116C98.4807 127.131 98.4678 127.143 98.4523 127.148C94.2615 128.64 90.4221 126.523 89.0049 125.261C88.9934 125.251 88.9868 125.237 88.9853 125.222L84.0921 75.3161C84.0858 75.2518 83.9974 75.2393 83.9736 75.2994L71.2411 107.44C71.2399 107.443 71.2389 107.447 71.2382 107.45L68.7876 118.579C68.7824 118.603 68.7654 118.621 68.742 118.626C55.8361 121.562 37.3327 159.072 29.6385 177.589C29.619 177.636 29.5554 177.637 29.5298 177.593L27.8503 174.697ZM350.132 36.9788C350.098 36.9788 350.07 37.0064 350.07 37.0404V126.215C350.07 126.249 350.098 126.277 350.132 126.277H363.557C363.591 126.277 363.619 126.249 363.619 126.215V37.0404C363.619 37.0064 363.591 36.9788 363.557 36.9788H350.132ZM459.716 60.5384C459.705 60.5499 459.698 60.5656 459.698 60.5819V65.5559C459.698 65.5899 459.671 65.6175 459.637 65.6175H446.824C446.808 65.6175 446.792 65.611 446.78 65.5995L439.7 58.5196C439.689 58.508 439.682 58.4924 439.682 58.476V37.0408C439.682 37.0068 439.655 36.9792 439.621 36.9792H426.195C426.161 36.9792 426.134 37.0068 426.134 37.0408V64.067C426.134 64.0722 426.138 64.0765 426.143 64.0765V64.0765C426.152 64.0765 426.156 64.0867 426.15 64.0926L426.142 64.101C426.136 64.1066 426.136 64.1157 426.142 64.1213L441.218 79.198C441.242 79.222 441.281 79.222 441.305 79.198L441.319 79.1842C441.331 79.1726 441.346 79.1661 441.363 79.1661H459.637C459.671 79.1661 459.698 79.1937 459.698 79.2277V94.1828C459.698 94.1991 459.692 94.2148 459.68 94.2264L427.733 126.173C427.694 126.212 427.722 126.279 427.777 126.279H446.763C446.779 126.279 446.795 126.272 446.807 126.261L473.226 99.8411C473.232 99.8355 473.232 99.8264 473.226 99.8207L473.224 99.8188C473.216 99.8105 473.222 99.7962 473.234 99.7962V99.7962C473.241 99.7962 473.247 99.7903 473.247 99.7829V47.1564C473.247 47.1016 473.181 47.0741 473.142 47.1129L459.716 60.5384ZM459.698 51.1426C459.698 51.1975 459.765 51.225 459.803 51.1862L473.229 37.7607C473.24 37.7492 473.247 37.7335 473.247 37.7172V37.0414C473.247 37.0073 473.219 36.9798 473.185 36.9798H459.76C459.726 36.9798 459.698 37.0073 459.698 37.0414V51.1426ZM330.052 38.2093H315.028C314.994 38.2093 314.967 38.2369 314.967 38.2709V38.2824C314.967 38.2987 314.96 38.3144 314.949 38.326L297.875 55.3996C297.831 55.4433 297.757 55.4023 297.77 55.3419C298.784 50.6021 297.778 45.829 297.115 44.3699C296.345 42.6767 292.19 35.1355 264.186 34.5168C264.174 34.5165 264.162 34.5129 264.152 34.5064L259.14 31.165C259.111 31.1455 259.072 31.1532 259.054 31.1835C258.172 32.6793 256.737 36.1299 255.084 41.865C255.075 41.8947 255.089 41.9263 255.118 41.9388C258.454 43.4008 263.552 46.7803 266.478 48.8584C266.514 48.8835 266.562 48.8639 266.573 48.8217C266.961 47.2537 267.346 46.1468 267.708 45.7566C269.71 43.6011 285.414 45.7566 288.031 51.4532C289.33 54.2794 282.998 59.3043 275.821 63.8033C275.796 63.819 275.786 63.8501 275.796 63.8776C276.817 66.4948 278.132 69.8428 278.329 70.2351C278.446 70.4692 279.378 70.643 280.529 70.7665C280.543 70.768 280.557 70.7647 280.568 70.7572C286.695 66.8396 292.795 62.6328 295.612 59.6933C295.636 59.6683 295.675 59.6687 295.7 59.6931L297.396 61.3895C297.408 61.401 297.414 61.4167 297.414 61.433V97.4796C297.414 97.4816 297.413 97.4834 297.41 97.4836V97.4836C297.408 97.4839 297.407 97.4856 297.407 97.4877L297.407 111.354C297.407 111.409 297.473 111.437 297.512 111.398L310.962 97.9477C310.962 97.9476 310.962 97.9476 310.962 97.9476H310.962C310.963 97.9476 310.963 97.9474 310.963 97.9473V97.9473C310.963 97.9472 310.963 97.9472 310.963 97.9471L310.963 97.9466C310.963 97.9464 310.963 97.9461 310.963 97.946V97.946C310.963 97.946 310.963 97.9459 310.963 97.9457V61.4982C310.963 61.4819 310.969 61.4662 310.981 61.4546L320.659 51.776C320.671 51.7644 320.687 51.7579 320.703 51.7579H338.059H338.06C338.061 51.7579 338.061 51.7574 338.061 51.7568V51.7568C338.061 51.7565 338.061 51.7562 338.061 51.756L343.601 46.2161C343.602 46.2157 343.602 46.2151 343.601 46.2148V46.2148C343.601 46.2147 343.601 46.2144 343.601 46.2141V38.2709C343.601 38.2369 343.573 38.2093 343.539 38.2093H338.061H330.052ZM329.904 126.429H314.962C314.958 126.429 314.956 126.434 314.959 126.437V126.437C314.962 126.441 314.959 126.446 314.955 126.446C302.825 125.387 293.981 128.759 286.804 132.294C286.742 132.325 286.685 132.245 286.733 132.195L303.421 114.9C303.421 114.9 303.421 114.9 303.422 114.9V114.9C303.422 114.9 303.422 114.9 303.422 114.9L312.942 105.381C312.966 105.356 313.005 105.356 313.029 105.381L320.511 112.862C320.523 112.874 320.538 112.88 320.555 112.88H337.908C337.909 112.88 337.909 112.881 337.909 112.881V112.881C337.909 112.881 337.909 112.881 337.909 112.881L337.91 112.881C337.91 112.881 337.91 112.881 337.91 112.881L343.452 118.423C343.453 118.423 343.452 118.423 343.452 118.423V118.423C343.452 118.423 343.452 118.423 343.452 118.423V126.367C343.452 126.401 343.425 126.429 343.391 126.429H337.909H329.904ZM122.144 114.728L138.26 57.1719C138.276 57.1147 138.211 57.0688 138.164 57.1051C131.532 62.2283 120.921 69.2194 130.458 56.9924C142.467 41.5963 165.099 35.1298 177.416 36.9773C189.733 38.8248 200.972 46.215 199.895 63.3048C199.034 76.956 179.477 99.6228 169.762 109.296C169.737 109.32 169.699 109.318 169.675 109.292L160.529 99.3821C160.504 99.3552 160.508 99.3129 160.537 99.291L162.946 97.4844L165.094 96.1018C165.098 96.0997 165.101 96.0973 165.104 96.0946L168.329 93.0226C168.331 93.0205 168.333 93.0183 168.335 93.0159C177.676 81.0055 193.674 55.637 182.959 50.2181C172.258 44.8063 155.754 51.5333 148.809 55.5895C148.79 55.6006 148.779 55.619 148.779 55.6409C148.769 58.337 147.55 64.5427 145.745 72.2479C145.74 72.2731 145.719 72.2922 145.693 72.2952C142.453 72.6741 138.515 73.5385 138.229 75.1604C137.896 77.0447 141.03 80.7329 143.119 82.8361C143.134 82.8515 143.14 82.8733 143.135 82.8943C142.647 84.8117 142.144 86.7603 141.633 88.7181C141.624 88.7514 141.59 88.7711 141.557 88.7619C139.944 88.3158 138.31 88.0527 138.228 88.7088C138.106 89.6782 139.267 93.0119 139.891 94.6345C139.904 94.6692 139.95 94.6741 139.972 94.6442V94.6442C140.003 94.6023 140.069 94.6341 140.055 94.6844C137.65 103.682 135.208 112.399 133.398 118.678C133.39 118.709 133.406 118.74 133.435 118.752L134.134 119.031C134.146 119.036 134.159 119.037 134.172 119.034C138.217 117.917 145.518 111.666 148.724 108.622C148.753 108.595 148.799 108.603 148.818 108.638L156.603 122.376C156.619 122.405 156.61 122.44 156.583 122.458C140.748 133.053 128.298 134.738 123.683 130.124C119.988 126.429 121.117 118.321 122.144 114.728ZM162.676 117.007C162.653 117.025 162.62 117.024 162.598 117.004L151.45 107.077C151.422 107.052 151.422 107.008 151.451 106.984L156.53 102.652C156.57 102.618 156.637 102.644 156.649 102.695C156.887 103.687 159.49 106.778 161.851 109.582C164.031 112.17 166.004 114.512 165.715 114.728L162.676 117.007ZM173.321 116.11C173.266 116.112 173.236 116.052 173.274 116.013C175.725 113.52 187.788 108.611 193.622 106.428C193.643 106.42 193.657 106.402 193.66 106.38C194.033 104.039 194.411 101.819 194.788 99.7049C194.797 99.6569 194.855 99.6374 194.891 99.6708C196.783 101.452 198.516 103.764 199.344 105.023C199.347 105.027 199.35 105.031 199.355 105.035C201.185 106.618 204.066 107.628 205.317 107.946C205.339 107.952 205.356 107.969 205.361 107.992C205.747 109.707 207.458 111.753 208.275 112.57C208.277 112.573 208.279 112.575 208.282 112.577C209.831 113.703 211.119 114.279 212.052 114.546C212.063 114.549 212.073 114.555 212.08 114.563L214.961 117.706C214.997 117.745 214.972 117.809 214.918 117.809C210.711 117.82 202.199 118.323 200.737 120.272C199.28 122.214 193.718 124.116 191.002 124.859C190.953 124.872 190.912 124.822 190.931 124.775C192.092 121.867 191.395 118.945 190.889 117.821C190.885 117.813 190.88 117.806 190.873 117.8C188.655 115.979 178.346 115.911 173.321 116.11ZM203.972 98.2627C203.969 98.2576 203.965 98.2534 203.96 98.2495C201.907 96.5733 198.391 95.1792 195.834 94.3401C195.805 94.3305 195.788 94.3006 195.794 94.2701C196.242 91.9225 196.68 89.711 197.097 87.6084L197.1 87.5921L197.101 87.5892L197.101 87.5849C197.248 86.8436 197.392 86.1159 197.533 85.4004C197.542 85.3565 197.593 85.3363 197.63 85.3625C202.189 88.6371 205.631 92.5747 207.621 95.3217C207.631 95.3356 207.635 95.3528 207.631 95.3696C207.277 97.1201 206.92 98.8675 206.578 100.527C206.572 100.556 206.547 100.576 206.518 100.576C205.61 100.577 204.891 100.499 204.891 100.257C204.891 99.7667 204.282 98.7283 203.972 98.2627ZM205.661 82.7052C205.39 82.0748 202.086 79.2111 199.165 76.774C199.148 76.7601 199.14 76.7381 199.144 76.7166C200.966 65.6845 201.157 56.8417 197.059 43.8067C197.049 43.7766 197.064 43.7437 197.093 43.7312C214.019 36.3821 233.707 33.0504 239.932 32.9765C239.969 32.9761 239.994 33.0077 239.99 33.0442C239.226 40.2204 233.123 47.0231 230.971 49.3861C230.942 49.4181 230.891 49.41 230.865 49.3749C230.547 48.9363 228.459 46.8079 219.212 49.4498C211.722 51.5898 211.669 56.9167 211.668 56.9931C211.668 56.9955 211.668 56.9951 211.668 56.9975L210.684 65.4602C210.681 65.4828 210.666 65.5021 210.645 65.5101C209.754 65.8465 208.524 65.7735 207 64.6207C206.958 64.5888 206.897 64.6192 206.9 64.672C207.017 66.6139 207.503 70.3352 208.586 70.6962C209.065 70.8561 209.658 70.6181 210.235 70.2219C210.242 70.2168 210.251 70.2133 210.26 70.2118C232.813 66.3009 238.252 68.2873 238.15 69.7727C238.458 75.4693 232.299 80.858 229.836 81.9357C227.958 82.7572 226.584 82.3394 226.058 81.9874C226.023 81.9634 226.026 81.9117 226.062 81.8886C228.196 80.5312 229.438 77.4584 229.817 76.005C229.827 75.9666 229.798 75.9306 229.759 75.93C222.54 75.825 214.04 78.1219 210.635 79.3029C210.608 79.3123 210.593 79.338 210.593 79.3667C210.604 79.8538 210.236 82.0148 209.675 84.9984C209.667 85.0383 209.624 85.0607 209.587 85.043C208.953 84.7364 208.352 84.4784 208.278 84.5527C208.167 84.6639 208.047 85.4526 207.987 85.9447C207.981 85.9992 207.912 86.0196 207.878 85.9766C207.231 85.1583 206.013 83.5265 205.661 82.7052ZM215.052 110.11C213.734 108.25 213.079 106.576 212.787 105.373C212.779 105.338 212.803 105.304 212.838 105.299L216.559 104.744C216.58 104.74 216.601 104.748 216.614 104.764C218.887 107.396 222.058 111.069 223.87 113.169C223.904 113.209 223.876 113.269 223.824 113.27C222.31 113.307 220.846 113.369 219.467 113.445C219.457 113.446 219.447 113.444 219.438 113.44C217.731 112.636 216.062 111.535 215.052 110.11ZM230.417 113.28C230.397 113.279 230.378 113.269 230.367 113.251C228.533 110.334 225.855 106.008 224.509 103.64C224.488 103.602 224.512 103.557 224.555 103.55L225.975 103.338C225.983 103.337 225.99 103.337 225.997 103.339C229.446 104.085 236.322 104.113 242.704 103.905C242.733 103.904 242.757 103.884 242.763 103.856L246.913 84.6029C246.919 84.5744 246.904 84.5455 246.878 84.5336L241.471 82.1305C241.429 82.112 241.421 82.0565 241.456 82.0272L248.291 76.2553C248.303 76.2455 248.31 76.2316 248.312 76.2165C248.473 75.0338 248.636 73.8765 248.801 72.7445C248.802 72.7326 248.808 72.7214 248.816 72.7124C249.484 71.9627 250.215 71.1536 250.713 70.6054C250.741 70.5745 250.79 70.5783 250.811 70.6146C252.624 73.7707 256.412 80.125 257.39 80.8584C258.355 81.5818 259.496 81.184 259.977 80.8781C259.996 80.866 260.006 80.8442 260.004 80.8218C259.139 70.7879 255.166 64.1851 253.259 62.1031C253.242 62.0853 253.218 62.0801 253.195 62.0872C252.718 62.2333 251.745 62.2987 251.385 61.4593C251.227 61.0901 251.176 59.9362 251.182 58.5438C251.182 58.54 251.182 58.5361 251.183 58.5323C251.724 55.7208 252.269 53.1402 252.806 50.7813C252.815 50.7418 252.858 50.7213 252.894 50.7404C255.895 52.3474 260.215 55.487 262.919 60.2036C262.927 60.2188 262.929 60.2371 262.924 60.2537L262.647 61.084C262.635 61.1196 262.658 61.1574 262.694 61.1641L264.297 61.4555C264.311 61.4579 264.323 61.465 264.332 61.4755L264.364 61.5114C264.376 61.5248 264.381 61.5426 264.378 61.5603C263.916 64.9552 263.523 68.2594 263.255 70.7409C263.25 70.7894 263.3 70.8239 263.344 70.802C265.073 69.9353 267.104 68.8683 269.246 67.6769C269.273 67.6617 269.307 67.6694 269.326 67.6946C270.852 69.7983 272.072 71.7783 272.167 72.8043C272.169 72.8329 272.19 72.8558 272.218 72.8605C272.851 72.967 274.086 73.1943 274.326 73.3144C274.447 73.3749 274.275 74.0329 274.009 74.8388C274.004 74.8526 273.995 74.8645 273.982 74.8721C271.878 76.1616 269.932 77.3342 268.309 78.3118C268.261 78.341 268.275 78.4151 268.331 78.4258C271.553 79.0468 273.308 80.1365 276.792 83.0143C289.161 95.257 291.356 98.3947 294.657 103.114L294.658 103.116L294.659 103.117C295.381 104.149 296.157 105.258 297.103 106.554C297.111 106.565 297.115 106.578 297.115 106.591V111.188C297.115 111.204 297.109 111.22 297.097 111.231L293.197 115.132C293.17 115.159 293.126 115.156 293.104 115.125C289.842 110.511 284.394 103.192 280.333 99.0264C275.549 94.1196 264.565 89.111 259.609 87.1946C259.575 87.1816 259.54 87.2009 259.53 87.2355L252.788 110.218C252.78 110.246 252.792 110.276 252.817 110.29L254.099 111.002C254.132 111.02 254.141 111.062 254.12 111.092L246.923 121.197C245.692 122.788 243.074 125.631 242.459 124.276C241.967 123.194 241.639 117.522 241.474 113.19C241.472 113.143 241.42 113.116 241.38 113.141L239.863 114.101C239.85 114.109 239.835 114.112 239.82 114.11C236.89 113.629 233.654 113.378 230.417 113.28ZM425.703 22.798C425.746 22.7397 425.67 22.6679 425.614 22.7136L408.127 36.9641C408.116 36.9731 408.102 36.978 408.088 36.978H367.682C367.648 36.978 367.62 37.0056 367.62 37.0396V50.465C367.62 50.4991 367.648 50.5266 367.682 50.5266H388.186C388.22 50.5266 388.248 50.5542 388.248 50.5882V65.4216C388.248 65.4781 388.318 65.5048 388.355 65.4628L401.795 50.5364C401.796 50.5354 401.797 50.534 401.797 50.5325V50.5325C401.797 50.5293 401.799 50.5266 401.803 50.5266H411.19C411.243 50.5266 411.271 50.5894 411.236 50.6292L401.814 61.2158C401.808 61.2227 401.797 61.2184 401.797 61.2092V61.2092C401.797 61.2 401.785 61.1956 401.779 61.2025L388.264 76.3896C388.254 76.4009 388.248 76.4155 388.248 76.4306V76.4363C388.248 76.4514 388.243 76.466 388.232 76.4772L368.852 98.2551L378.923 88.1835C379.651 87.5283 380.323 86.9184 380.943 86.3553C384.792 82.8618 386.659 81.1678 387.563 81.5807C387.921 81.7444 388.129 82.2389 388.248 83.0835V126.215C388.248 126.249 388.276 126.277 388.31 126.277H401.735C401.769 126.277 401.797 126.249 401.797 126.215V74.5409C401.797 74.539 401.799 74.538 401.8 74.5393V74.5393C401.802 74.5407 401.804 74.5396 401.804 74.5376C401.802 74.3614 401.799 74.1885 401.797 74.0187V69.9929C401.889 66.5315 402.343 65.0371 403.838 63.2682L407.851 59.2553L407.959 59.1506C407.959 59.1502 407.959 59.1495 407.958 59.1498V59.1498C407.958 59.1502 407.957 59.1495 407.958 59.1491L416.58 50.5266L416.58 50.5264C416.581 50.5259 416.582 50.5259 416.582 50.5265V50.5265C416.582 50.5271 416.583 50.5272 416.584 50.5267L422.124 44.9864C422.125 44.9857 422.125 44.9845 422.124 44.9841V44.9841C422.123 44.9839 422.123 44.9833 422.123 44.9828V37.0394C422.123 37.0054 422.095 36.9778 422.061 36.9778H415.359C415.309 36.9778 415.28 36.9203 415.31 36.8797L425.703 22.798Z" fill="white"/>
</svg>
