<svg width="486" height="177" viewBox="0 0 486 177" fill="none" xmlns="http://www.w3.org/2000/svg">
<path fill-rule="evenodd" clip-rule="evenodd" d="M15.9809 38.5189C7.62935 59.1688 -6.56596 105.081 3.43605 123.593C3.44408 123.608 3.45763 123.619 3.47393 123.623L25.9397 129.673C25.959 129.678 25.9787 129.674 25.994 129.661C30.6674 125.796 41.0531 116.479 45.4049 109.97C49.7621 103.454 60.41 76.7015 65.1961 64.1223C65.2006 64.1106 65.2013 64.0994 65.1984 64.0872C64.6538 61.8588 63.8985 55.2879 65.2027 46.6685C66.5025 38.0789 75.6847 13.0515 80.1955 1.39555C80.2184 1.33644 80.1454 1.29151 80.0965 1.33181L76.8385 4.01576C76.831 4.02191 76.8253 4.02932 76.8214 4.03817C62.531 36.6412 33.417 102.465 31.2377 105.043C28.5132 108.265 25.062 109.97 20.5215 109.97C15.9809 109.97 14.8336 105.351 14.3551 102.027C14.3369 101.901 14.3141 101.759 14.2884 101.6C13.743 98.2178 11.9191 86.9068 25.9704 43.8256L26.5462 41.1291C26.5548 41.0885 26.522 41.0512 26.4807 41.0548C23.9802 41.2725 21.1236 41.29 19.6179 40.6026C18.2975 39.9998 17.2661 38.6349 16.5437 37.2786C16.5186 37.2313 16.449 37.2359 16.4306 37.2862L15.9809 38.5189ZM21.0516 25.9944L21.0516 25.9945L21.0516 25.9946C21.193 28.2361 21.3918 31.3886 23.0632 31.6964C24.3143 31.9267 26.7112 31.172 28.8432 30.2478C28.8614 30.2399 28.8747 30.2236 28.8788 30.2042L30.8256 21.0864C30.8353 21.0412 30.7934 21.0018 30.7488 21.014C29.5244 21.348 28.2813 21.5641 27.2439 21.504C25.2993 21.3912 24.1712 19.5252 23.621 17.9003C23.6022 17.8447 23.523 17.8433 23.5029 17.8985L20.9729 24.834C20.9698 24.8427 20.9686 24.8519 20.9694 24.861C21.0009 25.1909 21.0252 25.5765 21.0516 25.9937L21.0516 25.9938L21.0516 25.9939V25.9939L21.0516 25.9941L21.0516 25.9943L21.0516 25.9944ZM33.7626 7.22434C33.774 7.23873 33.7783 7.25743 33.7745 7.27535L33.3634 9.20082C33.3621 9.20706 33.3598 9.21296 33.3566 9.2185C32.2403 11.1657 30.6843 13.7994 29.0603 13.5003C27.4607 13.2058 27.4758 10.7493 27.4879 8.79718C27.489 8.61722 27.49 8.44155 27.4898 8.27225C27.4898 8.25714 27.4953 8.24256 27.5054 8.23126L31.1889 4.08014C31.2143 4.05145 31.2595 4.05275 31.2833 4.08286L33.7626 7.22434ZM24.5788 173.388C24.5686 173.371 24.5672 173.35 24.5751 173.332L70.973 66.1641C70.9759 66.1574 70.98 66.1512 70.9851 66.1459L73.6935 63.3286C73.703 63.3187 73.7154 63.3123 73.7289 63.3104C80.951 62.2503 88.7646 56.7655 91.8446 54.0939C91.878 54.0649 91.9281 54.0814 91.9416 54.1236L93.7321 59.7108C93.733 59.7138 93.7338 59.717 93.7343 59.7202L99.171 94.9471C99.1803 95.0076 99.2626 95.0189 99.2879 94.9632L128.587 30.4555C128.618 30.387 128.72 30.4325 128.702 30.5054C121.77 57.8309 122.39 70.6751 123.587 73.7269C123.594 73.7444 123.592 73.7621 123.582 73.7784L117.407 84.5466L97.7572 125.806C97.7501 125.821 97.7371 125.832 97.7215 125.838C93.3797 127.33 89.4017 125.213 87.9334 123.951C87.9215 123.941 87.9146 123.927 87.913 123.911L82.843 73.9973C82.8365 73.9335 82.7491 73.9208 82.7247 73.9801L69.5305 106.13C69.5292 106.133 69.5282 106.136 69.5274 106.14L66.9886 117.269C66.9833 117.293 66.966 117.31 66.9427 117.316C53.5713 120.25 34.3992 157.768 26.429 176.284C26.4092 176.33 26.3469 176.331 26.3211 176.288L24.5788 173.388ZM358.457 35.6685C358.423 35.6685 358.396 35.6961 358.396 35.7301V124.905C358.396 124.939 358.423 124.966 358.457 124.966H372.37C372.404 124.966 372.432 124.939 372.432 124.905V35.7301C372.432 35.6961 372.404 35.6685 372.37 35.6685H358.457ZM471.983 59.2281C471.971 59.2397 471.964 59.2557 471.964 59.2724V64.2457C471.964 64.2797 471.936 64.3072 471.902 64.3072H458.626C458.61 64.3072 458.595 64.301 458.583 64.29L451.246 57.2079C451.234 57.1963 451.227 57.1803 451.227 57.1636V35.7305C451.227 35.6965 451.2 35.6689 451.166 35.6689H437.253C437.219 35.6689 437.191 35.6965 437.191 35.7305V62.7567C437.191 62.762 437.196 62.7662 437.201 62.7662V62.7662C437.209 62.7662 437.214 62.7766 437.207 62.7826L437.2 62.79C437.194 62.7954 437.194 62.8045 437.2 62.8099L452.821 77.889C452.845 77.912 452.883 77.912 452.907 77.889L452.923 77.8732C452.935 77.8621 452.95 77.8559 452.966 77.8559H471.902C471.936 77.8559 471.964 77.8835 471.964 77.9175V92.8717C471.964 92.8884 471.957 92.9044 471.945 92.916L438.85 124.861C438.81 124.9 438.837 124.967 438.893 124.967H458.566C458.582 124.967 458.597 124.961 458.608 124.95L485.978 98.5312C485.984 98.5255 485.984 98.5159 485.978 98.5101L485.976 98.5088C485.967 98.5001 485.974 98.485 485.986 98.485V98.485C485.994 98.485 486 98.4788 486 98.4711V45.8427C486 45.7883 485.935 45.7606 485.896 45.7984L471.983 59.2281ZM485.981 36.4507C485.993 36.4391 486 36.4231 486 36.4064V35.7301C486 35.6961 485.972 35.6685 485.938 35.6685H472.025C471.991 35.6685 471.964 35.6961 471.964 35.7301V49.8361C471.964 49.8905 472.029 49.9182 472.068 49.8805L485.981 36.4507ZM286.348 69.4565C286.361 69.4579 286.375 69.4548 286.386 69.4476C292.693 65.5545 298.975 61.3756 301.917 58.4386C301.941 58.4148 301.979 58.4153 302.003 58.4387L303.828 60.2002C303.84 60.2118 303.847 60.2278 303.847 60.2445V96.2904C303.847 96.2921 303.845 96.2936 303.844 96.2938V96.2938C303.842 96.294 303.841 96.2954 303.841 96.2972L303.841 110.168C303.841 110.222 303.906 110.25 303.945 110.212L317.884 96.7575C317.885 96.757 317.884 96.7561 317.884 96.756V96.756C317.883 96.756 317.883 96.7556 317.883 96.7551V60.3081C317.883 60.2914 317.89 60.2754 317.902 60.2638L327.914 50.5989C327.926 50.5879 327.941 50.5817 327.957 50.5817H345.95C345.95 50.5817 345.951 50.5814 345.951 50.5811V50.5806C345.951 50.5802 345.951 50.58 345.951 50.5803V50.5803C345.952 50.5805 345.952 50.5806 345.952 50.5804L351.692 45.0393C351.693 45.0387 351.693 45.0377 351.692 45.0373V45.0373C351.692 45.0371 351.691 45.0367 351.691 45.0362V37.0945C351.691 37.0604 351.664 37.0329 351.63 37.0329H337.655L322.151 37.033C322.148 37.033 322.144 37.0316 322.142 37.0291V37.0291C322.136 37.0239 322.128 37.0239 322.122 37.0291V37.0291C322.12 37.0316 322.116 37.033 322.113 37.033H322.087C322.053 37.033 322.025 37.0606 322.025 37.0946V37.0965C322.025 37.1132 322.019 37.1292 322.007 37.1408L304.275 54.2569C304.23 54.2997 304.157 54.2574 304.171 54.1972C305.283 49.4035 304.225 44.5357 303.53 43.0597C302.732 41.3664 298.427 33.825 269.414 33.2065C269.403 33.2062 269.391 33.2028 269.382 33.1967L264.185 29.8528C264.156 29.8342 264.119 29.8417 264.101 29.871C263.187 31.3655 261.7 34.8164 259.987 40.5537C259.978 40.5839 259.992 40.6161 260.021 40.6284C263.478 42.091 268.763 45.4729 271.794 47.5508C271.83 47.575 271.877 47.5555 271.888 47.514C272.29 45.9442 272.689 44.8358 273.065 44.4453C275.138 42.2899 291.408 44.4453 294.119 50.1419C295.464 52.9682 288.904 57.9933 281.469 62.4924C281.444 62.508 281.433 62.5399 281.444 62.5679C282.501 65.1851 283.864 68.5326 284.067 68.9249C284.189 69.1591 285.155 69.333 286.348 69.4565ZM337.503 125.238H322.023C322.018 125.238 322.016 125.243 322.019 125.246V125.246C322.023 125.25 322.02 125.255 322.016 125.255C309.446 124.196 300.282 127.57 292.846 131.106C292.783 131.136 292.727 131.055 292.776 131.006L310.066 113.71C310.066 113.709 310.067 113.709 310.067 113.71V113.71C310.068 113.71 310.069 113.71 310.069 113.71L319.933 104.188C319.957 104.165 319.995 104.165 320.019 104.188L327.772 111.672C327.783 111.683 327.799 111.689 327.815 111.689H345.796C345.796 111.689 345.796 111.69 345.796 111.69V111.69C345.796 111.69 345.796 111.69 345.797 111.691L351.537 117.232C351.537 117.232 351.538 117.232 351.538 117.232V117.232C351.539 117.232 351.539 117.233 351.539 117.233V125.177C351.539 125.211 351.511 125.238 351.477 125.238L337.503 125.238ZM122.256 113.42L138.953 55.8608C138.969 55.804 138.906 55.7575 138.858 55.7929C131.988 60.9164 120.987 67.9142 130.869 55.6841C143.311 40.288 166.757 33.8214 179.517 35.669C192.277 37.5165 203.921 44.9067 202.805 61.9965C201.913 75.6488 181.649 98.318 171.585 107.99C171.561 108.013 171.523 108.011 171.5 107.986L162.023 98.0747C161.998 98.0477 162.002 98.0041 162.032 97.9822L164.527 96.1761L166.752 94.7934C166.756 94.7914 166.759 94.789 166.761 94.7864L170.103 91.7142C170.106 91.7121 170.108 91.71 170.11 91.7076C179.786 79.6972 196.36 54.3287 185.259 48.9098C174.174 43.4979 157.076 50.2252 149.88 54.2814C149.861 54.2923 149.85 54.3109 149.85 54.3331C149.839 57.0296 148.576 63.235 146.707 70.9397C146.701 70.9648 146.68 70.9837 146.654 70.9866C143.297 71.3652 139.214 72.2296 138.917 73.8523C138.572 75.7371 141.821 79.4267 143.985 81.5297C144.001 81.5452 144.007 81.5677 144.001 81.5892C143.497 83.5061 142.976 85.4542 142.446 87.4116C142.437 87.4444 142.403 87.4638 142.37 87.455C140.698 87.0081 139.001 86.7437 138.916 87.4005C138.791 88.3696 139.992 91.7018 140.639 93.3249C140.653 93.3608 140.701 93.366 140.724 93.3353V93.3353C140.757 93.2918 140.826 93.3261 140.811 93.3789C138.32 102.375 135.79 111.091 133.916 117.369C133.907 117.4 133.923 117.432 133.953 117.443L134.679 117.724C134.691 117.728 134.704 117.729 134.716 117.726C138.908 116.61 146.475 110.354 149.796 107.311C149.824 107.285 149.869 107.293 149.889 107.327L157.955 121.067C157.971 121.095 157.962 121.132 157.935 121.15C141.53 131.745 128.631 133.43 123.851 128.816C120.023 125.121 121.193 117.012 122.256 113.42ZM164.245 115.701C164.222 115.717 164.19 115.716 164.168 115.698L152.617 105.769C152.588 105.745 152.589 105.699 152.618 105.675L157.884 101.34C157.924 101.307 157.99 101.333 158.002 101.384C158.243 102.372 160.944 105.467 163.392 108.273L163.392 108.273L163.392 108.274C165.651 110.862 167.694 113.204 167.395 113.42L164.245 115.701ZM175.282 114.8C175.227 114.802 175.197 114.742 175.236 114.704C177.777 112.21 190.273 107.301 196.317 105.118C196.337 105.111 196.352 105.093 196.355 105.071C196.742 102.727 197.134 100.505 197.525 98.3893C197.534 98.342 197.591 98.3225 197.626 98.3548C199.59 100.137 201.388 102.453 202.246 103.712C202.249 103.717 202.253 103.721 202.257 103.725C204.154 105.308 207.14 106.318 208.435 106.636C208.458 106.641 208.474 106.659 208.48 106.682C208.879 108.396 210.653 110.443 211.499 111.26C211.501 111.262 211.503 111.264 211.506 111.266C213.109 112.391 214.441 112.967 215.407 113.234C215.418 113.237 215.428 113.243 215.435 113.251L218.421 116.396C218.459 116.435 218.434 116.5 218.38 116.5C214.021 116.51 205.201 117.013 203.687 118.963C202.177 120.906 196.41 122.808 193.598 123.55C193.548 123.564 193.508 123.513 193.528 123.465C194.73 120.558 194.008 117.635 193.484 116.512C193.48 116.503 193.475 116.497 193.468 116.491C191.17 114.669 180.488 114.602 175.282 114.8ZM207.041 96.9524C207.037 96.9474 207.033 96.9431 207.029 96.9393C204.901 95.2623 201.256 93.8677 198.607 93.0288C198.577 93.0193 198.56 92.989 198.566 92.9582C199.032 90.6044 199.487 88.3875 199.919 86.2799L199.923 86.2631C200.074 85.5244 200.223 84.799 200.369 84.086C200.378 84.0427 200.428 84.0227 200.464 84.0478C205.189 87.322 208.756 91.26 210.819 94.0081C210.83 94.0222 210.833 94.0399 210.83 94.0573C210.462 95.8085 210.092 97.5569 209.738 99.2175C209.732 99.2458 209.707 99.2661 209.678 99.2661C208.738 99.2671 207.993 99.1886 207.993 98.9465C207.993 98.4564 207.362 97.418 207.041 96.9524ZM208.79 81.3949C208.51 80.7643 205.085 77.8993 202.059 75.4619C202.041 75.4479 202.033 75.4254 202.037 75.4034C203.923 64.3734 204.122 55.5314 199.876 42.4985C199.866 42.468 199.881 42.4344 199.911 42.422C217.449 35.072 237.847 31.7404 244.294 31.6672C244.331 31.6668 244.356 31.6986 244.352 31.7351C243.56 38.9145 237.232 45.72 235.006 48.0799C234.977 48.1108 234.926 48.1025 234.901 48.0684C234.578 47.6362 232.427 45.493 222.827 48.1405C215.069 50.2799 215.012 55.6046 215.011 55.6837C215.011 55.6862 215.011 55.6859 215.011 55.6883L213.991 64.1507C213.989 64.1735 213.974 64.1928 213.952 64.2007C213.028 64.5364 211.753 64.4622 210.173 63.3071C210.131 63.2761 210.071 63.3066 210.074 63.359C210.195 65.3001 210.698 69.0248 211.821 69.3859C212.317 69.5458 212.932 69.308 213.529 68.9118C213.536 68.907 213.545 68.9037 213.553 68.9023C236.917 64.9917 242.551 66.978 242.445 68.4634C242.764 74.16 236.384 79.5487 233.832 80.6264C231.888 81.4474 230.465 81.0306 229.92 80.6787C229.883 80.6549 229.886 80.6018 229.924 80.5788C232.133 79.2213 233.42 76.1496 233.813 74.6962C233.823 74.6577 233.794 74.6213 233.754 74.6207C226.275 74.5153 217.468 76.8129 213.94 77.9938C213.913 78.0031 213.897 78.029 213.898 78.0581C213.908 78.5465 213.528 80.7067 212.946 83.6887C212.938 83.728 212.895 83.7502 212.859 83.7332C212.202 83.4264 211.579 83.1681 211.502 83.2424C211.386 83.3539 211.262 84.1469 211.2 84.6388C211.193 84.6926 211.126 84.7132 211.092 84.6713C210.422 83.8547 209.156 82.2179 208.79 81.3949ZM218.52 108.8C217.155 106.94 216.476 105.267 216.174 104.064C216.165 104.029 216.189 103.995 216.225 103.989L220.083 103.433C220.104 103.431 220.124 103.438 220.138 103.453C222.492 106.085 225.778 109.759 227.655 111.859C227.69 111.898 227.662 111.959 227.609 111.96C226.04 111.998 224.523 112.059 223.094 112.136C223.084 112.136 223.075 112.135 223.066 112.13C221.297 111.327 219.566 110.226 218.52 108.8ZM234.437 111.971C234.417 111.97 234.398 111.96 234.387 111.943C232.488 109.026 229.713 104.7 228.318 102.331C228.296 102.294 228.32 102.247 228.363 102.241L229.834 102.029C229.841 102.028 229.848 102.028 229.855 102.029C233.427 102.776 240.55 102.804 247.163 102.595C247.191 102.595 247.215 102.575 247.221 102.547L251.521 83.2936C251.527 83.2646 251.512 83.2352 251.485 83.2235L245.883 80.8204C245.841 80.8021 245.833 80.7453 245.869 80.7161L252.949 74.945C252.961 74.9352 252.969 74.9212 252.971 74.9058C253.138 73.7234 253.306 72.5665 253.477 71.4348C253.479 71.4226 253.484 71.4113 253.492 71.4022C254.186 70.6511 254.945 69.8404 255.461 69.2922C255.489 69.2624 255.536 69.2661 255.557 69.3013C257.435 72.4564 261.362 78.8145 262.375 79.5482C263.375 80.2717 264.557 79.8737 265.056 79.5678C265.075 79.5558 265.085 79.5336 265.083 79.5108C264.187 69.4752 260.069 62.8721 258.094 60.7916C258.078 60.7745 258.055 60.7695 258.032 60.7763C257.538 60.9229 256.528 60.9899 256.155 60.1491C255.991 59.7799 255.938 58.6259 255.944 57.2335C255.944 57.2296 255.944 57.2256 255.945 57.2217C256.506 54.4096 257.07 51.8285 257.627 49.4692C257.636 49.4303 257.678 49.41 257.714 49.4283C260.823 51.0346 265.3 54.1747 268.103 58.8928C268.112 58.9084 268.114 58.9273 268.108 58.9443L267.822 59.7729C267.809 59.8087 267.832 59.8471 267.869 59.8537L269.532 60.1454C269.545 60.1478 269.558 60.1546 269.567 60.1647L269.6 60.2011C269.612 60.2147 269.618 60.233 269.615 60.2512C269.136 63.6459 268.729 66.9499 268.452 69.4311C268.446 69.4792 268.496 69.5139 268.539 69.4928C270.333 68.6255 272.438 67.5573 274.66 66.3646C274.687 66.3502 274.72 66.3576 274.738 66.3819C276.32 68.4864 277.585 70.4675 277.683 71.4939C277.686 71.5226 277.707 71.5455 277.736 71.5501C278.391 71.6565 279.671 71.884 279.92 72.0042C280.046 72.0647 279.868 72.7226 279.592 73.5284C279.587 73.5422 279.578 73.5541 279.565 73.5615C277.385 74.8509 275.37 76.0234 273.688 77.0009C273.639 77.0297 273.653 77.105 273.709 77.1155C277.048 77.7364 278.866 78.8262 282.475 81.7041C295.289 93.9467 297.563 97.0844 300.983 101.804L300.985 101.806C301.733 102.839 302.536 103.947 303.517 105.244C303.525 105.254 303.53 105.267 303.53 105.281V109.877C303.53 109.894 303.523 109.91 303.511 109.922L299.468 113.824C299.441 113.85 299.398 113.847 299.376 113.817C295.997 109.204 290.352 101.882 286.144 97.7161C281.187 92.8083 269.803 87.7987 264.671 85.8831C264.637 85.8707 264.602 85.8897 264.592 85.9237L257.608 108.907C257.599 108.935 257.612 108.965 257.638 108.979L258.966 109.692C258.999 109.709 259.009 109.752 258.986 109.782L251.532 119.887C250.256 121.478 247.545 124.321 246.907 122.966C246.397 121.884 246.057 116.212 245.887 111.881C245.885 111.834 245.833 111.807 245.793 111.831L244.219 112.793C244.207 112.8 244.192 112.803 244.178 112.801C241.142 112.32 237.79 112.069 234.437 111.971ZM436.756 21.4842C436.8 21.4267 436.726 21.3537 436.669 21.3984L418.543 35.6563C418.532 35.6649 418.519 35.6695 418.505 35.6695L411.991 35.6695L397.955 35.6695H376.648C376.614 35.6695 376.586 35.6971 376.586 35.7311V49.1566C376.586 49.1906 376.614 49.2182 376.648 49.2182H397.894C397.928 49.2182 397.955 49.2457 397.955 49.2797V64.1094C397.955 64.1653 398.024 64.1923 398.062 64.1514L411.99 49.2195C411.99 49.2193 411.991 49.2193 411.991 49.2194V49.2194C411.991 49.2196 411.991 49.2195 411.991 49.2192V49.2187C411.991 49.2184 411.991 49.2182 411.992 49.2182H421.725C421.778 49.2182 421.806 49.282 421.77 49.3215L412.014 59.9038C412.006 59.9124 411.991 59.9067 411.991 59.8951V59.8951C411.991 59.8834 411.977 59.8778 411.969 59.8864L397.971 75.0688C397.961 75.0801 397.955 75.095 397.955 75.1105V75.1281C397.955 75.1436 397.949 75.1585 397.939 75.1699L377.862 96.9458L388.328 86.8438C389.068 86.2004 389.752 85.6011 390.384 85.047C394.393 81.5349 396.326 79.8415 397.257 80.2792C397.622 80.4505 397.833 80.9485 397.954 81.7917C397.955 81.7946 397.955 81.7975 397.955 81.8005V124.906C397.955 124.94 397.983 124.967 398.017 124.967H411.93C411.964 124.967 411.991 124.94 411.991 124.906V73.2349C411.991 73.2332 411.993 73.2323 411.995 73.2335V73.2335C411.996 73.2346 411.998 73.2337 411.998 73.2319L411.991 72.7878V68.6476C412.09 65.2126 412.562 63.723 414.107 61.9598L418.251 57.9596L418.374 57.8447C418.374 57.8442 418.373 57.8434 418.373 57.8438V57.8438C418.372 57.8442 418.372 57.8434 418.372 57.8429L427.306 49.2189C427.307 49.2188 427.307 49.2189 427.307 49.219V49.219C427.307 49.2191 427.307 49.2191 427.307 49.219L433.03 43.6945C433.042 43.6829 433.049 43.6669 433.049 43.6502V35.7319C433.049 35.6979 433.021 35.6703 432.987 35.6703H427.308C427.308 35.6703 427.307 35.6701 427.307 35.6699V35.6699C427.307 35.6697 427.307 35.6695 427.307 35.6695H426.035C425.984 35.6695 425.955 35.611 425.986 35.5705L436.756 21.4842Z" fill="url(#paint0_linear_1209_1464)"/>
<path fill-rule="evenodd" clip-rule="evenodd" d="M23.5509 37.1983C15.4894 57.848 1.78724 103.76 11.4415 122.272C11.4494 122.288 11.4629 122.298 11.4793 122.303L33.1618 128.352C33.1816 128.357 33.2019 128.353 33.2175 128.34C37.7291 124.474 47.7527 115.158 51.953 108.65C56.1588 102.133 66.4372 75.3801 71.057 62.8012C71.0612 62.7898 71.0619 62.779 71.0591 62.7672C70.5334 60.5393 69.8041 53.9681 71.0632 45.3479C72.3177 36.7592 81.1794 11.7359 85.5339 0.0784462C85.5562 0.0188937 85.4823 -0.0251181 85.4339 0.0161503L82.2949 2.69508C82.2876 2.70129 82.2821 2.70871 82.2783 2.71753C68.4843 35.3205 40.3814 101.145 38.2778 103.722C35.6479 106.944 32.3166 108.65 27.9337 108.65C23.5509 108.65 22.4435 104.03 21.9816 100.707C21.964 100.58 21.942 100.439 21.9172 100.28C21.3907 96.8972 19.6301 85.5863 33.1934 42.505L33.7493 39.8079C33.7577 39.7674 33.7247 39.7303 33.6835 39.734C31.2693 39.952 28.5106 39.9697 27.0567 39.2822C25.7856 38.681 24.7919 37.3217 24.0949 35.969C24.07 35.9207 23.9991 35.9253 23.9811 35.9766L23.5509 37.1983ZM28.3706 23.5104C28.3676 23.5188 28.3665 23.5276 28.3673 23.5365C28.3979 23.8674 28.4215 24.2547 28.447 24.6738C28.5834 26.9154 28.7753 30.0679 30.3887 30.3756C31.5959 30.6059 33.9083 29.8518 35.9657 28.9281C35.9837 28.92 35.9967 28.9037 36.0007 28.8844L37.8799 19.7662C37.8893 19.7208 37.8471 19.6817 37.8025 19.6943C36.6216 20.0278 35.4228 20.2435 34.4223 20.1835C32.548 20.0709 31.4596 18.2103 30.9276 16.587C30.9091 16.5306 30.8287 16.5293 30.809 16.5853L28.3706 23.5104ZM40.7153 5.90418C40.7261 5.91834 40.7303 5.93648 40.7267 5.95393L40.3298 7.87946C40.3285 7.88554 40.3264 7.89132 40.3234 7.89676C39.2458 9.84405 37.7436 12.479 36.1756 12.1798C34.6315 11.8853 34.6462 9.42882 34.6578 7.47667V7.47619V7.47572V7.47526V7.47479V7.47434V7.47388V7.47343V7.47299V7.47255C34.6589 7.29394 34.6599 7.11958 34.6597 6.9515C34.6597 6.93677 34.6649 6.92251 34.6745 6.91132L38.2282 2.76241C38.2537 2.73262 38.3002 2.73395 38.324 2.76515L40.7153 5.90418ZM31.8503 172.068C31.8406 172.051 31.8393 172.031 31.8467 172.013L76.6336 64.8444C76.6364 64.8377 76.6404 64.8316 76.6453 64.8263L79.2591 62.0096C79.2686 61.9994 79.2811 61.9927 79.2949 61.9906C86.2631 60.9305 93.8015 55.45 96.7768 52.7774C96.8103 52.7473 96.8616 52.764 96.8749 52.807L98.6022 58.3913C98.6032 58.3943 98.6038 58.3973 98.6043 58.4004L103.851 93.6203C103.86 93.6814 103.944 93.6925 103.968 93.6359L132.237 29.1577C132.268 29.0887 132.37 29.1332 132.352 29.2065C125.666 56.5201 126.265 69.3584 127.42 72.4081C127.427 72.4251 127.425 72.4422 127.416 72.4581L121.455 83.227L102.488 124.486C102.481 124.501 102.468 124.513 102.452 124.518C98.2615 126.01 94.4221 123.893 93.0049 122.631C92.9934 122.621 92.9868 122.607 92.9853 122.592L88.0921 72.6862C88.0858 72.6219 87.9974 72.6095 87.9736 72.6695L75.2411 104.81C75.2399 104.814 75.2389 104.817 75.2382 104.82L72.7876 115.949C72.7824 115.973 72.7654 115.991 72.742 115.996C59.8361 118.932 41.3327 156.443 33.6385 174.959C33.619 175.007 33.5554 175.007 33.5298 174.963L31.8503 172.068ZM354.132 34.3489C354.098 34.3489 354.07 34.3765 354.07 34.4105V123.585C354.07 123.619 354.098 123.647 354.132 123.647H367.557C367.591 123.647 367.619 123.619 367.619 123.585V34.4105C367.619 34.3765 367.591 34.3489 367.557 34.3489H354.132ZM463.716 57.9085C463.705 57.92 463.698 57.9357 463.698 57.952V62.926C463.698 62.96 463.671 62.9876 463.637 62.9876H450.824C450.808 62.9876 450.792 62.9811 450.78 62.9696L443.7 55.8897C443.689 55.8782 443.682 55.8625 443.682 55.8462V34.4109C443.682 34.3769 443.655 34.3493 443.621 34.3493H430.195C430.161 34.3493 430.134 34.3769 430.134 34.4109V61.4371C430.134 61.4424 430.138 61.4466 430.143 61.4466V61.4466C430.152 61.4466 430.156 61.4568 430.15 61.4627L430.142 61.4711C430.136 61.4767 430.136 61.4858 430.142 61.4914L445.218 76.5681C445.242 76.5921 445.281 76.5921 445.305 76.5681L445.319 76.5543C445.331 76.5427 445.346 76.5363 445.363 76.5363H463.637C463.671 76.5363 463.698 76.5638 463.698 76.5978V91.5529C463.698 91.5693 463.692 91.5849 463.68 91.5965L431.733 123.544C431.694 123.582 431.722 123.649 431.777 123.649H450.763C450.779 123.649 450.795 123.642 450.807 123.631L477.226 97.2112C477.232 97.2056 477.232 97.1965 477.226 97.1909L477.224 97.189C477.216 97.1806 477.222 97.1663 477.234 97.1663V97.1663C477.241 97.1663 477.247 97.1604 477.247 97.1531V44.5266C477.247 44.4717 477.181 44.4442 477.142 44.483L463.716 57.9085ZM463.698 48.5128C463.698 48.5676 463.765 48.5951 463.803 48.5563L477.229 35.1308C477.24 35.1193 477.247 35.1036 477.247 35.0873V34.4115C477.247 34.3775 477.219 34.3499 477.185 34.3499H463.76C463.726 34.3499 463.698 34.3775 463.698 34.4115V48.5128ZM334.052 35.5794H319.028C318.994 35.5794 318.967 35.607 318.967 35.641V35.6525C318.967 35.6689 318.96 35.6845 318.949 35.6961L301.875 52.7697C301.831 52.8134 301.757 52.7724 301.77 52.712C302.784 47.9723 301.778 43.1991 301.115 41.74C300.345 40.0468 296.19 32.5056 268.186 31.8869C268.174 31.8866 268.162 31.883 268.152 31.8766L263.14 28.5352C263.111 28.5157 263.072 28.5233 263.054 28.5536C262.172 30.0494 260.737 33.5 259.084 39.2351C259.075 39.2648 259.089 39.2965 259.118 39.3089C262.454 40.771 267.552 44.1504 270.478 46.2285C270.514 46.2537 270.562 46.234 270.573 46.1918C270.961 44.6238 271.346 43.5169 271.708 43.1267C273.71 40.9713 289.414 43.1267 292.031 48.8233C293.33 51.6495 286.998 56.6744 279.821 61.1734C279.796 61.1891 279.786 61.2202 279.796 61.2477C280.817 63.865 282.132 67.2129 282.329 67.6052C282.446 67.8393 283.378 68.0131 284.529 68.1367C284.543 68.1381 284.557 68.1349 284.568 68.1273C290.695 64.2097 296.795 60.0029 299.612 57.0634C299.636 57.0384 299.675 57.0388 299.7 57.0633L301.396 58.7596C301.408 58.7712 301.414 58.7868 301.414 58.8032V94.8497C301.414 94.8517 301.413 94.8535 301.41 94.8537V94.8537C301.408 94.854 301.407 94.8557 301.407 94.8578L301.407 108.724C301.407 108.779 301.473 108.807 301.512 108.768L314.962 95.3178C314.962 95.3177 314.962 95.3177 314.962 95.3177H314.962C314.963 95.3177 314.963 95.3176 314.963 95.3174V95.3174C314.963 95.3173 314.963 95.3173 314.963 95.3172L314.963 95.3168C314.963 95.3165 314.963 95.3162 314.963 95.3162V95.3162C314.963 95.3161 314.963 95.316 314.963 95.3158V58.8683C314.963 58.852 314.969 58.8363 314.981 58.8248L324.659 49.1461C324.671 49.1345 324.687 49.128 324.703 49.128H342.059H342.06C342.061 49.128 342.061 49.1275 342.061 49.1269V49.1269C342.061 49.1266 342.061 49.1263 342.061 49.1261L347.601 43.5863C347.602 43.5859 347.602 43.5852 347.601 43.5849V43.5849C347.601 43.5848 347.601 43.5845 347.601 43.5842V35.641C347.601 35.607 347.573 35.5794 347.539 35.5794H342.061H334.052ZM333.904 123.799H318.962C318.958 123.799 318.956 123.804 318.959 123.807V123.807C318.962 123.811 318.959 123.816 318.955 123.816C306.825 122.758 297.981 126.129 290.804 129.664C290.742 129.695 290.685 129.615 290.733 129.565L307.421 112.27C307.421 112.27 307.421 112.27 307.422 112.27V112.27C307.422 112.271 307.422 112.271 307.422 112.27L316.942 102.751C316.966 102.727 317.005 102.727 317.029 102.751L324.511 110.232C324.523 110.244 324.538 110.25 324.555 110.25H341.908C341.909 110.25 341.909 110.251 341.909 110.251V110.251C341.909 110.251 341.909 110.251 341.909 110.251L341.91 110.251C341.91 110.251 341.91 110.251 341.91 110.251L347.452 115.793C347.453 115.793 347.452 115.793 347.452 115.793V115.793C347.452 115.793 347.452 115.793 347.452 115.793V123.738C347.452 123.772 347.425 123.799 347.391 123.799H341.909H333.904ZM126.144 112.098L142.26 54.542C142.276 54.4848 142.211 54.439 142.164 54.4752C135.532 59.5984 124.921 66.5895 134.458 54.3625C146.467 38.9664 169.099 32.4999 181.416 34.3474C193.733 36.195 204.972 43.5851 203.895 60.6749C203.034 74.3262 183.477 96.9929 173.762 106.666C173.737 106.691 173.699 106.688 173.675 106.663L164.529 96.7522C164.504 96.7254 164.508 96.683 164.537 96.6611L166.946 94.8545L169.094 93.4719C169.098 93.4698 169.101 93.4674 169.104 93.4647L172.329 90.3927C172.331 90.3906 172.333 90.3884 172.335 90.386C181.676 78.3756 197.674 53.0071 186.959 47.5882C176.258 42.1764 159.754 48.9035 152.809 52.9596C152.79 52.9707 152.779 52.9891 152.779 53.011C152.769 55.7071 151.55 61.9128 149.745 69.618C149.74 69.6433 149.719 69.6623 149.693 69.6654C146.453 70.0442 142.515 70.9086 142.229 72.5305C141.896 74.4149 145.03 78.103 147.119 80.2062C147.134 80.2216 147.14 80.2434 147.135 80.2644C146.647 82.1818 146.144 84.1304 145.633 86.0882C145.624 86.1215 145.59 86.1412 145.557 86.1321C143.944 85.686 142.31 85.4228 142.228 86.0789C142.106 87.0483 143.267 90.382 143.891 92.0046C143.904 92.0393 143.95 92.0442 143.972 92.0143V92.0143C144.003 91.9724 144.069 92.0042 144.055 92.0545C141.65 101.052 139.208 109.769 137.398 116.048C137.39 116.079 137.406 116.11 137.435 116.122L138.134 116.401C138.146 116.406 138.159 116.407 138.172 116.404C142.217 115.287 149.518 109.036 152.724 105.993C152.753 105.965 152.799 105.974 152.818 106.008L160.603 119.747C160.619 119.775 160.61 119.811 160.583 119.828C144.748 130.423 132.298 132.109 127.683 127.494C123.988 123.799 125.117 115.691 126.144 112.098ZM166.676 114.377C166.653 114.395 166.62 114.394 166.598 114.374L155.45 104.447C155.422 104.422 155.422 104.379 155.451 104.354L160.53 100.022C160.57 99.9878 160.637 100.014 160.649 100.065C160.887 101.057 163.49 104.149 165.851 106.952C168.031 109.54 170.004 111.882 169.715 112.098L166.676 114.377ZM177.321 113.48C177.266 113.482 177.236 113.422 177.274 113.383C179.725 110.89 191.788 105.981 197.622 103.798C197.643 103.79 197.657 103.772 197.66 103.75C198.033 101.409 198.411 99.1888 198.788 97.075C198.797 97.027 198.855 97.0075 198.891 97.041C200.783 98.8223 202.516 101.134 203.344 102.393C203.347 102.398 203.35 102.402 203.355 102.405C205.185 103.988 208.066 104.998 209.317 105.316C209.339 105.322 209.356 105.339 209.361 105.362C209.747 107.077 211.458 109.123 212.275 109.941C212.277 109.943 212.279 109.945 212.282 109.947C213.831 111.073 215.119 111.649 216.052 111.916C216.063 111.919 216.073 111.925 216.08 111.934L218.961 115.076C218.997 115.115 218.972 115.179 218.918 115.179C214.711 115.19 206.199 115.693 204.737 117.642C203.28 119.584 197.718 121.486 195.002 122.229C194.953 122.242 194.912 122.192 194.931 122.145C196.092 119.237 195.395 116.315 194.889 115.191C194.885 115.183 194.88 115.176 194.873 115.17C192.655 113.349 182.346 113.282 177.321 113.48ZM207.972 95.6329C207.969 95.6278 207.965 95.6235 207.96 95.6196C205.907 93.9434 202.391 92.5493 199.834 91.7103C199.805 91.7006 199.788 91.6707 199.794 91.6402C200.242 89.2926 200.68 87.0811 201.097 84.9785L201.1 84.9622L201.101 84.9593L201.101 84.955C201.248 84.2137 201.392 83.486 201.533 82.7705C201.542 82.7266 201.593 82.7065 201.63 82.7326C206.189 86.0073 209.631 89.9448 211.621 92.6918C211.631 92.7057 211.635 92.7229 211.631 92.7398C211.277 94.4902 210.92 96.2376 210.578 97.8975C210.572 97.926 210.547 97.9465 210.518 97.9465C209.61 97.9476 208.891 97.8691 208.891 97.6269C208.891 97.1369 208.282 96.0985 207.972 95.6329ZM209.661 80.0753C209.39 79.4449 206.086 76.5812 203.165 74.1442C203.148 74.1302 203.14 74.1082 203.144 74.0867C204.966 63.0546 205.157 54.2119 201.059 41.1768C201.049 41.1468 201.064 41.1138 201.093 41.1013C218.019 33.7522 237.707 30.4205 243.932 30.3467C243.969 30.3462 243.994 30.3779 243.99 30.4143C243.226 37.5905 237.123 44.3933 234.971 46.7562C234.942 46.7882 234.891 46.7801 234.865 46.7451C234.547 46.3064 232.459 44.1781 223.212 46.8199C215.722 48.9599 215.669 54.2868 215.668 54.3632C215.668 54.3656 215.668 54.3652 215.668 54.3676L214.684 62.8303C214.681 62.8529 214.666 62.8722 214.645 62.8802C213.754 63.2166 212.524 63.1436 211 61.9909C210.958 61.959 210.897 61.9893 210.9 62.0421C211.017 63.984 211.503 67.7053 212.586 68.0663C213.065 68.2262 213.658 67.9883 214.235 67.592C214.242 67.5869 214.251 67.5834 214.26 67.5819C236.813 63.671 242.252 65.6574 242.15 67.1428C242.458 72.8394 236.299 78.2281 233.836 79.3058C231.958 80.1273 230.584 79.7095 230.058 79.3575C230.023 79.3336 230.026 79.2818 230.062 79.2587C232.196 77.9013 233.438 74.8285 233.817 73.3751C233.827 73.3368 233.798 73.3007 233.759 73.3001C226.54 73.1951 218.04 75.4921 214.635 76.673C214.608 76.6824 214.593 76.7081 214.593 76.7368C214.604 77.2239 214.236 79.3849 213.675 82.3685C213.667 82.4084 213.624 82.4308 213.587 82.4131C212.953 82.1065 212.352 81.8485 212.278 81.9228C212.167 82.034 212.047 82.8227 211.987 83.3149C211.981 83.3693 211.912 83.3897 211.878 83.3467C211.231 82.5285 210.013 80.8967 209.661 80.0753ZM219.052 107.48C217.734 105.62 217.079 103.946 216.787 102.744C216.779 102.709 216.803 102.674 216.838 102.669L220.559 102.114C220.58 102.111 220.601 102.118 220.614 102.134C222.887 104.766 226.058 108.439 227.87 110.539C227.904 110.579 227.876 110.639 227.824 110.64C226.31 110.677 224.846 110.739 223.467 110.815C223.457 110.816 223.447 110.814 223.438 110.81C221.731 110.006 220.062 108.905 219.052 107.48ZM234.417 110.65C234.397 110.649 234.378 110.639 234.367 110.621C232.533 107.704 229.855 103.378 228.509 101.01C228.488 100.973 228.512 100.927 228.555 100.92L229.975 100.708C229.983 100.707 229.99 100.707 229.997 100.709C233.446 101.456 240.322 101.483 246.704 101.275C246.733 101.274 246.757 101.254 246.763 101.226L250.913 81.973C250.919 81.9445 250.904 81.9156 250.878 81.9038L245.471 79.5006C245.429 79.4822 245.421 79.4266 245.456 79.3973L252.291 73.6254C252.303 73.6156 252.31 73.6018 252.312 73.5867C252.473 72.4039 252.636 71.2466 252.801 70.1146C252.802 70.1027 252.808 70.0915 252.816 70.0825C253.484 69.3328 254.215 68.5237 254.713 67.9756C254.741 67.9446 254.79 67.9485 254.811 67.9847C256.624 71.1408 260.412 77.4951 261.39 78.2285C262.355 78.952 263.496 78.5541 263.977 78.2482C263.996 78.2361 264.006 78.2143 264.004 78.1919C263.139 68.158 259.166 61.5552 257.259 59.4732C257.242 59.4554 257.218 59.4502 257.195 59.4573C256.718 59.6034 255.745 59.6688 255.385 58.8294C255.227 58.4603 255.176 57.3063 255.182 55.9139C255.182 55.9101 255.182 55.9062 255.183 55.9025C255.724 53.091 256.269 50.5103 256.806 48.1515C256.815 48.1119 256.858 48.0914 256.894 48.1105C259.895 49.7175 264.215 52.8571 266.919 57.5738C266.927 57.589 266.929 57.6072 266.924 57.6238L266.647 58.4541C266.635 58.4897 266.658 58.5275 266.694 58.5342L268.297 58.8256C268.311 58.8281 268.323 58.8351 268.332 58.8456L268.364 58.8815C268.376 58.8949 268.381 58.9128 268.378 58.9304C267.916 62.3253 267.523 65.6295 267.255 68.1111C267.25 68.1595 267.3 68.194 267.344 68.1722C269.073 67.3054 271.104 66.2384 273.246 65.047C273.273 65.0319 273.307 65.0395 273.326 65.0647C274.852 67.1685 276.072 69.1485 276.167 70.1744C276.169 70.203 276.19 70.2259 276.218 70.2307C276.851 70.3371 278.086 70.5644 278.326 70.6845C278.447 70.745 278.275 71.403 278.009 72.2089C278.004 72.2227 277.995 72.2346 277.982 72.2422C275.878 73.5317 273.932 74.7043 272.309 75.6819C272.261 75.7112 272.275 75.7852 272.331 75.7959C275.553 76.4169 277.308 77.5066 280.792 80.3845C293.161 92.6271 295.356 95.7648 298.657 100.485L298.658 100.486L298.659 100.487C299.381 101.52 300.157 102.628 301.103 103.924C301.111 103.935 301.115 103.948 301.115 103.961V108.558C301.115 108.574 301.109 108.59 301.097 108.602L297.197 112.502C297.17 112.529 297.126 112.526 297.104 112.495C293.842 107.881 288.394 100.562 284.333 96.3965C279.549 91.4897 268.565 86.4811 263.609 84.5647C263.575 84.5517 263.54 84.5711 263.53 84.6056L256.788 107.588C256.78 107.616 256.792 107.646 256.817 107.66L258.099 108.372C258.132 108.39 258.141 108.432 258.12 108.462L250.923 118.567C249.692 120.158 247.074 123.001 246.459 121.646C245.967 120.564 245.639 114.892 245.474 110.56C245.472 110.513 245.42 110.486 245.38 110.511L243.863 111.471C243.85 111.479 243.835 111.483 243.82 111.48C240.89 110.999 237.654 110.748 234.417 110.65ZM429.703 20.1681C429.746 20.1098 429.67 20.038 429.614 20.0838L412.127 34.3343C412.116 34.3432 412.102 34.3481 412.088 34.3481H371.682C371.648 34.3481 371.62 34.3757 371.62 34.4097V47.8352C371.62 47.8692 371.648 47.8967 371.682 47.8967H392.186C392.22 47.8967 392.248 47.9243 392.248 47.9583V62.7917C392.248 62.8482 392.318 62.8749 392.355 62.8329L405.795 47.9066C405.796 47.9055 405.797 47.9041 405.797 47.9026V47.9026C405.797 47.8994 405.799 47.8967 405.803 47.8967H415.19C415.243 47.8967 415.271 47.9596 415.236 47.9993L405.814 58.5859C405.808 58.5928 405.797 58.5885 405.797 58.5793V58.5793C405.797 58.5701 405.785 58.5658 405.779 58.5726L392.264 73.7597C392.254 73.771 392.248 73.7856 392.248 73.8007V73.8064C392.248 73.8215 392.243 73.8361 392.232 73.8474L372.852 95.6252L382.923 85.5537C383.651 84.8984 384.323 84.2885 384.943 83.7254C388.792 80.2319 390.659 78.5379 391.563 78.9508C391.921 79.1145 392.129 79.609 392.248 80.4536V123.585C392.248 123.619 392.276 123.647 392.31 123.647H405.735C405.769 123.647 405.797 123.619 405.797 123.585V71.9111C405.797 71.9091 405.799 71.9081 405.8 71.9094V71.9094C405.802 71.9108 405.804 71.9097 405.804 71.9078C405.802 71.7316 405.799 71.5586 405.797 71.3888V67.363C405.889 63.9016 406.343 62.4072 407.838 60.6383L411.851 56.6255L411.959 56.5208C411.959 56.5203 411.959 56.5196 411.958 56.52V56.52C411.958 56.5203 411.957 56.5196 411.958 56.5192L420.58 47.8967L420.58 47.8965C420.581 47.896 420.582 47.896 420.582 47.8966V47.8966C420.582 47.8972 420.583 47.8973 420.584 47.8968L426.124 42.3566C426.125 42.3559 426.125 42.3547 426.124 42.3542V42.3542C426.123 42.354 426.123 42.3535 426.123 42.3529V34.4095C426.123 34.3755 426.095 34.3479 426.061 34.3479H419.359C419.309 34.3479 419.28 34.2904 419.31 34.2498L429.703 20.1681Z" fill="white"/>
<defs>
<linearGradient id="paint0_linear_1209_1464" x1="-18" y1="60.3701" x2="492.5" y2="62.3701" gradientUnits="userSpaceOnUse">
<stop stop-color="#008CFF"/>
<stop offset="0.24" stop-color="#1E7CEB"/>
<stop offset="0.31" stop-color="#E70D65"/>
<stop offset="0.455" stop-color="#FF0055"/>
<stop offset="0.59" stop-color="#FF1F47"/>
<stop offset="0.875" stop-color="#FFA20D"/>
<stop offset="1" stop-color="#FFBF00"/>
</linearGradient>
</defs>
</svg>
