<svg width="473" height="178" viewBox="0 0 473 178" fill="none" xmlns="http://www.w3.org/2000/svg">
<path fill-rule="evenodd" clip-rule="evenodd" d="M17.673 40.1788C9.61149 60.8285 -4.09069 106.74 5.56362 125.253C5.57148 125.268 5.58499 125.279 5.60137 125.283L27.2839 131.332C27.3036 131.338 27.3239 131.334 27.3395 131.32C31.8512 127.454 41.8748 118.138 46.075 111.63C50.2809 105.113 60.5592 78.3606 65.1791 65.7817C65.1832 65.7703 65.184 65.7594 65.1812 65.7477C64.6555 63.5198 63.9262 56.9486 65.1852 48.3284C66.4397 39.7396 75.3014 14.7164 79.656 3.05891C79.6782 2.99936 79.6043 2.95535 79.556 2.99662L76.417 5.67555C76.4097 5.68176 76.4041 5.68918 76.4004 5.698C62.6064 38.301 34.5035 104.125 32.3999 106.702C29.77 109.924 26.4386 111.63 22.0558 111.63C17.673 111.63 16.5655 107.01 16.1036 103.687C16.0861 103.561 16.064 103.419 16.0393 103.26C15.5128 99.8777 13.7522 88.5667 27.3155 45.4855L27.8714 42.7883C27.8797 42.7478 27.8468 42.7107 27.8056 42.7144C25.3914 42.9324 22.6327 42.9501 21.1789 42.2625C19.9077 41.6613 18.9141 40.302 18.2171 38.9493C18.1922 38.901 18.1213 38.9056 18.1032 38.9568L17.673 40.1788ZM22.4926 26.491C22.4896 26.4994 22.4885 26.5083 22.4894 26.5171C22.5199 26.848 22.5435 27.2353 22.569 27.6545C22.7055 29.896 22.8974 33.0485 24.5107 33.3563C25.7179 33.5865 28.0304 32.8324 30.0877 31.9087C30.1057 31.9006 30.1187 31.8844 30.1227 31.865L32.0018 22.7477C32.0111 22.7023 31.9689 22.6632 31.9243 22.6758C30.7436 23.0092 29.545 23.2249 28.5446 23.1648C26.67 23.0522 25.5815 21.1911 25.0496 19.5677C25.0311 19.5112 24.9507 19.5099 24.931 19.5659L22.4926 26.491ZM34.8374 8.88464C34.8482 8.89881 34.8523 8.91695 34.8487 8.93439L34.4515 10.8619C34.4502 10.868 34.4481 10.8738 34.4451 10.8792C33.3675 12.8264 31.8655 15.4603 30.2979 15.1612C28.7538 14.8666 28.7684 12.4102 28.78 10.458C28.7811 10.2776 28.7822 10.1015 28.7819 9.93176C28.7819 9.91703 28.7872 9.90277 28.7968 9.89158L32.3503 5.74288C32.3758 5.71309 32.4223 5.71442 32.446 5.74562L34.8374 8.88464ZM25.9743 175.047C25.9647 175.03 25.9633 175.01 25.9708 174.992L70.7577 67.8239C70.7605 67.8172 70.7644 67.8111 70.7693 67.8058L73.3831 64.9891C73.3926 64.9788 73.4052 64.9722 73.419 64.9701C80.3871 63.91 87.9256 58.4295 90.9008 55.7569C90.9343 55.7268 90.9856 55.7435 90.9989 55.7865L92.7263 61.3708C92.7272 61.3738 92.7279 61.3768 92.7283 61.3799L97.9752 96.5998C97.9843 96.6609 98.0677 96.672 98.0925 96.6154L126.361 32.1372C126.392 32.0682 126.494 32.1127 126.476 32.186C119.791 59.4996 120.389 72.3379 121.544 75.3876C121.551 75.4046 121.549 75.4217 121.54 75.4376L115.579 86.2065L96.6117 127.465C96.6048 127.48 96.5919 127.492 96.5763 127.498C92.3856 128.989 88.5461 126.873 87.1289 125.611C87.1174 125.6 87.1108 125.587 87.1093 125.571L82.2162 75.6657C82.2099 75.6014 82.1214 75.5889 82.0976 75.649L69.3652 107.79C69.3639 107.793 69.363 107.796 69.3623 107.799L66.9116 118.929C66.9065 118.952 66.8894 118.97 66.8661 118.976C53.9602 121.912 35.4567 159.422 27.7625 177.939C27.743 177.986 27.6794 177.987 27.6538 177.943L25.9743 175.047ZM348.263 37.3284C348.229 37.3284 348.201 37.356 348.201 37.39V126.565C348.201 126.599 348.229 126.626 348.263 126.626H361.688C361.722 126.626 361.75 126.599 361.75 126.565V37.39C361.75 37.356 361.722 37.3284 361.688 37.3284H348.263ZM457.833 60.885C457.822 60.8966 457.815 60.9123 457.815 60.9286V65.9048C457.815 65.9388 457.788 65.9664 457.754 65.9664H444.938C444.922 65.9664 444.906 65.9599 444.895 65.9483L437.816 58.8692C437.804 58.8577 437.798 58.842 437.798 58.8257V37.3914C437.798 37.3574 437.77 37.3298 437.736 37.3298H424.311C424.277 37.3298 424.249 37.3574 424.249 37.3914V64.4179C424.249 64.423 424.253 64.4271 424.258 64.4271V64.4271C424.266 64.4271 424.27 64.437 424.265 64.4427L424.256 64.4509C424.251 64.4564 424.251 64.4652 424.256 64.4707L439.333 79.5476C439.357 79.5717 439.396 79.5717 439.421 79.5476L439.435 79.5331C439.447 79.5215 439.462 79.515 439.479 79.515H457.754C457.788 79.515 457.815 79.5426 457.815 79.5766V94.5307C457.815 94.5471 457.809 94.5627 457.797 94.5743L425.85 126.522C425.811 126.561 425.838 126.627 425.893 126.627H444.88C444.896 126.627 444.912 126.621 444.923 126.609L471.342 100.19C471.348 100.184 471.348 100.175 471.342 100.17L471.341 100.168C471.332 100.16 471.338 100.145 471.35 100.145V100.145C471.358 100.145 471.364 100.139 471.364 100.131V47.5031C471.364 47.4482 471.298 47.4208 471.259 47.4596L457.833 60.885ZM471.346 38.1074C471.358 38.0958 471.364 38.0802 471.364 38.0638V37.39C471.364 37.356 471.337 37.3284 471.302 37.3284H457.877C457.843 37.3284 457.815 37.356 457.815 37.39V51.4893C457.815 51.5442 457.882 51.5717 457.921 51.5329L471.346 38.1074ZM278.65 71.1163C278.663 71.1178 278.678 71.1145 278.689 71.107C284.808 67.1942 290.901 62.9929 293.723 60.0538C293.747 60.0288 293.786 60.0293 293.81 60.0537L295.521 61.7645C295.533 61.776 295.539 61.7917 295.539 61.808V97.8555C295.539 97.8576 295.538 97.8594 295.535 97.8596V97.8596C295.533 97.8599 295.532 97.8616 295.532 97.8637L295.532 111.73C295.532 111.785 295.598 111.813 295.637 111.774L309.072 98.3394C309.078 98.3324 309.074 98.3206 309.064 98.3196V98.3196V98.3196C309.077 98.3196 309.088 98.3092 309.088 98.2964V61.8732C309.088 61.8569 309.094 61.8412 309.106 61.8296L318.771 52.1646C318.782 52.1531 318.798 52.1466 318.814 52.1466H336.184C336.185 52.1466 336.186 52.1458 336.186 52.1448V52.1448C336.186 52.1443 336.186 52.1438 336.187 52.1435L341.726 46.6039C341.727 46.6035 341.726 46.6027 341.726 46.6025V46.6025C341.726 46.6023 341.725 46.602 341.725 46.6016V38.6594C341.725 38.6254 341.698 38.5978 341.664 38.5978H328.177L313.209 38.598C313.205 38.598 313.202 38.5966 313.199 38.5941V38.5941C313.194 38.5889 313.186 38.5889 313.181 38.5941V38.5941C313.178 38.5966 313.175 38.598 313.171 38.598H313.152C313.119 38.598 313.092 38.6249 313.092 38.658V38.658C313.092 38.674 313.085 38.6893 313.074 38.7005L295.988 55.7865C295.944 55.8302 295.87 55.7891 295.883 55.7287C296.911 50.9767 295.901 46.1824 295.236 44.7195C294.467 43.0263 290.311 35.4851 262.307 34.8664C262.295 34.8661 262.283 34.8625 262.273 34.856L257.261 31.5146C257.232 31.4951 257.193 31.5028 257.175 31.5331C256.293 33.0289 254.858 36.4795 253.205 42.2145C253.197 42.2442 253.21 42.2759 253.239 42.2883C256.573 43.7494 261.669 47.1266 264.596 49.205C264.631 49.2302 264.68 49.2106 264.69 49.1684C265.078 47.6009 265.463 46.4943 265.825 46.1043C267.827 43.9488 283.531 46.1043 286.148 51.8008C287.447 54.6266 281.117 59.6505 273.942 64.149C273.916 64.1647 273.906 64.1958 273.917 64.2233C274.937 66.8412 276.254 70.1924 276.451 70.585C276.568 70.819 277.5 70.9928 278.65 71.1163ZM341.577 118.798C341.577 118.798 341.577 118.798 341.577 118.799V126.742C341.577 126.776 341.549 126.803 341.515 126.803H328.029C328.029 126.803 328.028 126.803 328.028 126.803V126.803C328.028 126.802 328.028 126.802 328.028 126.802H313.087C313.082 126.802 313.08 126.808 313.083 126.811V126.811C313.087 126.814 313.084 126.82 313.079 126.82C300.949 125.762 292.105 129.133 284.929 132.668C284.867 132.699 284.81 132.619 284.858 132.569L301.53 115.29L301.546 115.274C301.546 115.274 301.546 115.274 301.546 115.274V115.274C301.546 115.274 301.547 115.274 301.547 115.274L311.067 105.754C311.091 105.73 311.13 105.73 311.154 105.754L318.636 113.235C318.648 113.247 318.663 113.253 318.68 113.253H336.032C336.032 113.253 336.033 113.254 336.033 113.255V113.256C336.033 113.257 336.034 113.257 336.034 113.256V113.256C336.035 113.256 336.035 113.256 336.036 113.256L341.577 118.797L341.577 118.798C341.577 118.798 341.577 118.798 341.577 118.798V118.798ZM120.266 115.078L136.382 57.5215C136.398 57.4643 136.333 57.4184 136.286 57.4547C129.654 62.5779 119.043 69.569 128.58 57.342C140.589 41.9459 163.221 35.4794 175.538 37.3269C187.855 39.1745 199.095 46.5646 198.017 63.6544C197.156 77.3057 177.599 99.9724 167.884 109.645C167.859 109.67 167.821 109.668 167.797 109.642L158.651 99.7317C158.626 99.7049 158.63 99.6625 158.66 99.6406L161.068 97.834L163.217 96.4514C163.22 96.4493 163.223 96.4469 163.226 96.4442L166.451 93.3722C166.454 93.3701 166.455 93.3679 166.457 93.3655C175.798 81.3551 191.796 55.9866 181.081 50.5677C170.38 45.1559 153.877 51.8829 146.931 55.9391C146.912 55.9502 146.901 55.9686 146.901 55.9905C146.891 58.6866 145.672 64.8924 143.868 72.5977C143.862 72.6229 143.841 72.642 143.815 72.645C140.575 73.0239 136.637 73.8883 136.351 75.5102C136.018 77.3945 139.152 81.0826 141.241 83.1859C141.256 83.2013 141.262 83.2231 141.257 83.2441C140.769 85.1614 140.267 87.11 139.755 89.0677C139.746 89.101 139.712 89.1207 139.679 89.1116C138.066 88.6655 136.432 88.4023 136.35 89.0584C136.228 90.0278 137.389 93.3615 138.013 94.9841C138.026 95.0188 138.072 95.0237 138.094 94.9938V94.9938C138.125 94.9519 138.191 94.9837 138.177 95.034C135.772 104.032 133.33 112.749 131.521 119.028C131.512 119.058 131.528 119.09 131.557 119.101L132.256 119.381C132.268 119.386 132.281 119.387 132.294 119.383C136.339 118.267 143.64 112.015 146.846 108.972C146.875 108.944 146.921 108.953 146.94 108.988L154.725 122.726C154.741 122.754 154.732 122.79 154.705 122.808C138.87 133.403 126.42 135.088 121.805 130.474C118.11 126.779 119.239 118.67 120.266 115.078ZM160.798 117.357C160.775 117.375 160.742 117.373 160.72 117.354L149.572 107.427C149.544 107.402 149.544 107.358 149.573 107.334L154.652 103.001C154.692 102.967 154.759 102.994 154.771 103.045C155.009 104.036 157.612 107.128 159.973 109.931C162.153 112.519 164.126 114.861 163.837 115.078L160.798 117.357ZM171.444 116.46C171.389 116.462 171.359 116.403 171.397 116.364C173.848 113.871 185.911 108.961 191.745 106.778C191.766 106.771 191.78 106.753 191.783 106.731C192.157 104.388 192.535 102.167 192.912 100.052C192.921 100.004 192.979 99.9848 193.014 100.018C194.908 101.8 196.642 104.113 197.47 105.372C197.473 105.377 197.476 105.381 197.481 105.385C199.311 106.967 202.192 107.977 203.443 108.295C203.465 108.301 203.482 108.319 203.487 108.342C203.873 110.056 205.584 112.103 206.401 112.92C206.403 112.922 206.405 112.924 206.408 112.926C207.954 114.05 209.24 114.626 210.173 114.894C210.184 114.897 210.194 114.903 210.201 114.912L213.084 118.056C213.12 118.096 213.095 118.159 213.041 118.16C208.834 118.17 200.322 118.674 198.86 120.623C197.403 122.565 191.841 124.467 189.125 125.209C189.076 125.223 189.035 125.173 189.054 125.125C190.215 122.218 189.518 119.295 189.012 118.172C189.008 118.163 189.003 118.157 188.996 118.151C186.778 116.329 176.469 116.262 171.444 116.46ZM202.098 98.6123C202.095 98.6073 202.091 98.603 202.086 98.5991C200.032 96.9223 196.515 95.5278 193.958 94.6889C193.928 94.6792 193.911 94.6493 193.917 94.6189C194.365 92.271 194.804 90.0593 195.22 87.9564L195.222 87.9475L195.223 87.9415L195.224 87.9398L195.228 87.915L195.232 87.897L195.251 87.8015C195.389 87.1055 195.524 86.4215 195.657 85.7483C195.666 85.7044 195.717 85.6842 195.753 85.7104C200.312 88.9842 203.754 92.921 205.745 95.6683C205.755 95.6822 205.759 95.6994 205.755 95.7163C205.401 97.4677 205.043 99.2162 204.701 100.877C204.696 100.905 204.67 100.926 204.641 100.926C203.734 100.927 203.017 100.848 203.017 100.606C203.017 100.116 202.408 99.078 202.098 98.6123ZM203.787 83.0548C203.516 82.4242 200.21 79.5591 197.289 77.1216C197.272 77.1076 197.264 77.0857 197.267 77.0641C199.089 66.0334 199.28 57.1911 195.182 44.1573C195.172 44.1272 195.187 44.0943 195.216 44.0817C212.142 36.7327 231.83 33.401 238.055 33.3271C238.092 33.3267 238.117 33.3583 238.113 33.3948C237.349 40.571 231.246 47.3737 229.095 49.7366C229.065 49.7686 229.014 49.7605 228.988 49.7255C228.67 49.2869 226.582 47.1585 217.335 49.8004C209.845 51.9404 209.792 57.2673 209.791 57.3437C209.791 57.3461 209.791 57.3457 209.791 57.3481L208.807 65.8109C208.804 65.8335 208.789 65.8528 208.768 65.8609C207.877 66.1959 206.649 66.1218 205.126 64.9703C205.084 64.9384 205.023 64.9688 205.026 65.0216C205.143 66.9635 205.629 70.6848 206.712 71.0458C207.191 71.2056 207.784 70.968 208.36 70.5721C208.368 70.567 208.376 70.5635 208.385 70.562C230.936 66.6516 236.375 68.6379 236.273 70.1233C236.581 75.8199 230.422 81.2086 227.959 82.2863C226.081 83.1077 224.707 82.69 224.181 82.338C224.146 82.314 224.149 82.2623 224.185 82.2392C226.319 80.8818 227.561 77.8089 227.94 76.3556C227.95 76.3172 227.921 76.2812 227.882 76.2806C220.663 76.1756 212.164 78.4725 208.758 79.6535C208.731 79.6629 208.716 79.6885 208.716 79.7173C208.727 80.2043 208.36 82.3643 207.798 85.3468C207.791 85.3867 207.747 85.4091 207.71 85.3914C207.077 85.0853 206.478 84.8281 206.404 84.9023C206.293 85.0135 206.173 85.8022 206.113 86.2943C206.107 86.3488 206.038 86.3692 206.004 86.3262C205.357 85.5079 204.139 83.8762 203.787 83.0548ZM213.178 110.46C211.86 108.599 211.205 106.926 210.914 105.724C210.905 105.689 210.929 105.654 210.964 105.649L214.685 105.094C214.706 105.091 214.727 105.098 214.741 105.114C217.014 107.746 220.185 111.42 221.997 113.52C222.031 113.559 222.002 113.619 221.95 113.62C220.437 113.658 218.973 113.719 217.595 113.796C217.585 113.796 217.574 113.794 217.565 113.79C215.858 112.986 214.188 111.885 213.178 110.46ZM228.544 113.63C228.523 113.63 228.505 113.619 228.494 113.602C226.66 110.685 223.981 106.359 222.636 103.99C222.614 103.953 222.638 103.907 222.681 103.9L224.099 103.689C224.106 103.688 224.113 103.688 224.12 103.689C227.569 104.436 234.443 104.464 240.825 104.255C240.854 104.254 240.877 104.234 240.883 104.207L245.034 84.9525C245.04 84.924 245.025 84.8951 244.999 84.8832L239.592 82.4801C239.55 82.4616 239.542 82.4061 239.577 82.3768L246.412 76.6049C246.424 76.5951 246.431 76.5813 246.433 76.5661C246.594 75.3839 246.757 74.2271 246.922 73.0955C246.923 73.0836 246.929 73.0725 246.937 73.0635C247.605 72.3134 248.337 71.5038 248.835 70.9553C248.863 70.9244 248.912 70.9282 248.933 70.9645C250.746 74.1206 254.534 80.4749 255.512 81.2083C256.476 81.9317 257.618 81.5339 258.099 81.2279C258.118 81.2159 258.128 81.194 258.126 81.1717C257.261 71.1378 253.287 64.535 251.381 62.453C251.364 62.4352 251.34 62.43 251.317 62.4371C250.84 62.5832 249.867 62.6486 249.507 61.8092C249.349 61.4396 249.298 60.2835 249.304 58.889C249.304 58.8852 249.304 58.8813 249.305 58.8776C249.846 56.0677 250.39 53.4885 250.927 51.1308C250.936 51.0913 250.98 51.0708 251.015 51.0899C254.016 52.6967 258.337 55.8365 261.041 60.5535C261.049 60.5687 261.051 60.587 261.046 60.6036L260.769 61.4339C260.757 61.4695 260.779 61.5073 260.816 61.514L262.419 61.8053C262.433 61.8078 262.445 61.8149 262.454 61.8253L262.481 61.8563C262.493 61.8697 262.498 61.8876 262.496 61.9052C262.033 65.3011 261.64 68.6064 261.372 71.0886C261.367 71.137 261.417 71.1715 261.461 71.1497C263.191 70.2827 265.222 69.2152 267.365 68.0233C267.392 68.0082 267.427 68.0158 267.445 68.041C268.972 70.1461 270.194 72.1277 270.288 73.1542C270.291 73.1828 270.312 73.2057 270.34 73.2104C270.973 73.3169 272.207 73.5442 272.448 73.6642C272.569 73.7248 272.397 74.3823 272.131 75.1877C272.126 75.2015 272.117 75.2134 272.105 75.221C269.999 76.5108 268.054 77.6836 266.43 78.6614C266.382 78.6906 266.396 78.7647 266.452 78.7754C269.674 79.3964 271.429 80.4861 274.913 83.364C287.282 95.6066 289.477 98.7443 292.778 103.464L292.78 103.466L292.78 103.466C293.502 104.499 294.278 105.608 295.224 106.904C295.232 106.914 295.236 106.927 295.236 106.94V111.537C295.236 111.553 295.23 111.569 295.218 111.58L291.317 115.481C291.29 115.508 291.246 115.505 291.224 115.474C287.963 110.86 282.515 103.541 278.454 99.376C273.67 94.4692 262.686 89.4606 257.73 87.5442C257.696 87.5312 257.661 87.5505 257.651 87.5851L250.909 110.568C250.901 110.596 250.913 110.625 250.938 110.639L252.221 111.352C252.253 111.369 252.262 111.411 252.241 111.441L245.045 121.546C243.813 123.137 241.196 125.981 240.58 124.626C240.088 123.544 239.76 117.873 239.595 113.542C239.593 113.495 239.541 113.468 239.501 113.493L237.986 114.452C237.973 114.46 237.958 114.463 237.943 114.461C235.014 113.98 231.78 113.729 228.544 113.63ZM423.832 23.1485C423.875 23.0903 423.799 23.0185 423.743 23.0642L406.257 37.3138C406.246 37.3228 406.232 37.3277 406.218 37.3277H365.813C365.779 37.3277 365.751 37.3552 365.751 37.3893V50.8147C365.751 50.8487 365.779 50.8763 365.813 50.8763H386.318C386.352 50.8763 386.38 50.9039 386.38 50.9379V65.7689C386.38 65.8254 386.449 65.8521 386.487 65.8102L399.927 50.8833C399.928 50.8825 399.929 50.8815 399.929 50.8805V50.8805C399.929 50.8782 399.93 50.8763 399.933 50.8763H409.324C409.377 50.8763 409.406 50.9391 409.37 50.9788L399.947 61.567C399.941 61.5744 399.929 61.5697 399.929 61.5598V61.5598C399.929 61.5498 399.916 61.5451 399.91 61.5525L386.395 76.738C386.385 76.7493 386.38 76.7639 386.38 76.779V76.7891C386.38 76.8042 386.374 76.8188 386.364 76.83L366.985 98.6057L377.055 88.5358C377.783 87.8803 378.455 87.2702 379.076 86.7069C382.925 83.2134 384.792 81.5194 385.696 81.9323C386.053 82.0955 386.26 82.5877 386.38 83.4279V126.565C386.38 126.599 386.407 126.627 386.441 126.627H399.867C399.901 126.627 399.929 126.599 399.929 126.565V74.8945C399.929 74.8936 399.93 74.8931 399.93 74.8937V74.8937C399.931 74.8944 399.932 74.8939 399.932 74.8929L399.929 74.644V70.2079C400.029 66.8602 400.487 65.3802 401.945 63.6456L415.329 50.262C415.329 50.2618 415.329 50.2616 415.329 50.2616V50.2616C415.329 50.2616 415.329 50.2614 415.329 50.2612L420.254 45.3356C420.255 45.3352 420.255 45.3344 420.254 45.3341V45.3341C420.254 45.334 420.254 45.3337 420.254 45.3333V37.3911C420.254 37.357 420.226 37.3295 420.192 37.3295H414.712C414.711 37.3295 414.711 37.3291 414.711 37.3286V37.3286C414.711 37.3281 414.71 37.3277 414.71 37.3277H413.489C413.438 37.3277 413.409 37.2702 413.439 37.2295L423.832 23.1485Z" fill="#FF0055"/>
<path fill-rule="evenodd" clip-rule="evenodd" d="M18.7902 37.4116C10.7287 58.1798 -2.97354 104.354 6.68085 122.973C6.68868 122.989 6.70219 122.999 6.71858 123.004L28.4009 129.087C28.4207 129.093 28.4412 129.089 28.4568 129.075C32.9684 125.187 42.992 115.818 47.1922 109.273C51.3981 102.718 61.6765 75.8121 66.2963 63.1611C66.3004 63.1498 66.3012 63.139 66.2984 63.1273C65.7727 60.8868 65.0433 54.2778 66.3024 45.608C67.5569 36.9698 76.419 11.8023 80.7734 0.0783265C80.7956 0.0187033 80.7215 -0.025151 80.6732 0.0162741L77.5341 2.71067C77.5269 2.71689 77.5213 2.72431 77.5176 2.73312C63.7236 35.523 35.6206 101.725 33.517 104.317C30.8872 107.557 27.5558 109.273 23.173 109.273C18.7902 109.273 17.6827 104.626 17.2208 101.284C17.2032 101.157 17.1812 101.014 17.1565 100.854C16.63 97.4527 14.8694 86.0769 28.4327 42.7488L28.9883 40.0376C28.9966 39.9971 28.9636 39.9601 28.9224 39.9639C26.5083 40.183 23.7499 40.2008 22.2961 39.5093C21.0247 38.9046 20.0309 37.5372 19.3339 36.1765C19.3091 36.128 19.238 36.1326 19.22 36.184L18.7902 37.4116ZM23.6862 24.8152L23.6862 24.8153L23.6862 24.8156C23.8227 27.0699 24.0146 30.2405 25.6279 30.55C26.8351 30.7816 29.1476 30.0232 31.205 29.0941C31.2229 29.086 31.2359 29.0698 31.2398 29.0504L33.1191 19.8799C33.1284 19.8345 33.0862 19.7955 33.0416 19.8081C31.8608 20.1435 30.6622 20.3604 29.6618 20.2999C27.7872 20.1867 26.6988 18.315 26.1669 16.6824C26.1484 16.6258 26.0678 16.6245 26.0482 16.6807L23.6097 23.6455C23.6068 23.6539 23.6057 23.6627 23.6065 23.6715C23.6371 24.0043 23.6607 24.3937 23.6862 24.8152ZM35.9547 5.93831C35.9654 5.95244 35.9695 5.9705 35.966 5.98786L35.5686 7.92684C35.5674 7.9329 35.5653 7.93865 35.5623 7.94408C34.4848 9.90239 32.9828 12.5514 31.4151 12.2506C29.871 11.9544 29.8856 9.48387 29.8972 7.52057C29.8983 7.33901 29.8993 7.16178 29.8991 6.99101C29.8991 6.97633 29.9043 6.96213 29.9138 6.95096L33.4674 2.77848C33.4929 2.74852 33.5396 2.74985 33.5633 2.78123L35.9547 5.93831ZM27.0904 173.055C27.0808 173.038 27.0795 173.018 27.0869 173L71.8739 65.217C71.8767 65.2104 71.8806 65.2042 71.8855 65.1989L74.4993 62.366C74.5088 62.3557 74.5214 62.349 74.5352 62.3469C81.5033 61.2807 89.0415 55.769 92.0169 53.0811C92.0504 53.0508 92.1019 53.0675 92.1151 53.1106L93.8425 58.727C93.8434 58.73 93.8441 58.733 93.8445 58.7361L99.0914 94.1579C99.1005 94.2191 99.184 94.2302 99.2088 94.1735L127.478 29.3256C127.508 29.2565 127.61 29.301 127.592 29.3743C120.907 56.8457 121.505 69.7577 122.661 72.8244C122.667 72.8413 122.665 72.8583 122.656 72.8742L116.696 83.705L97.7278 125.201C97.721 125.216 97.7081 125.227 97.6925 125.233C93.5017 126.733 89.6621 124.604 88.245 123.335C88.2336 123.325 88.227 123.311 88.2256 123.296L83.3324 73.1038C83.3261 73.0394 83.2375 73.027 83.2138 73.0872L70.4813 105.412C70.4801 105.415 70.4792 105.418 70.4785 105.422L68.0278 116.615C68.0227 116.639 68.0056 116.657 67.9823 116.662C55.0764 119.615 36.573 157.34 28.8788 175.963C28.8593 176.01 28.7955 176.011 28.7699 175.967L27.0904 173.055ZM349.376 34.5473C349.342 34.5473 349.314 34.5749 349.314 34.6089V124.295C349.314 124.329 349.342 124.357 349.376 124.357H362.802C362.836 124.357 362.863 124.329 362.863 124.295V34.6089C362.863 34.5749 362.836 34.5473 362.802 34.5473H349.376ZM458.951 58.2361C458.939 58.2476 458.933 58.2632 458.933 58.2795V63.2848C458.933 63.3188 458.905 63.3464 458.871 63.3464H446.054C446.038 63.3464 446.022 63.3399 446.011 63.3283L438.933 56.21C438.921 56.1985 438.915 56.1829 438.915 56.1666V34.6071C438.915 34.5731 438.887 34.5455 438.853 34.5455H425.428C425.394 34.5455 425.366 34.5731 425.366 34.6071V61.7877C425.366 61.7932 425.371 61.7976 425.376 61.7976V61.7976C425.385 61.7976 425.389 61.8082 425.383 61.8144L425.374 61.8231C425.369 61.829 425.369 61.8384 425.374 61.8443L440.45 77.0066C440.475 77.0309 440.514 77.0309 440.538 77.0066L440.554 76.9906C440.565 76.979 440.581 76.9725 440.597 76.9725H458.871C458.905 76.9725 458.933 77 458.933 77.034V92.0763C458.933 92.0925 458.926 92.1081 458.915 92.1197L426.966 124.251C426.928 124.29 426.955 124.356 427.01 124.356H445.997C446.013 124.356 446.029 124.35 446.04 124.338L472.458 97.7692C472.464 97.7633 472.464 97.7538 472.458 97.7479L472.457 97.7467C472.448 97.7376 472.454 97.7222 472.467 97.7222V97.7222C472.475 97.7222 472.481 97.7157 472.481 97.7078V44.7771C472.481 44.7221 472.415 44.6947 472.376 44.7337L458.951 58.2361ZM458.933 48.7867C458.933 48.8417 458.999 48.8691 459.038 48.8301L472.463 35.3278C472.475 35.3162 472.481 35.3006 472.481 35.2843V34.6073C472.481 34.5733 472.454 34.5457 472.42 34.5457H458.994C458.96 34.5457 458.933 34.5733 458.933 34.6073V48.7867ZM279.768 68.5255C279.782 68.527 279.796 68.5237 279.808 68.5161C285.922 64.5838 292.011 60.3618 294.834 57.4064C294.858 57.3813 294.898 57.3817 294.922 57.4063L296.644 59.1383C296.656 59.1499 296.662 59.1655 296.662 59.1818V95.4348C296.662 95.4369 296.661 95.4387 296.658 95.4389V95.4389C296.656 95.4392 296.655 95.4409 296.655 95.443L296.655 109.389C296.655 109.444 296.721 109.472 296.76 109.433L310.211 95.9045C310.211 95.9043 310.211 95.904 310.211 95.904V95.904C310.211 95.904 310.211 95.9038 310.211 95.9037V59.2471C310.211 59.2308 310.217 59.2152 310.229 59.2037L319.874 49.5031C319.885 49.4915 319.901 49.485 319.918 49.485H337.306C337.306 49.485 337.307 49.4851 337.307 49.4853V49.4853C337.307 49.4857 337.308 49.4857 337.308 49.4854L337.308 49.4851C337.308 49.485 337.309 49.485 337.309 49.485V49.485C337.309 49.485 337.309 49.4848 337.309 49.4845V49.4845C337.309 49.4844 337.309 49.4843 337.309 49.4842L342.848 43.9141C342.848 43.9139 342.848 43.9138 342.848 43.9138V43.9138C342.849 43.9138 342.849 43.9133 342.849 43.9127V43.9125C342.849 43.9123 342.849 43.9122 342.85 43.9122L342.85 43.912C342.85 43.9119 342.85 43.9116 342.85 43.9115V43.9115C342.849 43.9115 342.849 43.9114 342.849 43.9113V35.9236C342.849 35.8896 342.822 35.8621 342.788 35.8621H337.311C337.31 35.8621 337.309 35.8614 337.309 35.8605V35.8605C337.309 35.8596 337.308 35.8589 337.308 35.8589H314.36C314.351 35.8589 314.342 35.8555 314.336 35.8492V35.8492C314.323 35.8363 314.302 35.8363 314.29 35.8492V35.8492C314.283 35.8555 314.275 35.8589 314.266 35.8589H314.261C314.235 35.8589 314.215 35.8798 314.215 35.9051V35.9051C314.215 35.9174 314.21 35.9292 314.201 35.9379L297.099 53.1383C297.055 53.1822 296.981 53.141 296.994 53.0805C298.032 48.2915 297.02 43.4527 296.353 41.9783C295.584 40.2754 291.428 32.691 263.424 32.0687C263.412 32.0684 263.4 32.0648 263.391 32.0583L258.379 28.6979C258.349 28.6782 258.31 28.6859 258.292 28.7164C257.41 30.2208 255.975 33.6911 254.322 39.459C254.314 39.4887 254.328 39.5202 254.356 39.5326C257.691 41.0026 262.789 44.4011 265.716 46.4913C265.751 46.5166 265.8 46.4969 265.811 46.4546C266.199 44.8771 266.584 43.7634 266.946 43.371C268.948 41.2032 284.652 43.371 287.269 49.1001C288.568 51.9424 282.236 56.9961 275.059 61.5208C275.034 61.5365 275.024 61.5674 275.035 61.5949C276.055 64.2274 277.372 67.5964 277.568 67.9911C277.685 68.2265 278.617 68.4013 279.768 68.5255ZM337.156 124.549C337.156 124.55 337.155 124.55 337.155 124.55H314.211C314.207 124.55 314.206 124.555 314.208 124.558V124.558C314.211 124.56 314.209 124.565 314.205 124.565C302.073 123.5 293.228 126.892 286.051 130.447C285.989 130.477 285.932 130.398 285.98 130.348L302.669 112.953C302.669 112.953 302.669 112.953 302.67 112.953V112.953C302.67 112.954 302.671 112.954 302.671 112.953L312.19 103.38C312.214 103.356 312.253 103.356 312.277 103.38L319.76 110.906C319.772 110.918 319.788 110.924 319.804 110.924H337.155C337.155 110.924 337.156 110.925 337.156 110.925V110.925C337.156 110.926 337.157 110.926 337.157 110.926L337.157 110.925C337.158 110.925 337.158 110.925 337.159 110.925L342.698 116.496C342.698 116.497 342.699 116.497 342.699 116.497V116.497C342.7 116.497 342.7 116.497 342.7 116.498V116.498C342.7 116.498 342.7 116.498 342.7 116.498L342.7 116.499C342.7 116.499 342.7 116.499 342.7 116.499V116.499C342.7 116.499 342.7 116.499 342.7 116.499V124.487C342.7 124.521 342.672 124.548 342.638 124.548H337.157C337.156 124.548 337.156 124.549 337.156 124.549V124.549ZM121.382 112.741L137.498 54.8545C137.514 54.7973 137.449 54.7515 137.402 54.788C130.771 59.9405 120.159 66.9717 129.696 54.6746C141.705 39.1902 164.338 32.6867 176.655 34.5448C188.972 36.4029 200.211 43.8354 199.133 61.0232C198.272 74.7526 178.715 97.5492 169 107.278C168.976 107.302 168.937 107.3 168.913 107.274L159.767 97.3068C159.742 97.28 159.746 97.2379 159.775 97.216L162.185 95.3987L164.333 94.0082C164.336 94.0061 164.339 94.0036 164.342 94.0009L167.568 90.9113C167.57 90.9092 167.572 90.907 167.574 90.9046C176.914 78.8253 192.912 53.3114 182.197 47.8615C171.497 42.4186 154.993 49.1843 148.047 53.2638C148.028 53.2748 148.018 53.2932 148.018 53.315C148.007 56.0265 146.788 62.2681 144.984 70.018C144.978 70.0434 144.957 70.0625 144.931 70.0655C141.691 70.4465 137.753 71.3159 137.467 72.947C137.134 74.8422 140.268 78.5515 142.358 80.6668C142.373 80.6821 142.378 80.7038 142.373 80.7247C141.886 82.6533 141.383 84.6132 140.871 86.5824C140.862 86.6158 140.828 86.6355 140.795 86.6263C139.182 86.1776 137.548 85.913 137.466 86.5729C137.345 87.5478 138.505 90.9005 139.129 92.5324C139.142 92.5672 139.188 92.5721 139.21 92.5421V92.5421C139.241 92.5001 139.307 92.5318 139.294 92.582C136.888 101.632 134.446 110.399 132.637 116.714C132.628 116.745 132.644 116.776 132.673 116.788L133.372 117.069C133.385 117.074 133.398 117.075 133.411 117.071C137.456 115.948 144.756 109.661 147.962 106.601C147.991 106.573 148.037 106.582 148.057 106.617L155.842 120.434C155.858 120.462 155.849 120.498 155.822 120.516C139.987 131.171 127.536 132.866 122.922 128.226C119.227 124.509 120.356 116.354 121.382 112.741ZM161.915 115.033C161.891 115.051 161.858 115.05 161.837 115.03L150.687 105.046C150.66 105.021 150.66 104.978 150.688 104.953L155.768 100.596C155.808 100.562 155.875 100.588 155.887 100.639C156.124 101.636 158.728 104.746 161.089 107.565C163.269 110.168 165.242 112.524 164.953 112.741L161.915 115.033ZM172.56 114.129C172.506 114.131 172.475 114.072 172.513 114.033C174.963 111.526 187.028 106.588 192.862 104.392C192.883 104.384 192.897 104.366 192.901 104.344C193.274 101.989 193.652 99.7553 194.029 97.6288C194.037 97.5807 194.096 97.5612 194.131 97.5948C196.025 99.3867 197.759 101.713 198.587 102.98C198.59 102.984 198.593 102.988 198.598 102.992C200.428 104.584 203.309 105.6 204.56 105.919C204.583 105.925 204.599 105.943 204.604 105.966C204.99 107.69 206.701 109.748 207.518 110.571C207.52 110.573 207.522 110.575 207.525 110.577C209.073 111.708 210.359 112.287 211.292 112.557C211.303 112.56 211.313 112.566 211.321 112.574L214.202 115.735C214.238 115.775 214.213 115.838 214.159 115.839C209.951 115.849 201.439 116.355 199.977 118.316C198.521 120.269 192.958 122.182 190.242 122.929C190.193 122.942 190.152 122.892 190.171 122.845C191.332 119.92 190.635 116.981 190.129 115.851C190.125 115.842 190.12 115.836 190.113 115.83C187.896 113.998 177.586 113.93 172.56 114.129ZM203.215 96.1809C203.212 96.1758 203.208 96.1715 203.203 96.1677C201.149 94.4811 197.632 93.0786 195.075 92.2348C195.045 92.2252 195.028 92.1953 195.034 92.1649C195.484 89.7966 195.923 87.566 196.341 85.4454L196.343 85.4335C196.49 84.6901 196.633 83.9603 196.774 83.2428C196.783 83.1988 196.834 83.1786 196.87 83.2049C201.429 86.4974 204.871 90.4568 206.862 93.2198C206.872 93.2337 206.876 93.2508 206.872 93.2676C206.518 95.0294 206.16 96.7882 205.818 98.4587C205.812 98.4873 205.787 98.5078 205.758 98.5078C204.851 98.5087 204.134 98.4297 204.134 98.1864C204.134 97.6935 203.525 96.6492 203.215 96.1809ZM204.904 80.5342C204.634 79.9 201.327 77.0182 198.405 74.5667C198.389 74.5527 198.381 74.5308 198.384 74.5094C200.206 63.4144 200.398 54.5211 196.299 41.4116C196.289 41.3816 196.304 41.3487 196.333 41.3362C213.26 33.9449 232.947 30.5941 239.173 30.5198C239.209 30.5194 239.234 30.551 239.23 30.5874C238.467 37.8048 232.364 44.6466 230.212 47.0232C230.183 47.0554 230.131 47.0473 230.106 47.0121C229.787 46.5707 227.698 44.4307 218.453 47.0875C210.962 49.2399 210.909 54.598 210.908 54.674C210.908 54.6764 210.908 54.676 210.908 54.6784L209.924 63.1918C209.921 63.2144 209.906 63.2337 209.885 63.2418C208.995 63.5787 207.766 63.5041 206.243 62.3462C206.201 62.3141 206.14 62.3445 206.143 62.3973C206.26 64.3502 206.746 68.0933 207.829 68.4564C208.309 68.6174 208.903 68.3772 209.481 67.9777C209.488 67.9726 209.497 67.9691 209.506 67.9675C232.054 64.0355 237.492 66.0331 237.39 67.5269C237.698 73.2561 231.539 78.6757 229.076 79.7596C227.198 80.586 225.823 80.1653 225.298 79.8112C225.263 79.7872 225.266 79.7357 225.302 79.7126C227.436 78.3474 228.678 75.256 229.057 73.7944C229.067 73.756 229.038 73.72 228.999 73.7195C221.78 73.6138 213.28 75.924 209.875 77.1117C209.848 77.1211 209.833 77.1468 209.834 77.1755C209.845 77.6646 209.477 79.8381 208.915 82.8394C208.908 82.8794 208.864 82.9017 208.827 82.884C208.194 82.5763 207.595 82.3177 207.521 82.3923C207.41 82.5042 207.29 83.2975 207.23 83.7924C207.224 83.847 207.155 83.8674 207.121 83.8242C206.474 83.0012 205.256 81.3602 204.904 80.5342ZM214.295 108.096C212.977 106.224 212.322 104.54 212.03 103.331C212.022 103.296 212.045 103.262 212.081 103.256L215.801 102.698C215.822 102.695 215.843 102.702 215.857 102.718C218.129 105.365 221.301 109.06 223.113 111.173C223.147 111.212 223.119 111.272 223.067 111.273C221.552 111.311 220.088 111.373 218.709 111.45C218.699 111.45 218.688 111.448 218.679 111.444C216.973 110.636 215.304 109.529 214.295 108.096ZM229.66 111.283C229.64 111.283 229.621 111.272 229.61 111.255C227.776 108.32 225.097 103.969 223.751 101.587C223.73 101.55 223.754 101.504 223.797 101.498L225.216 101.285C225.223 101.284 225.23 101.284 225.238 101.285C228.686 102.036 235.56 102.064 241.943 101.855C241.971 101.854 241.995 101.834 242.001 101.806L246.151 82.4415C246.157 82.413 246.143 82.3842 246.116 82.3723L240.708 79.9551C240.667 79.9366 240.659 79.8812 240.694 79.8519L247.529 74.0464C247.541 74.0365 247.549 74.0228 247.551 74.0077C247.711 72.8181 247.874 71.6542 248.039 70.5157C248.041 70.5038 248.046 70.4927 248.054 70.4837C248.722 69.7295 249.454 68.9153 249.952 68.3637C249.98 68.3326 250.029 68.3364 250.05 68.3728C251.863 71.547 255.651 77.9375 256.629 78.6751C257.594 79.4027 258.736 79.0024 259.217 78.6947C259.235 78.6827 259.245 78.6609 259.243 78.6386C258.379 68.5472 254.405 61.9067 252.498 59.8127C252.482 59.7947 252.457 59.7895 252.434 59.7967C251.957 59.9436 250.984 60.0092 250.625 59.1651C250.466 58.7935 250.415 57.6308 250.421 56.2284C250.421 56.2246 250.421 56.2208 250.422 56.217C250.963 53.391 251.507 50.7969 252.045 48.4256C252.054 48.386 252.097 48.3655 252.133 48.3847C255.134 50.0008 259.454 53.1585 262.158 57.9025C262.167 57.9177 262.169 57.9359 262.163 57.9524L261.886 58.7882C261.874 58.8237 261.897 58.8615 261.933 58.8682L263.536 59.1613C263.55 59.1638 263.562 59.1709 263.572 59.1814L263.602 59.2165C263.614 59.2299 263.619 59.2477 263.617 59.2653C263.154 62.6796 262.761 66.0027 262.493 68.4984C262.488 68.5469 262.539 68.5814 262.582 68.5594C264.312 67.6878 266.342 66.6148 268.484 65.4167C268.511 65.4014 268.545 65.4091 268.564 65.4345C270.09 67.551 271.311 69.5433 271.406 70.5752C271.408 70.6038 271.429 70.6267 271.458 70.6315C272.09 70.7386 273.325 70.9672 273.565 71.0879C273.686 71.1488 273.514 71.8108 273.248 72.6215C273.243 72.6353 273.234 72.6471 273.221 72.6547C271.116 73.9521 269.17 75.1319 267.546 76.1153C267.498 76.1446 267.513 76.2185 267.568 76.2292C270.791 76.8537 272.546 77.9496 276.03 80.8442C288.399 93.1571 290.594 96.3128 293.895 101.06L293.897 101.062L293.898 101.063C294.62 102.101 295.395 103.216 296.342 104.519C296.349 104.53 296.353 104.542 296.353 104.555V109.179C296.353 109.195 296.347 109.211 296.335 109.222L292.435 113.145C292.408 113.172 292.364 113.169 292.342 113.138C289.08 108.498 283.632 101.137 279.571 96.9481C274.787 92.0132 263.803 86.976 258.847 85.0485C258.813 85.0354 258.778 85.0548 258.768 85.0895L252.026 108.205C252.018 108.232 252.03 108.262 252.055 108.276L253.338 108.992C253.37 109.01 253.38 109.052 253.358 109.082L246.162 119.246C244.93 120.846 242.313 123.705 241.697 122.343C241.205 121.254 240.877 115.551 240.712 111.194C240.711 111.147 240.658 111.12 240.618 111.145L239.103 112.109C239.091 112.118 239.075 112.121 239.06 112.118C236.131 111.635 232.896 111.382 229.66 111.283ZM424.949 20.2835C424.992 20.2251 424.916 20.1536 424.86 20.1994L407.372 34.5318C407.361 34.5409 407.347 34.5458 407.333 34.5458H401.044C401.044 34.5458 401.044 34.5455 401.044 34.5452V34.5452C401.044 34.5449 401.044 34.5447 401.043 34.5447H387.496C387.495 34.5447 387.495 34.5449 387.495 34.5452V34.5452C387.495 34.5455 387.495 34.5458 387.495 34.5458H366.929C366.895 34.5458 366.867 34.5734 366.867 34.6074V48.1102C366.867 48.1443 366.895 48.1718 366.929 48.1718H387.434C387.468 48.1718 387.495 48.1994 387.495 48.2334V63.1543C387.495 63.2108 387.565 63.2375 387.603 63.1954L401.042 48.1839C401.043 48.1826 401.044 48.1809 401.044 48.1791V48.1791C401.044 48.1751 401.047 48.1718 401.051 48.1718H410.438C410.491 48.1718 410.519 48.2345 410.484 48.2742L401.062 58.9219C401.056 58.9292 401.044 58.9246 401.044 58.915V58.915C401.044 58.9053 401.032 58.9007 401.025 58.908L387.511 74.181C387.501 74.1922 387.495 74.2067 387.495 74.2218V74.2306C387.495 74.2456 387.49 74.2602 387.48 74.2714L368.098 96.1749L378.144 86.0715C378.882 85.4034 379.562 84.7821 380.19 84.2089L380.191 84.2079C384.037 80.6974 385.904 78.9936 386.809 79.405C387.168 79.5681 387.375 80.0634 387.495 80.9101V124.293C387.495 124.327 387.523 124.354 387.557 124.354H400.982C401.016 124.354 401.044 124.327 401.044 124.293V72.3272C401.044 72.3257 401.046 72.325 401.047 72.326V72.326C401.048 72.327 401.049 72.3262 401.049 72.3247L401.044 71.9403V67.6815C401.141 64.2492 401.599 62.7549 403.086 60.9868L407.08 56.9695L407.203 56.849C407.204 56.8485 407.203 56.8477 407.203 56.8481V56.8481C407.202 56.8485 407.201 56.8477 407.202 56.8472L415.829 48.1708L416.442 47.5547L421.371 42.5974C421.371 42.597 421.371 42.5962 421.37 42.5959V42.5959C421.37 42.5958 421.37 42.5955 421.37 42.5951V34.6074C421.37 34.5734 421.342 34.5458 421.308 34.5458H414.604C414.554 34.5458 414.525 34.4884 414.554 34.4478L424.949 20.2835Z" fill="#FFBF00"/>
<path fill-rule="evenodd" clip-rule="evenodd" d="M15.4259 40.1788C7.36442 60.8285 -6.33776 106.74 3.31655 125.253C3.32441 125.268 3.33792 125.279 3.3543 125.283L25.0368 131.332C25.0566 131.338 25.0769 131.334 25.0925 131.32C29.6041 127.454 39.6277 118.138 43.828 111.63C48.0338 105.113 58.3122 78.3606 62.932 65.7817C62.9362 65.7703 62.9369 65.7594 62.9341 65.7477C62.4084 63.5198 61.6791 56.9486 62.9382 48.3284C64.1927 39.7396 73.0544 14.7164 77.4089 3.05891C77.4312 2.99936 77.3573 2.95535 77.3089 2.99662L74.1699 5.67555C74.1626 5.68176 74.1571 5.68918 74.1533 5.698C60.3593 38.301 32.2564 104.125 30.1528 106.702C27.5229 109.924 24.1916 111.63 19.8087 111.63C15.4259 111.63 14.3185 107.01 13.8566 103.687C13.839 103.561 13.817 103.419 13.7922 103.26C13.2657 99.8777 11.5051 88.5667 25.0684 45.4855L25.6243 42.7884C25.6327 42.7479 25.5997 42.7108 25.5585 42.7145C23.1446 42.9324 20.3865 42.95 18.9328 42.2625C17.6613 41.6612 16.6674 40.3013 15.9704 38.9482C15.9455 38.8999 15.8746 38.9045 15.8566 38.9557L15.4259 40.1788ZM20.323 27.6544L20.323 27.6545L20.323 27.6546C20.4595 29.8961 20.6514 33.0486 22.2647 33.3564C23.4717 33.5867 25.7834 32.8329 27.8405 31.9094C27.8585 31.9013 27.8715 31.8851 27.8755 31.8657L29.7549 22.7466C29.7643 22.7013 29.7221 22.6622 29.6775 22.6748C28.4966 23.0082 27.298 23.2239 26.2975 23.1639C24.4231 23.0513 23.3347 21.1905 22.8027 19.5672C22.7842 19.5107 22.7038 19.5094 22.6841 19.5655L20.2464 26.4886C20.2434 26.497 20.2423 26.5059 20.2431 26.5147C20.2738 26.8459 20.2974 27.2338 20.323 27.6537L20.323 27.6539L20.323 27.6541L20.323 27.6542L20.323 27.6544L20.323 27.6544ZM32.5903 8.88464C32.6011 8.89881 32.6053 8.91695 32.6017 8.9344L32.2047 10.8603C32.2035 10.8664 32.2013 10.8722 32.1983 10.8776C31.1208 12.8249 29.6186 15.4593 28.0508 15.1602C26.5067 14.8657 26.5213 12.4092 26.533 10.4571C26.534 10.277 26.5351 10.1012 26.5349 9.93176C26.5349 9.91702 26.5401 9.90277 26.5497 9.89158L30.1032 5.74288C30.1287 5.71309 30.1752 5.71442 30.199 5.74562L32.5903 8.88464ZM23.7233 175.047C23.7137 175.03 23.7124 175.01 23.7198 174.992L68.5067 67.8239C68.5095 67.8172 68.5134 67.8111 68.5184 67.8058L71.1321 64.9891C71.1416 64.9788 71.1542 64.9722 71.168 64.9701C78.1362 63.91 85.6746 58.4295 88.6498 55.7569C88.6833 55.7268 88.7346 55.7435 88.748 55.7865L90.4753 61.3708C90.4762 61.3738 90.4769 61.3768 90.4774 61.3799L95.7242 96.5998C95.7333 96.6609 95.8167 96.672 95.8415 96.6154L124.11 32.1372C124.141 32.0682 124.243 32.1127 124.225 32.186C117.54 59.4996 118.138 72.3379 119.293 75.3876C119.3 75.4046 119.298 75.4217 119.289 75.4376L113.328 86.2065L94.3607 127.465C94.3538 127.48 94.3409 127.492 94.3253 127.498C90.1346 128.989 86.2951 126.873 84.8779 125.611C84.8664 125.6 84.8599 125.587 84.8584 125.571L79.9652 75.6657C79.9589 75.6014 79.8704 75.5889 79.8466 75.649L67.1142 107.79C67.113 107.793 67.112 107.796 67.1113 107.799L64.6606 118.929C64.6555 118.952 64.6384 118.97 64.6151 118.976C51.7092 121.912 33.2058 159.422 25.5116 177.939C25.492 177.986 25.4284 177.987 25.4028 177.943L23.7233 175.047ZM346.008 37.3284C345.974 37.3284 345.946 37.356 345.946 37.39V126.565C345.946 126.599 345.974 126.626 346.008 126.626H359.433C359.467 126.626 359.495 126.599 359.495 126.565V37.39C359.495 37.356 359.467 37.3284 359.433 37.3284H346.008ZM455.594 60.8841C455.583 60.8956 455.576 60.9113 455.576 60.9276V65.9055C455.576 65.9396 455.549 65.9671 455.515 65.9671H442.702C442.685 65.9671 442.67 65.9606 442.658 65.9491L435.576 58.8673C435.565 58.8558 435.558 58.8401 435.558 58.8238V37.3904C435.558 37.3564 435.531 37.3288 435.497 37.3288H422.071C422.037 37.3288 422.01 37.3564 422.01 37.3904V64.4166C422.01 64.4219 422.014 64.4261 422.019 64.4261V64.4261C422.028 64.4261 422.032 64.4363 422.026 64.4423L422.018 64.45C422.013 64.4555 422.013 64.4643 422.018 64.4698L437.095 79.5467C437.119 79.5708 437.158 79.5708 437.182 79.5467L437.195 79.5338C437.207 79.5223 437.222 79.5158 437.239 79.5158H455.515C455.549 79.5158 455.576 79.5433 455.576 79.5773V94.5305C455.576 94.5468 455.57 94.5625 455.558 94.574L423.61 126.522C423.571 126.561 423.599 126.627 423.654 126.627H442.64C442.656 126.627 442.672 126.621 442.684 126.609L469.102 100.191C469.108 100.185 469.108 100.176 469.102 100.17L469.101 100.169C469.092 100.16 469.098 100.145 469.111 100.145V100.145C469.118 100.145 469.125 100.139 469.125 100.131V47.5021C469.125 47.4473 469.058 47.4198 469.02 47.4586L455.594 60.8841ZM469.107 38.1064C469.118 38.0949 469.125 38.0792 469.125 38.0629V37.39C469.125 37.356 469.097 37.3284 469.063 37.3284H455.638C455.604 37.3284 455.576 37.356 455.576 37.39V51.4883C455.576 51.5432 455.643 51.5707 455.681 51.5319L469.107 38.1064ZM276.401 71.1161C276.415 71.1176 276.429 71.1143 276.441 71.1068C282.531 67.2118 288.597 63.031 291.435 60.0939C291.459 60.0691 291.498 60.0696 291.522 60.094L293.275 61.8465C293.286 61.8581 293.293 61.8737 293.293 61.8901V97.9366C293.293 97.9387 293.291 97.9404 293.289 97.9407V97.9407C293.287 97.9409 293.286 97.9427 293.286 97.9447L293.286 111.811C293.286 111.866 293.352 111.894 293.391 111.855L306.842 98.4037C306.842 98.4035 306.842 98.4031 306.842 98.4031V98.4031C306.842 98.4031 306.842 98.4029 306.842 98.4027V61.9552C306.842 61.9389 306.848 61.9232 306.86 61.9117L316.525 52.2467C316.536 52.2351 316.552 52.2286 316.568 52.2286H333.937C333.938 52.2286 333.939 52.2278 333.939 52.2268V52.2268C333.939 52.2263 333.939 52.2258 333.94 52.2255L339.479 46.6861C339.479 46.6859 339.479 46.6859 339.48 46.6859V46.6859C339.48 46.6859 339.48 46.6855 339.48 46.6851V38.7414C339.48 38.7074 339.453 38.6798 339.419 38.6798H325.932L310.963 38.68C310.959 38.68 310.956 38.6786 310.953 38.6761V38.6761C310.948 38.6709 310.94 38.6709 310.935 38.6761V38.6761C310.932 38.6786 310.929 38.68 310.925 38.68H310.905C310.872 38.68 310.845 38.7072 310.845 38.7408V38.7408C310.845 38.7569 310.838 38.7723 310.827 38.7837L293.715 55.8953C293.671 55.9392 293.597 55.8976 293.611 55.8371C294.677 51.0498 293.657 46.1936 292.987 44.7195C292.217 43.0263 288.062 35.4851 260.058 34.8664C260.046 34.8661 260.034 34.8625 260.024 34.856L255.012 31.5146C254.983 31.4951 254.944 31.5028 254.926 31.5331C254.044 33.0289 252.609 36.4794 250.956 42.2143C250.948 42.244 250.961 42.2757 250.99 42.2881C254.326 43.7498 259.424 47.1291 262.35 49.2073C262.386 49.2325 262.434 49.2129 262.445 49.1706C262.833 47.6025 263.218 46.4954 263.58 46.1052C265.582 43.9498 281.286 46.1052 283.903 51.8018C285.202 54.628 278.87 59.6527 271.694 64.1517C271.669 64.1674 271.658 64.1984 271.669 64.226C272.689 66.8434 274.005 70.1924 274.202 70.5848C274.319 70.8188 275.251 70.9926 276.401 71.1161ZM325.782 126.885H310.84C310.836 126.885 310.834 126.89 310.837 126.893V126.893C310.84 126.897 310.837 126.902 310.833 126.902C298.703 125.843 289.859 129.215 282.682 132.75C282.62 132.781 282.563 132.701 282.611 132.651L299.298 115.356C299.299 115.356 299.299 115.356 299.3 115.356V115.356C299.3 115.357 299.301 115.357 299.301 115.356L308.82 105.838C308.844 105.813 308.883 105.813 308.907 105.838L316.388 113.318C316.399 113.33 316.415 113.336 316.431 113.336H333.786C333.786 113.336 333.787 113.337 333.787 113.337V113.338C333.787 113.338 333.787 113.338 333.788 113.338V113.338C333.788 113.338 333.788 113.338 333.788 113.338L339.33 118.879C339.33 118.879 339.33 118.879 339.33 118.879V118.879C339.331 118.879 339.331 118.88 339.331 118.88V126.824C339.331 126.858 339.303 126.885 339.269 126.885L325.782 126.885ZM118.012 115.08L134.128 57.5234C134.144 57.4663 134.079 57.4204 134.032 57.4567C127.401 62.5799 116.789 69.571 126.326 57.344C138.335 41.9478 160.968 35.4813 173.284 37.3289C185.601 39.1764 196.841 46.5666 195.763 63.6563C194.902 77.3076 175.345 99.9744 165.63 109.647C165.605 109.672 165.567 109.67 165.543 109.644L156.397 99.7336C156.373 99.7068 156.376 99.6645 156.406 99.6426L158.814 97.836L160.963 96.4534C160.966 96.4513 160.969 96.4489 160.972 96.4462L164.197 93.3741C164.2 93.372 164.202 93.3699 164.203 93.3675C173.544 81.357 189.542 55.9886 178.827 50.5696C168.127 45.1579 151.623 51.8849 144.677 55.9411C144.658 55.9521 144.648 55.9705 144.648 55.9924C144.637 58.6886 143.418 64.8943 141.614 72.5996C141.608 72.6249 141.587 72.644 141.561 72.647C138.321 73.0258 134.383 73.8902 134.097 75.5122C133.764 77.3965 136.898 81.0846 138.987 83.1878C139.003 83.2032 139.008 83.225 139.003 83.246C138.516 85.1634 138.013 87.1119 137.501 89.0697C137.492 89.103 137.458 89.1227 137.425 89.1135C135.812 88.6674 134.178 88.4042 134.096 89.0604C133.975 90.0297 135.135 93.3634 135.759 94.9861C135.772 95.0208 135.818 95.0257 135.84 94.9957V94.9957C135.871 94.9538 135.937 94.9857 135.923 95.0359C133.518 104.034 131.076 112.751 129.267 119.03C129.258 119.06 129.274 119.092 129.303 119.103L130.002 119.383C130.014 119.388 130.028 119.389 130.04 119.385C134.086 118.269 141.386 112.017 144.592 108.974C144.621 108.946 144.667 108.955 144.686 108.99L152.471 122.728C152.487 122.756 152.478 122.792 152.452 122.81C136.616 133.405 124.166 135.09 119.552 130.476C115.856 126.781 116.986 118.672 118.012 115.08ZM158.544 117.359C158.521 117.376 158.488 117.375 158.467 117.356L147.318 107.429C147.29 107.404 147.29 107.36 147.319 107.336L152.398 103.003C152.438 102.969 152.505 102.996 152.517 103.047C152.755 104.038 155.358 107.13 157.719 109.933C159.899 112.521 161.872 114.863 161.583 115.08L158.544 117.359ZM169.195 116.46C169.14 116.462 169.11 116.403 169.148 116.364C171.599 113.871 183.662 108.961 189.496 106.778C189.517 106.771 189.531 106.753 189.534 106.731C189.907 104.388 190.286 102.167 190.663 100.052C190.672 100.004 190.73 99.9848 190.765 100.018C192.659 101.8 194.392 104.113 195.221 105.372C195.224 105.377 195.227 105.381 195.232 105.385C197.062 106.967 199.943 107.977 201.194 108.295C201.216 108.301 201.233 108.319 201.238 108.342C201.624 110.056 203.335 112.103 204.152 112.92C204.154 112.922 204.156 112.924 204.159 112.926C205.705 114.05 206.991 114.626 207.924 114.894C207.935 114.897 207.945 114.903 207.952 114.912L210.835 118.056C210.871 118.096 210.846 118.159 210.792 118.16C206.585 118.17 198.073 118.674 196.611 120.623C195.154 122.565 189.592 124.467 186.876 125.209C186.827 125.223 186.786 125.173 186.805 125.125C187.966 122.218 187.269 119.295 186.763 118.172C186.759 118.163 186.754 118.157 186.747 118.151C184.529 116.329 174.22 116.262 169.195 116.46ZM199.849 98.6123C199.846 98.6073 199.842 98.603 199.837 98.5991C197.783 96.9223 194.266 95.5278 191.709 94.6889C191.679 94.6792 191.662 94.6493 191.668 94.6189C192.116 92.271 192.555 90.0593 192.971 87.9564L192.973 87.9475L192.974 87.9415L192.975 87.9398L192.979 87.915L192.983 87.897C193.127 87.1681 193.269 86.4522 193.408 85.7483C193.417 85.7044 193.468 85.6842 193.504 85.7104C198.063 88.9842 201.505 92.921 203.496 95.6683C203.506 95.6822 203.51 95.6994 203.506 95.7163C203.152 97.4677 202.794 99.2162 202.452 100.877C202.447 100.905 202.421 100.926 202.392 100.926C201.485 100.927 200.768 100.848 200.768 100.606C200.768 100.116 200.158 99.078 199.849 98.6123ZM201.538 83.0548C201.267 82.4242 197.961 79.5591 195.04 77.1216C195.023 77.1076 195.015 77.0857 195.018 77.0641C196.84 66.0334 197.031 57.1911 192.933 44.1573C192.923 44.1272 192.938 44.0943 192.967 44.0817C209.893 36.7327 229.581 33.401 235.806 33.3271C235.843 33.3267 235.868 33.3583 235.864 33.3948C235.1 40.571 228.997 47.3737 226.846 49.7366C226.816 49.7686 226.765 49.7605 226.739 49.7255C226.421 49.2869 224.333 47.1585 215.086 49.8004C207.596 51.9404 207.543 57.2673 207.542 57.3437C207.542 57.3461 207.542 57.3457 207.542 57.3481L206.558 65.8109C206.555 65.8335 206.54 65.8528 206.519 65.8609C205.628 66.1959 204.4 66.1218 202.877 64.9703C202.835 64.9384 202.773 64.9688 202.777 65.0216C202.894 66.9635 203.38 70.6848 204.463 71.0458C204.942 71.2056 205.535 70.968 206.111 70.5721C206.119 70.567 206.127 70.5635 206.136 70.562C228.687 66.6516 234.126 68.6379 234.024 70.1233C234.332 75.8199 228.173 81.2086 225.71 82.2863C223.832 83.1077 222.458 82.69 221.932 82.338C221.897 82.314 221.9 82.2623 221.936 82.2392C224.07 80.8818 225.312 77.8089 225.691 76.3556C225.701 76.3172 225.672 76.2812 225.633 76.2806C218.414 76.1756 209.914 78.4725 206.509 79.6535C206.482 79.6629 206.467 79.6885 206.467 79.7173C206.478 80.2043 206.111 82.3643 205.549 85.3468C205.542 85.3867 205.498 85.4091 205.461 85.3914C204.828 85.0853 204.229 84.8281 204.155 84.9023C204.044 85.0135 203.924 85.8022 203.864 86.2943C203.858 86.3488 203.789 86.3692 203.755 86.3262C203.108 85.5079 201.89 83.8762 201.538 83.0548ZM210.929 110.46C209.611 108.599 208.956 106.926 208.665 105.724C208.656 105.689 208.68 105.654 208.715 105.649L212.436 105.094C212.457 105.091 212.478 105.098 212.492 105.114C214.765 107.746 217.936 111.42 219.748 113.52C219.782 113.559 219.753 113.619 219.701 113.62C218.188 113.658 216.724 113.719 215.346 113.796C215.336 113.796 215.325 113.794 215.316 113.79C213.609 112.986 211.939 111.885 210.929 110.46ZM226.295 113.63C226.274 113.63 226.256 113.619 226.245 113.602C224.411 110.685 221.732 106.359 220.387 103.99C220.365 103.953 220.389 103.907 220.432 103.9L221.85 103.689C221.857 103.688 221.864 103.688 221.871 103.689C225.32 104.436 232.194 104.464 238.576 104.255C238.605 104.254 238.628 104.234 238.634 104.207L242.785 84.9525C242.791 84.924 242.776 84.8951 242.75 84.8832L237.343 82.4801C237.301 82.4616 237.293 82.4061 237.328 82.3768L244.163 76.6049C244.175 76.5951 244.182 76.5813 244.184 76.5661C244.345 75.3838 244.508 74.227 244.673 73.0954C244.674 73.0835 244.68 73.0724 244.688 73.0634C245.356 72.3133 246.088 71.5036 246.586 70.9551C246.614 70.9242 246.663 70.928 246.684 70.9643C248.497 74.1204 252.285 80.4747 253.263 81.2081C254.228 81.9315 255.369 81.5337 255.85 81.2277C255.869 81.2157 255.879 81.1938 255.877 81.1715C255.012 71.1376 251.039 64.5348 249.132 62.4528C249.115 62.435 249.091 62.4298 249.068 62.4369C248.591 62.583 247.618 62.6484 247.258 61.809C247.1 61.4394 247.049 60.2831 247.055 58.8884C247.055 58.8846 247.055 58.8808 247.056 58.877C247.597 56.0673 248.141 53.4882 248.678 51.1306C248.687 51.091 248.731 51.0705 248.766 51.0897C251.767 52.6965 256.088 55.8363 258.792 60.5533C258.8 60.5685 258.802 60.5868 258.797 60.6034L258.52 61.4337C258.508 61.4693 258.531 61.5071 258.567 61.5138L260.17 61.8051C260.184 61.8076 260.196 61.8147 260.205 61.8252L260.236 61.86C260.248 61.8734 260.253 61.8913 260.251 61.9089C259.788 65.3038 259.395 68.608 259.127 71.0896C259.122 71.138 259.172 71.1725 259.216 71.1507C260.945 70.2839 262.976 69.2169 265.118 68.0254C265.145 68.0103 265.18 68.0179 265.198 68.0432C266.724 70.1473 267.945 72.1278 268.04 73.154C268.042 73.1826 268.063 73.2055 268.091 73.2102C268.724 73.3167 269.959 73.544 270.199 73.664C270.32 73.7246 270.148 74.3822 269.882 75.1877C269.877 75.2015 269.868 75.2133 269.856 75.2209C267.75 76.5108 265.805 77.6836 264.181 78.6614C264.133 78.6906 264.147 78.7647 264.203 78.7754C267.425 79.3964 269.18 80.4861 272.664 83.364C285.033 95.6066 287.228 98.7443 290.529 103.464L290.53 103.466L290.531 103.466C291.253 104.499 292.029 105.608 292.975 106.904C292.983 106.914 292.987 106.927 292.987 106.94V111.536C292.987 111.552 292.981 111.568 292.969 111.579L289.068 115.48C289.041 115.507 288.997 115.504 288.975 115.473C285.713 110.86 280.266 103.541 276.205 99.376C271.421 94.4692 260.437 89.4606 255.481 87.5442C255.447 87.5312 255.412 87.5505 255.402 87.5851L248.66 110.568C248.652 110.596 248.664 110.625 248.689 110.639L249.972 111.352C250.004 111.369 250.013 111.411 249.992 111.441L242.796 121.546C241.564 123.137 238.947 125.981 238.331 124.626C237.839 123.544 237.511 117.873 237.346 113.542C237.344 113.495 237.292 113.468 237.252 113.493L235.737 114.452C235.724 114.46 235.709 114.463 235.694 114.461C232.765 113.98 229.531 113.729 226.295 113.63ZM421.581 23.1495C421.624 23.0913 421.548 23.0195 421.492 23.0652L404.004 37.3157C403.993 37.3247 403.98 37.3295 403.966 37.3295L397.68 37.3295L384.131 37.3296H363.565C363.531 37.3296 363.503 37.3571 363.503 37.3911V50.8166C363.503 50.8506 363.531 50.8782 363.565 50.8782H384.069C384.103 50.8782 384.131 50.9058 384.131 50.9398V65.7688C384.131 65.8253 384.2 65.852 384.238 65.8101L397.679 50.8828C397.679 50.8823 397.68 50.8816 397.68 50.8809V50.8809C397.68 50.8794 397.681 50.8782 397.682 50.8782H407.071C407.124 50.8782 407.152 50.941 407.117 50.9807L397.699 61.5628C397.692 61.5705 397.68 61.5657 397.68 61.5553V61.5553C397.68 61.5449 397.667 61.54 397.66 61.5478L384.146 76.7324C384.136 76.7437 384.131 76.7582 384.131 76.7733V76.7858C384.131 76.8009 384.125 76.8154 384.115 76.8267L364.733 98.6058L374.802 88.5373C375.527 87.8844 376.197 87.2766 376.815 86.7151L376.822 86.7093L376.824 86.7071C380.673 83.2135 382.54 81.5195 383.444 81.9325C383.804 82.097 384.012 82.5959 384.131 83.4488V126.566C384.131 126.6 384.158 126.627 384.192 126.627H397.618C397.652 126.627 397.68 126.6 397.68 126.566V74.8951C397.68 74.8937 397.681 74.8929 397.682 74.8939V74.8939C397.683 74.8949 397.685 74.8941 397.685 74.8927L397.68 74.5104V70.2758C397.777 66.8559 398.237 65.371 399.731 63.6081L403.658 59.6812L403.837 59.507C403.838 59.5063 403.837 59.5051 403.836 59.5057V59.5057C403.835 59.5063 403.834 59.5051 403.835 59.5043L412.46 50.8787C412.461 50.8784 412.461 50.8782 412.462 50.8781L412.462 50.878C412.463 50.878 412.463 50.8781 412.463 50.8784V50.8784C412.463 50.8788 412.464 50.8789 412.464 50.8785L418.006 45.3368C418.006 45.3367 418.006 45.3365 418.006 45.3364V45.3364C418.006 45.3364 418.006 45.3363 418.006 45.3362V37.392C418.006 37.358 417.978 37.3304 417.944 37.3304H412.463C412.463 37.3304 412.463 37.3302 412.463 37.33V37.33C412.463 37.3297 412.463 37.3296 412.462 37.3296H411.237C411.186 37.3296 411.157 37.2721 411.187 37.2314L421.581 23.1495Z" fill="#008CFF"/>
<path fill-rule="evenodd" clip-rule="evenodd" d="M16.5509 38.8575C8.48942 59.5072 -5.21276 105.419 4.44155 123.932C4.44941 123.947 4.46292 123.957 4.4793 123.962L26.1618 130.011C26.1816 130.016 26.2019 130.012 26.2175 129.999C30.7291 126.133 40.7527 116.817 44.953 110.309C49.1588 103.792 59.4372 77.0393 64.057 64.4604C64.0612 64.449 64.0619 64.4382 64.0591 64.4264C63.5334 62.1985 62.8041 55.6273 64.0632 47.0071C65.3177 38.4183 74.1794 13.3951 78.5339 1.73763C78.5562 1.67807 78.4823 1.63406 78.4339 1.67533L75.2949 4.35426C75.2876 4.36047 75.2821 4.36789 75.2783 4.37671C61.4843 36.9797 33.3814 102.804 31.2778 105.381C28.6479 108.603 25.3166 110.309 20.9337 110.309C16.5509 110.309 15.4435 105.689 14.9816 102.366C14.964 102.239 14.942 102.098 14.9172 101.939C14.3907 98.5564 12.6301 87.2454 26.1934 44.1642L26.7493 41.4671C26.7577 41.4266 26.7247 41.3895 26.6835 41.3932C24.2693 41.6112 21.5106 41.6289 20.0567 40.9413C18.7856 40.3402 17.7919 38.9809 17.0949 37.6282C17.07 37.5799 16.9991 37.5845 16.9811 37.6357L16.5509 38.8575ZM21.3706 25.1695C21.3676 25.1779 21.3665 25.1868 21.3673 25.1957C21.3979 25.5266 21.4215 25.9139 21.447 26.333C21.5834 28.5745 21.7753 31.727 23.3887 32.0348C24.5959 32.2651 26.9083 31.511 28.9657 30.5873C28.9837 30.5792 28.9967 30.5629 29.0007 30.5436L30.8799 21.4254C30.8893 21.38 30.8471 21.3409 30.8025 21.3535C29.6216 21.687 28.4228 21.9027 27.4223 21.8426C25.548 21.7301 24.4596 19.8694 23.9276 18.2462C23.9091 18.1898 23.8287 18.1884 23.809 18.2445L21.3706 25.1695ZM33.7153 7.56335C33.7261 7.57752 33.7303 7.59566 33.7267 7.61311L33.3298 9.53864C33.3285 9.54472 33.3264 9.5505 33.3234 9.55594C32.2458 11.5032 30.7436 14.1381 29.1756 13.839C27.6315 13.5445 27.6462 11.088 27.6578 9.13585V9.13537V9.1349V9.13444V9.13397V9.13352V9.13306V9.13261V9.13217V9.13173C27.6589 8.95312 27.6599 8.77876 27.6597 8.61068C27.6597 8.59595 27.6649 8.58169 27.6745 8.5705L31.2282 4.42159C31.2537 4.3918 31.3002 4.39313 31.324 4.42433L33.7153 7.56335ZM24.8503 173.727C24.8406 173.71 24.8393 173.69 24.8467 173.672L69.6336 66.5036C69.6364 66.4969 69.6404 66.4908 69.6453 66.4855L72.2591 63.6688C72.2686 63.6585 72.2811 63.6519 72.2949 63.6498C79.2631 62.5897 86.8015 57.1091 89.7768 54.4366C89.8103 54.4065 89.8616 54.4231 89.8749 54.4662L91.6022 60.0505C91.6032 60.0535 91.6038 60.0565 91.6043 60.0596L96.8512 95.2794C96.8603 95.3406 96.9437 95.3517 96.9685 95.2951L125.237 30.8169C125.268 30.7478 125.37 30.7924 125.352 30.8656C118.666 58.1793 119.265 71.0176 120.42 74.0673C120.427 74.0843 120.425 74.1014 120.416 74.1173L114.455 84.8862L95.4876 126.145C95.4807 126.16 95.4678 126.172 95.4523 126.177C91.2615 127.669 87.4221 125.552 86.0049 124.29C85.9934 124.28 85.9868 124.266 85.9853 124.251L81.0921 74.3454C81.0858 74.2811 80.9974 74.2686 80.9736 74.3287L68.2411 106.47C68.2399 106.473 68.2389 106.476 68.2382 106.479L65.7876 117.609C65.7824 117.632 65.7654 117.65 65.742 117.655C52.8361 120.592 34.3327 158.102 26.6385 176.619C26.619 176.666 26.5554 176.667 26.5298 176.622L24.8503 173.727ZM347.132 36.0081C347.098 36.0081 347.07 36.0357 347.07 36.0697V125.244C347.07 125.278 347.098 125.306 347.132 125.306H360.557C360.591 125.306 360.619 125.278 360.619 125.244V36.0697C360.619 36.0357 360.591 36.0081 360.557 36.0081H347.132ZM456.716 59.5677C456.705 59.5792 456.698 59.5949 456.698 59.6112V64.5852C456.698 64.6192 456.671 64.6468 456.637 64.6468H443.824C443.808 64.6468 443.792 64.6403 443.78 64.6288L436.7 57.5489C436.689 57.5373 436.682 57.5217 436.682 57.5053V36.0701C436.682 36.0361 436.655 36.0085 436.621 36.0085H423.195C423.161 36.0085 423.134 36.0361 423.134 36.0701V63.0963C423.134 63.1015 423.138 63.1058 423.143 63.1058V63.1058C423.152 63.1058 423.156 63.116 423.15 63.1219L423.142 63.1303C423.136 63.1359 423.136 63.145 423.142 63.1506L438.218 78.2273C438.242 78.2513 438.281 78.2513 438.305 78.2273L438.319 78.2135C438.331 78.2019 438.346 78.1954 438.363 78.1954H456.637C456.671 78.1954 456.698 78.223 456.698 78.257V93.2121C456.698 93.2284 456.692 93.2441 456.68 93.2556L424.733 125.203C424.694 125.242 424.722 125.308 424.777 125.308H443.763C443.779 125.308 443.795 125.301 443.807 125.29L470.226 98.8704C470.232 98.8648 470.232 98.8557 470.226 98.85L470.224 98.8481C470.216 98.8398 470.222 98.8255 470.234 98.8255V98.8255C470.241 98.8255 470.247 98.8196 470.247 98.8122V46.1857C470.247 46.1309 470.181 46.1034 470.142 46.1422L456.716 59.5677ZM470.229 36.79C470.24 36.7785 470.247 36.7628 470.247 36.7465V36.0707C470.247 36.0366 470.219 36.0091 470.185 36.0091H456.76C456.726 36.0091 456.698 36.0366 456.698 36.0707V50.1719C456.698 50.2268 456.765 50.2543 456.803 50.2155L470.229 36.79ZM327.052 37.2386H312.028C311.994 37.2386 311.967 37.2662 311.967 37.3002V37.3117C311.967 37.328 311.96 37.3437 311.949 37.3553L294.875 54.4289C294.831 54.4726 294.757 54.4316 294.77 54.3712C295.784 49.6314 294.778 44.8583 294.115 43.3992C293.345 41.706 289.19 34.1648 261.186 33.5461C261.174 33.5458 261.162 33.5422 261.152 33.5357L256.14 30.1943C256.111 30.1748 256.072 30.1825 256.054 30.2128C255.172 31.7086 253.737 35.1592 252.084 40.8943C252.075 40.924 252.089 40.9556 252.118 40.9681C255.454 42.4301 260.552 45.8096 263.478 47.8877C263.514 47.9128 263.562 47.8932 263.573 47.851C263.961 46.283 264.346 45.1761 264.708 44.7859C266.71 42.6304 282.414 44.7859 285.031 50.4825C286.33 53.3087 279.998 58.3336 272.821 62.8326C272.796 62.8483 272.786 62.8793 272.796 62.9069C273.817 65.5241 275.132 68.8721 275.329 69.2644C275.446 69.4985 276.378 69.6723 277.529 69.7958C277.543 69.7973 277.557 69.794 277.568 69.7865C283.695 65.8689 289.795 61.6621 292.612 58.7225C292.636 58.6976 292.675 58.698 292.7 58.7224L294.396 60.4188C294.408 60.4303 294.414 60.446 294.414 60.4623V96.5089C294.414 96.5109 294.413 96.5127 294.41 96.5129V96.5129C294.408 96.5132 294.407 96.5149 294.407 96.517L294.407 110.384C294.407 110.438 294.473 110.466 294.512 110.427L307.962 96.9769C307.962 96.9769 307.962 96.9769 307.962 96.9769H307.962C307.963 96.9769 307.963 96.9767 307.963 96.9766V96.9766C307.963 96.9765 307.963 96.9765 307.963 96.9764L307.963 96.9759C307.963 96.9757 307.963 96.9754 307.963 96.9753V96.9753C307.963 96.9753 307.963 96.9752 307.963 96.975V60.5275C307.963 60.5112 307.969 60.4955 307.981 60.4839L317.659 50.8053C317.671 50.7937 317.687 50.7872 317.703 50.7872H335.059H335.06C335.061 50.7872 335.061 50.7867 335.061 50.7861V50.7861C335.061 50.7858 335.061 50.7855 335.061 50.7853L340.601 45.2454C340.602 45.245 340.602 45.2444 340.601 45.2441V45.2441C340.601 45.244 340.601 45.2437 340.601 45.2434V37.3002C340.601 37.2662 340.573 37.2386 340.539 37.2386H335.061H327.052ZM326.904 125.458H311.962C311.958 125.458 311.956 125.464 311.959 125.467V125.467C311.962 125.47 311.959 125.475 311.955 125.475C299.825 124.417 290.981 127.789 283.804 131.323C283.742 131.354 283.685 131.274 283.733 131.224L300.421 113.929C300.421 113.929 300.421 113.929 300.422 113.929V113.929C300.422 113.93 300.422 113.93 300.422 113.929L309.942 104.41C309.966 104.386 310.005 104.386 310.029 104.41L317.511 111.892C317.523 111.903 317.538 111.91 317.555 111.91H334.908C334.909 111.91 334.909 111.91 334.909 111.91V111.91C334.909 111.911 334.909 111.911 334.909 111.91L334.91 111.91C334.91 111.91 334.91 111.91 334.91 111.91L340.452 117.452C340.453 117.452 340.452 117.452 340.452 117.452V117.452C340.452 117.452 340.452 117.453 340.452 117.453V125.397C340.452 125.431 340.425 125.458 340.391 125.458H334.909H326.904ZM119.144 113.757L135.26 56.2012C135.276 56.144 135.211 56.0981 135.164 56.1344C128.532 61.2576 117.921 68.2487 127.458 56.0217C139.467 40.6256 162.099 34.1591 174.416 36.0066C186.733 37.8541 197.972 45.2443 196.895 62.3341C196.034 75.9853 176.477 98.6521 166.762 108.325C166.737 108.35 166.699 108.347 166.675 108.322L157.529 98.4114C157.504 98.3845 157.508 98.3422 157.537 98.3203L159.946 96.5137L162.094 95.1311C162.098 95.129 162.101 95.1266 162.104 95.1239L165.329 92.0519C165.331 92.0498 165.333 92.0476 165.335 92.0452C174.676 80.0348 190.674 54.6663 179.959 49.2474C169.258 43.8356 152.754 50.5626 145.809 54.6188C145.79 54.6299 145.779 54.6483 145.779 54.6702C145.769 57.3663 144.55 63.572 142.745 71.2772C142.74 71.3024 142.719 71.3215 142.693 71.3245C139.453 71.7034 135.515 72.5678 135.229 74.1897C134.896 76.074 138.03 79.7622 140.119 81.8654C140.134 81.8808 140.14 81.9026 140.135 81.9236C139.647 83.841 139.144 85.7896 138.633 87.7474C138.624 87.7807 138.59 87.8004 138.557 87.7912C136.944 87.3451 135.31 87.082 135.228 87.7381C135.106 88.7075 136.267 92.0412 136.891 93.6638C136.904 93.6985 136.95 93.7034 136.972 93.6735V93.6735C137.003 93.6316 137.069 93.6634 137.055 93.7137C134.65 102.712 132.208 111.429 130.398 117.707C130.39 117.738 130.406 117.769 130.435 117.781L131.134 118.061C131.146 118.066 131.159 118.067 131.172 118.063C135.217 116.946 142.518 110.695 145.724 107.652C145.753 107.624 145.799 107.633 145.818 107.668L153.603 121.406C153.619 121.434 153.61 121.47 153.583 121.488C137.748 132.082 125.298 133.768 120.683 129.154C116.988 125.458 118.117 117.35 119.144 113.757ZM159.676 116.037C159.653 116.054 159.62 116.053 159.598 116.033L148.45 106.106C148.422 106.081 148.422 106.038 148.451 106.013L153.53 101.681C153.57 101.647 153.637 101.673 153.649 101.724C153.887 102.716 156.49 105.808 158.851 108.611C161.031 111.199 163.004 113.541 162.715 113.757L159.676 116.037ZM170.321 115.139C170.266 115.141 170.236 115.081 170.274 115.043C172.725 112.55 184.788 107.64 190.622 105.457C190.643 105.449 190.657 105.431 190.66 105.409C191.033 103.068 191.411 100.848 191.788 98.7342C191.797 98.6862 191.855 98.6667 191.891 98.7001C193.783 100.482 195.516 102.794 196.344 104.052C196.347 104.057 196.35 104.061 196.355 104.064C198.185 105.647 201.066 106.657 202.317 106.975C202.339 106.981 202.356 106.998 202.361 107.021C202.747 108.736 204.458 110.782 205.275 111.6C205.277 111.602 205.279 111.604 205.282 111.606C206.831 112.732 208.119 113.308 209.052 113.575C209.063 113.578 209.073 113.584 209.08 113.593L211.961 116.735C211.997 116.774 211.972 116.838 211.918 116.838C207.711 116.849 199.199 117.352 197.737 119.302C196.28 121.243 190.718 123.146 188.002 123.888C187.953 123.902 187.912 123.851 187.931 123.804C189.092 120.897 188.395 117.974 187.889 116.85C187.885 116.842 187.88 116.836 187.873 116.83C185.655 115.008 175.346 114.941 170.321 115.139ZM200.972 97.292C200.969 97.2869 200.965 97.2827 200.96 97.2788C198.907 95.6026 195.391 94.2085 192.834 93.3694C192.805 93.3598 192.788 93.3299 192.794 93.2994C193.242 90.9518 193.68 88.7403 194.097 86.6376L194.1 86.6214L194.101 86.6185L194.101 86.6142C194.248 85.8729 194.392 85.1452 194.533 84.4297C194.542 84.3858 194.593 84.3656 194.63 84.3918C199.189 87.6664 202.631 91.604 204.621 94.351C204.631 94.3649 204.635 94.3821 204.631 94.3989C204.277 96.1494 203.92 97.8968 203.578 99.5566C203.572 99.5852 203.547 99.6056 203.518 99.6057C202.61 99.6068 201.891 99.5282 201.891 99.2861C201.891 98.796 201.282 97.7576 200.972 97.292ZM202.661 81.7345C202.39 81.1041 199.086 78.2403 196.165 75.8033C196.148 75.7894 196.14 75.7674 196.144 75.7459C197.966 64.7138 198.157 55.871 194.059 42.836C194.049 42.8059 194.064 42.773 194.093 42.7605C211.019 35.4114 230.707 32.0797 236.932 32.0058C236.969 32.0054 236.994 32.037 236.99 32.0735C236.226 39.2497 230.123 46.0524 227.971 48.4154C227.942 48.4474 227.891 48.4393 227.865 48.4042C227.547 47.9656 225.459 45.8372 216.212 48.4791C208.722 50.6191 208.669 55.946 208.668 56.0224C208.668 56.0248 208.668 56.0244 208.668 56.0268L207.684 64.4895C207.681 64.5121 207.666 64.5314 207.645 64.5394C206.754 64.8758 205.524 64.8028 204 63.65C203.958 63.6181 203.897 63.6485 203.9 63.7013C204.017 65.6432 204.503 69.3645 205.586 69.7255C206.065 69.8854 206.658 69.6474 207.235 69.2512C207.242 69.2461 207.251 69.2426 207.26 69.2411C229.813 65.3302 235.252 67.3166 235.15 68.802C235.458 74.4986 229.299 79.8873 226.836 80.965C224.958 81.7865 223.584 81.3687 223.058 81.0167C223.023 80.9927 223.026 80.941 223.062 80.9179C225.196 79.5605 226.438 76.4877 226.817 75.0343C226.827 74.9959 226.798 74.9599 226.759 74.9593C219.54 74.8543 211.04 77.1512 207.635 78.3322C207.608 78.3416 207.593 78.3672 207.593 78.396C207.604 78.8831 207.236 81.0441 206.675 84.0277C206.667 84.0676 206.624 84.09 206.587 84.0723C205.953 83.7657 205.352 83.5077 205.278 83.582C205.167 83.6932 205.047 84.4819 204.987 84.974C204.981 85.0285 204.912 85.0489 204.878 85.0059C204.231 84.1876 203.013 82.5558 202.661 81.7345ZM212.052 109.14C210.734 107.279 210.079 105.605 209.787 104.403C209.779 104.368 209.803 104.334 209.838 104.328L213.559 103.773C213.58 103.77 213.601 103.777 213.614 103.793C215.887 106.425 219.058 110.098 220.87 112.199C220.904 112.238 220.876 112.298 220.824 112.299C219.31 112.337 217.846 112.398 216.467 112.475C216.457 112.475 216.447 112.473 216.438 112.469C214.731 111.665 213.062 110.565 212.052 109.14ZM227.417 112.309C227.397 112.308 227.378 112.298 227.367 112.281C225.533 109.363 222.855 105.038 221.509 102.669C221.488 102.632 221.512 102.586 221.555 102.579L222.975 102.367C222.983 102.366 222.99 102.366 222.997 102.368C226.446 103.115 233.322 103.142 239.704 102.934C239.733 102.933 239.757 102.913 239.763 102.885L243.913 83.6322C243.919 83.6037 243.904 83.5748 243.878 83.5629L238.471 81.1598C238.429 81.1413 238.421 81.0858 238.456 81.0565L245.291 75.2846C245.303 75.2748 245.31 75.2609 245.312 75.2458C245.473 74.063 245.636 72.9058 245.801 71.7738C245.802 71.7618 245.808 71.7507 245.816 71.7417C246.484 70.992 247.215 70.1829 247.713 69.6347C247.741 69.6038 247.79 69.6076 247.811 69.6439C249.624 72.8 253.412 79.1543 254.39 79.8877C255.355 80.6111 256.496 80.2133 256.977 79.9074C256.996 79.8953 257.006 79.8735 257.004 79.8511C256.139 69.8172 252.166 63.2144 250.259 61.1324C250.242 61.1146 250.218 61.1094 250.195 61.1165C249.718 61.2626 248.745 61.328 248.385 60.4886C248.227 60.1194 248.176 58.9655 248.182 57.5731C248.182 57.5692 248.182 57.5654 248.183 57.5616C248.724 54.7501 249.269 52.1695 249.806 49.8106C249.815 49.7711 249.858 49.7506 249.894 49.7697C252.895 51.3767 257.215 54.5163 259.919 59.2329C259.927 59.2481 259.929 59.2664 259.924 59.283L259.647 60.1133C259.635 60.1489 259.658 60.1867 259.694 60.1934L261.297 60.4847C261.311 60.4872 261.323 60.4943 261.332 60.5048L261.364 60.5407C261.376 60.5541 261.381 60.5719 261.378 60.5896C260.916 63.9845 260.523 67.2887 260.255 69.7702C260.25 69.8187 260.3 69.8532 260.344 69.8313C262.073 68.9646 264.104 67.8976 266.246 66.7062C266.273 66.691 266.307 66.6987 266.326 66.7239C267.852 68.8276 269.072 70.8076 269.167 71.8336C269.169 71.8622 269.19 71.8851 269.218 71.8898C269.851 71.9963 271.086 72.2236 271.326 72.3437C271.447 72.4042 271.275 73.0622 271.009 73.8681C271.004 73.8819 270.995 73.8938 270.982 73.9014C268.878 75.1909 266.932 76.3635 265.309 77.3411C265.261 77.3703 265.275 77.4444 265.331 77.4551C268.553 78.0761 270.308 79.1658 273.792 82.0436C286.161 94.2863 288.356 97.424 291.657 102.144L291.658 102.146L291.659 102.146C292.381 103.179 293.157 104.287 294.103 105.584C294.111 105.594 294.115 105.607 294.115 105.62V110.217C294.115 110.234 294.109 110.249 294.097 110.261L290.197 114.161C290.17 114.188 290.126 114.185 290.104 114.154C286.842 109.541 281.394 102.221 277.333 98.0557C272.549 93.1489 261.565 88.1403 256.609 86.2239C256.575 86.2109 256.54 86.2302 256.53 86.2648L249.788 109.248C249.78 109.275 249.792 109.305 249.817 109.319L251.099 110.031C251.132 110.049 251.141 110.091 251.12 110.121L243.923 120.226C242.692 121.817 240.074 124.66 239.459 123.305C238.967 122.223 238.639 116.551 238.474 112.22C238.472 112.172 238.42 112.145 238.38 112.171L236.863 113.131C236.85 113.139 236.835 113.142 236.82 113.139C233.89 112.659 230.654 112.407 227.417 112.309ZM422.703 21.8273C422.746 21.769 422.67 21.6972 422.614 21.7429L405.127 35.9934C405.116 36.0024 405.102 36.0073 405.088 36.0073H364.682C364.648 36.0073 364.62 36.0349 364.62 36.0689V49.4943C364.62 49.5284 364.648 49.5559 364.682 49.5559H385.186C385.22 49.5559 385.248 49.5835 385.248 49.6175V64.4509C385.248 64.5073 385.318 64.5341 385.355 64.4921L398.795 49.5657C398.796 49.5647 398.797 49.5633 398.797 49.5618V49.5618C398.797 49.5586 398.799 49.5559 398.803 49.5559H408.19C408.243 49.5559 408.271 49.6187 408.236 49.6584L398.814 60.2451C398.808 60.252 398.797 60.2477 398.797 60.2385V60.2385C398.797 60.2293 398.785 60.2249 398.779 60.2318L385.264 75.4189C385.254 75.4302 385.248 75.4448 385.248 75.4599V75.4656C385.248 75.4807 385.243 75.4953 385.232 75.5065L365.852 97.2844L375.923 87.2128C376.651 86.5575 377.323 85.9477 377.943 85.3846C381.792 81.8911 383.659 80.1971 384.563 80.61C384.921 80.7737 385.129 81.2682 385.248 82.1128V125.245C385.248 125.279 385.276 125.306 385.31 125.306H398.735C398.769 125.306 398.797 125.279 398.797 125.245V73.5702C398.797 73.5683 398.799 73.5673 398.8 73.5686V73.5686C398.802 73.57 398.804 73.5689 398.804 73.5669C398.802 73.3907 398.799 73.2178 398.797 73.048V69.0222C398.889 65.5608 399.343 64.0664 400.838 62.2975L404.851 58.2846L404.959 58.1799C404.959 58.1795 404.959 58.1788 404.958 58.1791V58.1791C404.958 58.1795 404.957 58.1788 404.958 58.1784L413.58 49.5559L413.58 49.5557C413.581 49.5552 413.582 49.5552 413.582 49.5558V49.5558C413.582 49.5564 413.583 49.5565 413.584 49.556L419.124 44.0157C419.125 44.015 419.125 44.0138 419.124 44.0134V44.0134C419.123 44.0131 419.123 44.0126 419.123 44.0121V36.0687C419.123 36.0347 419.095 36.0071 419.061 36.0071H412.359C412.309 36.0071 412.28 35.9496 412.31 35.909L422.703 21.8273Z" fill="white"/>
</svg>
